<svg width="43" height="43" viewBox="0 0 43 43" fill="none" xmlns="http://www.w3.org/2000/svg">
<g clip-path="url(#clip0)">
<path d="M42.5 0H0V42.5H42.5V0Z" fill="#E9E9ED"/>
<path d="M10.9 17.5C10.9 17.5 10.6 16 12.8 15.8C15 15.6 15.2 17.5 15.2 17.5L15.4 24H11V17.5H10.9Z" fill="#1D2088"/>
<path d="M18.6 12.2H35.4C35.4 12.2 37.2 12.2 37.2 13.7C37.2 15.2 37.2 18.6 37.2 18.6C37.2 18.6 37.6 19.9 34.6 19.9C31.6 19.9 29.8 19.9 29.4 19.9C29.1 19.9 18.8 19.9 18.8 19.9C18.8 19.9 16.4 19.9 16.9 18.1V13.2C17 13.2 17 12.4 18.6 12.2Z" fill="#00A0E9"/>
<path d="M25.4 16.7H28.9C28.9 16.7 29.3 16.7 29.2 16.9C29.1 17.1 29 17.1 29 17.1H25.5C25.4 17.1 25 16.8 25.4 16.7Z" fill="black"/>
<path d="M36.1 17.4H18.1V18.1H36.1V17.4Z" fill="white" stroke="#898989" stroke-width="0.25" stroke-miterlimit="10"/>
<path d="M36.1 18.1H18.1V18.8H36.1V18.1Z" fill="white" stroke="#898989" stroke-width="0.25" stroke-miterlimit="10"/>
<path d="M36.1 18.7H18.1V19.4H36.1V18.7Z" fill="white" stroke="#898989" stroke-width="0.25" stroke-miterlimit="10"/>
<path d="M16.9 13.9C16.9 13.9 16.7 12.3 18.7 12.1C20.7 11.9 35.3 12.1 35.3 12.1C35.3 12.1 37.4 12.2 37.3 13.9H16.9Z" fill="#1D2088"/>
<path d="M15.1 33.8H24.5C24.5 33.8 26 33.7 25.5 35.1C25.5 35.1 25.4 35.8 24.3 35.6H15.3L15 35.5C15 35.5 14.4 35.7 14.1 34.9C14 34 15.1 33.8 15.1 33.8Z" fill="#1D2088"/>
<path d="M24.1 34.1L27.6 41C27.6 41 28.2 42.1 26.8 42.3C26.8 42.3 26.1 42.6 25.9 41.7L22.6 35.2V34.9C22.6 34.9 22.2 34.6 22.8 34C23.4 33.4 24.1 34.1 24.1 34.1Z" fill="#1D2088"/>
<path d="M16.8 36L9.2 42.2C9.2 42.2 8 43.2 7.5 41.9C7.5 41.9 7.1 41.3 8.1 40.7L15.3 34.8L15.6 34.7C15.6 34.7 16 34.1 16.7 34.6C17.6 35.1 16.8 36 16.8 36Z" fill="#1D2088"/>
<path d="M25.5 38.9H11.8V39.6H25.5V38.9Z" fill="#1D2088"/>
<path d="M19.7 19.3L19.4 19.2C19.3 19.2 19.2 19.1 19.3 19L19.9 16.2C19.9 16.1 20 16 20.1 16.1L20.4 16.2C20.5 16.2 20.6 16.3 20.5 16.4L19.9 19.2C19.9 19.3 19.8 19.4 19.7 19.3Z" fill="#006934"/>
<path d="M19.9 15.8L20.7 16C20.7 16 20.8 16 20.7 16.2C20.7 16.2 20.7 16.3 20.6 16.3L19.8 16.1C19.8 16.1 19.7 16.1 19.7 16C19.8 15.8 19.9 15.8 19.9 15.8Z" fill="#006934"/>
<path d="M20 16.1L20.6 16.2C20.6 16.2 20.7 16.2 20.6 16.4C20.6 16.4 20.6 16.5 20.5 16.5L20 16.4C20 16.4 20 16.4 20 16.3C19.9 16.1 20 16.1 20 16.1Z" fill="black"/>
<path d="M20.1 15.8L20.5 15.9L21 13.3H20.8L20.1 15.8Z" fill="#DCDDDD"/>
<path d="M20.3 17L19.6 17.9C19.5 18 19.3 18.1 19.1 18L18.7 17.7C18.6 17.6 18.5 17.4 18.6 17.2L19.3 16.3C19.4 16.2 19.6 16.1 19.8 16.2L20.2 16.5C20.4 16.6 20.4 16.9 20.3 17Z" fill="#E89678"/>
<path d="M12.8 15.7C11.9 15.7 11.1 15 11.1 14V11.3C11.1 10.4 11.8 9.6 12.8 9.6C13.7 9.6 14.5 10.3 14.5 11.3V14C14.4 14.9 13.7 15.7 12.8 15.7Z" fill="#E89678"/>
<path d="M11.7 14V15.3C11.7 15.3 10.6 15.9 10.3 14.1V10.3C10.3 10.3 10.3 9.1 11.9 9.3H14C14 9.3 15.2 9.7 15 10.6C14.8 11.5 14.5 11.2 14.5 11.2L11.7 11.3V12.3L11.1 12.4V13C11.1 13 11 14.3 11.7 14Z" fill="black"/>
<path d="M13.9 15.2H11.7V16.1H13.9V15.2Z" fill="#1D2088"/>
<path d="M11.4 18.1C11.4 18.1 11.1 17 12 16.7C12.9 16.4 13.5 18.1 13.5 18.1L15 20.5L18.4 17.1L19.7 18.3C19.7 18.3 17.2 21.8 16.4 21.9C16.3 22 14.8 23 12.8 21L11.4 18.1Z" fill="#1D2088"/>
<path d="M8.5 36.4L8.2 37.8L8.9 38V37.6L10.1 37.7L10.3 38.2L10.7 38.4L11.6 37.9L12.6 37.1C12.6 37.1 12 36.1 11.1 36.5H8.5V36.4Z" fill="black"/>
<path d="M16.6 31.3L15.8 32.9L16.3 33.4H16.9V33L17.5 33.1L18 33.2V33.7H20.6V33.6C20.6 33.6 20.2 32 18.9 32.3L18.2 32.2V31.8L16.6 31.3Z" fill="black"/>
<path d="M10.6 23.1C10.6 23.1 8.4 24.4 10.2 26.3L8.4 36.4H10.9L12.8 26.3L13.9 25.8H15L18.3 26.8L16.2 31.4L18.6 31.9L20.6 27.4C20.6 27.4 21.5 26 20.6 25.2C19.7 24.4 15.4 23.3 15.4 23.3L10.6 23.1Z" fill="black"/>
<path d="M12.7656 4.88916L12.5996 5.104C11.8525 4.50993 11.208 4.07373 10.666 3.79541V6.28076H10.3853V3.46582C9.91325 4.02897 9.27848 4.5734 8.48096 5.09912L8.30518 4.86963C9.53239 4.13721 10.3657 3.27051 10.8052 2.26953H8.40527V2.00098H12.6558V2.26953H11.1104C10.9899 2.52832 10.8418 2.80013 10.666 3.08496V3.48535C11.5986 4.02572 12.2985 4.49365 12.7656 4.88916ZM17.4604 5.89502C17.4604 6.03011 17.4116 6.12451 17.314 6.17822C17.2179 6.23193 17.0007 6.25879 16.6621 6.25879C16.5856 6.25879 16.5116 6.25716 16.4399 6.25391L16.3594 5.98047C16.4831 5.99023 16.6035 5.99512 16.7207 5.99512C16.9583 5.99512 17.0967 5.98535 17.1357 5.96582C17.1748 5.94629 17.1943 5.91455 17.1943 5.87061V4.66455H15.7808V6.12939H15.5098V4.66455H14.084C14.0042 5.34977 13.8325 5.87467 13.5688 6.23926L13.3345 6.07568C13.6714 5.57764 13.8398 4.97705 13.8398 4.27393V1.979H17.4604V5.89502ZM17.1943 3.16064V2.25H15.7808V3.16064H17.1943ZM15.5098 3.16064V2.25H14.1108V3.16064H15.5098ZM17.1943 4.40576V3.43408H15.7808V4.40576H17.1943ZM15.5098 4.40576V3.43408H14.1108V4.40576H15.5098Z" fill="#E60012"/>
<path d="M21.748 4.7832H18.8242V3.58398C18.6823 3.74935 18.5423 3.89323 18.4043 4.01562L18.2441 3.88086C18.6204 3.53841 18.9232 3.13672 19.1523 2.67578L19.3594 2.74023L19.1602 3.0918H20.1328C20.1003 3.01367 20.0384 2.90039 19.9473 2.75195L20.1445 2.69141C20.2161 2.79818 20.2826 2.93164 20.3438 3.0918H21.6992V3.29297H20.3398V3.57617H21.5234V3.76758H20.3398V4.08008H21.5273V4.26758H20.3398V4.5918H21.748V4.7832ZM20.1367 3.57617V3.29297H19.0312V3.57617H20.1367ZM20.1367 4.07227V3.76758H19.0312V4.07227H20.1367ZM20.1367 4.5918V4.26758H19.0312V4.5918H20.1367ZM21.4473 6.1875H21.2402V5.97656H18.9766V6.1875H18.7676V5.07617H21.4473V6.1875ZM21.2402 5.7793V5.2793H18.9766V5.7793H21.2402ZM25.7754 6.00781L25.6953 6.21289C25.237 6.10352 24.8398 5.95638 24.5039 5.77148C24.1198 5.97201 23.7012 6.11719 23.248 6.20703L23.1406 6.01562C23.5846 5.9375 23.9727 5.8125 24.3047 5.64062C24.0938 5.47656 23.9232 5.3151 23.793 5.15625C23.6549 5.26432 23.5176 5.35742 23.3809 5.43555L23.2324 5.2832C23.4225 5.18034 23.5638 5.08724 23.6562 5.00391C23.5938 4.92839 23.5391 4.85807 23.4922 4.79297L23.6523 4.66406C23.6836 4.71224 23.737 4.77865 23.8125 4.86328C23.9388 4.75521 24.0456 4.61133 24.1328 4.43164L23.4609 4.46094L23.4121 4.25195C23.735 4.14388 24.0788 3.96224 24.4434 3.70703L23.5566 3.75586L23.5195 3.54883C23.8698 3.39128 24.2142 3.10156 24.5527 2.67969L24.752 2.75586C24.4876 3.10352 24.2116 3.36328 23.9238 3.53516C24.1243 3.52995 24.3978 3.51172 24.7441 3.48047C24.929 3.33333 25.0996 3.1849 25.2559 3.03516L25.4609 3.12891C24.9505 3.61198 24.4408 3.98372 23.9316 4.24414C24.2598 4.23893 24.7077 4.20312 25.2754 4.13672C25.2077 4.03255 25.1237 3.92188 25.0234 3.80469L25.1992 3.69531C25.4505 3.99479 25.6413 4.27799 25.7715 4.54492L25.5957 4.64844C25.5423 4.53385 25.4785 4.42318 25.4043 4.31641C25.0905 4.35417 24.7435 4.38607 24.3633 4.41211C24.2865 4.57878 24.2174 4.70378 24.1562 4.78711H25.3965V4.98438C25.1374 5.28646 24.9062 5.50651 24.7031 5.64453C25.082 5.82682 25.4395 5.94792 25.7754 6.00781ZM25.1152 4.98438H23.9844C23.974 5 23.9629 5.01302 23.9512 5.02344C24.1243 5.22656 24.3073 5.39323 24.5 5.52344C24.7018 5.39583 24.9069 5.21615 25.1152 4.98438ZM23.2832 2.77539C22.9707 3.18164 22.6777 3.47396 22.4043 3.65234L22.2676 3.49609C22.5501 3.32292 22.8249 3.05208 23.0918 2.68359L23.2832 2.77539ZM23.4043 3.58789C23.2858 3.79883 23.1576 3.99609 23.0195 4.17969V6.19531H22.8086V4.46094C22.6523 4.63021 22.5085 4.77279 22.377 4.88867L22.2324 4.7207C22.5827 4.43424 22.9121 4.03125 23.2207 3.51172L23.4043 3.58789ZM27.6152 5.91602C27.6152 5.99284 27.5931 6.05924 27.5488 6.11523C27.5046 6.17122 27.4036 6.19922 27.2461 6.19922C27.1667 6.19922 27.0768 6.19401 26.9766 6.18359L26.9082 5.97656C27.0202 5.98828 27.1263 5.99414 27.2266 5.99414C27.3099 5.99414 27.3633 5.98633 27.3867 5.9707C27.4115 5.95378 27.4238 5.92057 27.4238 5.87109V4.83203H26.7363C26.6895 5.40625 26.5918 5.86458 26.4434 6.20703L26.2637 6.07227C26.4642 5.61914 26.5645 5.02604 26.5645 4.29297V2.80469H27.6152V5.91602ZM27.4238 3.69922V3.00391H26.7676V3.69922H27.4238ZM27.4238 4.63672V3.90039H26.7676L26.7559 4.63672H27.4238ZM29.7793 6.04883L29.6562 6.22852C29.3737 6.07357 29.1458 5.91081 28.9727 5.74023C28.8294 5.88607 28.6335 6.04167 28.3848 6.20703L28.2285 6.06055C28.4915 5.89779 28.6927 5.74284 28.832 5.5957C28.5833 5.29102 28.3965 4.8724 28.2715 4.33984H28.1602V6.20703H27.9609V2.80859H29.6758C29.6458 3.22656 29.6107 3.49805 29.5703 3.62305C29.5312 3.74805 29.4609 3.82747 29.3594 3.86133C29.2578 3.89388 29.0716 3.9056 28.8008 3.89648L28.7324 3.6875C28.8079 3.69401 28.8841 3.69727 28.9609 3.69727C29.1211 3.69727 29.2279 3.6888 29.2812 3.67188C29.3359 3.65365 29.3724 3.60938 29.3906 3.53906C29.4102 3.46745 29.4303 3.28906 29.4512 3.00391H28.1602V4.14062H29.6113C29.554 4.75391 29.3874 5.23503 29.1113 5.58398C29.2806 5.75326 29.5033 5.9082 29.7793 6.04883ZM29.3809 4.33984H28.4766C28.5872 4.80078 28.7513 5.16341 28.9688 5.42773C29.1862 5.14388 29.3236 4.78125 29.3809 4.33984ZM33.752 4.43164L33.6367 4.61133C33.3294 4.52018 33.0423 4.3776 32.7754 4.18359C32.5254 4.36849 32.2695 4.50846 32.0078 4.60352L31.8672 4.43164C32.1185 4.35612 32.3665 4.22982 32.6113 4.05273C32.4473 3.88867 32.3275 3.74023 32.252 3.60742L32.4277 3.50781C32.5189 3.66536 32.6322 3.80404 32.7676 3.92383C32.9499 3.76758 33.0911 3.55273 33.1914 3.2793H32.3359C32.1654 3.49544 32.0091 3.65951 31.8672 3.77148L31.7129 3.62891C32.0098 3.39453 32.2604 3.08073 32.4648 2.6875L32.6641 2.76367C32.6159 2.86263 32.5534 2.9681 32.4766 3.08008H33.6914V3.2793H33.4082C33.304 3.58919 33.1465 3.8457 32.9355 4.04883C33.1816 4.22201 33.4538 4.34961 33.752 4.43164ZM31.7969 4C31.7786 4.34115 31.6745 4.64779 31.4844 4.91992L31.332 4.77539C31.4466 4.60221 31.5267 4.41016 31.5723 4.19922H31.1992V5.95508C31.1992 6.00716 31.1777 6.0612 31.1348 6.11719C31.0931 6.17448 30.9857 6.20312 30.8125 6.20312C30.7461 6.20312 30.6849 6.19922 30.6289 6.19141L30.5117 5.97656C30.681 5.98958 30.8132 5.99609 30.9082 5.99609C30.9277 5.99609 30.9486 5.98633 30.9707 5.9668C30.9928 5.94727 31.0039 5.92773 31.0039 5.9082V4.46484C30.8099 4.95443 30.6074 5.33659 30.3965 5.61133L30.2598 5.45117C30.4941 5.14648 30.7064 4.72917 30.8965 4.19922H30.2754V4H31.1602C30.9935 3.80859 30.7884 3.62891 30.5449 3.46094L30.6914 3.32812C30.7865 3.39323 30.9069 3.48633 31.0527 3.60742C31.2376 3.39648 31.3841 3.19531 31.4922 3.00391H30.416V2.80469H31.7207V3.00391C31.5892 3.24609 31.418 3.49154 31.207 3.74023L31.3438 3.89258L31.2207 4H31.7969ZM33.5156 4.91602C33.5078 5.18815 33.4863 5.43359 33.4512 5.65234C33.416 5.87109 33.3802 6.00326 33.3438 6.04883C33.3086 6.0944 33.2637 6.13346 33.209 6.16602C33.1556 6.19987 32.9844 6.21224 32.6953 6.20312L32.5996 5.98828C32.6816 5.99479 32.7708 5.99805 32.8672 5.99805C33.013 5.99805 33.0996 5.99089 33.127 5.97656C33.1556 5.96224 33.1777 5.94141 33.1934 5.91406C33.209 5.88542 33.2272 5.79688 33.248 5.64844C33.2689 5.5 33.2878 5.32227 33.3047 5.11523H32.6367C32.5247 5.62956 32.194 5.99674 31.6445 6.2168L31.4922 6.05273C31.7122 5.98503 31.9115 5.86393 32.0898 5.68945C32.2682 5.51367 32.3822 5.32227 32.4316 5.11523H31.7969V4.91602H32.4805C32.5 4.81055 32.5117 4.67708 32.5156 4.51562L32.7168 4.52344C32.7168 4.62109 32.7057 4.75195 32.6836 4.91602H33.5156Z" fill="black"/>
<path d="M21.3 9C12.9 9 6 15.9 6 24.3C6 32.7 12.9 39.5 21.3 39.5C29.7 39.5 36.6 32.7 36.6 24.2C36.6 15.7 29.7 9 21.3 9ZM21.3 11.5C24.9 11.5 28.1 13 30.4 15.4L9.9 29.8C9.1 28.1 8.6 26.3 8.6 24.3C8.6 17.2 14.3 11.5 21.3 11.5ZM21.3 37C17.5 37 14.1 35.3 11.8 32.7L32.5 18.3C33.4 20.1 34 22.1 34 24.3C34.1 31.3 28.4 37 21.3 37Z" fill="#E60012"/>
</g>
<defs>
<clipPath id="clip0">
<rect width="42.5" height="42.5" fill="white"/>
</clipPath>
</defs>
</svg>
