<svg id="e1hso6ic1z441" xmlns="http://www.w3.org/2000/svg" xmlns:xlink="http://www.w3.org/1999/xlink" viewBox="0 0 387 752" shape-rendering="geometricPrecision" text-rendering="geometricPrecision"><style><![CDATA[#e1hso6ic1z441{pointer-events: all}#e1hso6ic1z441:hover #e1hso6ic1z449_tr {animation: e1hso6ic1z449_tr__tr 1000ms linear infinite normal forwards}@keyframes e1hso6ic1z449_tr__tr { 0% {transform: translate(156px,450px) rotate(0deg)} 100% {transform: translate(156px,450px) rotate(180deg)} }#e1hso6ic1z441:hover #e1hso6ic1z4410_tr {animation: e1hso6ic1z4410_tr__tr 1000ms linear infinite normal forwards}@keyframes e1hso6ic1z4410_tr__tr { 0% {transform: translate(253px,513px) rotate(0deg)} 100% {transform: translate(253px,513px) rotate(-225deg)} }#e1hso6ic1z441:hover #e1hso6ic1z4411_tr {animation: e1hso6ic1z4411_tr__tr 1000ms linear infinite normal forwards}@keyframes e1hso6ic1z4411_tr__tr { 0% {transform: translate(179.500000px,561.500000px) rotate(0deg)} 100% {transform: translate(179.500000px,561.500000px) rotate(315deg)} }#e1hso6ic1z441:hover #e1hso6ic1z4412_to {animation: e1hso6ic1z4412_to__to 1000ms linear infinite normal forwards}@keyframes e1hso6ic1z4412_to__to { 0% {transform: translate(194px,172px);animation-timing-function: cubic-bezier(0,0,0.580000,1)} 100% {transform: translate(194px,40px)} }#e1hso6ic1z441:hover #e1hso6ic1z4412 {animation: e1hso6ic1z4412_c_o 1000ms linear infinite normal forwards}@keyframes e1hso6ic1z4412_c_o { 0% {opacity: 1;animation-timing-function: cubic-bezier(0.995000,0.005000,1,0.005000)} 50% {opacity: 0} 100% {opacity: 0} }#e1hso6ic1z441:hover #e1hso6ic1z4426_to {animation: e1hso6ic1z4426_to__to 1000ms linear infinite normal forwards}@keyframes e1hso6ic1z4426_to__to { 0% {transform: translate(194px,310px);animation-timing-function: cubic-bezier(0,0,0.580000,1)} 100% {transform: translate(193.783500px,173px)} }#e1hso6ic1z441:hover #e1hso6ic1z4440_to {animation: e1hso6ic1z4440_to__to 1000ms linear infinite normal forwards}@keyframes e1hso6ic1z4440_to__to { 0% {transform: translate(194px,447px);animation-timing-function: cubic-bezier(0,0,0.580000,1)} 100% {transform: translate(193.783500px,310px)} }#e1hso6ic1z441:hover #e1hso6ic1z4440 {animation: e1hso6ic1z4440_c_o 1000ms linear infinite normal forwards}@keyframes e1hso6ic1z4440_c_o { 0% {opacity: 0;animation-timing-function: cubic-bezier(0.250000,1,0.250000,1)} 100% {opacity: 1} }]]></style><g id="e1hso6ic1z442"><g id="e1hso6ic1z443"><path id="e1hso6ic1z444" d="M375.228000,183.947000L371.229000,183.947000L371.229000,74.401900C371.229000,66.075800,369.590000,57.831300,366.403000,50.139100C363.217000,42.446800,358.547000,35.457400,352.660000,29.570000C346.772000,23.682600,339.783000,19.012400,332.091000,15.826200C324.398000,12.639900,316.154000,11,307.828000,11L75.741000,11C67.414900,11,59.170400,12.639900,51.478100,15.826100C43.785800,19.012400,36.796500,23.682500,30.909100,29.569900C25.021600,35.457300,20.351400,42.446600,17.165200,50.138900C13.978900,57.831100,12.339000,66.075700,12.339000,74.401700L12.339000,675.376000C12.339000,692.191000,19.018800,708.318000,30.908900,720.208000C42.799100,732.098000,58.925600,738.778000,75.740800,738.778000L307.827000,738.778000C324.643000,738.778000,340.769000,732.098000,352.659000,720.208000C364.549000,708.318000,371.229000,692.191000,371.229000,675.376000L371.229000,261.923000L375.228000,261.923000L375.228000,183.947000Z" fill="rgb(63,61,86)" stroke="none" stroke-width="1"/><path id="e1hso6ic1z445" d="M310.386000,27.495000L280.091000,27.495000C281.484000,30.910700,282.016000,34.616500,281.639000,38.286100C281.263000,41.955700,279.990000,45.476400,277.932000,48.538100C275.875000,51.599800,273.096000,54.108500,269.840000,55.843100C266.585000,57.577800,262.952000,58.485300,259.264000,58.485600L126.304000,58.485600C122.615000,58.485300,118.983000,57.577800,115.728000,55.843200C112.472000,54.108500,109.693000,51.599800,107.635000,48.538100C105.578000,45.476400,104.305000,41.955700,103.928000,38.286100C103.552000,34.616500,104.084000,30.910600,105.477000,27.495000L77.181400,27.495000C64.624000,27.495000,52.580900,32.483400,43.701400,41.362800C34.822000,50.242200,29.833600,62.285300,29.833600,74.842700L29.833600,674.935000C29.833600,681.153000,31.058200,687.310000,33.437700,693.055000C35.817100,698.799000,39.304800,704.019000,43.701400,708.415000C48.098100,712.812000,53.317600,716.299000,59.062100,718.679000C64.806600,721.058000,70.963500,722.283000,77.181300,722.283000L310.386000,722.283000C316.604000,722.283000,322.760000,721.058000,328.505000,718.679000C334.249000,716.300000,339.469000,712.812000,343.866000,708.415000C348.262000,704.019000,351.750000,698.799000,354.129000,693.055000C356.509000,687.310000,357.734000,681.153000,357.734000,674.935000L357.734000,74.842700C357.734000,68.624900,356.509000,62.468000,354.129000,56.723500C351.750000,50.979000,348.262000,45.759500,343.866000,41.362800C339.469000,36.966200,334.249000,33.478600,328.505000,31.099100C322.760000,28.719700,316.604000,27.495000,310.386000,27.495000Z" fill="rgb(255,255,255)" stroke="none" stroke-width="1"/><path id="e1hso6ic1z446" d="M194,696C211.121000,696,225,682.121000,225,665C225,647.879000,211.121000,634,194,634C176.879000,634,163,647.879000,163,665C163,682.121000,176.879000,696,194,696Z" fill="rgb(63,61,86)" stroke="none" stroke-width="1"/><path id="e1hso6ic1z447" d="M344,107L44,107L44,611L344,611L344,107Z" fill="rgb(230,230,230)" stroke="none" stroke-width="1"/></g><g id="e1hso6ic1z448"><g id="e1hso6ic1z449_tr" transform="translate(156,450) rotate(0)"><path id="e1hso6ic1z449" d="M219,458.484000L219,441.516000C210.332000,438.434000,204.856000,437.568000,202.100000,430.916000L202.100000,430.911000C199.334000,424.238000,202.625000,419.708000,206.547000,411.449000L194.551000,399.453000C186.355000,403.348000,181.777000,406.672000,175.089000,403.900000L175.084000,403.900000C168.422000,401.138000,167.550000,395.626000,164.484000,387L147.516000,387C144.460000,395.584000,143.584000,401.133000,136.916000,403.900000L136.911000,403.900000C130.238000,406.672000,125.718000,403.385000,117.449000,399.453000L105.453000,411.449000C109.364000,419.681000,112.672000,424.228000,109.900000,430.911000C107.133000,437.584000,101.584000,438.460000,93,441.516000L93,458.484000C101.568000,461.529000,107.133000,462.416000,109.900000,469.084000C112.682000,475.814000,109.301000,480.455000,105.453000,488.545000L117.449000,500.547000C125.650000,496.646000,130.228000,493.328000,136.911000,496.100000L136.916000,496.100000C143.584000,498.862000,144.455000,504.390000,147.516000,513L164.484000,513C167.539000,504.411000,168.422000,498.878000,175.126000,496.085000L175.131000,496.085000C181.757000,493.333000,186.261000,496.615000,194.545000,500.552000L206.542000,488.551000C202.636000,480.345000,199.323000,475.778000,202.090000,469.094000C204.856000,462.422000,210.427000,461.534000,219,458.484000ZM156,471C144.403000,471,135,461.597000,135,450C135,438.403000,144.403000,429,156,429C167.597000,429,177,438.403000,177,450C177,461.597000,167.597000,471,156,471Z" transform="translate(-156,-450)" fill="rgb(63,61,86)" stroke="none" stroke-width="1"/></g><g id="e1hso6ic1z4410_tr" transform="translate(253,513) rotate(0)"><path id="e1hso6ic1z4410" d="M302,519.599000L302,506.401000C295.258000,504.004000,291,503.331000,288.856000,498.157000L288.856000,498.153000C286.704000,492.963000,289.264000,489.439000,292.314000,483.016000L282.984000,473.686000C276.610000,476.715000,273.049000,479.300000,267.847000,477.144000L267.843000,477.144000C262.661000,474.996000,261.983000,470.709000,259.599000,464L246.401000,464C244.025000,470.676000,243.343000,474.992000,238.157000,477.144000L238.153000,477.144000C232.963000,479.300000,229.447000,476.744000,223.016000,473.686000L213.686000,483.016000C216.728000,489.419000,219.300000,492.955000,217.144000,498.153000C214.992000,503.343000,210.676000,504.025000,204,506.401000L204,519.599000C210.664000,521.967000,214.992000,522.657000,217.144000,527.843000C219.308000,533.078000,216.679000,536.687000,213.686000,542.980000L223.016000,552.314000C229.394000,549.280000,232.955000,546.700000,238.153000,548.856000L238.157000,548.856000C243.343000,551.004000,244.021000,555.303000,246.401000,562L259.599000,562C261.975000,555.320000,262.661000,551.016000,267.876000,548.844000L267.880000,548.844000C273.033000,546.704000,276.536000,549.256000,282.980000,552.318000L292.310000,542.984000C289.272000,536.602000,286.696000,533.049000,288.848000,527.851000C291,522.661000,295.332000,521.971000,302,519.599000ZM253,529.333000C243.980000,529.333000,236.667000,522.020000,236.667000,513C236.667000,503.980000,243.980000,496.667000,253,496.667000C262.020000,496.667000,269.333000,503.980000,269.333000,513C269.333000,522.020000,262.020000,529.333000,253,529.333000Z" transform="translate(-253,-513)" fill="rgb(63,61,86)" stroke="none" stroke-width="1"/></g><g id="e1hso6ic1z4411_tr" transform="translate(179.500000,561.500000) rotate(0)"><path id="e1hso6ic1z4411" d="M218,566.685000L218,556.315000C212.703000,554.432000,209.357000,553.903000,207.672000,549.838000L207.672000,549.835000C205.982000,545.757000,207.993000,542.988000,210.390000,537.941000L203.059000,530.610000C198.051000,532.991000,195.253000,535.022000,191.165000,533.328000L191.162000,533.328000C187.091000,531.640000,186.558000,528.271000,184.685000,523L174.315000,523C172.448000,528.246000,171.912000,531.637000,167.838000,533.328000L167.835000,533.328000C163.757000,535.022000,160.994000,533.013000,155.941000,530.610000L148.610000,537.941000C151,542.972000,153.022000,545.750000,151.328000,549.835000C149.637000,553.912000,146.246000,554.448000,141,556.315000L141,566.685000C146.236000,568.545000,149.637000,569.088000,151.328000,573.162000C153.028000,577.275000,150.962000,580.112000,148.610000,585.056000L155.941000,592.390000C160.953000,590.006000,163.750000,587.978000,167.835000,589.672000L167.838000,589.672000C171.912000,591.360000,172.445000,594.738000,174.315000,600L184.685000,600C186.552000,594.751000,187.091000,591.370000,191.188000,589.663000L191.191000,589.663000C195.240000,587.982000,197.993000,589.987000,203.056000,592.393000L210.387000,585.059000C208,580.044000,205.975000,577.253000,207.666000,573.169000C209.357000,569.091000,212.761000,568.549000,218,566.685000ZM179.500000,574.333000C172.413000,574.333000,166.667000,568.587000,166.667000,561.500000C166.667000,554.413000,172.413000,548.667000,179.500000,548.667000C186.587000,548.667000,192.333000,554.413000,192.333000,561.500000C192.333000,568.587000,186.587000,574.333000,179.500000,574.333000Z" transform="translate(-179.500000,-561.500000)" fill="rgb(63,61,86)" stroke="none" stroke-width="1"/></g></g><g id="e1hso6ic1z4412_to" transform="translate(194,172)"><g id="e1hso6ic1z4412" transform="translate(-194,-172)"><rect id="e1hso6ic1z4413" width="300" height="132" rx="24" ry="24" transform="matrix(1 0 0 1 44 106)" fill="rgb(2,212,49)" stroke="none" stroke-width="1"/><path id="e1hso6ic1z4414" d="M69.867800,186.815000C69.867800,186.815000,53.423200,188.154000,57.777300,217.956000C60.028900,220.111000,62.687800,221.800000,65.600100,222.925000L74.848000,191.784000L69.867800,186.815000Z" fill="rgb(255,255,255)" stroke="none" stroke-width="1"/><path id="e1hso6ic1z4415" d="M123.225000,186.815000C123.225000,186.815000,139.669000,188.154000,135.315000,217.956000C133.064000,220.111000,130.405000,221.800000,127.492000,222.925000L118.244000,191.770000L123.225000,186.815000Z" fill="rgb(255,255,255)" stroke="none" stroke-width="1"/><path id="e1hso6ic1z4416" d="M70.580300,146.566000C70.580300,146.566000,62.757400,169.222000,58.489700,167.074000C58.489700,167.074000,99.669600,202.468000,136.035000,167.074000C136.035000,167.074000,129.630000,155.746000,120.382000,146.544000L70.580300,146.566000Z" fill="rgb(255,255,255)" stroke="none" stroke-width="1"/><path id="e1hso6ic1z4417" d="M96.978000,174.879000C113.874000,174.879000,127.571000,161.250000,127.571000,144.439000C127.571000,127.628000,113.874000,114,96.978000,114C80.081700,114,66.384600,127.628000,66.384600,144.439000C66.384600,161.250000,80.081700,174.879000,96.978000,174.879000Z" fill="rgb(255,255,255)" stroke="none" stroke-width="1"/><path id="e1hso6ic1z4418" d="M123.225000,186.815000L69.867800,186.815000L64.887700,208.053000C64.887700,208.053000,61.965800,217.884000,65.607300,222.209000C69.248900,226.534000,103.232000,236.366000,128.219000,222.925000C130.399000,217.265000,130.651000,211.049000,128.939000,205.232000C126.060000,195.322000,128.219000,204.516000,128.219000,204.516000L123.225000,186.815000Z" fill="rgb(255,255,255)" stroke="none" stroke-width="1"/><path id="e1hso6ic1z4419" d="M86.233300,168.413000L107.593000,168.413000L107.593000,188.963000C107.593000,189.889000,107.410000,190.807000,107.054000,191.662000C106.697000,192.518000,106.175000,193.296000,105.517000,193.950000C104.859000,194.605000,104.077000,195.125000,103.217000,195.479000C102.357000,195.834000,101.435000,196.016000,100.504000,196.016000L93.307700,196.016000C91.427600,196.016000,89.624500,195.273000,88.295100,193.950000C86.965700,192.628000,86.218900,190.834000,86.218900,188.963000L86.218900,168.413000L86.233300,168.413000Z" fill="rgb(255,255,255)" stroke="none" stroke-width="1"/><path id="e1hso6ic1z4420" d="M96.978000,181.488000C113.874000,181.488000,127.571000,167.860000,127.571000,151.048000C127.571000,134.237000,113.874000,120.609000,96.978000,120.609000C80.081700,120.609000,66.384600,134.237000,66.384600,151.048000C66.384600,167.860000,80.081700,181.488000,96.978000,181.488000Z" fill="rgb(255,255,255)" stroke="none" stroke-width="1"/><path id="e1hso6ic1z4421" d="M67.025100,155.058000C68.595100,155.058000,69.867800,152.683000,69.867800,149.752000C69.867800,146.822000,68.595100,144.446000,67.025100,144.446000C65.455100,144.446000,64.182400,146.822000,64.182400,149.752000C64.182400,152.683000,65.455100,155.058000,67.025100,155.058000Z" fill="rgb(255,255,255)" stroke="none" stroke-width="1"/><path id="e1hso6ic1z4422" d="M126.780000,155.058000C128.350000,155.058000,129.623000,152.683000,129.623000,149.752000C129.623000,146.822000,128.350000,144.446000,126.780000,144.446000C125.210000,144.446000,123.937000,146.822000,123.937000,149.752000C123.937000,152.683000,125.210000,155.058000,126.780000,155.058000Z" fill="rgb(255,255,255)" stroke="none" stroke-width="1"/><g id="e1hso6ic1z4423"><line id="e1hso6ic1z4424" x1="141.324000" y1="180" x2="191.492000" y2="180" fill="none" stroke="rgb(255,255,255)" stroke-width="16"/><line id="e1hso6ic1z4425" x1="166.668000" y1="156" x2="166.668000" y2="206" fill="none" stroke="rgb(255,255,255)" stroke-width="16"/></g></g></g><g id="e1hso6ic1z4426_to" transform="translate(194,310)"><g id="e1hso6ic1z4426" transform="translate(-194,-310)"><rect id="e1hso6ic1z4427" width="300" height="132" rx="24" ry="24" transform="matrix(1 0 0 1 44 244)" fill="rgb(2,212,49)" stroke="none" stroke-width="1"/><path id="e1hso6ic1z4428" d="M69.867800,324.815000C69.867800,324.815000,53.423200,326.154000,57.777300,355.956000C60.028900,358.111000,62.687800,359.800000,65.600100,360.925000L74.848000,329.784000L69.867800,324.815000Z" fill="rgb(255,255,255)" stroke="none" stroke-width="1"/><path id="e1hso6ic1z4429" d="M123.225000,324.815000C123.225000,324.815000,139.669000,326.154000,135.315000,355.956000C133.064000,358.111000,130.405000,359.800000,127.492000,360.925000L118.244000,329.770000L123.225000,324.815000Z" fill="rgb(255,255,255)" stroke="none" stroke-width="1"/><path id="e1hso6ic1z4430" d="M70.580300,284.566000C70.580300,284.566000,62.757400,307.222000,58.489700,305.074000C58.489700,305.074000,99.669600,340.468000,136.035000,305.074000C136.035000,305.074000,129.630000,293.746000,120.382000,284.544000L70.580300,284.566000Z" fill="rgb(255,255,255)" stroke="none" stroke-width="1"/><path id="e1hso6ic1z4431" d="M96.978000,312.879000C113.874000,312.879000,127.571000,299.250000,127.571000,282.439000C127.571000,265.628000,113.874000,252,96.978000,252C80.081700,252,66.384600,265.628000,66.384600,282.439000C66.384600,299.250000,80.081700,312.879000,96.978000,312.879000Z" fill="rgb(255,255,255)" stroke="none" stroke-width="1"/><path id="e1hso6ic1z4432" d="M123.225000,324.815000L69.867800,324.815000L64.887700,346.053000C64.887700,346.053000,61.965800,355.884000,65.607300,360.209000C69.248900,364.534000,103.232000,374.366000,128.219000,360.925000C130.399000,355.265000,130.651000,349.049000,128.939000,343.232000C126.060000,333.322000,128.219000,342.516000,128.219000,342.516000L123.225000,324.815000Z" fill="rgb(255,255,255)" stroke="none" stroke-width="1"/><path id="e1hso6ic1z4433" d="M86.233300,306.413000L107.593000,306.413000L107.593000,326.963000C107.593000,327.889000,107.410000,328.807000,107.054000,329.662000C106.697000,330.518000,106.175000,331.296000,105.517000,331.950000C104.859000,332.605000,104.077000,333.125000,103.217000,333.479000C102.357000,333.834000,101.435000,334.016000,100.504000,334.016000L93.307700,334.016000C91.427600,334.016000,89.624500,333.273000,88.295100,331.950000C86.965700,330.628000,86.218900,328.834000,86.218900,326.963000L86.218900,306.413000L86.233300,306.413000Z" fill="rgb(255,255,255)" stroke="none" stroke-width="1"/><path id="e1hso6ic1z4434" d="M96.978000,319.488000C113.874000,319.488000,127.571000,305.860000,127.571000,289.048000C127.571000,272.237000,113.874000,258.609000,96.978000,258.609000C80.081700,258.609000,66.384600,272.237000,66.384600,289.048000C66.384600,305.860000,80.081700,319.488000,96.978000,319.488000Z" fill="rgb(255,255,255)" stroke="none" stroke-width="1"/><path id="e1hso6ic1z4435" d="M67.025100,293.058000C68.595100,293.058000,69.867800,290.683000,69.867800,287.752000C69.867800,284.822000,68.595100,282.446000,67.025100,282.446000C65.455100,282.446000,64.182400,284.822000,64.182400,287.752000C64.182400,290.683000,65.455100,293.058000,67.025100,293.058000Z" fill="rgb(255,255,255)" stroke="none" stroke-width="1"/><path id="e1hso6ic1z4436" d="M126.780000,293.058000C128.350000,293.058000,129.623000,290.683000,129.623000,287.752000C129.623000,284.822000,128.350000,282.446000,126.780000,282.446000C125.210000,282.446000,123.937000,284.822000,123.937000,287.752000C123.937000,290.683000,125.210000,293.058000,126.780000,293.058000Z" fill="rgb(255,255,255)" stroke="none" stroke-width="1"/><g id="e1hso6ic1z4437"><line id="e1hso6ic1z4438" x1="141.324000" y1="318" x2="191.492000" y2="318" fill="none" stroke="rgb(255,255,255)" stroke-width="16"/><line id="e1hso6ic1z4439" x1="166.668000" y1="294" x2="166.668000" y2="344" fill="none" stroke="rgb(255,255,255)" stroke-width="16"/></g></g></g><g id="e1hso6ic1z4440_to" transform="translate(194,447)"><g id="e1hso6ic1z4440" transform="translate(-194,-447)" opacity="0"><rect id="e1hso6ic1z4441" width="300" height="132" rx="24" ry="24" transform="matrix(1 0 0 1 44 381)" fill="rgb(2,212,49)" stroke="none" stroke-width="1"/><path id="e1hso6ic1z4442" d="M69.867800,461.815000C69.867800,461.815000,53.423200,463.154000,57.777300,492.956000C60.028900,495.111000,62.687800,496.800000,65.600100,497.925000L74.848000,466.784000L69.867800,461.815000Z" fill="rgb(255,255,255)" stroke="none" stroke-width="1"/><path id="e1hso6ic1z4443" d="M123.225000,461.815000C123.225000,461.815000,139.669000,463.154000,135.315000,492.956000C133.064000,495.111000,130.405000,496.800000,127.492000,497.925000L118.244000,466.770000L123.225000,461.815000Z" fill="rgb(255,255,255)" stroke="none" stroke-width="1"/><path id="e1hso6ic1z4444" d="M70.580300,421.566000C70.580300,421.566000,62.757400,444.222000,58.489700,442.074000C58.489700,442.074000,99.669600,477.468000,136.035000,442.074000C136.035000,442.074000,129.630000,430.746000,120.382000,421.544000L70.580300,421.566000Z" fill="rgb(255,255,255)" stroke="none" stroke-width="1"/><path id="e1hso6ic1z4445" d="M96.978000,449.879000C113.874000,449.879000,127.571000,436.250000,127.571000,419.439000C127.571000,402.628000,113.874000,389,96.978000,389C80.081700,389,66.384600,402.628000,66.384600,419.439000C66.384600,436.250000,80.081700,449.879000,96.978000,449.879000Z" fill="rgb(255,255,255)" stroke="none" stroke-width="1"/><path id="e1hso6ic1z4446" d="M123.225000,461.815000L69.867800,461.815000L64.887700,483.053000C64.887700,483.053000,61.965800,492.884000,65.607300,497.209000C69.248900,501.534000,103.232000,511.366000,128.219000,497.925000C130.399000,492.265000,130.651000,486.049000,128.939000,480.232000C126.060000,470.322000,128.219000,479.516000,128.219000,479.516000L123.225000,461.815000Z" fill="rgb(255,255,255)" stroke="none" stroke-width="1"/><path id="e1hso6ic1z4447" d="M86.233300,443.413000L107.593000,443.413000L107.593000,463.963000C107.593000,464.889000,107.410000,465.807000,107.054000,466.662000C106.697000,467.518000,106.175000,468.296000,105.517000,468.950000C104.859000,469.605000,104.077000,470.125000,103.217000,470.479000C102.357000,470.834000,101.435000,471.016000,100.504000,471.016000L93.307700,471.016000C91.427600,471.016000,89.624500,470.273000,88.295100,468.950000C86.965700,467.628000,86.218900,465.834000,86.218900,463.963000L86.218900,443.413000L86.233300,443.413000Z" fill="rgb(255,255,255)" stroke="none" stroke-width="1"/><path id="e1hso6ic1z4448" d="M96.978000,456.488000C113.874000,456.488000,127.571000,442.860000,127.571000,426.048000C127.571000,409.237000,113.874000,395.609000,96.978000,395.609000C80.081700,395.609000,66.384600,409.237000,66.384600,426.048000C66.384600,442.860000,80.081700,456.488000,96.978000,456.488000Z" fill="rgb(255,255,255)" stroke="none" stroke-width="1"/><path id="e1hso6ic1z4449" d="M67.025100,430.058000C68.595100,430.058000,69.867800,427.683000,69.867800,424.752000C69.867800,421.822000,68.595100,419.446000,67.025100,419.446000C65.455100,419.446000,64.182400,421.822000,64.182400,424.752000C64.182400,427.683000,65.455100,430.058000,67.025100,430.058000Z" fill="rgb(255,255,255)" stroke="none" stroke-width="1"/><path id="e1hso6ic1z4450" d="M126.780000,430.058000C128.350000,430.058000,129.623000,427.683000,129.623000,424.752000C129.623000,421.822000,128.350000,419.446000,126.780000,419.446000C125.210000,419.446000,123.937000,421.822000,123.937000,424.752000C123.937000,427.683000,125.210000,430.058000,126.780000,430.058000Z" fill="rgb(255,255,255)" stroke="none" stroke-width="1"/><g id="e1hso6ic1z4451"><line id="e1hso6ic1z4452" x1="141.324000" y1="455" x2="191.492000" y2="455" fill="none" stroke="rgb(255,255,255)" stroke-width="16"/><line id="e1hso6ic1z4453" x1="166.668000" y1="431" x2="166.668000" y2="481" fill="none" stroke="rgb(255,255,255)" stroke-width="16"/></g></g></g><path id="e1hso6ic1z4454" d="M12,74C12,39.206100,40.206100,11,75,11L308,11C342.794000,11,371,39.206100,371,74L371,106L12,106L12,74Z" fill="rgb(63,61,86)" stroke="none" stroke-width="1"/><path id="e1hso6ic1z4455" d="M30,75C30,48.490300,51.490300,27,78,27L309,27C336.062000,27,358,48.938000,358,76L358,107L30,107L30,75Z" fill="rgb(255,255,255)" stroke="none" stroke-width="1"/><rect id="e1hso6ic1z4456" width="178" height="47" rx="23.500000" ry="23.500000" transform="matrix(1 0 0 1 104 12)" fill="rgb(63,61,86)" stroke="none" stroke-width="1"/></g></svg>