<svg id="eeq4x662wiql1" xmlns="http://www.w3.org/2000/svg" xmlns:xlink="http://www.w3.org/1999/xlink" viewBox="0 0 670 750" shape-rendering="geometricPrecision" text-rendering="geometricPrecision"><style><![CDATA[#eeq4x662wiql1{pointer-events: all}#eeq4x662wiql1:hover #eeq4x662wiql6_ts {animation: eeq4x662wiql6_ts__ts 3300ms linear infinite normal forwards}@keyframes eeq4x662wiql6_ts__ts { 0% {transform: translate(321px,477.499969px) scale(1,1);animation-timing-function: step-start} 48.484848% {transform: translate(321px,477.499969px) scale(0,0);animation-timing-function: cubic-bezier(0,0,0.580000,1)} 57.575758% {transform: translate(321px,477.499969px) scale(1,1)} 100% {transform: translate(321px,477.499969px) scale(1,1)} }#eeq4x662wiql1:hover #eeq4x662wiql23_ts {animation: eeq4x662wiql23_ts__ts 3300ms linear infinite normal forwards}@keyframes eeq4x662wiql23_ts__ts { 0% {transform: translate(424px,247.500046px) scale(1,1);animation-timing-function: step-start} 3.030303% {transform: translate(424px,247.500046px) scale(0,0);animation-timing-function: cubic-bezier(0,0,0.580000,1)} 12.121212% {transform: translate(424px,247.500046px) scale(1,1)} 100% {transform: translate(424px,247.500046px) scale(1,1)} }#eeq4x662wiql1:hover #eeq4x662wiql40_ts {animation: eeq4x662wiql40_ts__ts 3300ms linear infinite normal forwards}@keyframes eeq4x662wiql40_ts__ts { 0% {transform: translate(321px,290px) scale(1,1);animation-timing-function: step-start} 12.121212% {transform: translate(321px,290px) scale(0,0);animation-timing-function: cubic-bezier(0,0,0.580000,1)} 21.212121% {transform: translate(321px,290px) scale(1,1)} 100% {transform: translate(321px,290px) scale(1,1)} }#eeq4x662wiql1:hover #eeq4x662wiql42_ts {animation: eeq4x662wiql42_ts__ts 3300ms linear infinite normal forwards}@keyframes eeq4x662wiql42_ts__ts { 0% {transform: translate(30.500000px,246.611000px) scale(1,1);animation-timing-function: step-start} 36.363636% {transform: translate(30.500000px,246.611000px) scale(0,1);animation-timing-function: cubic-bezier(0.420000,0,0.580000,1)} 48.484848% {transform: translate(30.500000px,246.611000px) scale(1,1)} 100% {transform: translate(30.500000px,246.611000px) scale(1,1)} }#eeq4x662wiql1:hover #eeq4x662wiql43_ts {animation: eeq4x662wiql43_ts__ts 3300ms linear infinite normal forwards}@keyframes eeq4x662wiql43_ts__ts { 0% {transform: translate(30.500000px,223.111000px) scale(1,1);animation-timing-function: step-start} 30.303030% {transform: translate(30.500000px,223.111000px) scale(0,1);animation-timing-function: cubic-bezier(0.420000,0,0.580000,1)} 42.424242% {transform: translate(30.500000px,223.111000px) scale(1,1)} 100% {transform: translate(30.500000px,223.111000px) scale(1,1)} }#eeq4x662wiql1:hover #eeq4x662wiql44_ts {animation: eeq4x662wiql44_ts__ts 3300ms linear infinite normal forwards}@keyframes eeq4x662wiql44_ts__ts { 0% {transform: translate(30.500000px,199.111000px) scale(1,1);animation-timing-function: step-start} 21.212121% {transform: translate(30.500000px,199.111000px) scale(0,1);animation-timing-function: cubic-bezier(0.420000,0,0.580000,1)} 33.333333% {transform: translate(30.500000px,199.111000px) scale(1,1)} 100% {transform: translate(30.500000px,199.111000px) scale(1,1)} }#eeq4x662wiql1:hover #eeq4x662wiql45_ts {animation: eeq4x662wiql45_ts__ts 3300ms linear infinite normal forwards}@keyframes eeq4x662wiql45_ts__ts { 0% {transform: translate(423.999793px,536.499985px) scale(1,1);animation-timing-function: step-start} 57.575758% {transform: translate(423.999793px,536.499985px) scale(0,0);animation-timing-function: cubic-bezier(0,0,0.580000,1)} 66.666667% {transform: translate(423.999793px,536.499985px) scale(1,1)} 100% {transform: translate(423.999793px,536.499985px) scale(1,1)} }#eeq4x662wiql1:hover #eeq4x662wiql47_ts {animation: eeq4x662wiql47_ts__ts 3300ms linear infinite normal forwards}@keyframes eeq4x662wiql47_ts__ts { 0% {transform: translate(417.500000px,440.611000px) scale(1,1);animation-timing-function: step-start} 66.666667% {transform: translate(417.500000px,440.611000px) scale(0,1);animation-timing-function: cubic-bezier(0.420000,0,0.580000,1)} 78.787879% {transform: translate(417.500000px,440.611000px) scale(1,1)} 100% {transform: translate(417.500000px,440.611000px) scale(1,1)} }#eeq4x662wiql1:hover #eeq4x662wiql48_ts {animation: eeq4x662wiql48_ts__ts 3300ms linear infinite normal forwards}@keyframes eeq4x662wiql48_ts__ts { 0% {transform: translate(417.500000px,464.610833px) scale(1,1);animation-timing-function: step-start} 75.757576% {transform: translate(417.500000px,464.610833px) scale(0,1);animation-timing-function: cubic-bezier(0.420000,0,0.580000,1)} 87.878788% {transform: translate(417.500000px,464.610833px) scale(1,1)} 100% {transform: translate(417.500000px,464.610833px) scale(1,1)} }#eeq4x662wiql1:hover #eeq4x662wiql49_ts {animation: eeq4x662wiql49_ts__ts 3300ms linear infinite normal forwards}@keyframes eeq4x662wiql49_ts__ts { 0% {transform: translate(417.500000px,488.111000px) scale(1,1);animation-timing-function: step-start} 84.848485% {transform: translate(417.500000px,488.111000px) scale(0,1);animation-timing-function: cubic-bezier(0.420000,0,0.580000,1)} 96.969697% {transform: translate(417.500000px,488.111000px) scale(1,1)} 100% {transform: translate(417.500000px,488.111000px) scale(1,1)} }]]></style><path id="eeq4x662wiql2" d="M553.889000,191.947000L549.891000,191.947000L549.891000,82.401900C549.891000,74.075800,548.251000,65.831300,545.064000,58.139100C541.878000,50.446800,537.208000,43.457400,531.321000,37.570000C525.433000,31.682600,518.444000,27.012400,510.752000,23.826200C503.059000,20.639900,494.815000,19,486.489000,19L254.402000,19C246.076000,19,237.831000,20.639900,230.139000,23.826100C222.447000,27.012400,215.458000,31.682500,209.570000,37.569900C203.683000,43.457300,199.012000,50.446600,195.826000,58.138900C192.640000,65.831100,191,74.075700,191,82.401700L191,683.376000C191,700.191000,197.680000,716.318000,209.570000,728.208000C221.460000,740.098000,237.587000,746.778000,254.402000,746.778000L486.488000,746.778000C503.304000,746.778000,519.430000,740.098000,531.320000,728.208000C543.211000,716.318000,549.890000,700.191000,549.890000,683.376000L549.890000,269.923000L553.889000,269.923000L553.889000,191.947000Z" transform="matrix(1 0 0 1 -38.50000000000003 -7.88900000000007)" fill="rgb(63,61,86)" stroke="none" stroke-width="1"/><path id="eeq4x662wiql3" d="M489.047000,35.495000L458.752000,35.495000C460.145000,38.910700,460.677000,42.616500,460.300000,46.286100C459.924000,49.955700,458.651000,53.476400,456.593000,56.538100C454.536000,59.599800,451.757000,62.108500,448.501000,63.843100C445.246000,65.577800,441.614000,66.485300,437.925000,66.485600L304.965000,66.485600C301.276000,66.485300,297.644000,65.577800,294.389000,63.843200C291.133000,62.108500,288.354000,59.599800,286.297000,56.538100C284.239000,53.476400,282.966000,49.955700,282.589000,46.286100C282.213000,42.616500,282.745000,38.910600,284.138000,35.495000L255.842000,35.495000C243.285000,35.495000,231.242000,40.483400,222.362000,49.362800C213.483000,58.242200,208.495000,70.285300,208.495000,82.842700L208.495000,682.935000C208.495000,689.153000,209.719000,695.310000,212.099000,701.055000C214.478000,706.799000,217.966000,712.019000,222.362000,716.415000C226.759000,720.812000,231.979000,724.300000,237.723000,726.679000C243.468000,729.058000,249.625000,730.283000,255.842000,730.283000L489.047000,730.283000C495.265000,730.283000,501.422000,729.058000,507.166000,726.679000C512.911000,724.300000,518.130000,720.812000,522.527000,716.415000C526.923000,712.019000,530.411000,706.799000,532.791000,701.055000C535.170000,695.310000,536.395000,689.153000,536.395000,682.935000L536.395000,682.935000L536.395000,82.842700C536.395000,76.624900,535.170000,70.468000,532.790000,64.723500C530.411000,58.979000,526.923000,53.759500,522.527000,49.362800C518.130000,44.966200,512.911000,41.478600,507.166000,39.099100C501.422000,36.719700,495.265000,35.495000,489.047000,35.495000L489.047000,35.495000Z" transform="matrix(1 0 0 1 -38.50000000000003 -7.88900000000007)" fill="rgb(255,255,255)" stroke="none" stroke-width="1"/><path id="eeq4x662wiql4" d="M372.661000,704C389.782000,704,403.661000,690.121000,403.661000,673C403.661000,655.879000,389.782000,642,372.661000,642C355.540000,642,341.661000,655.879000,341.661000,673C341.661000,690.121000,355.540000,704,372.661000,704Z" transform="matrix(1 0 0 1 -38.50000000000003 -7.88900000000007)" fill="rgb(63,61,86)" stroke="none" stroke-width="1"/><rect id="eeq4x662wiql5" width="292" height="503" rx="0" ry="0" transform="matrix(1 0 0 1 187.49999999999997 106.11099999999993)" fill="rgb(121,152,232)" stroke="none" stroke-width="1"/><g id="eeq4x662wiql6_ts" transform="translate(321,477.499969) scale(1,1)"><g id="eeq4x662wiql6" transform="translate(-321,-477.499969)"><path id="eeq4x662wiql7" d="M321,560C367.392000,560,405,522.392000,405,476C405,429.608000,367.392000,392,321,392C274.608000,392,237,429.608000,237,476C237,522.392000,274.608000,560,321,560Z" transform="matrix(1 0 0 1 -38.50000000000003 -7.88900000000007)" fill="rgb(245,245,245)" stroke="none" stroke-width="1"/><path id="eeq4x662wiql8" d="M288.846000,510C288.846000,510,268.527000,511.632000,273.907000,547.945000C276.689000,550.571000,279.974000,552.629000,283.573000,554L295,516.055000L288.846000,510Z" transform="matrix(1 0 0 1 -38.50000000000003 -7.88900000000007)" fill="rgb(253,165,125)" stroke="none" stroke-width="1"/><path id="eeq4x662wiql9" d="M354.154000,510C354.154000,510,374.473000,511.632000,369.093000,547.945000C366.311000,550.571000,363.026000,552.629000,359.427000,554L348,516.038000L354.154000,510Z" transform="matrix(1 0 0 1 -38.50000000000003 -7.88900000000007)" fill="rgb(253,165,125)" stroke="none" stroke-width="1"/><path id="eeq4x662wiql10" d="M289.812000,450.027000C289.812000,450.027000,280.228000,478.143000,275,475.477000C275,475.477000,325.449000,519.403000,370,475.477000C370,475.477000,362.153000,461.419000,350.824000,450L289.812000,450.027000Z" transform="matrix(1 0 0 1 -38.50000000000003 -7.88900000000007)" fill="rgb(51,51,51)" stroke="none" stroke-width="1"/><path id="eeq4x662wiql11" d="M322,485C342.987000,485,360,468.211000,360,447.500000C360,426.789000,342.987000,410,322,410C301.013000,410,284,426.789000,284,447.500000C284,468.211000,301.013000,485,322,485Z" transform="matrix(1 0 0 1 -38.50000000000003 -7.88900000000007)" fill="rgb(51,51,51)" stroke="none" stroke-width="1"/><path id="eeq4x662wiql12" d="M353.637000,510L288.441000,510L282.355000,536.219000C282.355000,536.219000,278.785000,548.357000,283.235000,553.696000C287.685000,559.035000,329.214000,571.173000,359.749000,554.580000C362.412000,547.592000,362.721000,539.918000,360.628000,532.736000C357.110000,520.502000,359.749000,531.852000,359.749000,531.852000L353.637000,510Z" transform="matrix(1 0 0 1 -38.50000000000003 -7.88900000000007)" opacity="0.1" fill="rgb(0,0,0)" stroke="none" stroke-width="1"/><path id="eeq4x662wiql13" d="M354.645000,510L289.441000,510L283.355000,536.219000C283.355000,536.219000,279.785000,548.357000,284.235000,553.696000C288.685000,559.035000,330.214000,571.173000,360.749000,554.580000C363.412000,547.592000,363.721000,539.918000,361.628000,532.736000C358.110000,520.502000,360.749000,531.852000,360.749000,531.852000L354.645000,510Z" transform="matrix(1 0 0 1 -38.50000000000003 -7.88900000000007)" opacity="0.1" fill="rgb(0,0,0)" stroke="none" stroke-width="1"/><path id="eeq4x662wiql14" d="M354.542000,510L288.533000,510L282.372000,536.219000C282.372000,536.219000,278.757000,548.357000,283.262000,553.696000C287.767000,559.035000,329.809000,571.173000,360.721000,554.580000C363.417000,547.592000,363.730000,539.918000,361.611000,532.736000C358.050000,520.502000,360.721000,531.852000,360.721000,531.852000L354.542000,510Z" transform="matrix(1 0 0 1 -38.50000000000003 -7.88900000000007)" fill="rgb(0,176,255)" stroke="none" stroke-width="1"/><path id="eeq4x662wiql15" d="M309.018000,488L335,488L335,513.313000C335,514.453000,334.777000,515.583000,334.344000,516.637000C333.910000,517.691000,333.275000,518.649000,332.474000,519.456000C331.674000,520.262000,330.723000,520.902000,329.677000,521.339000C328.631000,521.775000,327.509000,522,326.377000,522L317.623000,522C315.336000,522,313.143000,521.085000,311.526000,519.456000C309.908000,517.826000,309,515.617000,309,513.313000L309,488L309.018000,488Z" transform="matrix(1 0 0 1 -38.50000000000003 -7.88900000000007)" opacity="0.1" fill="rgb(0,0,0)" stroke="none" stroke-width="1"/><path id="eeq4x662wiql16" d="M309.018000,487L335,487L335,512.313000C335,513.453000,334.777000,514.583000,334.344000,515.637000C333.910000,516.691000,333.275000,517.649000,332.474000,518.456000C331.674000,519.262000,330.723000,519.902000,329.677000,520.339000C328.631000,520.775000,327.509000,521,326.377000,521L317.623000,521C315.336000,521,313.143000,520.085000,311.526000,518.456000C309.908000,516.826000,309,514.617000,309,512.313000L309,487L309.018000,487Z" transform="matrix(1 0 0 1 -38.50000000000003 -7.88900000000007)" fill="rgb(253,165,125)" stroke="none" stroke-width="1"/><path id="eeq4x662wiql17" d="M309,491.412000C317.380000,494.836000,326.604000,494.863000,335,491.489000L335,488L309,488L309,491.412000Z" transform="matrix(1 0 0 1 -38.50000000000003 -7.88900000000007)" opacity="0.1" fill="rgb(0,0,0)" stroke="none" stroke-width="1"/><path id="eeq4x662wiql18" d="M322,494C342.987000,494,360,476.987000,360,456C360,435.013000,342.987000,418,322,418C301.013000,418,284,435.013000,284,456C284,476.987000,301.013000,494,322,494Z" transform="matrix(1 0 0 1 -38.50000000000003 -7.88900000000007)" fill="rgb(253,165,125)" stroke="none" stroke-width="1"/><path id="eeq4x662wiql19" d="M286,442L358,442C358,442,351.853000,412.183000,324.638000,414.087000C297.423000,415.991000,286,442,286,442Z" transform="matrix(1 0 0 1 -38.50000000000003 -7.88900000000007)" fill="rgb(51,51,51)" stroke="none" stroke-width="1"/><path id="eeq4x662wiql20" d="M285,461C286.657000,461,288,458.090000,288,454.500000C288,450.910000,286.657000,448,285,448C283.343000,448,282,450.910000,282,454.500000C282,458.090000,283.343000,461,285,461Z" transform="matrix(1 0 0 1 -38.50000000000003 -7.88900000000007)" fill="rgb(253,165,125)" stroke="none" stroke-width="1"/><path id="eeq4x662wiql21" d="M358,461C360.209000,461,362,458.090000,362,454.500000C362,450.910000,360.209000,448,358,448C355.791000,448,354,450.910000,354,454.500000C354,458.090000,355.791000,461,358,461Z" transform="matrix(1 0 0 1 -38.50000000000003 -7.88900000000007)" fill="rgb(253,165,125)" stroke="none" stroke-width="1"/><path id="eeq4x662wiql22" d="M286,443L358,443C358,443,351.853000,413.183000,324.638000,415.087000C297.423000,416.991000,286,443,286,443Z" transform="matrix(1 0 0 1 -38.50000000000003 -7.88900000000007)" opacity="0.1" fill="rgb(0,0,0)" stroke="none" stroke-width="1"/></g></g><g id="eeq4x662wiql23_ts" transform="translate(424,247.500046) scale(1,1)"><g id="eeq4x662wiql23" transform="translate(-424,-247.500046)"><path id="eeq4x662wiql24" d="M424,331C470.392000,331,508,293.392000,508,247C508,200.608000,470.392000,163,424,163C377.608000,163,340,200.608000,340,247C340,293.392000,377.608000,331,424,331Z" transform="matrix(1 0 0 1 -38.50000000000003 -7.88900000000007)" fill="rgb(245,245,245)" stroke="none" stroke-width="1"/><path id="eeq4x662wiql25" d="M391.567000,278C391.567000,278,370.323000,279.632000,375.948000,315.960000C378.858000,318.580000,382.293000,320.633000,386.054000,322L398,284.040000L391.567000,278Z" transform="matrix(1 0 0 1 -38.50000000000003 -7.88900000000007)" fill="rgb(190,124,94)" stroke="none" stroke-width="1"/><path id="eeq4x662wiql26" d="M456.154000,278C456.154000,278,476.473000,279.632000,471.093000,315.960000C468.310000,318.580000,465.024000,320.633000,461.427000,322L450,284.040000L456.154000,278Z" transform="matrix(1 0 0 1 -38.50000000000003 -7.88900000000007)" fill="rgb(190,124,94)" stroke="none" stroke-width="1"/><path id="eeq4x662wiql27" d="M391.533000,218.044000C391.533000,218.044000,389.968000,222.594000,387.754000,227.818000C382.916000,239.369000,388.438000,283.538000,400.008000,288.238000C412.992000,293.570000,430.067000,296.911000,447.809000,290.451000C463.221000,284.835000,467.979000,234.473000,457.076000,222.256000C455.795000,220.817000,454.461000,219.386000,453.065000,218L391.533000,218.044000Z" transform="matrix(1 0 0 1 -38.50000000000003 -7.88900000000007)" fill="rgb(51,51,51)" stroke="none" stroke-width="1"/><path id="eeq4x662wiql28" d="M424.500000,253C445.211000,253,462,236.435000,462,216C462,195.565000,445.211000,179,424.500000,179C403.789000,179,387,195.565000,387,216C387,236.435000,403.789000,253,424.500000,253Z" transform="matrix(1 0 0 1 -38.50000000000003 -7.88900000000007)" fill="rgb(51,51,51)" stroke="none" stroke-width="1"/><path id="eeq4x662wiql29" d="M456.542000,278L390.533000,278L384.372000,304.714000C384.372000,304.714000,380.757000,317.080000,385.262000,322.521000C389.767000,327.961000,431.809000,340.327000,462.721000,323.421000C465.417000,316.301000,465.730000,308.483000,463.611000,301.165000C460.050000,288.700000,462.721000,300.265000,462.721000,300.265000L456.542000,278Z" transform="matrix(1 0 0 1 -38.50000000000003 -7.88900000000007)" opacity="0.1" fill="rgb(0,0,0)" stroke="none" stroke-width="1"/><path id="eeq4x662wiql30" d="M456.645000,278L391.441000,278L385.355000,304.714000C385.355000,304.714000,381.785000,317.080000,386.235000,322.521000C390.685000,327.961000,432.214000,340.327000,462.749000,323.421000C465.412000,316.301000,465.721000,308.483000,463.628000,301.165000C460.110000,288.700000,462.749000,300.265000,462.749000,300.265000L456.645000,278Z" transform="matrix(1 0 0 1 -38.50000000000003 -7.88900000000007)" opacity="0.1" fill="rgb(0,0,0)" stroke="none" stroke-width="1"/><path id="eeq4x662wiql31" d="M456.533000,278L390.533000,278L384.372000,304.714000C384.372000,304.714000,380.757000,317.080000,385.262000,322.521000C389.767000,327.961000,431.809000,340.327000,462.721000,323.421000C465.417000,316.301000,465.730000,308.483000,463.611000,301.165000C460.050000,288.700000,462.721000,300.265000,462.721000,300.265000L456.533000,278Z" transform="matrix(1 0 0 1 -38.50000000000003 -7.88900000000007)" fill="rgb(245,95,68)" stroke="none" stroke-width="1"/><path id="eeq4x662wiql32" d="M411.035000,257L437,257L437,282.313000C437,284.617000,436.092000,286.826000,434.474000,288.456000C432.857000,290.085000,430.664000,291,428.377000,291L419.623000,291C417.336000,291,415.143000,290.085000,413.526000,288.456000C411.908000,286.826000,411,284.617000,411,282.313000L411,257L411.035000,257Z" transform="matrix(1 0 0 1 -38.50000000000003 -7.88900000000007)" opacity="0.1" fill="rgb(0,0,0)" stroke="none" stroke-width="1"/><path id="eeq4x662wiql33" d="M411.035000,257L437,257L437,281.568000C437,283.804000,436.092000,285.949000,434.474000,287.530000C432.857000,289.112000,430.664000,290,428.377000,290L419.623000,290C417.336000,290,415.143000,289.112000,413.526000,287.530000C411.908000,285.949000,411,283.804000,411,281.568000L411,257L411.035000,257Z" transform="matrix(1 0 0 1 -38.50000000000003 -7.88900000000007)" fill="rgb(190,124,94)" stroke="none" stroke-width="1"/><path id="eeq4x662wiql34" d="M411,259.844000C419.380000,262.697000,428.604000,262.719000,437,259.908000L437,257L411,257L411,259.844000Z" transform="matrix(1 0 0 1 -38.50000000000003 -7.88900000000007)" opacity="0.1" fill="rgb(0,0,0)" stroke="none" stroke-width="1"/><path id="eeq4x662wiql35" d="M424.500000,262C445.211000,262,462,244.987000,462,224C462,203.013000,445.211000,186,424.500000,186C403.789000,186,387,203.013000,387,224C387,244.987000,403.789000,262,424.500000,262Z" transform="matrix(1 0 0 1 -38.50000000000003 -7.88900000000007)" fill="rgb(190,124,94)" stroke="none" stroke-width="1"/><path id="eeq4x662wiql36" d="M388,210L460,210C460,210,453.853000,181.248000,426.638000,183.084000C399.423000,184.920000,388,210,388,210Z" transform="matrix(1 0 0 1 -38.50000000000003 -7.88900000000007)" fill="rgb(51,51,51)" stroke="none" stroke-width="1"/><path id="eeq4x662wiql37" d="M388,229C390.209000,229,392,226.090000,392,222.500000C392,218.910000,390.209000,216,388,216C385.791000,216,384,218.910000,384,222.500000C384,226.090000,385.791000,229,388,229Z" transform="matrix(1 0 0 1 -38.50000000000003 -7.88900000000007)" fill="rgb(190,124,94)" stroke="none" stroke-width="1"/><path id="eeq4x662wiql38" d="M461,229C462.657000,229,464,226.090000,464,222.500000C464,218.910000,462.657000,216,461,216C459.343000,216,458,218.910000,458,222.500000C458,226.090000,459.343000,229,461,229Z" transform="matrix(1 0 0 1 -38.50000000000003 -7.88900000000007)" fill="rgb(190,124,94)" stroke="none" stroke-width="1"/><path id="eeq4x662wiql39" d="M388,211L460,211C460,211,453.853000,182.248000,426.638000,184.084000C399.423000,185.920000,388,211,388,211Z" transform="matrix(1 0 0 1 -38.50000000000003 -7.88900000000007)" opacity="0.1" fill="rgb(0,0,0)" stroke="none" stroke-width="1"/></g></g><g id="eeq4x662wiql40_ts" transform="translate(321,290) scale(1,1)"><g id="eeq4x662wiql40" transform="translate(-321,-290)"><path id="eeq4x662wiql41" d="M243.143000,294.210000L243.143000,294.210000L243.143000,293.211000L242.143000,293.211000L46,293.211000L46,176L320,176L320,293.211000L265.800000,293.211000L265.180000,293.211000L264.904000,293.766000C260.840000,301.959000,260.848000,310.135000,261.856000,316.229000C262.361000,319.278000,263.117000,321.820000,263.749000,323.602000C263.832000,323.838000,263.913000,324.060000,263.992000,324.269000C253.900000,320.212000,248.709000,313.055000,246.020000,306.734000C244.581000,303.349000,243.861000,300.204000,243.500000,297.905000C243.321000,296.757000,243.231000,295.824000,243.187000,295.181000C243.164000,294.860000,243.154000,294.613000,243.148000,294.448000C243.145000,294.365000,243.144000,294.303000,243.143000,294.263000L243.143000,294.220000L243.143000,294.211000L243.143000,294.211000L243.143000,294.210000Z" transform="matrix(1 0 0 1 -37.50000000000003 -10.15800000000004)" fill="rgb(255,255,255)" stroke="rgb(63,61,86)" stroke-width="2"/><g id="eeq4x662wiql42_ts" transform="translate(30.500000,246.611000) scale(1,1)"><path id="eeq4x662wiql42" d="M259,246L69,246L69,263L259,263L259,246Z" transform="translate(-69,-254.500000)" fill="rgb(121,152,232)" stroke="none" stroke-width="1"/></g><g id="eeq4x662wiql43_ts" transform="translate(30.500000,223.111000) scale(1,1)"><path id="eeq4x662wiql43" d="M282,223L69,223L69,239L282,239L282,223Z" transform="translate(-69,-231)" fill="rgb(121,152,232)" stroke="none" stroke-width="1"/></g><g id="eeq4x662wiql44_ts" transform="translate(30.500000,199.111000) scale(1,1)"><path id="eeq4x662wiql44" d="M227,199L69,199L69,215L227,215L227,199Z" transform="translate(-69,-207)" fill="rgb(121,152,232)" stroke="none" stroke-width="1"/></g></g></g><g id="eeq4x662wiql45_ts" transform="translate(423.999793,536.499985) scale(1,1)"><g id="eeq4x662wiql45" transform="translate(-423.999793,-536.499985)"><path id="eeq4x662wiql46" d="M480.200000,535.211000L426,535.211000L426,418L700,418L700,535.211000L503.857000,535.211000L502.857000,535.211000L502.857000,536.210000L502.857000,536.210000L502.857000,536.211000L502.857000,536.211000L502.857000,536.220000L502.857000,536.263000C502.856000,536.303000,502.855000,536.365000,502.852000,536.448000C502.847000,536.613000,502.836000,536.860000,502.813000,537.181000C502.769000,537.824000,502.679000,538.757000,502.500000,539.905000C502.139000,542.204000,501.419000,545.349000,499.980000,548.734000C497.292000,555.055000,492.100000,562.212000,482.008000,566.269000C482.087000,566.060000,482.168000,565.838000,482.251000,565.602000C482.883000,563.820000,483.639000,561.278000,484.144000,558.229000C485.152000,552.135000,485.160000,543.959000,481.096000,535.766000L480.820000,535.211000L480.200000,535.211000Z" transform="matrix(1 0 0 1 -38.50000000000003 -7.88900000000007)" fill="rgb(255,255,255)" stroke="rgb(63,61,86)" stroke-width="2"/><g id="eeq4x662wiql47_ts" transform="translate(417.500000,440.611000) scale(1,1)"><path id="eeq4x662wiql47" d="M615,441L456,441L456,456L615,456L615,441Z" transform="translate(-456,-448.500000)" fill="rgb(121,152,232)" stroke="none" stroke-width="1"/></g><g id="eeq4x662wiql48_ts" transform="translate(417.500000,464.610833) scale(1,1)"><path id="eeq4x662wiql48" d="M670,465L456,465L456,480L670,480L670,465Z" transform="translate(-456,-472.499833)" fill="rgb(121,152,232)" stroke="none" stroke-width="1"/></g><g id="eeq4x662wiql49_ts" transform="translate(417.500000,488.111000) scale(1,1)"><path id="eeq4x662wiql49" d="M646,488L456,488L456,504L646,504L646,488Z" transform="translate(-456,-496)" fill="rgb(121,152,232)" stroke="none" stroke-width="1"/></g></g></g></svg>