<svg width="43" height="43" viewBox="0 0 43 43" fill="none" xmlns="http://www.w3.org/2000/svg">
<g clip-path="url(#clip0)">
<path d="M42.5 0H0V42.5H42.5V0Z" fill="#E9E9ED"/>
<path d="M4.8 23.5C4.8 23.5 4.6 23.6 6.1 28.1L4.3 31.9V32.4L6.4 32.2L7.9 29C7.9 29 8.4 27.8 7.7 26.7L10.1 26.8C10.1 26.8 10.1 26.7 11 28.3L10.8 32.5H12.9L13.2 28.1C13.2 28.1 12.6 27 11.9 26L12.5 24.3V24L4.8 23.5Z" fill="black"/>
<path d="M7.2 17.1C7.2 17.1 5 18.3 4.9 20.3C4.7 22.3 4.9 23.6 4.9 23.6L12.4 24.2V20L16.1 19.8V19.2H13.2C13.2 19.2 12.4 19.2 11.4 17.8C11.3 17.6 9 18.5 7.2 17.1Z" fill="white" stroke="white" stroke-miterlimit="10"/>
<path d="M8.8 17.9L9.2 18.3L9 22.7L9.6 23.6L10.5 22.9L10.3 18.3L10.6 17.7C10.6 17.7 9 18.2 8.7 17.8C8.5 17.4 8.8 17.9 8.8 17.9Z" fill="#234C9F"/>
<path d="M6.9 18.9C6.9 18.9 5.6 19 6.6 20.1C7.6 21.2 8.5 21.8 8.5 21.8C8.5 21.8 11.1 21.9 12.1 21.8L12.6 21.4L12.1 20.4C12.1 20.4 10.1 21.2 9 20.4C7.9 19.6 6.9 18.9 6.9 18.9Z" fill="white"/>
<path d="M9.8 17.9C12.3405 17.9 14.4 15.8405 14.4 13.3C14.4 10.7595 12.3405 8.7 9.8 8.7C7.2595 8.7 5.2 10.7595 5.2 13.3C5.2 15.8405 7.2595 17.9 9.8 17.9Z" fill="#F5CFC7"/>
<path d="M12.8 21.4C13.1866 21.4 13.5 21.0866 13.5 20.7C13.5 20.3134 13.1866 20 12.8 20C12.4134 20 12.1 20.3134 12.1 20.7C12.1 21.0866 12.4134 21.4 12.8 21.4Z" fill="#F5CFC7"/>
<path d="M16.8 20.3C17.2971 20.3 17.7 19.8971 17.7 19.4C17.7 18.9029 17.2971 18.5 16.8 18.5C16.3029 18.5 15.9 18.9029 15.9 19.4C15.9 19.8971 16.3029 20.3 16.8 20.3Z" fill="#F5CFC7"/>
<path d="M5.2 13.6L5.6 13.2C5.6 13.2 5.9 13.2 5.9 12.3H11.7C11.7 12.3 13.1 12.1 13.5 11C13.5 11 14.5 12.2 14.5 13.6C14.5 13.6 14.9 11.8 14.2 10.7V9.5C14.2 9.5 14.4 8.2 14.4 7.7H9C9 7.7 3.6 8.6 5.2 13.6Z" fill="black"/>
<path d="M4.3 32.3V33.3H7V32.7L6.3 32.5V32.1H4.3V32.3Z" fill="#7B5925"/>
<path d="M10.8 32.5V33.4H13.5V32.8L12.8 32.6V32.2H10.8V32.5Z" fill="#7B5925"/>
<path d="M27.8 30.6C28.1866 30.6 28.5 30.2866 28.5 29.9C28.5 29.5134 28.1866 29.2 27.8 29.2C27.4134 29.2 27.1 29.5134 27.1 29.9C27.1 30.2866 27.4134 30.6 27.8 30.6Z" fill="#F5CFC7"/>
<path d="M34.2851 26.9866C36.4869 27.166 38.4136 25.571 38.5885 23.4242C38.7634 21.2774 37.1202 19.3917 34.9183 19.2123C32.7165 19.033 30.7898 20.6279 30.6149 22.7747C30.44 24.9216 32.0832 26.8073 34.2851 26.9866Z" fill="#E5D4BD"/>
<path d="M30.8 21.9L30.5 23.5C30.5 23.5 29.4 18 35 18.2C36.4 18.2 39.1 19.6 38.6 23.1C38.6 23.1 35.8 23.1 36.1 21.4C36.1 21.4 34.1 23.1 32.6 22.6L30.8 21.9Z" fill="black"/>
<path d="M35.7 26.6C35.7 26.6 39.7 26.6 38.7 32C38.7 32 35.2 32.6 32.3 32.6H32.2L31.9 30.1L30.3 31L28.4 30.8L28.5 29.8V29.3L30.8 29.5C30.8 29.5 32.3 27.5 33.4 27.1L33.5 26.9L35.7 26.6Z" fill="#35469B"/>
<path d="M33.8 26.8L34.1 27L33.5 31.1L34.1 31.9L34.8 31.4L35 27.1L35.4 26.7L33.8 26.8Z" fill="#C7251E"/>
<path d="M35.4 28.7L36.8 27.6C36.8 27.6 38.1 27.6 37.2 28.8C36.3 30 35 30.2 35 30.2L32 29.5L31.6 29.2L32.2 28.6L33.6 28.8C33.6 28.8 34.5 29.5 35.4 28.7Z" fill="#35469B"/>
<path d="M31.6 29.4C31.9866 29.4 32.3 29.0866 32.3 28.7C32.3 28.3134 31.9866 28 31.6 28C31.2134 28 30.9 28.3134 30.9 28.7C30.9 29.0866 31.2134 29.4 31.6 29.4Z" fill="#F5CFC7"/>
<path d="M32.2 32.7C32.2 32.7 32 33.2 32.7 34.1L31.3 35.5C31.3 35.5 30.7 37.9 30.7 39.6L32.3 39.7L32.8 36.2L34.3 34.8L35.8 34.9L35.4 35.9L35.1 39.7L36.9 39.8L37.2 35.3C37.2 35.3 37.8 34.3 38.4 33.4L38.7 32.1V31.8L32 32.1L32.2 32.7Z" fill="#514A43"/>
<path d="M32.4 39.8L32.3 40.7L29.8 40.5V40V39.8L30.3 39.5H30.8L32.4 39.6V39.8Z" fill="black"/>
<path d="M37 40L36.9 41L34.5 40.7V40.2V40L35 39.7H35.5L37 39.9V40Z" fill="black"/>
<path d="M1.4 30.1C1.4 30.1 0.900002 20.4 7 20.9C13 21.4 17.6 17.9 22.4 21.5C27.2 25.1 21.3 25.4 28.5 28.5C35.7 31.6 41.2 28 41.2 28" stroke="#CB6716" stroke-miterlimit="10"/>
<path d="M21.3 9C12.8 9 6 15.8 6 24.2C6 32.6 12.8 39.5 21.2 39.5C29.6 39.5 36.5 32.7 36.5 24.2C36.5 15.7 29.7 9 21.3 9ZM21.3 11.5C24.9 11.5 28.1 13 30.4 15.4L9.9 29.7C9.1 28.1 8.6 26.2 8.6 24.2C8.6 17.2 14.3 11.5 21.3 11.5ZM21.3 36.9C17.5 36.9 14.1 35.2 11.8 32.6L32.5 18.2C33.4 20 34 22 34 24.2C34.1 31.2 28.4 36.9 21.3 36.9Z" fill="#E60012"/>
<path d="M17.7656 4.88916L17.5996 5.104C16.8525 4.50993 16.208 4.07373 15.666 3.79541V6.28076H15.3853V3.46582C14.9132 4.02897 14.2785 4.5734 13.481 5.09912L13.3052 4.86963C14.5324 4.13721 15.3657 3.27051 15.8052 2.26953H13.4053V2.00098H17.6558V2.26953H16.1104C15.9899 2.52832 15.8418 2.80013 15.666 3.08496V3.48535C16.5986 4.02572 17.2985 4.49365 17.7656 4.88916ZM22.4604 5.89502C22.4604 6.03011 22.4116 6.12451 22.314 6.17822C22.2179 6.23193 22.0007 6.25879 21.6621 6.25879C21.5856 6.25879 21.5116 6.25716 21.4399 6.25391L21.3594 5.98047C21.4831 5.99023 21.6035 5.99512 21.7207 5.99512C21.9583 5.99512 22.0967 5.98535 22.1357 5.96582C22.1748 5.94629 22.1943 5.91455 22.1943 5.87061V4.66455H20.7808V6.12939H20.5098V4.66455H19.084C19.0042 5.34977 18.8325 5.87467 18.5688 6.23926L18.3345 6.07568C18.6714 5.57764 18.8398 4.97705 18.8398 4.27393V1.979H22.4604V5.89502ZM22.1943 3.16064V2.25H20.7808V3.16064H22.1943ZM20.5098 3.16064V2.25H19.1108V3.16064H20.5098ZM22.1943 4.40576V3.43408H20.7808V4.40576H22.1943ZM20.5098 4.40576V3.43408H19.1108V4.40576H20.5098Z" fill="#E60012"/>
<path d="M26.7598 6.11523H24.4082V5.9082H25.2402C25.1986 5.3457 25.0729 4.63086 24.8633 3.76367L25.0156 3.65625H24.6836V3.45117H25.5879C25.528 3.23893 25.4388 3.01367 25.3203 2.77539L25.5156 2.69531C25.6458 2.96615 25.7461 3.2181 25.8164 3.45117H26.6836V3.65625H26.3438L26.5117 3.75586C26.4401 4.3418 26.2897 5.05924 26.0605 5.9082H26.7598V6.11523ZM26.3125 3.65625H25.0566C25.2676 4.58724 25.3991 5.33789 25.4512 5.9082H25.8477C26.0911 5.04492 26.2461 4.29427 26.3125 3.65625ZM24.6191 4.47266C24.515 4.51823 24.3314 4.58984 24.0684 4.6875V5.91992C24.0684 6.02539 24.0358 6.09961 23.9707 6.14258C23.9056 6.18685 23.7904 6.20898 23.625 6.20898C23.5703 6.20898 23.5169 6.20703 23.4648 6.20312L23.4004 5.98438C23.4993 5.9974 23.623 6.00391 23.7715 6.00391C23.8301 6.00391 23.8594 5.9694 23.8594 5.90039V4.75195L23.3125 4.92773L23.2559 4.71289L23.8594 4.53516V3.64844H23.3086V3.44336H23.8594V2.69922H24.0684V3.44336H24.5234V3.64844H24.0684V4.46484C24.2311 4.41406 24.4043 4.34961 24.5879 4.27148L24.6191 4.47266ZM30.7676 6.04492L30.6113 6.20312C29.7793 5.61719 29.2448 4.81185 29.0078 3.78711C28.8385 4.72201 28.3079 5.52474 27.416 6.19531L27.2715 6.02344C27.5749 5.81641 27.8522 5.55729 28.1035 5.24609C28.3548 4.9349 28.5462 4.59245 28.6777 4.21875C28.8092 3.84375 28.8796 3.33724 28.8887 2.69922H29.1113C29.1035 3.4375 29.2507 4.0918 29.5527 4.66211C29.8548 5.23112 30.2598 5.69206 30.7676 6.04492Z" fill="black"/>
</g>
<defs>
<clipPath id="clip0">
<rect width="42.5" height="42.5" fill="white"/>
</clipPath>
</defs>
</svg>
