<svg width="43" height="43" viewBox="0 0 43 43" fill="none" xmlns="http://www.w3.org/2000/svg">
<g clip-path="url(#clip0)">
<path d="M42.5 -0.100006H0V42.4H42.5V-0.100006Z" fill="#E9E9ED"/>
<path d="M7 14.4L6.8 15.3C6.8 15.3 8 16.2 8.6 16.2C9.2 16.2 10.3 15.5 10.4 15.2C10.4 15.2 10.2 14.6 10.2 14.4C10.2 14.4 8.8 16.4 7 14.4Z" fill="#F3D7AD"/>
<path d="M6.8 15.2L5.7 15.6C5.7 15.6 6.4 17.4 7.7 17.5C7.7 17.5 8.3 17.5 8.6 16.1C8.6 16.1 9.1 17.3 9.4 17.5C9.7 17.7 11.3 16.8 11.5 15.5C11.5 15.5 10.5 15.1 10.4 15C10.4 15 9.1 16.1 8.6 16C8 16 7.1 15.6 6.8 15.2Z" fill="black"/>
<path d="M6.6 13C6.6 13 6.2 12.4 6.1 11.4C6 10.4 6.1 9.1 6.1 9.1C6.1 9.1 6.4 8 8.4 8.1C10.3 8.2 10.5 8.2 11 8.9C11.3 9.4 11 12.1 11 12.1C11 12.1 10.7 12.8 10.6 13.1C10.5 13.4 6.6 13.1 6.6 13Z" fill="#604C3F"/>
<path d="M10.7 10.7C10.7 9.7 9.5 10.3 9.5 10.3C9.5 10.3 8.5 10.5 7.6 10.3C6.5 9.8 6.5 10.7 6.5 10.7C6.4 10.9 6.5 13 6.5 13L6.7 13.7C6.8 14.6 7.6 15.3 8.6 15.3C9.6 15.3 10.4 14.5 10.5 13.5C10.5 13.5 10.5 13.5 10.5 13.4C10.6 13 10.7 11.7 10.7 10.7Z" fill="#F3D7AD"/>
<path d="M5.7 15.8C5.7 15.8 4.6 16.4 4 16.4C3.3 16.4 3.3 17.6 3.4 18C3.4 17.9 13.8 18 13.8 18V17.3C13.8 17.3 13.8 16.6 13.2 16.5C12.6 16.4 11.4 15.9 11.4 15.9C11.4 15.9 10.8 17.6 9.5 17.7C9.5 17.7 9.3 17.7 9 17.1C8.7 16.6 8.6 16.3 8.6 16.3C8.6 16.3 8.3 17.6 7.7 17.7C7.1 17.7 6.3 16.8 6.1 16.5C5.9 16 5.8 15.8 5.7 15.8Z" fill="#9FA0A0"/>
<path d="M29.9 15.9C29.9 15.9 30.3 17 29.3 17.7C29.1 17.8 29 17 29 17L29.9 15.9Z" fill="black"/>
<path d="M26.7 16.4V17.6C26.7 17.6 25.1 18.2 24.5 18.5C23.9 18.8 23.6 21.1 23.9 22.2C23.9 22.2 28.3 24 32.3 22.2C32.3 22.2 32.3 18.5 31.3 18.5C31.3 18.5 30.7 17.9 29.2 17.5L29.1 16.4H26.7Z" fill="#F39818"/>
<path d="M26.7 16.3V18C26.7 18 27.4 22.2 27.9 22.9C27.9 22.9 29.2 19.4 29.2 18L29.1 16.3H26.7Z" fill="#F7E1B5"/>
<path d="M30.6 14.4C30.6 16.1 28.2 17.8 28.2 17.8C28.2 17.8 25.6 16.2 25.6 14.4C25.6 12.7 26.7 11.3 28.1 11.3C29.5 11.3 30.6 12.7 30.6 14.4Z" fill="#F7E1B5"/>
<path d="M25.5 14.3C25.5 14.3 27.7 14.7 29.4 13.5C29.4 13.5 29.9 14.6 30.7 14.4C30.7 14.4 31.3 11.9 28.2 11.2C26.8 10.9 25.5 12.7 25.5 14.3Z" fill="black"/>
<path d="M19.7 13.3L19.5 14.2C19.5 14.2 20.7 15.1 21.3 15.1C21.9 15.1 23 14.4 23.1 14.1C23.1 14.1 22.9 13.5 22.9 13.3C22.9 13.3 21.5 15.3 19.7 13.3Z" fill="#F3D7AD"/>
<path d="M19.5 14.2L18.4 14.6C18.4 14.6 19.1 16.4 20.4 16.5C20.4 16.5 21 16.5 21.3 15.1C21.3 15.1 21.8 16.3 22.1 16.5C22.4 16.7 24 15.8 24.2 14.5C24.2 14.5 23.2 14.1 23.1 14C23.1 14 21.8 15.1 21.3 15C20.7 14.9 19.8 14.5 19.5 14.2Z" fill="#AECA1B"/>
<path d="M19.2 11.9C19.2 11.9 18.8 11.3 18.7 10.3C18.6 9.3 18.7 8 18.7 8C18.7 8 19.1 6.9 21 7C22.9 7.1 23.1 7.1 23.6 7.8C23.9 8.3 23.6 11 23.6 11C23.6 11 23.3 11.7 23.2 12C23.1 12.2 19.3 12 19.2 11.9Z" fill="black"/>
<path d="M23.4 9.6C23.4 8.6 22.2 9.2 22.2 9.2C22.2 9.2 21.2 9.4 20.3 9.2C19.2 8.7 19.2 9.6 19.2 9.6C19.1 9.8 19.3 11.9 19.3 11.9L19.5 12.6C19.6 13.5 20.4 14.2 21.4 14.2C22.4 14.2 23.2 13.4 23.3 12.4C23.3 12.4 23.3 12.4 23.3 12.3C23.3 11.9 23.4 10.6 23.4 9.6Z" fill="#F3D7AD"/>
<path d="M18.4 14.7C18.4 14.7 17.3 15.3 16.7 15.3C16.1 15.3 16 16.5 16 16.8C16 16.7 26.4 16.8 26.4 16.8V16.1C26.4 16.1 26.4 15.4 25.8 15.3C25.2 15.2 24 14.7 24 14.7C24 14.7 23.4 16.4 22.1 16.5C22.1 16.5 21.9 16.5 21.6 15.9C21.3 15.4 21.2 15.1 21.2 15.1C21.2 15.1 20.9 16.4 20.3 16.5C19.7 16.5 18.9 15.6 18.7 15.3C18.6 14.9 18.5 14.7 18.4 14.7Z" fill="#F5CD27"/>
<path d="M33.6 16.1L32.5 16.5C32.5 16.5 33.2 18.3 34.5 18.4C34.5 18.4 35.1 18.4 35.4 17C35.4 17 35.9 18.2 36.2 18.4C36.5 18.6 38.1 17.7 38.3 16.4C38.3 16.4 37.3 16 37.2 15.9C37.2 15.9 35.9 17 35.4 16.9C34.8 16.9 33.9 16.4 33.6 16.1Z" fill="black"/>
<path d="M33.8 15.3L33.6 16.2C33.6 16.2 34.8 17.1 35.4 17.1C36 17.1 37.1 16.4 37.2 16.1C37.2 16.1 37 15.5 37 15.3C37 15.2 35.6 17.2 33.8 15.3Z" fill="#F3D7AD"/>
<path d="M33.3 13.9C33.3 13.9 32.9 13.3 32.8 12.3C32.7 11.3 32.8 10 32.8 10C32.8 10 33.1 8.8 35 8.9C36.9 9 37.1 9 37.6 9.7C37.9 10.2 37.6 12.9 37.6 12.9C37.6 12.9 37.3 13.6 37.2 13.9C37.2 14.2 33.4 14 33.3 13.9Z" fill="#604C3F"/>
<path d="M37.5 11.6C37.5 10.6 36.3 11.2 36.3 11.2C36.3 11.2 35.3 11.4 34.4 11.2C33.3 10.7 33.3 11.6 33.3 11.6C33.2 11.8 33.4 13.9 33.4 13.9L33.6 14.6C33.7 15.5 34.5 16.2 35.5 16.2C36.5 16.2 37.3 15.4 37.4 14.4C37.4 14.4 37.4 14.4 37.4 14.3C37.4 13.9 37.5 12.6 37.5 11.6Z" fill="#F3D7AD"/>
<path d="M32.5 16.6C32.5 16.6 31.4 17.2 30.8 17.2C30.1 17.2 30.1 18.4 30.2 18.8C30.2 18.7 40.6 18.8 40.6 18.8V18.1C40.6 18.1 40.6 17.4 40 17.3C39.4 17.2 38.2 16.7 38.2 16.7C38.2 16.7 37.6 18.4 36.3 18.5C36.3 18.5 36.1 18.5 35.8 17.9C35.5 17.4 35.4 17.1 35.4 17.1C35.4 17.1 35.1 18.4 34.5 18.5C33.9 18.5 33.1 17.6 32.9 17.3C32.7 16.9 32.6 16.6 32.5 16.6Z" fill="#B8B718"/>
<path d="M29.5 24.1L29.2 25.2C29.2 25.2 30.8 26.4 31.5 26.4C32.2 26.4 33.7 25.4 33.9 25.1C33.9 25.1 33.7 24.3 33.7 24C33.7 24 31.8 26.6 29.5 24.1Z" fill="#F3D7AD"/>
<path d="M29.2 25.2L27.8 25.8C27.8 25.8 28.7 28.1 30.4 28.3C30.4 28.3 31.1 28.3 31.6 26.5C31.6 26.5 32.3 28.1 32.6 28.3C33 28.5 35.1 27.4 35.3 25.7C35.3 25.7 34 25.2 33.9 25.1C33.9 25.1 32.2 26.6 31.5 26.4C30.9 26.2 29.6 25.6 29.2 25.2Z" fill="black"/>
<path d="M29 22.3C29 22.3 28.5 21.5 28.4 20.3C28.3 19 28.4 17.3 28.4 17.3C28.4 17.3 28.8 15.7 31.3 15.9C33.8 16.1 34.1 16 34.8 17C35.2 17.7 34.8 21.2 34.8 21.2C34.8 21.2 34.5 22.2 34.3 22.5C34.1 22.8 29.1 22.5 29.1 22.5L29 22.3Z" fill="#604C3F"/>
<path d="M34.3 19.3C34.3 18 32.8 18.8 32.8 18.8C32.8 18.8 31.5 19 30.3 18.7C28.9 18.1 28.9 19.3 28.9 19.3C28.8 19.6 29 22.3 29 22.3L29.2 23.2C29.4 24.4 30.4 25.3 31.7 25.3C33 25.3 34.1 24.3 34.2 23C34.2 23 34.2 23 34.3 22.9C34.3 22.3 34.4 20.6 34.3 19.3Z" fill="#F3D7AD"/>
<path d="M27.8 25.9C27.8 25.9 26.4 26.6 25.6 26.7C24.7 26.7 24.7 28.3 24.8 28.7C24.8 28.6 38.4 28.7 38.4 28.7V27.7C38.4 27.7 38.4 26.7 37.6 26.6C36.8 26.5 35.3 25.8 35.3 25.8C35.3 25.8 34.5 28 32.8 28.1C32.8 28.1 32.6 28.1 32.2 27.4C31.8 26.7 31.7 26.3 31.7 26.3C31.7 26.3 31.3 28 30.5 28.1C29.7 28.1 28.7 27 28.5 26.6C28.3 26.2 28.1 25.9 28.1 25.9H27.8Z" fill="#004767"/>
<path d="M8.39999 24C8.39999 24 8.39999 25.3 7.09999 25.8C5.79999 26.3 5.09999 26.8 5.09999 26.8C5.09999 26.8 4.09999 26.8 3.99999 28L3.89999 28.6H16.3C16.3 28.6 16.2 27.1 15.5 26.9C15.5 26.9 12.7 25.8 12.2 25.2C12.2 25.2 11.7 24.3 11.9 23.8L8.49999 23.7L8.39999 24Z" fill="#CC9711"/>
<path d="M8.39999 23.6C8.39999 23.6 8.39999 24.4 8.19999 24.8C7.99999 25.2 8.19999 24.8 8.19999 24.8C8.19999 24.8 10.1 26 12 24.8C12 24.8 11.8 24.3 11.8 23.7L8.39999 23.6Z" fill="#F1D6AC"/>
<path d="M13.2 22.2C13.7 21.6 14 20.8 14 20C14 18 12.3 16.3 10.3 16.3C8.29999 16.3 6.59999 18 6.59999 20C6.59999 20.8 6.79999 21.5 7.19999 22.1C7.29999 22.2 8.79999 24.5 9.39999 24.8C9.89999 25.1 11.2 24.8 11.2 24.8C11.2 24.8 12.8 23.2 13 22.5C13.1 22.4 13.1 22.3 13.2 22.2Z" fill="#F1D6AC"/>
<path d="M13 17.5C12.8 17.2 12.5 17 12.3 16.9C12.1 15.7 10.8 15.2 10.5 15.3C8.69999 15.4 8.39999 16.7 8.39999 16.9C7.79999 17.2 7.29999 17.7 7.09999 18.1C6.39999 19.3 6.09999 21.3 7.69999 22.8C7.69999 22.8 7.49999 21.5 7.69999 20.9V19.9C7.69999 19.9 7.99999 18.4 8.59999 17.7C8.59999 17.7 9.69999 19.1 11 19.1C11 19.1 11.7 19.1 12.1 19.2C12.1 19.2 12.7 19.6 12.8 20.9C12.9 22.2 13 22.3 12.9 22.6C13 22.6 15.2 19.9 13 17.5Z" fill="#3A3730"/>
<path d="M8.09999 24.8C8.09999 24.8 9.89999 26 11.9 24.9L12 24.8C12 24.8 12.1 25.2 12.5 25.4C12.9 25.6 13.1 25.8 13.1 25.8C13.1 25.8 12.1 27.2 11.5 27.1C10.9 27 10.4 26 10.1 25.5C10.1 25.5 9.29999 27.2 8.59999 27.1C7.89999 27 7.09999 26 7.09999 25.8C7.09999 25.8 7.99999 25.3 8.09999 24.8Z" fill="#280206"/>
<path d="M16.8 35C16.8 35 16.2 36.7 16.6 39.1L16.9 42.5H20.7V39.9L20.9 40L21.9 42.5H24.9L25.3 38.3C25.3 38.3 25.8 35.6 25 34.9H16.8V35Z" fill="black"/>
<path d="M24.1 15.3C24.1 17.2 22.7 20.8 21 20.8C19.2 20.8 17.8 17.2 17.8 15.3C17.8 13.4 18.9 12.2 20.7 12.2C22.4 12.2 24.1 13.4 24.1 15.3Z" fill="#EECAA6"/>
<path d="M18.9 13.9L18.4 16.6H17.9C17.9 16.6 16.7 12.7 20.4 12.1C22.1 11.9 24.8 13.4 23.9 16.6L23.3 16.7L23.1 15.4C23.2 15.4 19.8 14.1 18.9 13.9Z" fill="#303E57"/>
<path d="M19.5 19.9L19.2 22.4L21 24.2L22.7 22.3L22.6 19.7C22.6 19.7 21.2 21.9 19.5 19.9Z" fill="#EECAA6"/>
<path d="M18.9 22.1H16.5C16.5 22.1 14.7 22.1 13.9 25.2L13 27.3L10.4 24.4L9.49998 25.4L12 29.5C12 29.5 13.2 31.5 14.2 29.1L16.3 26.2L16.9 35.1H25L25.3 26.6L27.4 29L27.9 29.8C27.9 29.8 29.2 31.4 29.9 29L32.3 25.3L31.3 24.2L28.8 27.2L27.3 24.3C27.3 24.3 26.9 21.9 24.9 21.8L22.7 22L21 23.8L18.9 22.1Z" fill="black"/>
<path d="M20.8 23.7L19.9 24.8L20.5 25.6L19.9 28.9V29.1L20.8 30.4L22.1 29L21.3 25.6L22 25L21 23.7H20.8Z" fill="#A11E32"/>
<path d="M18.8 22.1H16.9L19.8 24.9L21 23.8L22.1 25.3L25 21.9H22.7L21 23.8L18.8 22.1Z" fill="white"/>
<path d="M10.3 23.9L9.99999 23.5L9.79999 22.5C9.79999 22.5 9.79999 21.8 9.99999 21.3L10.1 21.1C10.1 21.1 10.2 20.4 9.59999 20.9L8.99999 22.2L8.59999 22.3C7.49999 21.7 6.39999 21.5 5.99999 22.1C5.69999 22.6 6.29999 23.6 7.49999 24.2C7.89999 24.4 8.19999 24.6 8.59999 24.7C8.69999 24.7 8.69999 24.7 8.79999 24.7C8.89999 24.8 9.09999 24.9 9.29999 25.2C9.39999 25.3 9.39999 25.4 9.49999 25.5L10.5 24.7L10.3 23.9Z" fill="#EECAA6"/>
<path d="M9.39999 25.4C9.39999 25.4 9.59999 25.6 9.39999 25.4V25.4Z" fill="#EECAA6"/>
<path d="M31.7 23.8L32 23.4L32.3 22.5C32.3 22.5 32.3 21.8 32.2 21.3V21C32.2 21 32.1 20.3 32.7 20.8L33.1 22.2L33.5 22.3C34.7 21.8 35.8 21.8 36.1 22.3C36.4 22.8 35.6 23.7 34.5 24.3C34.1 24.5 33.7 24.6 33.4 24.7C33.3 24.7 33.3 24.7 33.2 24.7C33.1 24.7 32.9 24.9 32.7 25.1C32.6 25.2 32.5 25.3 32.5 25.4L31.5 24.6L31.7 23.8Z" fill="#EECAA6"/>
<path d="M32.4 25.4C32.4 25.4 32.2 25.5 32.4 25.4V25.4Z" fill="#EECAA6"/>
<path d="M16.7656 4.88916L16.5996 5.104C15.8525 4.50993 15.208 4.07373 14.666 3.79541V6.28076H14.3853V3.46582C13.9132 4.02897 13.2785 4.5734 12.481 5.09912L12.3052 4.86963C13.5324 4.13721 14.3657 3.27051 14.8052 2.26953H12.4053V2.00098H16.6558V2.26953H15.1104C14.9899 2.52832 14.8418 2.80013 14.666 3.08496V3.48535C15.5986 4.02572 16.2985 4.49365 16.7656 4.88916ZM21.4604 5.89502C21.4604 6.03011 21.4116 6.12451 21.314 6.17822C21.2179 6.23193 21.0007 6.25879 20.6621 6.25879C20.5856 6.25879 20.5116 6.25716 20.4399 6.25391L20.3594 5.98047C20.4831 5.99023 20.6035 5.99512 20.7207 5.99512C20.9583 5.99512 21.0967 5.98535 21.1357 5.96582C21.1748 5.94629 21.1943 5.91455 21.1943 5.87061V4.66455H19.7808V6.12939H19.5098V4.66455H18.084C18.0042 5.34977 17.8325 5.87467 17.5688 6.23926L17.3345 6.07568C17.6714 5.57764 17.8398 4.97705 17.8398 4.27393V1.979H21.4604V5.89502ZM21.1943 3.16064V2.25H19.7808V3.16064H21.1943ZM19.5098 3.16064V2.25H18.1108V3.16064H19.5098ZM21.1943 4.40576V3.43408H19.7808V4.40576H21.1943ZM19.5098 4.40576V3.43408H18.1108V4.40576H19.5098Z" fill="#E60012"/>
<path d="M25.7441 3.29297H25.0527V3.61133C25.0527 3.63867 25.0632 3.66341 25.084 3.68555C25.1061 3.70638 25.1315 3.7168 25.1602 3.7168H25.6602V3.9082H25.1484C24.9479 3.9082 24.8477 3.81641 24.8477 3.63281V3.29297H24.4355V3.93164H23.4766V3.29297H23.0723C23.0423 3.65365 22.8581 3.92513 22.5195 4.10742L22.3555 3.95508C22.6732 3.78711 22.8398 3.56641 22.8555 3.29297H22.2637V3.08789H22.8809L22.8926 2.70703H23.0879C23.0918 2.82292 23.0892 2.94987 23.0801 3.08789H23.4766V2.71289H23.6836V3.08789H24.2285V2.71289H24.4355V3.08789H24.8477V2.70703H25.0527V3.08789H25.7441V3.29297ZM24.2285 3.73242V3.29297H23.6836V3.73242H24.2285ZM25.5879 5.01562H25.3887V4.39258H24.1152V4.83594H25.1992V5.71289C25.1992 5.81315 25.1712 5.88932 25.1152 5.94141C25.0592 5.99349 24.8555 6.01953 24.5039 6.01953L24.4316 5.80469C24.7441 5.80469 24.9167 5.80013 24.9492 5.79102C24.9831 5.7819 25 5.75586 25 5.71289V5.03906H24.1152V6.19531H23.9121V5.03906H23.0234V6.01953H22.8203V4.83594H23.9121V4.39258H22.6445V5.01562H22.4316V4.19141H25.5879V5.01562ZM29.7676 6.04492L29.6113 6.20312C28.7793 5.61719 28.2448 4.81185 28.0078 3.78711C27.8385 4.72201 27.3079 5.52474 26.416 6.19531L26.2715 6.02344C26.5749 5.81641 26.8522 5.55729 27.1035 5.24609C27.3548 4.9349 27.5462 4.59245 27.6777 4.21875C27.8092 3.84375 27.8796 3.33724 27.8887 2.69922H28.1113C28.1035 3.4375 28.2507 4.0918 28.5527 4.66211C28.8548 5.23112 29.2598 5.69206 29.7676 6.04492Z" fill="black"/>
<path d="M21.2 8C12.8 8 6 14.8 6 23.3C6 31.8 12.8 38.6 21.2 38.6C29.6 38.6 36.5 31.8 36.5 23.3C36.5 14.8 29.7 8 21.2 8ZM21.3 10.5C24.9 10.5 28.1 12 30.4 14.4L9.9 28.7C9.1 27 8.6 25.2 8.6 23.2C8.6 16.2 14.3 10.5 21.3 10.5ZM21.3 36C17.5 36 14.1 34.3 11.8 31.7L32.5 17.3C33.4 19.1 34 21.1 34 23.3C34 30.3 28.3 36 21.3 36Z" fill="#E60012"/>
</g>
<defs>
<clipPath id="clip0">
<rect width="42.5" height="42.5" fill="white"/>
</clipPath>
</defs>
</svg>
