<svg id="e8mnhz523tqo1" xmlns="http://www.w3.org/2000/svg" xmlns:xlink="http://www.w3.org/1999/xlink" viewBox="0 0 1117 859" shape-rendering="geometricPrecision" text-rendering="geometricPrecision"><style><![CDATA[#e8mnhz523tqo1{pointer-events: all}#e8mnhz523tqo1:hover #e8mnhz523tqo52_to {animation: e8mnhz523tqo52_to__to 1400ms linear infinite normal forwards}@keyframes e8mnhz523tqo52_to__to { 0% {transform: translate(1103.198927px,368.074995px);animation-timing-function: cubic-bezier(0,0,0.580000,1)} 57.142857% {transform: translate(459.200000px,368.080000px)} 100% {transform: translate(459.200000px,368.080000px)} }#e8mnhz523tqo1:hover #e8mnhz523tqo52 {animation: e8mnhz523tqo52_c_o 1400ms linear infinite normal forwards}@keyframes e8mnhz523tqo52_c_o { 0% {opacity: 0;animation-timing-function: cubic-bezier(0,0,0.580000,1)} 57.142857% {opacity: 1} 100% {opacity: 1} }#e8mnhz523tqo1:hover #e8mnhz523tqo53_ts {animation: e8mnhz523tqo53_ts__ts 1400ms linear infinite normal forwards}@keyframes e8mnhz523tqo53_ts__ts { 0% {transform: translate(675.940000px,227.170000px) scale(1,1)} 57.142857% {transform: translate(675.940000px,227.170000px) scale(1,1)} 64.285714% {transform: translate(675.940000px,227.170000px) scale(0.800000,0.800000)} 78.571429% {transform: translate(675.940000px,227.170000px) scale(1,1)} 100% {transform: translate(675.940000px,227.170000px) scale(1,1)} }#e8mnhz523tqo1:hover #e8mnhz523tqo53 {animation: e8mnhz523tqo53_f_o 1400ms linear infinite normal forwards}@keyframes e8mnhz523tqo53_f_o { 0% {fill-opacity: 0.250000} 57.142857% {fill-opacity: 0.250000} 78.571429% {fill-opacity: 1} 100% {fill-opacity: 1} }#e8mnhz523tqo1:hover #e8mnhz523tqo62_to {animation: e8mnhz523tqo62_to__to 1400ms linear infinite normal forwards}@keyframes e8mnhz523tqo62_to__to { 0% {transform: translate(459.199997px,368.075012px);animation-timing-function: cubic-bezier(0,0,0.580000,1)} 57.142857% {transform: translate(-186.059998px,366.540000px)} 100% {transform: translate(-186.059998px,366.540000px)} }#e8mnhz523tqo1:hover #e8mnhz523tqo62 {animation: e8mnhz523tqo62_c_o 1400ms linear infinite normal forwards}@keyframes e8mnhz523tqo62_c_o { 0% {opacity: 1;animation-timing-function: cubic-bezier(0,0,0.580000,1)} 57.142857% {opacity: 0} 100% {opacity: 0} }#e8mnhz523tqo1:hover #e8mnhz523tqo72_to {animation: e8mnhz523tqo72_to__to 1400ms linear infinite normal forwards}@keyframes e8mnhz523tqo72_to__to { 0% {transform: translate(918.256073px,368.074997px);animation-timing-function: cubic-bezier(0,0,0.580000,1)} 21.428571% {transform: translate(1086.260000px,368.084995px);animation-timing-function: step-start} 71.428571% {transform: translate(741.881849px,365.901665px);animation-timing-function: cubic-bezier(0,0,0.580000,1)} 92.857143% {transform: translate(918.691937px,367.153891px)} 100% {transform: translate(918.691937px,367.153891px)} }#e8mnhz523tqo1:hover #e8mnhz523tqo72 {animation: e8mnhz523tqo72_c_o 1400ms linear infinite normal forwards}@keyframes e8mnhz523tqo72_c_o { 0% {opacity: 1} 21.428571% {opacity: 0} 71.428571% {opacity: 0;animation-timing-function: cubic-bezier(0,0,0.580000,1)} 92.857143% {opacity: 1} 100% {opacity: 1} }]]></style><defs><clipPath id="e8mnhz523tqo2"><rect id="e8mnhz523tqo3" width="947" height="482" rx="0" ry="0" transform="matrix(1 0 0 1 139 111)" fill="rgb(255,255,255)" stroke="none" stroke-width="1"/></clipPath></defs><g id="e8mnhz523tqo4"><path id="e8mnhz523tqo5" d="M1089.160000,583.740000C1088.160000,584.470000,1087.240000,585.180000,1086.260000,585.870000C1082.640000,588.427000,1078.860000,590.736000,1074.930000,592.780000C1054.350000,603.630000,1028.980000,608.930000,1004.270000,612.530000C948.850000,620.610000,892.270000,622.180000,835.930000,623.720000C683.700000,627.900000,531.100000,632.070000,379.240000,622.440000C319.240000,618.640000,257.920000,612.280000,203.550000,592.780000C195.757000,589.993000,188.117000,586.920000,180.630000,583.560000C165.480000,576.750000,150.930000,568.460000,138.830000,558.560000C127.460000,549.280000,118.240000,538.620000,112.730000,526.500000C101.240000,501.260000,107.320000,472.910000,120.440000,448.170000C125.889000,438.161000,132.034000,428.548000,138.830000,419.400000C148.960000,405.470000,160.130000,391.940000,170.320000,378.020000C206.580000,328.540000,230.240000,265.940000,196.770000,215.190000C187.150000,200.610000,173.250000,187.810000,165.410000,172.590000C155.410000,153.120000,156.180000,131.500000,159.360000,110.500000C159.773000,107.833000,160.210000,105.193000,160.670000,102.580000C166.100000,71.440000,176.320000,37.890000,207.830000,18.450000C240.560000,-1.749990,287.040000,-0.729994,327.660000,6.450010C390.830000,17.730000,449.100000,41.210000,507.990000,62.410000C566.880000,83.610000,628.490000,102.980000,693.210000,105.060000C750.360000,106.900000,817.020000,93.130000,854.950000,57.340000C891.790000,22.580000,961.040000,19.930000,1010.950000,40.930000C1045.210000,55.340000,1070.770000,81.300000,1081.550000,110.500000C1083.730000,116.362000,1085.300000,122.435000,1086.240000,128.620000C1087.100000,134.273000,1087.390000,140,1087.080000,145.710000C1086.930000,148.530000,1086.640000,151.320000,1086.240000,154.080000C1077.900000,211.700000,1017.870000,257.150000,981.380000,308.620000C963.550000,333.760000,950.960000,363.960000,963.220000,391.070000C981.920000,432.380000,1046.950000,447.070000,1086.220000,477.810000C1093.610000,483.405000,1100.120000,490.079000,1105.520000,497.610000C1124.570000,524.970000,1117.540000,561.920000,1089.160000,583.740000Z" opacity="0.1" fill="rgb(90,87,115)" stroke="none" stroke-width="1"/><g id="e8mnhz523tqo6"><path id="e8mnhz523tqo7" d="M257.990000,325.860000C257.990000,325.860000,211.990000,244.340000,142.670000,220.860000C113.580000,211,88.190000,192.460000,70.830000,167.120000C62.611400,155.089000,55.514900,142.329000,49.630000,129" fill="none" stroke="rgb(83,84,97)" stroke-width="2" stroke-miterlimit="10"/><path id="e8mnhz523tqo8" d="M6.040010,113.910000C13.940000,121.540000,50.720000,129.540000,50.720000,129.540000C50.720000,129.540000,41.720000,93.020000,33.800000,85.350000C29.992900,81.744900,24.918500,79.785200,19.676500,79.895700C14.434500,80.006200,9.447230,82.177900,5.795420,85.940200C2.143600,89.702600,0.121481,94.752400,0.167265,99.995300C0.213048,105.238000,2.323050,110.252000,6.040010,113.950000L6.040010,113.910000Z" fill="rgb(90,87,115)" stroke="none" stroke-width="1"/><path id="e8mnhz523tqo9" d="M26.850100,180C37.640100,182.140000,72.850100,168.810000,72.850100,168.810000C72.850100,168.810000,45.400100,143.050000,34.600100,140.910000C29.467200,140.006000,24.184500,141.149000,19.884100,144.093000C15.583800,147.038000,12.607900,151.550000,11.594300,156.662000C10.580800,161.774000,11.610100,167.080000,14.461800,171.443000C17.313500,175.805000,21.760600,178.877000,26.850100,180L26.850100,180Z" fill="rgb(90,87,115)" stroke="none" stroke-width="1"/><path id="e8mnhz523tqo10" d="M102.600000,251.540000C113,247.940000,136.600000,218.670000,136.600000,218.670000C136.600000,218.670000,99.920000,210.280000,89.530000,213.880000C86.980600,214.672000,84.616400,215.968000,82.577500,217.691000C80.538700,219.415000,78.866800,221.530000,77.661100,223.912000C76.455500,226.293000,75.740600,228.893000,75.558900,231.556000C75.377200,234.220000,75.732500,236.892000,76.603500,239.416000C77.474600,241.939000,78.843800,244.262000,80.629700,246.246000C82.415700,248.230000,84.582000,249.835000,87.000200,250.966000C89.418400,252.097000,92.039200,252.731000,94.706900,252.829000C97.374600,252.928000,100.035000,252.489000,102.530000,251.540000L102.600000,251.540000Z" fill="rgb(90,87,115)" stroke="none" stroke-width="1"/><path id="e8mnhz523tqo11" d="M172.100000,292.730000C182.960000,290.930000,211.200000,266.080000,211.200000,266.080000C211.200000,266.080000,176.470000,251.610000,165.610000,253.400000C160.394000,254.261000,155.735000,257.158000,152.655000,261.454000C149.576000,265.751000,148.329000,271.095000,149.190000,276.310000C150.051000,281.525000,152.948000,286.185000,157.244000,289.265000C161.541000,292.344000,166.884000,293.591000,172.100000,292.730000L172.100000,292.730000Z" fill="rgb(90,87,115)" stroke="none" stroke-width="1"/><path id="e8mnhz523tqo12" d="M103.490000,140.270000C103.490000,151.270000,83.590000,183.200000,83.590000,183.200000C83.590000,183.200000,63.650000,151.290000,63.640000,140.290000C63.580500,137.636000,64.052000,134.997000,65.026600,132.527000C66.001200,130.058000,67.459300,127.808000,69.315400,125.910000C71.171500,124.012000,73.388100,122.503000,75.835100,121.474000C78.282100,120.444000,80.910200,119.914000,83.565000,119.914000C86.219800,119.914000,88.847900,120.444000,91.294900,121.474000C93.741900,122.503000,95.958500,124.012000,97.814600,125.910000C99.670700,127.808000,101.129000,130.058000,102.103000,132.527000C103.078000,134.997000,103.549000,137.636000,103.490000,140.290000L103.490000,140.270000Z" fill="rgb(90,87,115)" stroke="none" stroke-width="1"/><path id="e8mnhz523tqo13" d="M184.170000,189.540000C180.880000,200.040000,152.330000,224.540000,152.330000,224.540000C152.330000,224.540000,142.850000,188.090000,146.100000,177.540000C147.847000,172.710000,151.391000,168.740000,155.993000,166.460000C160.596000,164.179000,165.901000,163.763000,170.803000,165.300000C175.704000,166.836000,179.823000,170.205000,182.301000,174.705000C184.778000,179.204000,185.423000,184.487000,184.100000,189.450000L184.170000,189.540000Z" fill="rgb(90,87,115)" stroke="none" stroke-width="1"/><path id="e8mnhz523tqo14" d="M256.010000,248.090000C254.550000,259,230.550000,287.970000,230.550000,287.970000C230.550000,287.970000,215.050000,253.690000,216.550000,242.780000C217.327000,237.605000,220.107000,232.943000,224.292000,229.801000C228.476000,226.659000,233.728000,225.288000,238.915000,225.986000C244.101000,226.683000,248.805000,229.392000,252.011000,233.527000C255.217000,237.663000,256.668000,242.894000,256.050000,248.090000L256.010000,248.090000Z" fill="rgb(90,87,115)" stroke="none" stroke-width="1"/><path id="e8mnhz523tqo15" d="M6.040010,113.910000C13.940000,121.540000,50.720000,129.540000,50.720000,129.540000C50.720000,129.540000,41.720000,93.020000,33.800000,85.350000C29.992900,81.744900,24.918500,79.785200,19.676500,79.895700C14.434500,80.006200,9.447230,82.177900,5.795420,85.940200C2.143600,89.702600,0.121481,94.752400,0.167265,99.995300C0.213048,105.238000,2.323050,110.252000,6.040010,113.950000L6.040010,113.910000Z" opacity="0.25" fill="rgb(0,0,0)" stroke="none" stroke-width="1"/><path id="e8mnhz523tqo16" d="M26.850100,180C37.640100,182.140000,72.850100,168.810000,72.850100,168.810000C72.850100,168.810000,45.400100,143.050000,34.600100,140.910000C29.467200,140.006000,24.184500,141.149000,19.884100,144.093000C15.583800,147.038000,12.607900,151.550000,11.594300,156.662000C10.580800,161.774000,11.610100,167.080000,14.461800,171.443000C17.313500,175.805000,21.760600,178.877000,26.850100,180L26.850100,180Z" opacity="0.25" fill="rgb(0,0,0)" stroke="none" stroke-width="1"/><path id="e8mnhz523tqo17" d="M102.600000,251.540000C113,247.940000,136.600000,218.670000,136.600000,218.670000C136.600000,218.670000,99.920000,210.280000,89.530000,213.880000C86.980600,214.672000,84.616400,215.968000,82.577500,217.691000C80.538700,219.415000,78.866800,221.530000,77.661100,223.912000C76.455500,226.293000,75.740600,228.893000,75.558900,231.556000C75.377200,234.220000,75.732500,236.892000,76.603500,239.416000C77.474600,241.939000,78.843800,244.262000,80.629700,246.246000C82.415700,248.230000,84.582000,249.835000,87.000200,250.966000C89.418400,252.097000,92.039200,252.731000,94.706900,252.829000C97.374600,252.928000,100.035000,252.489000,102.530000,251.540000L102.600000,251.540000Z" opacity="0.25" fill="rgb(0,0,0)" stroke="none" stroke-width="1"/><path id="e8mnhz523tqo18" d="M172.100000,292.730000C182.960000,290.930000,211.200000,266.080000,211.200000,266.080000C211.200000,266.080000,176.470000,251.610000,165.610000,253.400000C160.394000,254.261000,155.735000,257.158000,152.655000,261.454000C149.576000,265.751000,148.329000,271.095000,149.190000,276.310000C150.051000,281.525000,152.948000,286.185000,157.244000,289.265000C161.541000,292.344000,166.884000,293.591000,172.100000,292.730000L172.100000,292.730000Z" opacity="0.25" fill="rgb(0,0,0)" stroke="none" stroke-width="1"/><path id="e8mnhz523tqo19" d="M103.490000,140.270000C103.490000,151.270000,83.590000,183.200000,83.590000,183.200000C83.590000,183.200000,63.650000,151.290000,63.640000,140.290000C63.580500,137.636000,64.052000,134.997000,65.026600,132.527000C66.001200,130.058000,67.459300,127.808000,69.315400,125.910000C71.171500,124.012000,73.388100,122.503000,75.835100,121.474000C78.282100,120.444000,80.910200,119.914000,83.565000,119.914000C86.219800,119.914000,88.847900,120.444000,91.294900,121.474000C93.741900,122.503000,95.958500,124.012000,97.814600,125.910000C99.670700,127.808000,101.129000,130.058000,102.103000,132.527000C103.078000,134.997000,103.549000,137.636000,103.490000,140.290000L103.490000,140.270000Z" opacity="0.25" fill="rgb(0,0,0)" stroke="none" stroke-width="1"/><path id="e8mnhz523tqo20" d="M184.170000,189.540000C180.880000,200.040000,152.330000,224.540000,152.330000,224.540000C152.330000,224.540000,142.850000,188.090000,146.100000,177.540000C147.847000,172.710000,151.391000,168.740000,155.993000,166.460000C160.596000,164.179000,165.901000,163.763000,170.803000,165.300000C175.704000,166.836000,179.823000,170.205000,182.301000,174.705000C184.778000,179.204000,185.423000,184.487000,184.100000,189.450000L184.170000,189.540000Z" opacity="0.25" fill="rgb(0,0,0)" stroke="none" stroke-width="1"/><path id="e8mnhz523tqo21" d="M256.010000,248.090000C254.550000,259,230.550000,287.970000,230.550000,287.970000C230.550000,287.970000,215.050000,253.690000,216.550000,242.780000C217.327000,237.605000,220.107000,232.943000,224.292000,229.801000C228.476000,226.659000,233.728000,225.288000,238.915000,225.986000C244.101000,226.683000,248.805000,229.392000,252.011000,233.527000C255.217000,237.663000,256.668000,242.894000,256.050000,248.090000L256.010000,248.090000Z" opacity="0.25" fill="rgb(0,0,0)" stroke="none" stroke-width="1"/><path id="e8mnhz523tqo22" d="M255.340000,324.240000C255.340000,324.240000,246.340000,231.060000,192.460000,181.500000C169.870000,160.700000,154.170000,133.500000,148.560000,103.260000C145.927000,88.927100,144.615000,74.382800,144.640000,59.810000" fill="none" stroke="rgb(83,84,97)" stroke-width="2" stroke-miterlimit="10"/><path id="e8mnhz523tqo23" d="M110.890000,28.380000C115.010000,38.590000,145.420000,60.740000,145.420000,60.740000C145.420000,60.740000,151.970000,23.690000,147.860000,13.480000C145.884000,8.573490,142.040000,4.652860,137.174000,2.580580C132.307000,0.508302,126.816000,0.454139,121.910000,2.430000C117.003000,4.405860,113.083000,8.249900,111.011000,13.116500C108.938000,17.983000,108.884000,23.473500,110.860000,28.380000L110.890000,28.380000Z" fill="rgb(90,87,115)" stroke="none" stroke-width="1"/><path id="e8mnhz523tqo24" d="M103.100000,97.230000C112.100000,103.560000,149.670000,105.630000,149.670000,105.630000C149.670000,105.630000,135.100000,70.970000,126.100000,64.640000C121.778000,61.590000,116.422000,60.381800,111.209000,61.281000C105.997000,62.180200,101.355000,65.113300,98.305000,69.435000C95.255000,73.756700,94.046700,79.113000,94.945900,84.325600C95.845200,89.538200,98.778300,94.180000,103.100000,97.230000L103.100000,97.230000Z" fill="rgb(90,87,115)" stroke="none" stroke-width="1"/><path id="e8mnhz523tqo25" d="M143.410000,193.310000C154.410000,194.240000,187.850000,177.050000,187.850000,177.050000C187.850000,177.050000,157.720000,154.520000,146.750000,153.600000C144.110000,153.319000,141.441000,153.568000,138.900000,154.333000C136.358000,155.097000,133.994000,156.362000,131.948000,158.052000C129.901000,159.743000,128.213000,161.825000,126.982000,164.177000C125.751000,166.529000,125.003000,169.103000,124.780000,171.748000C124.558000,174.393000,124.866000,177.055000,125.686000,179.580000C126.507000,182.104000,127.824000,184.439000,129.559000,186.448000C131.295000,188.456000,133.414000,190.098000,135.792000,191.276000C138.171000,192.455000,140.761000,193.146000,143.410000,193.310000Z" fill="rgb(90,87,115)" stroke="none" stroke-width="1"/><path id="e8mnhz523tqo26" d="M190.250000,259.150000C200.910000,261.910000,236.800000,250.630000,236.800000,250.630000C236.800000,250.630000,210.910000,223.330000,200.260000,220.570000C195.176000,219.338000,189.812000,220.155000,185.325000,222.843000C180.838000,225.531000,177.587000,229.876000,176.275000,234.939000C174.962000,240.002000,175.693000,245.379000,178.310000,249.908000C180.926000,254.438000,185.218000,257.757000,190.260000,259.150000L190.250000,259.150000Z" fill="rgb(90,87,115)" stroke="none" stroke-width="1"/><path id="e8mnhz523tqo27" d="M189.300000,91.970000C184.850000,102.030000,153.710000,123.140000,153.710000,123.140000C153.710000,123.140000,148.410000,85.900000,152.860000,75.830000C153.891000,73.393700,155.396000,71.186900,157.288000,69.338300C159.180000,67.489700,161.422000,66.036300,163.882000,65.062900C166.341000,64.089500,168.970000,63.615500,171.615000,63.668600C174.260000,63.721600,176.868000,64.300700,179.286000,65.372000C181.705000,66.443300,183.886000,67.985400,185.703000,69.908400C187.520000,71.831400,188.935000,74.096800,189.867000,76.572500C190.799000,79.048200,191.229000,81.684700,191.132000,84.328300C191.034000,86.971800,190.412000,89.569600,189.300000,91.970000L189.300000,91.970000Z" fill="rgb(90,87,115)" stroke="none" stroke-width="1"/><path id="e8mnhz523tqo28" d="M243.100000,169.650000C235.840000,177.920000,199.810000,188.750000,199.810000,188.750000C199.810000,188.750000,205.890000,151.630000,213.160000,143.360000C214.886000,141.394000,216.983000,139.787000,219.330000,138.632000C221.677000,137.476000,224.229000,136.794000,226.840000,136.625000C229.450000,136.455000,232.069000,136.802000,234.546000,137.644000C237.023000,138.487000,239.309000,139.809000,241.275000,141.535000C243.241000,143.261000,244.848000,145.358000,246.003000,147.705000C247.159000,150.052000,247.841000,152.604000,248.010000,155.215000C248.180000,157.825000,247.833000,160.444000,246.991000,162.921000C246.148000,165.397000,244.826000,167.684000,243.100000,169.650000L243.100000,169.650000Z" fill="rgb(90,87,115)" stroke="none" stroke-width="1"/><path id="e8mnhz523tqo29" d="M285.100000,252.340000C279.340000,261.720000,245.660000,278.480000,245.660000,278.480000C245.660000,278.480000,245.380000,240.860000,251.140000,231.480000C253.906000,226.971000,258.350000,223.746000,263.494000,222.514000C268.638000,221.282000,274.061000,222.144000,278.570000,224.910000C283.079000,227.676000,286.304000,232.120000,287.536000,237.264000C288.768000,242.408000,287.906000,247.831000,285.140000,252.340000L285.100000,252.340000Z" fill="rgb(90,87,115)" stroke="none" stroke-width="1"/></g><path id="e8mnhz523tqo30" d="M408.160000,852.700000C469.756000,852.700000,519.690000,846.199000,519.690000,838.180000C519.690000,830.161000,469.756000,823.660000,408.160000,823.660000C346.564000,823.660000,296.630000,830.161000,296.630000,838.180000C296.630000,846.199000,346.564000,852.700000,408.160000,852.700000Z" opacity="0.1" fill="rgb(90,87,115)" stroke="none" stroke-width="1"/><g id="e8mnhz523tqo31"><path id="e8mnhz523tqo32" d="M182.880000,842.860000C201.591000,842.860000,216.760000,840.263000,216.760000,837.060000C216.760000,833.857000,201.591000,831.260000,182.880000,831.260000C164.169000,831.260000,149,833.857000,149,837.060000C149,840.263000,164.169000,842.860000,182.880000,842.860000Z" opacity="0.1" fill="rgb(90,87,115)" stroke="none" stroke-width="1"/><path id="e8mnhz523tqo33" d="M190.240000,772.480000C190.240000,772.480000,195.730000,779.670000,187.700000,790.480000C179.670000,801.290000,173.050000,810.480000,175.700000,817.250000C175.700000,817.250000,187.810000,797.100000,197.700000,796.820000C207.590000,796.540000,201.100000,784.600000,190.240000,772.480000Z" fill="rgb(90,87,115)" stroke="none" stroke-width="1"/><path id="e8mnhz523tqo34" d="M190.240000,772.480000C190.720000,773.176000,191.097000,773.937000,191.360000,774.740000C200.980000,786.040000,206.110000,796.590000,196.860000,796.850000C188.250000,797.100000,177.910000,812.500000,175.440000,816.390000C175.522000,816.691000,175.618000,816.988000,175.730000,817.280000C175.730000,817.280000,187.840000,797.130000,197.730000,796.850000C207.620000,796.570000,201.100000,784.600000,190.240000,772.480000Z" opacity="0.1" fill="rgb(0,0,0)" stroke="none" stroke-width="1"/><path id="e8mnhz523tqo35" d="M200.450000,781.640000C200.450000,784.170000,200.170000,786.220000,199.820000,786.220000C199.470000,786.220000,199.180000,784.220000,199.180000,781.640000C199.180000,779.060000,199.540000,780.300000,199.890000,780.300000C200.240000,780.300000,200.450000,779.110000,200.450000,781.640000Z" fill="rgb(255,208,55)" stroke="none" stroke-width="1"/><path id="e8mnhz523tqo36" d="M203.960000,784.660000C201.740000,785.870000,199.800000,786.600000,199.630000,786.290000C199.460000,785.980000,201.130000,784.750000,203.350000,783.540000C205.570000,782.330000,204.690000,783.210000,204.860000,783.540000C205.030000,783.870000,206.180000,783.450000,203.960000,784.660000Z" fill="rgb(255,208,55)" stroke="none" stroke-width="1"/><path id="e8mnhz523tqo37" d="M161.220000,772.480000C161.220000,772.480000,155.730000,779.670000,163.760000,790.480000C171.790000,801.290000,178.410000,810.480000,175.760000,817.250000C175.760000,817.250000,163.650000,797.100000,153.760000,796.820000C143.870000,796.540000,150.380000,784.600000,161.220000,772.480000Z" fill="rgb(90,87,115)" stroke="none" stroke-width="1"/><path id="e8mnhz523tqo38" d="M161.220000,772.480000C160.740000,773.176000,160.363000,773.937000,160.100000,774.740000C150.480000,786.040000,145.350000,796.590000,154.600000,796.850000C163.220000,797.100000,173.550000,812.500000,176.020000,816.390000C175.943000,816.693000,175.846000,816.990000,175.730000,817.280000C175.730000,817.280000,163.620000,797.130000,153.730000,796.850000C143.840000,796.570000,150.380000,784.600000,161.220000,772.480000Z" opacity="0.1" fill="rgb(0,0,0)" stroke="none" stroke-width="1"/><path id="e8mnhz523tqo39" d="M151.010000,781.640000C151.010000,784.170000,151.290000,786.220000,151.640000,786.220000C151.990000,786.220000,152.280000,784.220000,152.280000,781.640000C152.280000,779.060000,151.920000,780.300000,151.570000,780.300000C151.220000,780.300000,151.010000,779.110000,151.010000,781.640000Z" fill="rgb(255,208,55)" stroke="none" stroke-width="1"/><path id="e8mnhz523tqo40" d="M147.510000,784.660000C149.730000,785.870000,151.660000,786.600000,151.830000,786.290000C152,785.980000,150.330000,784.750000,148.110000,783.540000C145.890000,782.330000,146.770000,783.210000,146.600000,783.540000C146.430000,783.870000,145.290000,783.450000,147.510000,784.660000Z" fill="rgb(255,208,55)" stroke="none" stroke-width="1"/><path id="e8mnhz523tqo41" d="M152.760000,816.340000C152.760000,816.340000,168.120000,815.860000,172.760000,812.570000C177.400000,809.280000,196.380000,805.330000,197.530000,810.620000C198.680000,815.910000,220.610000,836.910000,203.270000,837.050000C185.930000,837.190000,162.980000,834.350000,158.360000,831.540000C153.740000,828.730000,152.760000,816.340000,152.760000,816.340000Z" fill="rgb(168,168,168)" stroke="none" stroke-width="1"/><path id="e8mnhz523tqo42" d="M203.570000,835.210000C186.230000,835.350000,163.280000,832.510000,158.660000,829.700000C155.140000,827.550000,153.740000,819.860000,153.270000,816.320000L152.760000,816.320000C152.760000,816.320000,153.760000,828.700000,158.350000,831.520000C162.940000,834.340000,185.920000,837.170000,203.260000,837.030000C208.260000,837.030000,210,835.210000,209.900000,832.570000C209.210000,834.190000,207.300000,835.180000,203.570000,835.210000Z" opacity="0.2" fill="rgb(0,0,0)" stroke="none" stroke-width="1"/><path id="e8mnhz523tqo43" d="M665.700000,815.750000C665.700000,815.750000,623.420000,813.200000,628.410000,842.830000C628.410000,842.830000,627.410000,848.060000,632.160000,850.440000C632.160000,850.440000,632.240000,848.250000,636.500000,848.990000C638.016000,849.245000,639.557000,849.319000,641.090000,849.210000C643.167000,849.073000,645.141000,848.258000,646.710000,846.890000L646.710000,846.890000C646.710000,846.890000,658.590000,841.990000,663.210000,822.560000C663.210000,822.560000,666.630000,818.320000,666.500000,817.230000L659.360000,820.230000C659.360000,820.230000,661.800000,825.380000,659.880000,829.660000C659.880000,829.660000,659.650000,820.420000,658.280000,820.660000C658,820.660000,654.570000,822.440000,654.570000,822.440000C654.570000,822.440000,658.770000,831.440000,655.570000,837.920000C655.570000,837.920000,656.770000,826.920000,653.230000,823.090000L648.230000,826.020000C648.230000,826.020000,653.130000,835.280000,649.810000,842.840000C649.810000,842.840000,650.660000,831.250000,647.180000,826.730000L642.630000,830.280000C642.630000,830.280000,647.230000,839.410000,644.420000,845.680000C644.420000,845.680000,644.060000,832.190000,641.640000,831.170000C641.640000,831.170000,637.640000,834.680000,637.050000,836.170000C637.050000,836.170000,640.200000,842.790000,638.250000,846.290000C638.250000,846.290000,637.050000,837.290000,636.060000,837.290000C636.060000,837.290000,632.060000,843.290000,631.680000,847.290000C631.680000,847.290000,631.860000,841.220000,635.100000,836.680000C632.813000,837.116000,630.703000,838.211000,629.030000,839.830000C629.030000,839.830000,629.650000,835.620000,636.030000,835.250000C636.030000,835.250000,639.310000,830.730000,640.190000,830.460000C640.190000,830.460000,633.790000,829.920000,629.910000,831.640000C629.910000,831.640000,633.320000,827.640000,641.360000,829.470000L645.850000,825.810000C645.850000,825.810000,637.430000,824.650000,633.850000,825.930000C633.850000,825.930000,637.970000,822.410000,647.060000,824.930000L651.960000,822.010000C651.960000,822.010000,644.770000,820.460000,640.490000,821.010000C640.490000,821.010000,645.010000,818.570000,653.390000,821.210000L656.890000,819.640000C656.890000,819.640000,651.620000,818.640000,650.080000,818.450000C648.540000,818.260000,648.460000,817.860000,648.460000,817.860000C651.795000,817.304000,655.219000,817.685000,658.350000,818.960000C658.350000,818.960000,665.830000,816.220000,665.700000,815.750000Z" fill="rgb(90,87,115)" stroke="none" stroke-width="1"/><path id="e8mnhz523tqo44" d="M636.580000,858.080000C653.104000,858.080000,666.500000,855.815000,666.500000,853.020000C666.500000,850.225000,653.104000,847.960000,636.580000,847.960000C620.056000,847.960000,606.660000,850.225000,606.660000,853.020000C606.660000,855.815000,620.056000,858.080000,636.580000,858.080000Z" opacity="0.1" fill="rgb(90,87,115)" stroke="none" stroke-width="1"/><path id="e8mnhz523tqo45" d="M591.630000,817.330000C591.630000,817.330000,567.790000,815.890000,570.630000,832.600000C570.487000,833.447000,570.614000,834.318000,570.995000,835.088000C571.376000,835.859000,571.990000,836.489000,572.750000,836.890000C572.750000,836.890000,572.750000,835.650000,575.200000,836.070000C576.052000,836.209000,576.918000,836.252000,577.780000,836.200000C578.950000,836.114000,580.061000,835.655000,580.950000,834.890000L580.950000,834.890000C580.950000,834.890000,587.650000,832.120000,590.260000,821.170000C590.260000,821.170000,592.180000,818.780000,592.110000,818.170000L588.110000,819.880000C588.110000,819.880000,589.480000,822.790000,588.400000,825.200000C588.400000,825.200000,588.270000,819.990000,587.500000,820.110000C587.340000,820.110000,585.410000,821.110000,585.410000,821.110000C585.410000,821.110000,587.770000,826.110000,585.990000,829.840000C585.990000,829.840000,586.660000,823.610000,584.670000,821.470000L581.840000,823.130000C581.840000,823.130000,584.600000,828.350000,582.730000,832.610000C582.730000,832.610000,583.210000,826.070000,581.240000,823.530000L578.680000,825.530000C578.680000,825.530000,581.270000,830.680000,579.680000,834.210000C579.680000,834.210000,579.470000,826.600000,578.110000,826.030000C577.136000,826.851000,576.266000,827.788000,575.520000,828.820000C575.520000,828.820000,577.300000,832.560000,576.200000,834.530000C576.200000,834.530000,575.520000,829.460000,574.970000,829.440000C574.970000,829.440000,572.730000,832.800000,572.500000,835.100000C572.601000,832.966000,573.264000,830.896000,574.420000,829.100000C573.132000,829.344000,571.943000,829.959000,571,830.870000C571,830.870000,571.350000,828.490000,575,828.290000C575,828.290000,576.840000,825.740000,577.340000,825.590000C577.340000,825.590000,573.730000,825.280000,571.540000,826.250000C571.540000,826.250000,573.470000,824.010000,578,825.030000L580.530000,822.960000C580.530000,822.960000,575.780000,822.310000,573.770000,823.030000C573.770000,823.030000,576.090000,821.030000,581.220000,822.490000L583.970000,820.850000C581.851000,820.380000,579.679000,820.192000,577.510000,820.290000C577.510000,820.290000,580.060000,818.920000,584.780000,820.400000L586.780000,819.520000C586.780000,819.520000,583.780000,818.930000,582.950000,818.840000C582.120000,818.750000,582.030000,818.510000,582.030000,818.510000C583.912000,818.197000,585.843000,818.412000,587.610000,819.130000C587.610000,819.130000,591.700000,817.600000,591.630000,817.330000Z" fill="rgb(90,87,115)" stroke="none" stroke-width="1"/><path id="e8mnhz523tqo46" d="M575.210000,841.200000C584.527000,841.200000,592.080000,839.924000,592.080000,838.350000C592.080000,836.776000,584.527000,835.500000,575.210000,835.500000C565.893000,835.500000,558.340000,836.776000,558.340000,838.350000C558.340000,839.924000,565.893000,841.200000,575.210000,841.200000Z" opacity="0.1" fill="rgb(90,87,115)" stroke="none" stroke-width="1"/><path id="e8mnhz523tqo47" d="M637,781.920000C637,781.920000,608.230000,780.180000,611.620000,800.350000C611.446000,801.373000,611.600000,802.425000,612.059000,803.355000C612.519000,804.286000,613.261000,805.047000,614.180000,805.530000C614.180000,805.530000,614.180000,804.040000,617.130000,804.530000C618.161000,804.695000,619.208000,804.745000,620.250000,804.680000C621.663000,804.579000,623.006000,804.025000,624.080000,803.100000L624.080000,803.100000C624.080000,803.100000,632.170000,799.760000,635.310000,786.530000C635.310000,786.530000,637.640000,783.650000,637.550000,782.910000L632.690000,784.980000C632.690000,784.980000,634.350000,788.490000,633.050000,791.400000C633.050000,791.400000,632.890000,785.110000,631.950000,785.260000C631.770000,785.260000,629.430000,786.470000,629.430000,786.470000C629.430000,786.470000,632.290000,792.580000,630.130000,797.010000C630.130000,797.010000,630.950000,789.490000,628.540000,786.910000L625.120000,788.910000C625.120000,788.910000,628.460000,795.210000,626.200000,800.360000C626.200000,800.360000,626.780000,792.470000,624.400000,789.360000L621.300000,791.770000C621.300000,791.770000,624.440000,797.980000,622.530000,802.250000C622.530000,802.250000,622.280000,793.070000,620.630000,792.370000C620.630000,792.370000,617.920000,794.760000,617.510000,795.740000C617.510000,795.740000,619.660000,800.250000,618.320000,802.630000C618.320000,802.630000,617.510000,796.520000,616.840000,796.490000C616.840000,796.490000,614.140000,800.490000,613.840000,803.320000C613.969000,800.752000,614.769000,798.263000,616.160000,796.100000C614.604000,796.396000,613.169000,797.140000,612.030000,798.240000C612.030000,798.240000,612.450000,795.370000,616.830000,795.120000C616.830000,795.120000,619.060000,792.050000,619.660000,791.860000C619.660000,791.860000,615.300000,791.500000,612.660000,792.670000C612.660000,792.670000,614.980000,789.960000,620.460000,791.190000L623.520000,788.700000C623.520000,788.700000,617.780000,787.910000,615.350000,788.780000C615.350000,788.780000,618.150000,786.390000,624.350000,788.130000L627.680000,786.130000C627.680000,786.130000,622.790000,785.130000,619.880000,785.460000C619.880000,785.460000,622.950000,783.800000,628.660000,785.590000L631.040000,784.530000C631.040000,784.530000,627.450000,783.820000,626.400000,783.710000C625.350000,783.600000,625.300000,783.310000,625.300000,783.310000C627.569000,782.932000,629.899000,783.192000,632.030000,784.060000C632.030000,784.060000,637.100000,782.240000,637,781.920000Z" fill="rgb(90,87,115)" stroke="none" stroke-width="1"/><path id="e8mnhz523tqo48" d="M617.190000,810.730000C628.440000,810.730000,637.560000,809.190000,637.560000,807.290000C637.560000,805.390000,628.440000,803.850000,617.190000,803.850000C605.940000,803.850000,596.820000,805.390000,596.820000,807.290000C596.820000,809.190000,605.940000,810.730000,617.190000,810.730000Z" opacity="0.1" fill="rgb(90,87,115)" stroke="none" stroke-width="1"/></g><g id="e8mnhz523tqo49"><g id="e8mnhz523tqo50" clip-path="url(#e8mnhz523tqo2)"><path id="e8mnhz523tqo51" d="M1086.260000,585.870000L1086.260000,110.540000L138.830000,110.540000L138.830000,558.640000C150.930000,568.500000,165.480000,576.790000,180.630000,583.640000C188.110000,586.973000,195.750000,590.047000,203.550000,592.860000L1074.930000,592.860000L1086.260000,585.870000Z" fill="rgb(255,255,255)" stroke="none" stroke-width="1"/><g id="e8mnhz523tqo52_to" transform="translate(1103.198927,368.074995)"><g id="e8mnhz523tqo52" transform="translate(-675.940002,-367.755005)" opacity="0"><g id="e8mnhz523tqo53_ts" transform="translate(675.940000,227.170000) scale(1,1)"><path id="e8mnhz523tqo53" d="M754.190000,178L597.690000,178L597.690000,276.340000L754.190000,276.340000L754.190000,178Z" transform="translate(-675.940000,-227.170000)" fill="rgb(90,87,115)" fill-opacity="0.25" stroke="none" stroke-width="1"/></g><path id="e8mnhz523tqo54" d="M537.500000,178L381,178L381,276.340000L537.500000,276.340000L537.500000,178Z" opacity="0.2" fill="rgb(90,87,115)" stroke="none" stroke-width="1"/><path id="e8mnhz523tqo55" d="M970.880000,178L814.380000,178L814.380000,276.340000L970.880000,276.340000L970.880000,178Z" opacity="0.2" fill="rgb(90,87,115)" stroke="none" stroke-width="1"/><path id="e8mnhz523tqo56" d="M537.500000,318.590000L381,318.590000L381,416.930000L537.500000,416.930000L537.500000,318.590000Z" opacity="0.2" fill="rgb(90,87,115)" stroke="none" stroke-width="1"/><path id="e8mnhz523tqo57" d="M754.190000,318.590000L597.690000,318.590000L597.690000,416.930000L754.190000,416.930000L754.190000,318.590000Z" opacity="0.2" fill="rgb(90,87,115)" stroke="none" stroke-width="1"/><path id="e8mnhz523tqo58" d="M970.880000,318.590000L814.380000,318.590000L814.380000,416.930000L970.880000,416.930000L970.880000,318.590000Z" opacity="0.2" fill="rgb(90,87,115)" stroke="none" stroke-width="1"/><path id="e8mnhz523tqo59" d="M537.500000,459.170000L381,459.170000L381,557.510000L537.500000,557.510000L537.500000,459.170000Z" opacity="0.2" fill="rgb(90,87,115)" stroke="none" stroke-width="1"/><path id="e8mnhz523tqo60" d="M754.190000,459.170000L597.690000,459.170000L597.690000,557.510000L754.190000,557.510000L754.190000,459.170000Z" opacity="0.2" fill="rgb(90,87,115)" stroke="none" stroke-width="1"/><path id="e8mnhz523tqo61" d="M970.880000,459.170000L814.380000,459.170000L814.380000,557.510000L970.880000,557.510000L970.880000,459.170000Z" opacity="0.2" fill="rgb(90,87,115)" stroke="none" stroke-width="1"/></g></g><g id="e8mnhz523tqo62_to" transform="translate(459.199997,368.075012)"><g id="e8mnhz523tqo62" transform="translate(-459.199997,-368.075012)"><path id="e8mnhz523tqo63" d="M537.450000,178.320000L380.950000,178.320000L380.950000,276.660000L537.450000,276.660000L537.450000,178.320000Z" fill="rgb(90,87,115)" stroke="none" stroke-width="1"/><path id="e8mnhz523tqo64" d="M320.760000,178.320000L164.260000,178.320000L164.260000,276.660000L320.760000,276.660000L320.760000,178.320000Z" opacity="0.2" fill="rgb(90,87,115)" stroke="none" stroke-width="1"/><path id="e8mnhz523tqo65" d="M754.140000,178.320000L597.640000,178.320000L597.640000,276.660000L754.140000,276.660000L754.140000,178.320000Z" opacity="0.2" fill="rgb(90,87,115)" stroke="none" stroke-width="1"/><path id="e8mnhz523tqo66" d="M320.760000,318.910000L164.260000,318.910000L164.260000,417.250000L320.760000,417.250000L320.760000,318.910000Z" opacity="0.2" fill="rgb(90,87,115)" stroke="none" stroke-width="1"/><path id="e8mnhz523tqo67" d="M537.450000,318.910000L380.950000,318.910000L380.950000,417.250000L537.450000,417.250000L537.450000,318.910000Z" opacity="0.2" fill="rgb(90,87,115)" stroke="none" stroke-width="1"/><path id="e8mnhz523tqo68" d="M754.140000,318.910000L597.640000,318.910000L597.640000,417.250000L754.140000,417.250000L754.140000,318.910000Z" opacity="0.2" fill="rgb(90,87,115)" stroke="none" stroke-width="1"/><path id="e8mnhz523tqo69" d="M320.760000,459.490000L164.260000,459.490000L164.260000,557.830000L320.760000,557.830000L320.760000,459.490000Z" opacity="0.2" fill="rgb(90,87,115)" stroke="none" stroke-width="1"/><path id="e8mnhz523tqo70" d="M537.450000,459.490000L380.950000,459.490000L380.950000,557.830000L537.450000,557.830000L537.450000,459.490000Z" opacity="0.2" fill="rgb(90,87,115)" stroke="none" stroke-width="1"/><path id="e8mnhz523tqo71" d="M754.140000,459.490000L597.640000,459.490000L597.640000,557.830000L754.140000,557.830000L754.140000,459.490000Z" opacity="0.2" fill="rgb(90,87,115)" stroke="none" stroke-width="1"/></g></g><g id="e8mnhz523tqo72_to" transform="translate(918.256073,368.074997)"><g id="e8mnhz523tqo72" transform="translate(-918.256073,-368.074997)"><path id="e8mnhz523tqo73" d="M888.530000,409.910000C885.700000,409.910000,882.933000,410.749000,880.580000,412.322000C878.226000,413.894000,876.392000,416.129000,875.309000,418.744000C874.226000,421.359000,873.943000,424.236000,874.495000,427.012000C875.047000,429.788000,876.410000,432.337000,878.411000,434.339000C880.412000,436.340000,882.962000,437.703000,885.738000,438.255000C888.514000,438.807000,891.391000,438.524000,894.006000,437.441000C896.621000,436.358000,898.856000,434.523000,900.428000,432.170000C902.001000,429.817000,902.840000,427.050000,902.840000,424.220000C902.829000,420.428000,901.318000,416.794000,898.637000,414.113000C895.956000,411.432000,892.322000,409.921000,888.530000,409.910000L888.530000,409.910000ZM846.690000,297.620000L846.690000,311.930000L861,311.930000L886.760000,364.110000L875.990000,381.640000C874.814000,383.713000,874.198000,386.057000,874.200000,388.440000C874.200000,398.020000,880.750000,402.750000,889.630000,402.750000L973.300000,402.750000L973.300000,388.990000L891.380000,388.990000C891.141000,389.005000,890.902000,388.968000,890.678000,388.884000C890.454000,388.799000,890.251000,388.667000,890.082000,388.498000C889.913000,388.329000,889.781000,388.126000,889.696000,387.902000C889.612000,387.678000,889.575000,387.439000,889.590000,387.200000C889.779000,386.581000,890.033000,385.984000,890.350000,385.420000L897.500000,374.130000L950.810000,374.130000C953.386000,374.151000,955.917000,373.461000,958.126000,372.136000C960.335000,370.811000,962.136000,368.902000,963.330000,366.620000L989.100000,322.310000C989.602000,321.185000,989.848000,319.962000,989.820000,318.730000C989.810000,317.809000,989.615000,316.900000,989.247000,316.056000C988.879000,315.211000,988.346000,314.450000,987.678000,313.816000C987.010000,313.181000,986.222000,312.688000,985.360000,312.364000C984.498000,312.040000,983.580000,311.892000,982.660000,311.930000L876.750000,311.930000L869.950000,297.620000L846.690000,297.620000ZM958.980000,409.910000C956.150000,409.912000,953.384000,410.753000,951.032000,412.327000C948.680000,413.900000,946.848000,416.136000,945.766000,418.751000C944.685000,421.366000,944.403000,424.243000,944.956000,427.018000C945.509000,429.793000,946.873000,432.342000,948.875000,434.342000C950.876000,436.343000,953.426000,437.704000,956.202000,438.256000C958.977000,438.807000,961.854000,438.523000,964.468000,437.440000C967.083000,436.356000,969.317000,434.522000,970.889000,432.169000C972.461000,429.816000,973.300000,427.050000,973.300000,424.220000C973.289000,420.426000,971.777000,416.791000,969.093000,414.109000C966.410000,411.428000,962.774000,409.918000,958.980000,409.910000L958.980000,409.910000Z" fill="rgb(90,87,115)" stroke="none" stroke-width="1"/><path id="e8mnhz523tqo74" d="M940.670000,337.210000L928.670000,337.210000L928.670000,325.210000L919.670000,325.210000L919.670000,337.210000L907.670000,337.210000L907.670000,346.210000L919.670000,346.210000L919.670000,358.210000L928.670000,358.210000L928.670000,346.210000L940.670000,346.210000L940.670000,337.210000Z" fill="rgb(255,255,255)" stroke="none" stroke-width="1"/></g></g></g></g><g id="e8mnhz523tqo75"><path id="e8mnhz523tqo76" d="M1086.260000,97.930000L138.840000,97.930000L138.840000,123.070000L1086.260000,123.070000L1086.260000,97.930000Z" fill="rgb(90,87,115)" stroke="none" stroke-width="1"/></g><g id="e8mnhz523tqo77"><path id="e8mnhz523tqo78" d="M157.760000,117C161.350000,117,164.260000,114.090000,164.260000,110.500000C164.260000,106.910000,161.350000,104,157.760000,104C154.170000,104,151.260000,106.910000,151.260000,110.500000C151.260000,114.090000,154.170000,117,157.760000,117Z" fill="rgb(255,255,255)" stroke="none" stroke-width="1"/><path id="e8mnhz523tqo79" d="M175.260000,117C178.850000,117,181.760000,114.090000,181.760000,110.500000C181.760000,106.910000,178.850000,104,175.260000,104C171.670000,104,168.760000,106.910000,168.760000,110.500000C168.760000,114.090000,171.670000,117,175.260000,117Z" fill="rgb(255,255,255)" stroke="none" stroke-width="1"/><path id="e8mnhz523tqo80" d="M192.760000,117C196.350000,117,199.260000,114.090000,199.260000,110.500000C199.260000,106.910000,196.350000,104,192.760000,104C189.170000,104,186.260000,106.910000,186.260000,110.500000C186.260000,114.090000,189.170000,117,192.760000,117Z" fill="rgb(255,255,255)" stroke="none" stroke-width="1"/></g><g id="e8mnhz523tqo81"><path id="e8mnhz523tqo82" d="M499.100000,264.460000L488.300000,268.280000L484.380000,261.780000C481.380000,256.780000,477.220000,249.940000,474.150000,244.970000C468.730000,236.230000,475.820000,222.910000,475.820000,222.910000C475.820000,222.910000,477.100000,209.540000,481.660000,205.420000C486.220000,201.300000,487.490000,222.910000,487.490000,222.910000C505.800000,231.230000,495.990000,250.800000,495.990000,250.800000L497.770000,258.560000L499.100000,264.460000Z" fill="rgb(239,183,185)" stroke="none" stroke-width="1"/><path id="e8mnhz523tqo83" d="M499.100000,264.460000L488.300000,268.280000L484.380000,261.780000L484.380000,261.210000C484.380000,261.210000,490.570000,256.960000,497.790000,258.560000L499.100000,264.460000Z" opacity="0.1" fill="rgb(0,0,0)" stroke="none" stroke-width="1"/><path id="e8mnhz523tqo84" d="M481.660000,308.260000L487.070000,303.680000L484.360000,262.460000C484.360000,262.460000,498.360000,252.880000,508.720000,267.870000C508.720000,267.870000,508.300000,277.030000,508.720000,279.530000C509.140000,282.030000,505.810000,284.530000,508.720000,287.020000C511.630000,289.510000,508.720000,297.850000,508.720000,297.850000C508.720000,297.850000,512.010000,303.680000,514.090000,305.340000C516.170000,307,518.260000,320.750000,514.090000,323.660000C509.920000,326.570000,502.100000,333.240000,502.100000,336.150000C502.100000,339.060000,492.100000,346.150000,492.100000,346.150000L483.320000,334.540000L481.660000,308.260000Z" fill="rgb(255,100,132)" stroke="none" stroke-width="1"/><path id="e8mnhz523tqo85" d="M364.660000,558.480000C344.480000,549.920000,348.960000,529.010000,352.760000,518.480000C353.519000,516.347000,354.411000,514.262000,355.430000,512.240000L366.750000,505.370000C366.750000,505.370000,369.060000,511.260000,371.530000,519.160000C377.260000,537.540000,383.850000,566.630000,364.660000,558.480000Z" fill="rgb(239,183,185)" stroke="none" stroke-width="1"/><path id="e8mnhz523tqo86" d="M392.400000,749.270000C391.034000,751.932000,390.025000,754.764000,389.400000,757.690000C388.401000,762.398000,387.965000,767.209000,388.100000,772.020000C388.180000,775.350000,388.460000,777.530000,388.460000,777.530000L365.980000,792.990000C365.980000,792.990000,366.110000,791.180000,366.330000,788.520000C366.910000,781.440000,368.120000,768.300000,369.260000,766.600000C370.050000,765.420000,370.600000,760.680000,370.950000,756.280000C371.300000,751.880000,371.440000,748.020000,371.440000,748.020000C371.440000,748.020000,398.490000,737.880000,392.400000,749.270000Z" fill="rgb(239,183,185)" stroke="none" stroke-width="1"/><path id="e8mnhz523tqo87" d="M445.490000,760.360000C445.490000,760.360000,445.490000,764.660000,445.330000,769.660000C445.170000,774.660000,444.870000,780.560000,444.240000,783.310000C443.660000,785.830000,443.620000,790.460000,443.730000,794.730000C443.880000,799.730000,444.240000,804.230000,444.240000,804.230000C444.240000,804.230000,421.290000,782.530000,423.630000,780.810000C424.260000,780.350000,424.880000,778.500000,425.450000,776.040000C426.150000,773.040000,426.780000,769.040000,427.250000,765.640000C427.810000,761.590000,428.160000,758.330000,428.160000,758.330000L445.490000,760.360000Z" fill="rgb(239,183,185)" stroke="none" stroke-width="1"/><path id="e8mnhz523tqo88" d="M392.400000,749.270000C391.034000,751.932000,390.025000,754.764000,389.400000,757.690000C383.247000,757.529000,377.106000,757.058000,371,756.280000C371.340000,751.980000,371.490000,748.020000,371.490000,748.020000C371.490000,748.020000,398.490000,737.880000,392.400000,749.270000Z" opacity="0.1" fill="rgb(0,0,0)" stroke="none" stroke-width="1"/><path id="e8mnhz523tqo89" d="M445.490000,760.360000C445.490000,760.360000,445.490000,764.660000,445.330000,769.660000C438.170000,771.490000,430.810000,767.830000,427.250000,765.660000C427.810000,761.610000,428.160000,758.350000,428.160000,758.350000L445.490000,760.360000Z" opacity="0.1" fill="rgb(0,0,0)" stroke="none" stroke-width="1"/><path id="e8mnhz523tqo90" d="M492.480000,547.660000C483.320000,567.660000,479.570000,591.380000,479.570000,591.380000L476.240000,611.380000C476.240000,611.380000,477.910000,620.120000,476.240000,623.450000C474.570000,626.780000,471.240000,632.200000,471.240000,632.200000C471.240000,632.200000,473.740000,652.600000,471.240000,654.680000C468.740000,656.760000,471.240000,669.250000,471.240000,669.250000L462.910000,711.250000L451.250000,765.370000C440.010000,774.540000,425.050000,762.880000,425.050000,762.880000L428.350000,727.490000C428.350000,727.490000,433.350000,665.490000,431.270000,662.950000C429.190000,660.410000,432.100000,652.540000,432.100000,652.540000C432.100000,652.540000,435.020000,645.040000,432.940000,642.130000C430.860000,639.220000,433.350000,632.970000,433.350000,632.970000C433.350000,632.970000,432.520000,607.570000,435.020000,601.740000C437.520000,595.910000,435.020000,559.850000,435.020000,559.850000L434.020000,548.620000L433.440000,542.400000L433.390000,541.790000C433.390000,541.790000,433.010000,544.280000,432.390000,548.140000C430.550000,559.890000,426.630000,584.240000,425.080000,589.250000C424.026000,592.860000,422.595000,596.350000,420.810000,599.660000C420.810000,599.660000,422.970000,612.150000,420.810000,615.480000C418.650000,618.810000,420.480000,622.560000,420.480000,622.560000C420.480000,622.560000,422.560000,632.970000,416.310000,637.130000C410.060000,641.290000,416.310000,643.380000,416.310000,643.380000C416.310000,643.380000,411.730000,653.380000,410.070000,657.530000C408.410000,661.680000,410.070000,667.530000,410.070000,667.530000L406.740000,701.250000C406.740000,701.250000,403.820000,715.400000,404.240000,724.980000C404.660000,734.560000,400.490000,756.620000,400.490000,756.620000C400.490000,756.620000,368.430000,756.620000,363.490000,752.870000C358.550000,749.120000,371.740000,712.540000,371.740000,712.540000C371.740000,712.540000,375.490000,648.420000,374.650000,646.760000C373.810000,645.100000,374.650000,632.600000,377.570000,630.110000C380.490000,627.620000,377.570000,622.610000,377.570000,622.610000C377.570000,622.610000,376.740000,612.610000,377.570000,610.120000C378.400000,607.630000,377.440000,599.290000,377.440000,599.290000C377.440000,599.290000,374.650000,578.890000,374.240000,567.230000C373.830000,555.570000,371.740000,529.350000,371.740000,529.350000C371.740000,529.350000,373.920000,513.130000,374.250000,505.410000C374.370000,502.570000,375.640000,499.020000,377.250000,495.680000C379.052000,491.909000,381.124000,488.273000,383.450000,484.800000C383.450000,484.800000,482.100000,455.640000,486.240000,458.540000C487.340000,459.310000,488.940000,464.540000,490.520000,472.110000C494.920000,493.260000,499.220000,532.960000,492.480000,547.660000Z" fill="rgb(68,64,83)" stroke="none" stroke-width="1"/><path id="e8mnhz523tqo91" d="M431.700000,293.190000C447.567000,293.190000,460.430000,280.327000,460.430000,264.460000C460.430000,248.593000,447.567000,235.730000,431.700000,235.730000C415.833000,235.730000,402.970000,248.593000,402.970000,264.460000C402.970000,280.327000,415.833000,293.190000,431.700000,293.190000Z" fill="rgb(161,97,106)" stroke="none" stroke-width="1"/><path id="e8mnhz523tqo92" d="M490.520000,472.130000C487.210000,473.830000,484.990000,475,484.990000,475C484.990000,475,438.360000,497.070000,425.100000,495.820000C414.840000,494.820000,388.650000,495.390000,377.240000,495.670000C379.042000,491.899000,381.114000,488.263000,383.440000,484.790000C383.440000,484.790000,482.100000,455.640000,486.240000,458.540000C487.340000,459.330000,488.940000,464.540000,490.520000,472.130000Z" opacity="0.1" fill="rgb(0,0,0)" stroke="none" stroke-width="1"/><path id="e8mnhz523tqo93" d="M411.710000,310.340000C411.710000,310.340000,385.100000,314.540000,378.820000,318.660000C372.540000,322.780000,360.100000,330.740000,360.100000,347.810000C360.100000,364.880000,357.190000,382.370000,355.520000,387.360000C353.850000,392.350000,381.750000,432.740000,381.750000,432.740000L371.750000,493.950000C371.750000,493.950000,411.750000,492.700000,425.070000,493.950000C438.390000,495.200000,485,473.130000,485,473.130000C485,473.130000,512.480000,458.560000,518.310000,458.130000C524.140000,457.700000,506.650000,426.070000,506.650000,426.070000C506.650000,426.070000,479.580000,374.870000,484.160000,366.540000C488.740000,358.210000,492.100000,346.140000,492.100000,346.140000L487.100000,303.680000C487.100000,303.680000,479.610000,301.180000,473.360000,305.760000C467.110000,310.340000,445.880000,307.840000,445.880000,307.840000L411.710000,310.340000Z" fill="rgb(255,100,132)" stroke="none" stroke-width="1"/><path id="e8mnhz523tqo94" d="M366.540000,384.450000L356.100000,387.360000L353.210000,426.540000C353.210000,426.540000,356.960000,436.950000,353.210000,440.280000C349.460000,443.610000,348.630000,514.810000,348.630000,514.810000C348.630000,514.810000,360.710000,523.550000,374.860000,516.890000C374.860000,516.890000,372.780000,508.980000,379.030000,480.250000C385.280000,451.520000,385.270000,436.950000,385.270000,436.950000C385.270000,436.950000,385.270000,401.140000,388.190000,395.310000C391.110000,389.480000,388.190000,374.910000,388.190000,374.910000C388.190000,374.910000,382.360000,367,382.770000,364.090000C383.180000,361.180000,366.540000,384.450000,366.540000,384.450000Z" opacity="0.1" fill="rgb(0,0,0)" stroke="none" stroke-width="1"/><path id="e8mnhz523tqo95" d="M371.530000,519.190000C365.399000,521.254000,358.726000,521.012000,352.760000,518.510000C353.519000,516.376000,354.411000,514.292000,355.430000,512.270000L366.750000,505.400000C366.750000,505.400000,369.100000,511.290000,371.530000,519.190000Z" opacity="0.1" fill="rgb(0,0,0)" stroke="none" stroke-width="1"/><path id="e8mnhz523tqo96" d="M365.910000,384.450000L355.500000,387.360000L352.590000,426.540000C352.590000,426.540000,356.340000,436.950000,352.590000,440.280000C348.840000,443.610000,348.010000,514.810000,348.010000,514.810000C348.010000,514.810000,360.100000,523.540000,374.240000,516.850000C374.240000,516.850000,372.160000,508.940000,378.400000,480.210000C384.640000,451.480000,384.650000,436.910000,384.650000,436.910000C384.650000,436.910000,384.650000,401.100000,387.560000,395.270000C390.470000,389.440000,387.560000,374.870000,387.560000,374.870000C387.560000,374.870000,381.730000,366.960000,382.150000,364.050000C382.570000,361.140000,365.910000,384.450000,365.910000,384.450000Z" fill="rgb(255,100,132)" stroke="none" stroke-width="1"/><path id="e8mnhz523tqo97" d="M472.500000,390.690000C472.500000,390.690000,467.090000,437.320000,451.260000,446.070000C451.260000,446.070000,486.650000,436.080000,472.500000,390.690000Z" opacity="0.1" fill="rgb(0,0,0)" stroke="none" stroke-width="1"/><path id="e8mnhz523tqo98" d="M392.980000,394.860000C392.980000,394.860000,412.540000,404.430000,407.980000,411.090000C403.420000,417.750000,392.980000,394.860000,392.980000,394.860000Z" opacity="0.1" fill="rgb(0,0,0)" stroke="none" stroke-width="1"/><path id="e8mnhz523tqo99" d="M392.980000,414.010000C392.980000,414.010000,405.470000,426.920000,402.980000,431.500000C400.490000,436.080000,392.980000,414.010000,392.980000,414.010000Z" opacity="0.1" fill="rgb(0,0,0)" stroke="none" stroke-width="1"/><path id="e8mnhz523tqo100" d="M493.730000,307.010000C493.730000,307.010000,498.630000,315.330000,499.100000,320.750000C499.570000,326.170000,493.730000,307.010000,493.730000,307.010000Z" opacity="0.1" fill="rgb(0,0,0)" stroke="none" stroke-width="1"/><path id="e8mnhz523tqo101" d="M493.730000,295.770000C493.730000,295.770000,496.190000,293.680000,502.470000,295.770000C508.750000,297.860000,493.730000,295.770000,493.730000,295.770000Z" opacity="0.1" fill="rgb(0,0,0)" stroke="none" stroke-width="1"/><path id="e8mnhz523tqo102" d="M469.690000,539.120000C459.374000,540.583000,448.854000,539.236000,439.240000,535.220000L433.990000,548.660000L433.410000,542.440000C434.270000,537.220000,435.940000,531.630000,439.240000,530.220000C439.240000,530.220000,450.800000,539.430000,469.690000,539.120000Z" opacity="0.1" fill="rgb(0,0,0)" stroke="none" stroke-width="1"/><path id="e8mnhz523tqo103" d="M384.280000,556.610000C384.280000,556.610000,409.890000,561.920000,417.070000,560.980000L384.280000,556.610000Z" opacity="0.1" fill="rgb(0,0,0)" stroke="none" stroke-width="1"/><path id="e8mnhz523tqo104" d="M386.940000,563.320000C386.940000,563.320000,397.870000,562.850000,403.330000,565.040000L386.940000,563.320000Z" opacity="0.1" fill="rgb(0,0,0)" stroke="none" stroke-width="1"/><path id="e8mnhz523tqo105" d="M388.190000,567.850000C393.177000,568.909000,398.239000,569.578000,403.330000,569.850000L388.190000,567.850000Z" opacity="0.1" fill="rgb(0,0,0)" stroke="none" stroke-width="1"/><path id="e8mnhz523tqo106" d="M387.560000,625.150000C388.030000,624.840000,409.420000,619.840000,412.080000,623.430000L387.560000,625.150000Z" opacity="0.1" fill="rgb(0,0,0)" stroke="none" stroke-width="1"/><path id="e8mnhz523tqo107" d="M387.560000,631.710000C387.560000,631.710000,406.140000,629.520000,406.610000,631.710000C407.080000,633.900000,387.560000,631.710000,387.560000,631.710000Z" opacity="0.1" fill="rgb(0,0,0)" stroke="none" stroke-width="1"/><path id="e8mnhz523tqo108" d="M387.560000,637.640000C387.560000,637.640000,407.390000,633.540000,409.730000,634.540000C412.070000,635.540000,387.560000,637.640000,387.560000,637.640000Z" opacity="0.1" fill="rgb(0,0,0)" stroke="none" stroke-width="1"/><path id="e8mnhz523tqo109" d="M388.500000,777.540000L366.020000,793C366.020000,793,366.150000,791.190000,366.370000,788.530000C371.370000,776.230000,377.880000,769.740000,377.880000,769.740000C382.950000,768.420000,386.150000,769.640000,388.140000,772.030000C388.220000,775.350000,388.500000,777.540000,388.500000,777.540000Z" opacity="0.1" fill="rgb(0,0,0)" stroke="none" stroke-width="1"/><path id="e8mnhz523tqo110" d="M390.690000,791.430000C387.513000,798.677000,385.915000,806.518000,386,814.430000C386.127000,820.918000,384.481000,827.318000,381.240000,832.940000C380.771000,833.732000,380.243000,834.488000,379.660000,835.200000C379.660000,835.200000,364.040000,835.070000,358.570000,830.540000C357.955000,830.054000,357.454000,829.439000,357.100000,828.740000C353.970000,822.500000,363.190000,798.610000,363.190000,798.610000C368.030000,780.190000,377.860000,770.350000,377.860000,770.350000C395.370000,765.820000,390.690000,791.430000,390.690000,791.430000Z" fill="rgb(68,64,83)" stroke="none" stroke-width="1"/><path id="e8mnhz523tqo111" d="M381.240000,832.890000C380.771000,833.682000,380.243000,834.438000,379.660000,835.150000C379.660000,835.150000,364.040000,835.020000,358.570000,830.490000C361.260000,821.590000,369.840000,794.660000,373.860000,799.240000C377.640000,803.540000,380.270000,824.230000,381.240000,832.890000Z" opacity="0.1" fill="rgb(0,0,0)" stroke="none" stroke-width="1"/><path id="e8mnhz523tqo112" d="M379.100000,800.910000L378.010000,841.250000L383.250000,841.250000C383.250000,841.250000,384.100000,805.860000,386.440000,800.910000C388.780000,795.960000,379.100000,800.910000,379.100000,800.910000Z" fill="rgb(68,64,83)" stroke="none" stroke-width="1"/><path id="e8mnhz523tqo113" d="M444.240000,804.230000C444.240000,804.230000,421.290000,782.530000,423.630000,780.810000C424.260000,780.350000,424.880000,778.500000,425.450000,776.040000C429.860000,775.270000,437.450000,777.110000,443.730000,794.730000C443.880000,799.730000,444.240000,804.230000,444.240000,804.230000Z" opacity="0.1" fill="rgb(0,0,0)" stroke="none" stroke-width="1"/><path id="e8mnhz523tqo114" d="M447.670000,828.430000C447.494000,828.506000,447.309000,828.559000,447.120000,828.590000C444.420000,829.060000,434.470000,828.790000,428.900000,828.590000C427.879000,828.556000,426.912000,828.128000,426.201000,827.395000C425.490000,826.661000,425.092000,825.681000,425.090000,824.660000C425.090000,823.160000,425.090000,821.330000,424.970000,819.380000C424.710000,813.220000,423.970000,805.890000,421.760000,804.240000C417.850000,801.240000,414.760000,791.060000,421.760000,778.170000C421.760000,778.170000,435.180000,767.920000,444.860000,798.730000C444.860000,798.730000,445.800000,807.520000,450.010000,810.640000C454.220000,813.760000,449.550000,827.540000,447.670000,828.430000Z" fill="rgb(68,64,83)" stroke="none" stroke-width="1"/><path id="e8mnhz523tqo115" d="M447.100000,828.590000C444.400000,829.060000,434.450000,828.790000,428.880000,828.590000C427.859000,828.556000,426.892000,828.128000,426.181000,827.395000C425.470000,826.661000,425.072000,825.681000,425.070000,824.660000C425.070000,823.160000,425.070000,821.330000,424.950000,819.380000C426.640000,811.920000,429.070000,804.240000,432.200000,802.490000C432.220000,802.480000,441.690000,801.410000,447.100000,828.590000Z" opacity="0.1" fill="rgb(0,0,0)" stroke="none" stroke-width="1"/><path id="e8mnhz523tqo116" d="M423.460000,801.580000L425.980000,835.150000L429.180000,835.150000L429.180000,798.720000L423.460000,801.580000Z" fill="rgb(68,64,83)" stroke="none" stroke-width="1"/><path id="e8mnhz523tqo117" d="M431.280000,218.680000C422.209000,219.355000,413.428000,222.176000,405.660000,226.910000C403.660000,228.120000,401.660000,229.590000,400.830000,231.760000C400.110000,233.640000,400.410000,235.760000,400.440000,237.760000C400.710000,254.980000,381.510000,268.010000,382.110000,285.220000C382.350000,292.050000,385.780000,298.410000,386.410000,305.220000C387.460000,316.580000,380.740000,327.030000,374.300000,336.440000C380.935000,336.844000,387.470000,334.677000,392.550000,330.390000C399.345000,353.040000,400.223000,377.054000,395.100000,400.140000L404.310000,400.140000C405.220000,400.074000,406.133000,400.186000,407,400.470000C407.808000,400.854000,408.532000,401.394000,409.130000,402.060000C417.740000,410.630000,423.510000,423.300000,420.220000,435L439.820000,427.650000C444.510000,425.890000,449.270000,424.100000,453.350000,421.200000C457.430000,418.300000,460.850000,414.090000,461.710000,409.150000C462.240000,406.150000,462.070000,402.570000,464.540000,400.830000C465.757000,400.183000,467.055000,399.702000,468.400000,399.400000C473.780000,397.500000,476.160000,391.280000,477.260000,385.680000C478.599000,378.809000,479.020000,371.791000,478.510000,364.810000C477.640000,353.110000,474.180000,341.230000,477.030000,329.810000C478.640000,323.400000,482.220000,317.430000,482.510000,310.810000C482.980000,299.900000,474.450000,290.500000,473.180000,279.650000C472.290000,272.090000,475.020000,264.440000,474.130000,256.880000C473.636000,252.978000,472.208000,249.253000,469.968000,246.020000C467.727000,242.787000,464.740000,240.142000,461.260000,238.310000C458.850000,237.070000,456.260000,236.240000,453.880000,234.870000C448.450000,231.720000,444.980000,226.050000,440.050000,222.150000C435.120000,218.250000,426.910000,216.780000,423.200000,221.850000L431.280000,218.680000Z" opacity="0.1" fill="rgb(0,0,0)" stroke="none" stroke-width="1"/><path id="e8mnhz523tqo118" d="M431.280000,217.430000C422.209000,218.105000,413.428000,220.926000,405.660000,225.660000C403.660000,226.870000,401.660000,228.340000,400.830000,230.510000C400.110000,232.390000,400.410000,234.510000,400.440000,236.510000C400.710000,253.730000,381.510000,266.760000,382.110000,283.980000C382.350000,290.800000,385.780000,297.160000,386.410000,303.980000C387.460000,315.340000,380.740000,325.790000,374.300000,335.210000C380.933000,335.599000,387.463000,333.434000,392.550000,329.160000C399.344000,351.804000,400.222000,375.811000,395.100000,398.890000L404.310000,398.890000C405.220000,398.827000,406.134000,398.942000,407,399.230000C407.810000,399.607000,408.535000,400.144000,409.130000,400.810000C417.740000,409.390000,423.510000,422.050000,420.220000,433.750000L439.820000,426.400000C444.510000,424.640000,449.270000,422.850000,453.350000,419.950000C457.430000,417.050000,460.850000,412.840000,461.710000,407.900000C462.240000,404.900000,462.070000,401.320000,464.540000,399.580000C465.757000,398.933000,467.055000,398.452000,468.400000,398.150000C473.780000,396.250000,476.160000,390.030000,477.260000,384.430000C478.611000,377.554000,479.042000,370.529000,478.540000,363.540000C477.670000,351.840000,474.210000,339.960000,477.060000,328.540000C478.670000,322.130000,482.250000,316.160000,482.540000,309.540000C483.010000,298.630000,474.480000,289.230000,473.210000,278.380000C472.320000,270.820000,475.050000,263.180000,474.160000,255.610000C473.664000,251.709000,472.236000,247.984000,469.996000,244.751000C467.755000,241.519000,464.769000,238.874000,461.290000,237.040000C458.880000,235.800000,456.290000,234.970000,453.910000,233.610000C448.480000,230.450000,445.010000,224.780000,440.080000,220.880000C435.150000,216.980000,426.940000,215.510000,423.230000,220.580000L431.280000,217.430000Z" fill="rgb(146,89,120)" stroke="none" stroke-width="1"/><g id="e8mnhz523tqo119" opacity="0.1"><path id="e8mnhz523tqo120" d="M400.420000,232.350000C400.380000,232.735000,400.360000,233.123000,400.360000,233.510000C400.390000,233.130000,400.410000,232.740000,400.420000,232.350000Z" opacity="0.1" fill="rgb(0,0,0)" stroke="none" stroke-width="1"/><path id="e8mnhz523tqo121" d="M473.100000,272.380000C473.460000,267.080000,474.640000,261.760000,474.200000,256.480000C473.870000,261.780000,472.690000,267.100000,473.100000,272.380000Z" opacity="0.1" fill="rgb(0,0,0)" stroke="none" stroke-width="1"/><path id="e8mnhz523tqo122" d="M386.410000,298.730000C385.830000,292.530000,382.940000,286.730000,382.260000,280.540000C382.124000,281.675000,382.074000,282.818000,382.110000,283.960000C382.350000,290.710000,385.700000,297.020000,386.380000,303.740000C386.545000,302.075000,386.555000,300.397000,386.410000,298.730000Z" opacity="0.1" fill="rgb(0,0,0)" stroke="none" stroke-width="1"/><path id="e8mnhz523tqo123" d="M477.100000,323.360000C476.164000,327.429000,475.827000,331.613000,476.100000,335.780000C476.200000,333.350000,476.535000,330.935000,477.100000,328.570000C478.710000,322.160000,482.290000,316.190000,482.580000,309.570000C482.627000,308.394000,482.574000,307.217000,482.420000,306.050000C481.640000,312,478.530000,317.540000,477.100000,323.360000Z" opacity="0.1" fill="rgb(0,0,0)" stroke="none" stroke-width="1"/><path id="e8mnhz523tqo124" d="M392.550000,323.900000C388.379000,327.395000,383.217000,329.494000,377.790000,329.900000C376.650000,331.680000,375.470000,333.420000,374.300000,335.140000C380.933000,335.529000,387.463000,333.364000,392.550000,329.090000C396.203000,341.246000,398.162000,353.848000,398.370000,366.540000C398.667000,352.110000,396.703000,337.723000,392.550000,323.900000L392.550000,323.900000Z" opacity="0.1" fill="rgb(0,0,0)" stroke="none" stroke-width="1"/><path id="e8mnhz523tqo125" d="M477.290000,379.190000C476.190000,384.790000,473.810000,391.010000,468.430000,392.900000C467.083000,393.200000,465.784000,393.685000,464.570000,394.340000C462.100000,396.080000,462.270000,399.680000,461.740000,402.660000C460.880000,407.600000,457.470000,411.800000,453.380000,414.660000C449.290000,417.520000,444.540000,419.360000,439.850000,421.120000L421.150000,428.120000C421.053000,429.997000,420.751000,431.858000,420.250000,433.670000L439.850000,426.320000C444.540000,424.560000,449.300000,422.770000,453.380000,419.870000C457.460000,416.970000,460.880000,412.760000,461.740000,407.820000C462.270000,404.820000,462.100000,401.240000,464.570000,399.500000C465.787000,398.853000,467.085000,398.372000,468.430000,398.070000C473.810000,396.170000,476.190000,389.950000,477.290000,384.350000C478.429000,378.522000,478.902000,372.584000,478.700000,366.650000C478.568000,370.861000,478.097000,375.055000,477.290000,379.190000L477.290000,379.190000Z" opacity="0.1" fill="rgb(0,0,0)" stroke="none" stroke-width="1"/><path id="e8mnhz523tqo126" d="M409.160000,395.540000C408.565000,394.871000,407.840000,394.330000,407.030000,393.950000C406.163000,393.666000,405.250000,393.551000,404.340000,393.610000L396.170000,393.610000C395.850000,395.350000,395.510000,397.090000,395.170000,398.820000L404.380000,398.820000C405.290000,398.757000,406.204000,398.872000,407.070000,399.160000C407.880000,399.537000,408.605000,400.074000,409.200000,400.740000C415.500000,407.020000,420.270000,415.480000,421.090000,424.160000C422.100000,413.780000,416.720000,403.100000,409.160000,395.540000Z" opacity="0.1" fill="rgb(0,0,0)" stroke="none" stroke-width="1"/></g><path id="e8mnhz523tqo127" d="M363.470000,429.620000C363.470000,429.620000,370.910000,426.500000,372.570000,429.620000C374.230000,432.740000,363.470000,429.620000,363.470000,429.620000Z" opacity="0.1" fill="rgb(0,0,0)" stroke="none" stroke-width="1"/><path id="e8mnhz523tqo128" d="M366.100000,434.970000C366.100000,434.970000,373.540000,431.850000,375.210000,434.970000C376.880000,438.090000,366.100000,434.970000,366.100000,434.970000Z" opacity="0.1" fill="rgb(0,0,0)" stroke="none" stroke-width="1"/></g><g id="e8mnhz523tqo129"><path id="e8mnhz523tqo130" d="M827.210000,31.220000C827.210000,31.220000,789.160000,28.930000,793.650000,55.590000C793.650000,55.590000,792.760000,60.300000,797.030000,62.440000C797.030000,62.440000,797.100000,60.440000,800.930000,61.130000C802.294000,61.359500,803.680000,61.426700,805.060000,61.330000C806.923000,61.201000,808.692000,60.467100,810.100000,59.240000L810.100000,59.240000C810.100000,59.240000,820.790000,54.830000,824.950000,37.350000C824.950000,37.350000,828.030000,33.530000,827.950000,32.550000L821.530000,35.300000C821.530000,35.300000,823.720000,39.930000,821.990000,43.780000C821.990000,43.780000,821.790000,35.460000,820.550000,35.660000C820.300000,35.660000,817.220000,37.260000,817.220000,37.260000C817.220000,37.260000,820.990000,45.330000,818.140000,51.200000C818.140000,51.200000,819.220000,41.260000,816.040000,37.850000L811.500000,40.540000C811.500000,40.540000,815.910000,48.870000,812.920000,55.670000C812.920000,55.670000,813.690000,45.240000,810.550000,41.180000L806.450000,44.370000C806.450000,44.370000,810.600000,52.540000,808.100000,58.180000C808.100000,58.180000,807.770000,46.030000,805.590000,45.120000C805.590000,45.120000,802.010000,48.280000,801.470000,49.580000C801.470000,49.580000,804.300000,55.580000,802.540000,58.680000C802.540000,58.680000,801.460000,50.600000,800.540000,50.560000C800.540000,50.560000,796.970000,55.920000,796.600000,59.560000C796.773000,56.163500,797.832000,52.871300,799.670000,50.010000C797.610000,50.399800,795.711000,51.387600,794.210000,52.850000C794.210000,52.850000,794.760000,49.060000,800.550000,48.720000C800.550000,48.720000,803.500000,44.660000,804.290000,44.410000C804.290000,44.410000,798.530000,43.930000,795.040000,45.480000C795.040000,45.480000,798.110000,41.900000,805.350000,43.480000L809.350000,40.180000C809.350000,40.180000,801.770000,39.180000,798.550000,40.290000C798.550000,40.290000,802.250000,37.130000,810.440000,39.430000L814.840000,36.800000C814.840000,36.800000,808.380000,35.400000,804.530000,35.910000C804.530000,35.910000,808.590000,33.720000,816.130000,36.090000L819.280000,34.680000C819.280000,34.680000,814.540000,33.750000,813.160000,33.600000C811.780000,33.450000,811.700000,33.070000,811.700000,33.070000C814.699000,32.570900,817.777000,32.917200,820.590000,34.070000C820.590000,34.070000,827.320000,31.640000,827.210000,31.220000Z" opacity="0.1" fill="rgb(90,87,115)" stroke="none" stroke-width="1"/><path id="e8mnhz523tqo131" d="M772.980000,9.599980C772.980000,9.599980,740.980000,30.310000,760.390000,49.120000C760.390000,49.120000,762.460000,53.440000,767.170000,52.640000C767.170000,52.640000,766.050000,51,769.540000,49.270000C770.777000,48.647000,771.935000,47.878200,772.990000,46.980000C774.415000,45.771600,775.408000,44.132500,775.820000,42.310000L775.820000,42.310000C775.820000,42.310000,781.820000,32.410000,774.820000,15.870000C774.820000,15.870000,775.040000,10.970000,774.360000,10.250000L770.820000,16.250000C770.820000,16.250000,775.330000,18.680000,776.220000,22.800000C776.220000,22.800000,771.130000,16.230000,770.220000,17.120000C770.040000,17.300000,768.480000,20.390000,768.480000,20.390000C768.480000,20.390000,776.310000,24.650000,777.480000,31.060000C777.480000,31.060000,772.480000,22.410000,767.870000,21.560000L765.790000,26.360000C765.790000,26.360000,774.290000,30.460000,775.910000,37.710000C775.910000,37.710000,770.340000,28.850000,765.410000,27.440000L764.010000,32.440000C764.010000,32.440000,772.210000,36.600000,773.520000,42.640000C773.520000,42.640000,766.060000,33.060000,763.760000,33.640000C763.760000,33.640000,762.760000,38.300000,763.080000,39.640000C763.080000,39.640000,768.900000,42.760000,769.340000,46.340000C769.340000,46.340000,763.680000,40.470000,762.950000,40.960000C762.950000,40.960000,763.250000,47.390000,765.120000,50.570000C763.250000,47.730800,762.154000,44.452700,761.940000,41.060000C760.512000,42.593900,759.566000,44.513300,759.220000,46.580000C759.220000,46.580000,757.420000,43.200000,761.890000,39.500000C761.890000,39.500000,761.890000,34.500000,762.340000,33.810000C762.340000,33.810000,757.420000,36.810000,755.520000,40.150000C755.520000,40.150000,755.880000,35.450000,762.670000,32.470000L763.970000,27.420000C763.970000,27.420000,757.250000,31.080000,755.340000,33.910000C755.340000,33.910000,756.450000,29.170000,764.400000,26.170000L766.400000,21.440000C766.400000,21.440000,760.400000,24.150000,757.560000,26.840000C757.560000,26.840000,759.560000,22.660000,767.020000,20.110000L768.720000,17.110000C768.720000,17.110000,764.350000,19.170000,763.150000,19.870000C761.950000,20.570000,761.660000,20.310000,761.660000,20.310000C763.779000,18.130100,766.462000,16.582400,769.410000,15.840000C769.410000,15.840000,773.320000,9.879980,772.980000,9.599980Z" opacity="0.1" fill="rgb(90,87,115)" stroke="none" stroke-width="1"/><path id="e8mnhz523tqo132" d="M724.280000,33.730000C724.280000,33.730000,705.150000,66.730000,730.980000,74.660000C730.980000,74.660000,734.790000,77.570000,738.620000,74.660000C738.620000,74.660000,736.890000,73.720000,739.210000,70.590000C740.016000,69.472800,740.687000,68.264400,741.210000,66.990000C741.933000,65.265500,742.077000,63.353100,741.620000,61.540000L741.620000,61.540000C741.620000,61.540000,742.470000,50,728.720000,38.430000C728.720000,38.430000,726.720000,33.970000,725.720000,33.640000L725.290000,40.640000C725.290000,40.640000,730.410000,40.760000,733.080000,44.030000C733.080000,44.030000,725.560000,40.480000,725.180000,41.670000C725.100000,41.910000,725.110000,45.370000,725.110000,45.370000C725.110000,45.370000,734.100000,45.640000,738.100000,50.820000C738.100000,50.820000,729.700000,45.390000,725.230000,46.710000L725.550000,51.930000C725.550000,51.930000,734.980000,51.730000,739.710000,57.460000C739.710000,57.460000,730.710000,52.090000,725.710000,53.070000L726.710000,58.160000C726.710000,58.160000,735.910000,58.160000,739.810000,62.940000C739.810000,62.940000,728.810000,57.780000,727.020000,59.310000C727.020000,59.310000,728.230000,63.930000,729.150000,65C729.150000,65,735.750000,65.140000,737.770000,68.130000C737.770000,68.130000,730.060000,65.460000,729.630000,66.240000C729.630000,66.240000,732.820000,71.830000,735.930000,73.810000C732.979000,72.137100,730.515000,69.724600,728.780000,66.810000C728.205000,68.823700,728.233000,70.961900,728.860000,72.960000C728.860000,72.960000,725.720000,70.770000,728.020000,65.440000C728.020000,65.440000,725.720000,60.980000,725.850000,60.170000C725.850000,60.170000,722.850000,65.100000,722.650000,68.910000C722.650000,68.910000,720.830000,64.560000,725.530000,58.830000L724.400000,53.730000C724.400000,53.730000,720.070000,60.040000,719.650000,63.430000C719.650000,63.430000,718.490000,58.700000,724.220000,52.430000L723.840000,47.320000C723.840000,47.320000,719.700000,52.470000,718.420000,56.140000C718.420000,56.140000,718.280000,51.520000,723.790000,45.850000L723.940000,42.400000C723.940000,42.400000,720.940000,46.210000,720.230000,47.400000C719.520000,48.590000,719.100000,48.420000,719.100000,48.420000C720.001000,45.513700,721.690000,42.914100,723.980000,40.910000C723.980000,40.910000,724.700000,33.820000,724.280000,33.730000Z" opacity="0.1" fill="rgb(90,87,115)" stroke="none" stroke-width="1"/></g></g></svg>