<svg width="43" height="43" viewBox="0 0 43 43" fill="none" xmlns="http://www.w3.org/2000/svg">
<g clip-path="url(#clip0)">
<path d="M42.5 0H0V42.5H42.5V0Z" fill="#E9E9ED"/>
<path d="M17.7656 4.88916L17.5996 5.104C16.8525 4.50993 16.208 4.07373 15.666 3.79541V6.28076H15.3853V3.46582C14.9132 4.02897 14.2785 4.5734 13.481 5.09912L13.3052 4.86963C14.5324 4.13721 15.3657 3.27051 15.8052 2.26953H13.4053V2.00098H17.6558V2.26953H16.1104C15.9899 2.52832 15.8418 2.80013 15.666 3.08496V3.48535C16.5986 4.02572 17.2985 4.49365 17.7656 4.88916ZM22.4604 5.89502C22.4604 6.03011 22.4116 6.12451 22.314 6.17822C22.2179 6.23193 22.0007 6.25879 21.6621 6.25879C21.5856 6.25879 21.5116 6.25716 21.4399 6.25391L21.3594 5.98047C21.4831 5.99023 21.6035 5.99512 21.7207 5.99512C21.9583 5.99512 22.0967 5.98535 22.1357 5.96582C22.1748 5.94629 22.1943 5.91455 22.1943 5.87061V4.66455H20.7808V6.12939H20.5098V4.66455H19.084C19.0042 5.34977 18.8325 5.87467 18.5688 6.23926L18.3345 6.07568C18.6714 5.57764 18.8398 4.97705 18.8398 4.27393V1.979H22.4604V5.89502ZM22.1943 3.16064V2.25H20.7808V3.16064H22.1943ZM20.5098 3.16064V2.25H19.1108V3.16064H20.5098ZM22.1943 4.40576V3.43408H20.7808V4.40576H22.1943ZM20.5098 4.40576V3.43408H19.1108V4.40576H20.5098Z" fill="#E60012"/>
<path d="M26.7676 5.93555H24.9961V6.19141H24.7793V3.94727C24.7168 4.04883 24.6517 4.14518 24.584 4.23633L24.416 4.07617C24.7025 3.71289 24.9368 3.24349 25.1191 2.66797L25.332 2.75195C25.2669 2.94987 25.179 3.16862 25.0684 3.4082H25.7754C25.7467 3.26497 25.6842 3.0638 25.5879 2.80469L25.7871 2.69922C25.877 2.92318 25.9505 3.15951 26.0078 3.4082H26.6719V3.62305H25.9551V4.1875H26.623V4.39648H25.9551V4.93945H26.623V5.15234H25.9551V5.72852H26.7676V5.93555ZM25.748 4.1875V3.62305H24.9961V4.1875H25.748ZM25.748 4.93945V4.39648H24.9961V4.93945H25.748ZM25.748 5.72852V5.15234H24.9961V5.72852H25.748ZM24.5234 3.61523H24.0527V4.45117C24.2324 4.37435 24.3535 4.31966 24.416 4.28711L24.4648 4.48828C24.3216 4.56641 24.1842 4.63151 24.0527 4.68359V5.88867C24.0527 5.98112 24.0299 6.05273 23.9844 6.10352C23.9388 6.1543 23.8828 6.18359 23.8164 6.19141C23.75 6.19922 23.6217 6.20312 23.4316 6.20312L23.3555 5.98828C23.4349 5.99089 23.5013 5.99219 23.5547 5.99219C23.681 5.99219 23.7604 5.98372 23.793 5.9668C23.8268 5.94857 23.8438 5.91667 23.8438 5.87109V4.77148C23.6562 4.8444 23.487 4.9056 23.3359 4.95508L23.2637 4.74805C23.4316 4.69596 23.625 4.62826 23.8438 4.54492V3.61523H23.2871V3.4082H23.8438V2.70703H24.0527V3.4082H24.5234V3.61523ZM28.6992 3.43555L28.5352 3.57227C28.4076 3.39909 28.2331 3.22005 28.0117 3.03516C27.8724 3.26693 27.7194 3.48177 27.5527 3.67969H28.5V3.86719H28.0957V4.30078H28.6113V4.48828H28.0957V5.72852C28.1426 5.7207 28.2949 5.67643 28.5527 5.5957L28.5605 5.79688C28.0618 5.95443 27.651 6.06641 27.3281 6.13281L27.2598 5.93555C27.4303 5.9043 27.6452 5.85352 27.9043 5.7832V4.48828H27.3555V4.30078H27.9043V3.86719H27.5234V3.7168C27.487 3.75586 27.4408 3.79818 27.3848 3.84375L27.248 3.69141C27.5319 3.41146 27.7747 3.07422 27.9766 2.67969L28.1484 2.7793C28.1458 2.79232 28.1309 2.82161 28.1035 2.86719C28.3327 3.05208 28.5312 3.24154 28.6992 3.43555ZM30.5645 5.93555C30.5645 6.0293 30.5345 6.09635 30.4746 6.13672C30.416 6.17839 30.2956 6.19922 30.1133 6.19922C30.043 6.19922 29.9622 6.19661 29.8711 6.19141L29.8047 5.98438C29.9206 5.99089 30.0384 5.99414 30.1582 5.99414C30.2507 5.99414 30.3073 5.98828 30.3281 5.97656C30.349 5.96484 30.3594 5.94727 30.3594 5.92383V5.05273C29.9896 5.24154 29.5697 5.4375 29.0996 5.64062L28.9922 5.49609C28.9427 5.73307 28.8438 5.96875 28.6953 6.20312L28.5234 6.07617C28.7448 5.74935 28.8555 5.30013 28.8555 4.72852V3.90039H29.5957V2.70312H29.8008V3.90039H30.5645V5.93555ZM30.3594 4.83984V4.09961H29.0645V4.43164C29.4811 4.44466 29.8424 4.49154 30.1484 4.57227L30.0801 4.77148C29.7754 4.69206 29.4368 4.64453 29.0645 4.62891C29.0645 4.89453 29.043 5.16992 29 5.45508C29.5326 5.24935 29.9857 5.04427 30.3594 4.83984ZM30.7246 2.89648C30.571 3.22331 30.4199 3.48568 30.2715 3.68359L30.0879 3.57227C30.2493 3.36263 30.4017 3.10091 30.5449 2.78711L30.7246 2.89648ZM29.2754 3.59961L29.0918 3.69141C29.0358 3.48828 28.9121 3.22591 28.7207 2.9043L28.9043 2.80078C29.0814 3.10026 29.2051 3.36654 29.2754 3.59961ZM28.6035 4.80859C28.5579 5.07682 28.502 5.30599 28.4355 5.49609L28.2441 5.43555C28.3236 5.24023 28.3809 5.01367 28.416 4.75586L28.6035 4.80859ZM27.7168 5.56445L27.5156 5.61914C27.4909 5.33789 27.4375 5.07422 27.3555 4.82812L27.5352 4.75977C27.6081 4.99284 27.6686 5.26107 27.7168 5.56445Z" fill="black"/>
<path d="M24.5 13.4C24.5 15.4 23 19.3 21.2 19.3C19.3 19.3 17.8 15.5 17.8 13.4C17.8 11.3 19 10.1 20.9 10.1C22.7 10.1 24.5 11.4 24.5 13.4Z" fill="#EECAA6"/>
<path d="M19 11.9L18.5 14.8H18C18 14.8 16.7 10.7 20.7 10C22.5 9.8 25.4 11.4 24.4 14.8L23.8 14.9L23.6 13.5C23.5 13.5 19.9 12.1 19 11.9Z" fill="#303E57"/>
<path d="M19.6 18.2L19.2 20.8L21.2 22.7L23 20.7L22.9 18C22.9 18 21.4 20.5 19.6 18.2Z" fill="#EECAA6"/>
<path d="M19 20.7H16.4C16.4 20.7 14.4 20.7 13.7 24L12.7 26.2L10 23.2L9 24.3L11.7 28.7C11.7 28.7 12.9 30.8 14 28.3L16.2 25.2L16.8 34.7H25.4L25.8 25.6L28 28.2L28.6 29C28.6 29 30 30.7 30.8 28.1L33.4 24.2L32.3 23L29.7 26.2L28 23.1C28 23.1 27.6 20.6 25.4 20.4L23 20.5L21.2 22.3L19 20.7Z" fill="#8AB1D0"/>
<path d="M21 22.4L20 23.5L20.7 24.3L20 27.8V28L21 29.5L22.4 28L21.5 24.3L22.2 23.7L21.3 22.4H21Z" fill="#18449A"/>
<path d="M18.9 20.6H16.9L20 23.6L21.2 22.4L22.4 24L25.5 20.4H23.1L21.2 22.4L18.9 20.6Z" fill="#5479BC"/>
<path d="M16.8 34.6C16.8 34.6 16.2 36.4 16.6 38.9L16.9 42.5H20.9V39.8L21.1 39.9L22.1 42.5H25.3L25.7 38.2C25.7 38.2 26.2 35.4 25.4 34.7H16.8V34.6Z" fill="#18449A"/>
<path d="M21.3 8C12.8 8 6 14.8 6 23.2C6 31.6 12.8 38.5 21.2 38.5C29.6 38.5 36.5 31.6 36.5 23.2C36.5 14.8 29.7 8 21.3 8ZM21.3 10.5C24.9 10.5 28.1 12 30.4 14.4L9.9 28.7C9.1 27 8.6 25.2 8.6 23.2C8.6 16.2 14.3 10.5 21.3 10.5ZM21.3 35.9C17.5 35.9 14.1 34.2 11.8 31.6L32.6 17.2C33.5 19 34.1 21 34.1 23.2C34 30.2 28.3 35.9 21.3 35.9Z" fill="#E60012"/>
<path d="M9.79999 22.5L9.39999 22L9.09999 21C9.09999 21 9.09999 20.3 9.29999 19.8L9.39999 19.6C9.39999 19.6 9.49999 18.9 8.89999 19.3L8.39999 20.7L7.99999 20.8C6.79999 20.1 5.59999 20 5.29999 20.5C4.99999 21.1 5.69999 22.1 6.79999 22.8C7.29999 23 7.69999 23.2 7.99999 23.3C8.09999 23.3 8.09999 23.3 8.19999 23.3C8.29999 23.4 8.49999 23.5 8.69999 23.8C8.79999 24 8.89999 24 8.89999 24.1L9.99999 23.3L9.79999 22.5Z" fill="#EECAA6"/>
<path d="M32.6 22.4L33 22L33.4 21C33.4 21 33.4 20.3 33.3 19.8L33.2 19.6C33.2 19.6 33.1 18.8 33.7 19.4L34.1 20.9L34.5 21C35.7 20.4 37 20.4 37.2 21C37.5 21.6 36.7 22.5 35.5 23.1C35.1 23.3 34.7 23.4 34.3 23.5C34.2 23.5 34.2 23.5 34.1 23.5C34 23.5 33.8 23.7 33.6 23.9C33.5 24 33.4 24.1 33.4 24.2L32.4 23.3L32.6 22.4Z" fill="#EECAA6"/>
<path d="M35 20.8L34.1 21.5C34.1 21.5 34 21.6 33.9 21.6C33.9 21.6 33.7 21.5 33.7 21.4C33.6 21.3 33.6 21.3 33.6 21.2C33.6 21.2 33.6 21 33.6 20.9C33.6 20.8 33.6 20.6 33.6 20.6C33.6 20.4 33.7 20.3 33.8 20.2C33.9 20.1 34.6 19.6 34.7 19.5C34.8 19.4 35 19.4 35.3 19.5C35.3 19.5 35.5 19.5 35.5 19.8C35.5 20.1 35.5 20.4 35.4 20.5C35.4 20.6 35.2 20.7 35.2 20.7L35 20.8Z" fill="url(#paint0_linear)"/>
<path d="M35.6 19.5C35.6 19.5 35.6 19.5 35.5 19.5C35.4 19.5 34.3 20.4 34.3 20.4L34 20.6C34 20.7 34 21.2 34 21.2C34 21.2 34 21.5 34.1 21.5C34.2 21.5 34.6 21.2 34.6 21.2L35.6 20.4L35.7 20.3C35.5 20.3 35.6 19.5 35.6 19.5Z" fill="#050000"/>
<path d="M35.4 20.5C35.4 20.5 35.5 20.5 35.6 20.4C35.7 20.4 35.9 20.5 36 20.6C36.1 20.7 36.7 21 36.7 21C36.7 21 36.8 21 36.8 21.1C36.8 21.2 36.8 21.4 36.8 21.5C36.8 21.6 36.5 21.8 36.3 22C36.1 22.2 35.8 22.5 35.5 22.7C35.4 22.8 35.3 22.7 35.2 22.6C35 22.5 34.3 22 34.3 22C34.3 22 34.3 22 34.2 21.9C34.2 21.8 34.1 21.7 34.1 21.7C34.1 21.7 34.1 21.6 34.1 21.5C34.2 21.4 35.4 20.5 35.4 20.5Z" fill="#A6A0AF"/>
<path d="M35.5 22.2C35.5 22.2 35.4 22.3 35.2 22.3C35.1 22.3 34.4 21.9 34.4 21.9L34.1 21.7C34.1 21.7 34 21.6 34.1 21.6C34.2 21.6 35.4 20.6 35.4 20.6C35.4 20.6 35.5 20.5 35.6 20.6C35.7 20.7 36 20.8 36 20.8L36.5 21.1C36.5 21.1 36.5 21.2 36.4 21.3C36.5 21.2 35.5 22.2 35.5 22.2Z" fill="#050000"/>
<path d="M34.8 20.3C34.8 20.3 34.3 20.7 34 21V20.9C34 20.7 34 20.6 34.2 20.5C34.3 20.4 34.8 20 34.8 20C34.8 20 34.9 19.9 35.1 19.8C35.1 19.9 35.1 20 35.1 20C35 20.2 34.9 20.3 34.8 20.3Z" fill="#5B5367"/>
<path d="M34.8 20.3C34.9 20.2 35 20.2 35 20C35 19.9 35 19.8 35 19.8C35.2 19.6 35.5 19.5 35.5 19.5C35.6 19.5 35.6 19.6 35.6 19.7C35.6 19.8 35.6 20.3 35.5 20.4C35.5 20.5 34.7 21.1 34.5 21.2C34.3 21.4 34.1 21.5 34.1 21.5C34.1 21.5 34.1 21.2 34 21C34.3 20.8 34.8 20.4 34.8 20.3Z" fill="#736B82"/>
<path d="M36 20.7C36 20.7 36 20.6 36 20.7C35.9 20.6 35.7 20.4 35.6 20.4C35.5 20.4 35.3 20.4 35.3 20.5C35.3 20.6 35 20.8 34.9 20.8C34.8 20.8 34.7 21 34.7 21C34.7 21 34.2 21.4 34.2 21.5V21.7L34.4 21.9L34.5 22L34.6 22.1" fill="url(#paint1_linear)"/>
<path d="M36.6 21.1V21L36.1 20.7C36.1 20.7 36.1 20.7 36 20.7L35.6 21C35.6 21.1 35.2 21.4 35.1 21.4C35 21.4 34.9 21.5 34.9 21.5L34.6 21.7C34.6 21.7 34.6 21.7 34.6 21.8L34.7 21.9C34.7 21.9 34.9 22 35 22.1C35 22.1 35.2 22.2 35.3 22.2C35.4 22.2 35.5 22.1 35.5 22.1L36.3 21.4L36.6 21.1Z" fill="url(#paint2_linear)"/>
<path d="M35 21.2C34.9 21.3 34.8 21.4 34.6 21.5C34.6 21.5 34.6 21.4 34.7 21.2C34.8 21.1 35.2 20.7 35.4 20.6C35.4 20.6 35.3 20.7 35.3 20.8C35.2 20.9 35.1 21.1 35 21.2Z" fill="url(#paint3_linear)"/>
<path opacity="0.5" d="M35.1 20.8V21C35.1 21 35.4 20.7 35.4 20.6C35.4 20.6 35.3 20.7 35.1 20.8Z" fill="white"/>
<path d="M34.9 21.7L35 21.6V21.5L35.1 21.4L35.2 21.3L35.3 21.2V21.1H35.4L35.5 21V20.9C35.5 21 35.5 21.3 35.5 21.3C35.5 21.4 35.4 21.6 35.4 21.6C35.4 21.6 35.3 21.7 34.9 21.7Z" fill="url(#paint4_linear)"/>
<path d="M34.6 21.6V21.4C34.7 21.4 34.8 21.2 35 21.1C35.1 21 35.3 20.8 35.4 20.7C35.5 20.6 35.5 20.6 35.5 20.5H35.6H35.7V20.6C35.7 20.6 35.7 20.6 35.7 20.7V20.8V20.9V21L35.6 21.1V21.2V21.3H35.5L35.4 21.4L35 21.6H34.9H34.8H34.9H34.8C34.8 21.7 34.7 21.7 34.6 21.6Z" fill="url(#paint5_linear)"/>
<path d="M34.9 21.7V21.6H35V21.5H35.1L35.2 21.4L35.3 21.3L35.2 21.4L35.1 21.5H35V21.6H34.9V21.7H34.8H34.9Z" fill="url(#paint6_linear)"/>
<path d="M35.7 20.9L35.6 21V21.1L35.5 21.2L35.4 21.3V21.2V21.1L35.7 20.9V20.8C35.7 20.8 35.7 20.8 35.7 20.9Z" fill="url(#paint7_linear)"/>
<path d="M35.3 20.8V20.9V21H35.4L35.3 20.8Z" fill="white"/>
<path d="M35.6 21.5H35.5V21.6H35.6V21.5Z" fill="white"/>
<path d="M35.2 21.1L34.9 21.2L34.7 21.4L34.8 21.5V21.6L34.9 21.7V21.6H35V21.5L35.1 21.4H35.2V21.2V21.1Z" fill="#1A256E"/>
<path d="M35.1 21.3V21.4H35V21.3H35.1Z" fill="white"/>
<path d="M35.4 21L35.5 21.1H35.4H35.3L35.4 21.2L35.3 21.3L35.2 21.2L35.3 21H35.4Z" fill="#333A94"/>
<path d="M35.3 20.8V21L35 21.2L35.3 20.8Z" fill="#333A94"/>
<path d="M35.3 20.8L35.4 20.7H35.6V20.9L35.4 21" fill="url(#paint8_linear)"/>
<path opacity="0.5" d="M35.4 20.6V20.7L35.5 20.8L35.7 20.7L35.4 20.6Z" fill="white"/>
<path d="M35.6 20.8V20.9H35.5V20.8H35.6Z" fill="white"/>
<path opacity="0.5" d="M35.5 21.1L35.6 21.3L35.4 21.4L35.3 21.3L35.5 21.1Z" fill="white"/>
<path d="M35.6 21.5L35.7 21.3H35.5V21.4V21.5" fill="url(#paint9_linear)"/>
<path d="M35.5 21.5V21.6H35.2V21.5L35.5 21.4" fill="url(#paint10_linear)"/>
<path opacity="0.3" d="M34.9 21.7H35.3L35.2 21.6H35L35.4 21.5V21.4L35.3 21.3L34.9 21.7Z" fill="white"/>
<path opacity="0.3" d="M35.6 21.3L35.5 21.1L35.7 20.9V21.3" fill="white"/>
<path opacity="0.3" d="M34.7 21.4L34.8 21.6V21.7L34.7 21.6H34.8L34.6 21.4" fill="white"/>
<path opacity="0.3" d="M35.3 21.3L35.2 21.2V21.4" fill="white"/>
<path opacity="0.3" d="M35.4 21.2L35.3 21.1H35.4" fill="white"/>
<path d="M35.4 21V21.1H35.5L35.4 21Z" fill="white"/>
<path d="M35.6 20.8H35.7V20.7" fill="#333A94"/>
<path d="M7.90001 20.2C7.90001 20.2 8.40001 20.1 8.60001 20L7.70001 19.9L6.90001 19.5C7.00001 19.6 7.20001 19.9 7.30001 20C7.30001 20 7.80001 20.1 7.90001 20.2Z" fill="url(#paint11_linear)"/>
<path d="M8.60001 20C8.40001 20.1 7.90001 20.2 7.90001 20.2C7.80001 20.1 7.30001 20 7.30001 20C7.20001 19.9 7.00001 19.6 6.90001 19.5C6.90001 19.5 6.30001 19.7 6.10001 20.2C6.20001 20.3 6.80001 20.6 6.90001 20.7C6.90001 20.7 7.20001 20.6 7.50001 20.7C7.70001 20.7 7.90001 21 7.90001 21H8.80001C8.90001 20.5 8.60001 20 8.60001 20Z" fill="url(#paint12_linear)"/>
<path d="M7.60001 19.8C7.50001 19.8 7.40001 19.7 7.30001 19.7V19.8L7.20001 19.9C7.20001 19.9 7.20001 20 7.30001 20L7.90001 20.2H8.00001L7.90001 20.1C7.90001 20 7.90001 20 7.90001 20C7.90001 19.9 7.80001 19.9 7.60001 19.8Z" fill="url(#paint13_linear)"/>
<path d="M8.30001 19.4L8.00001 19.2L7.60001 19.1H7.40001C7.40001 19.1 7.20001 19.2 7.20001 19.3C7.20001 19.3 7.20001 19.4 7.20001 19.5L7.30001 19.7C7.40001 19.7 7.50001 19.8 7.60001 19.8C7.70001 19.8 7.80001 19.9 7.90001 19.9C7.90001 19.9 8.00001 19.9 8.10001 19.8C8.20001 19.7 8.30001 19.6 8.30001 19.6V19.4Z" fill="url(#paint14_linear)"/>
<path d="M7.90001 21C7.90001 21 7.70001 20.7 7.40001 20.6C7.10001 20.5 6.80001 20.6 6.80001 20.6C6.70001 20.6 6.20001 20.2 6.00001 20.1V20.2C5.80001 20.8 6.00001 21.8 6.00001 21.8C6.00001 21.8 6.20001 22 6.80001 22.2C7.40001 22.4 7.70001 22.4 7.70001 22.4C7.70001 22.4 8.30001 22 8.60001 21.3C8.60001 21.2 8.70001 21.1 8.70001 21.1L7.90001 21Z" fill="url(#paint15_linear)"/>
<path d="M7.10001 19.8C7.10001 19.8 6.70001 20.1 6.70001 20.2C6.70001 20.2 6.30001 20.1 6.20001 19.9C6.20001 19.9 6.70001 19.4 6.80001 19.4L7.10001 19.8Z" fill="white"/>
<path d="M8.20001 20.2C8.20001 20.2 8.40001 20.5 8.30001 20.9H8.50001H8.40001C8.40001 20.9 8.70001 21 8.80001 20.9C8.80001 20.9 8.80001 20.4 8.70001 20.1C8.60001 20.1 8.50001 20.2 8.20001 20.2Z" fill="url(#paint16_linear)"/>
<path d="M6.10001 21.8V21.7C6.10001 21.7 6.40001 21.7 6.60001 21.8C6.80001 21.9 7.50001 22.1 7.90001 22.3L7.80001 22.4C7.70001 22.3 6.70001 22.2 6.10001 21.8Z" fill="white"/>
<path d="M6.00001 20.2C6.00001 20.2 5.80001 20.8 6.10001 21.8C6.10001 21.8 6.20001 21.9 6.30001 22C6.30001 22 6.00001 21.8 6.10001 21.7C6.20001 21.7 5.90001 20.9 6.00001 20.2Z" fill="url(#paint17_linear)"/>
<path d="M8.7 21C8.7 21 8.6 21.6 7.8 22.3C7.8 22.3 7.7 22.3 7.5 22.3C7.5 22.3 7.9 22.3 7.8 22.2C7.8 22.2 8.5 21.6 8.7 21Z" fill="url(#paint18_linear)"/>
<path d="M7.40001 19.7L7.50001 19.8C7.50001 19.8 7.40001 20 7.30001 20C7.30001 20 7.20001 20 7.20001 19.9H7.30001C7.30001 19.8 7.40001 19.7 7.40001 19.7Z" fill="url(#paint19_linear)"/>
<path opacity="0.5" d="M7.5 19.5L8 19.6V19.4L7.6 19.3L7.5 19.5Z" fill="white"/>
<path opacity="0.5" d="M7.30001 19.3L7.50001 19.2L7.40001 19.1L7.20001 19.2L7.30001 19.3Z" fill="white"/>
<path opacity="0.5" d="M8 19.4H8.2L8.3 19.6H8V19.4Z" fill="url(#paint20_linear)"/>
<path d="M7.50001 19.5L7.40001 19.4L7.20001 19.2V19.4L7.30001 19.7H7.40001L7.50001 19.8L7.40001 19.6L7.50001 19.5Z" fill="url(#paint21_linear)"/>
<path d="M8.00002 19.6L8.10002 19.8L7.80002 19.9H7.90002L8.20002 19.8L8.30002 19.6H8.00002Z" fill="url(#paint22_linear)"/>
<path opacity="0.5" d="M8.00001 19.6H7.70001L7.50001 19.5L7.40001 19.6L7.50001 19.8H7.60001L7.80001 19.9L8.10001 19.8L8.00001 19.6Z" fill="url(#paint23_linear)"/>
</g>
<defs>
<linearGradient id="paint0_linear" x1="34.846" y1="20.7455" x2="34.2466" y2="19.6188" gradientUnits="userSpaceOnUse">
<stop stop-color="#292543"/>
<stop offset="1" stop-color="#A6A0AF"/>
</linearGradient>
<linearGradient id="paint1_linear" x1="35.3183" y1="21.4116" x2="34.7604" y2="20.7634" gradientUnits="userSpaceOnUse">
<stop stop-color="#292543"/>
<stop offset="1" stop-color="#A6A0AF"/>
</linearGradient>
<linearGradient id="paint2_linear" x1="35.3087" y1="20.9208" x2="35.8948" y2="21.98" gradientUnits="userSpaceOnUse">
<stop stop-color="#292543"/>
<stop offset="1" stop-color="#A6A0AF"/>
</linearGradient>
<linearGradient id="paint3_linear" x1="34.9021" y1="21.121" x2="35.3885" y2="20.6381" gradientUnits="userSpaceOnUse">
<stop stop-color="#5C72B6"/>
<stop offset="0.1839" stop-color="#607FBF"/>
<stop offset="0.558" stop-color="#6AA1D7"/>
<stop offset="1" stop-color="#7BCDF4"/>
</linearGradient>
<linearGradient id="paint4_linear" x1="35.3023" y1="21.29" x2="35.577" y2="21.5667" gradientUnits="userSpaceOnUse">
<stop stop-color="#5C72B6"/>
<stop offset="0.0967167" stop-color="#5061A7"/>
<stop offset="0.2921" stop-color="#323B83"/>
<stop offset="0.4719" stop-color="#171A67"/>
<stop offset="1" stop-color="#B3E0F8"/>
</linearGradient>
<linearGradient id="paint5_linear" x1="35.1438" y1="21.1381" x2="35.3554" y2="21.5358" gradientUnits="userSpaceOnUse">
<stop stop-color="#5C72B6"/>
<stop offset="0.2049" stop-color="#5061A7"/>
<stop offset="0.619" stop-color="#323B83"/>
<stop offset="1" stop-color="#171A67"/>
</linearGradient>
<linearGradient id="paint6_linear" x1="35.0206" y1="21.5021" x2="35.0653" y2="21.5472" gradientUnits="userSpaceOnUse">
<stop stop-color="#5C72B6"/>
<stop offset="0.2049" stop-color="#5061A7"/>
<stop offset="0.619" stop-color="#323B83"/>
<stop offset="1" stop-color="#171A67"/>
</linearGradient>
<linearGradient id="paint7_linear" x1="35.4843" y1="21.0318" x2="35.5358" y2="21.0836" gradientUnits="userSpaceOnUse">
<stop stop-color="#5C72B6"/>
<stop offset="0.2049" stop-color="#5061A7"/>
<stop offset="0.619" stop-color="#323B83"/>
<stop offset="1" stop-color="#171A67"/>
</linearGradient>
<linearGradient id="paint8_linear" x1="35.4602" y1="20.8086" x2="35.4885" y2="21.0468" gradientUnits="userSpaceOnUse">
<stop stop-color="#5C72B6"/>
<stop offset="0.1168" stop-color="#586BA7"/>
<stop offset="0.3546" stop-color="#4A567F"/>
<stop offset="0.6884" stop-color="#2D3242"/>
<stop offset="1" stop-color="#050000"/>
</linearGradient>
<linearGradient id="paint9_linear" x1="35.6812" y1="21.3318" x2="35.5196" y2="21.4495" gradientUnits="userSpaceOnUse">
<stop stop-color="#5C72B6"/>
<stop offset="0.1168" stop-color="#586BA7"/>
<stop offset="0.3546" stop-color="#4A567F"/>
<stop offset="0.6884" stop-color="#2D3242"/>
<stop offset="1" stop-color="#050000"/>
</linearGradient>
<linearGradient id="paint10_linear" x1="35.5236" y1="21.4387" x2="35.2424" y2="21.6436" gradientUnits="userSpaceOnUse">
<stop stop-color="#5C72B6"/>
<stop offset="0.1168" stop-color="#586BA7"/>
<stop offset="0.3546" stop-color="#4A567F"/>
<stop offset="0.6884" stop-color="#2D3242"/>
<stop offset="1" stop-color="#050000"/>
</linearGradient>
<linearGradient id="paint11_linear" x1="7.63786" y1="19.9146" x2="7.68489" y2="19.7587" gradientUnits="userSpaceOnUse">
<stop stop-color="#7E5011"/>
<stop offset="1" stop-color="#BF6313"/>
</linearGradient>
<linearGradient id="paint12_linear" x1="7.35007" y1="20.807" x2="7.47881" y2="20.0105" gradientUnits="userSpaceOnUse">
<stop stop-color="#700205"/>
<stop offset="1" stop-color="#C71019"/>
</linearGradient>
<linearGradient id="paint13_linear" x1="7.75039" y1="19.9661" x2="7.41616" y2="19.8653" gradientUnits="userSpaceOnUse">
<stop stop-color="#DE3A12"/>
<stop offset="1" stop-color="#EDCA00"/>
</linearGradient>
<linearGradient id="paint14_linear" x1="7.6674" y1="19.7467" x2="7.83557" y2="19.189" gradientUnits="userSpaceOnUse">
<stop stop-color="#DE3A12"/>
<stop offset="1" stop-color="#EDCA00"/>
</linearGradient>
<linearGradient id="paint15_linear" x1="5.73978" y1="20.9599" x2="8.54573" y2="21.806" gradientUnits="userSpaceOnUse">
<stop stop-color="#F7AF07"/>
<stop offset="1" stop-color="#FFE800"/>
</linearGradient>
<linearGradient id="paint16_linear" x1="8.99189" y1="20.5662" x2="7.98568" y2="20.5613" gradientUnits="userSpaceOnUse">
<stop stop-color="white"/>
<stop offset="1" stop-color="#BF6313"/>
</linearGradient>
<linearGradient id="paint17_linear" x1="6.05604" y1="21.8064" x2="6.21398" y2="20.83" gradientUnits="userSpaceOnUse">
<stop stop-color="#DE3A12"/>
<stop offset="1" stop-color="#E87300"/>
</linearGradient>
<linearGradient id="paint18_linear" x1="7.84213" y1="22.3581" x2="8.24085" y2="21.4782" gradientUnits="userSpaceOnUse">
<stop stop-color="#DE3A12"/>
<stop offset="1" stop-color="#E87300"/>
</linearGradient>
<linearGradient id="paint19_linear" x1="7.32046" y1="19.9472" x2="7.34167" y2="19.8162" gradientUnits="userSpaceOnUse">
<stop stop-color="#7E5011"/>
<stop offset="1" stop-color="#BF6313"/>
</linearGradient>
<linearGradient id="paint20_linear" x1="8.11705" y1="19.6108" x2="8.17407" y2="19.4217" gradientUnits="userSpaceOnUse">
<stop stop-color="#DE3A12"/>
<stop offset="1" stop-color="#EDCA00"/>
</linearGradient>
<linearGradient id="paint21_linear" x1="7.31132" y1="19.6515" x2="7.40841" y2="19.3296" gradientUnits="userSpaceOnUse">
<stop stop-color="#DE3A12"/>
<stop offset="1" stop-color="#EDCA00"/>
</linearGradient>
<linearGradient id="paint22_linear" x1="8.03704" y1="19.9046" x2="8.13347" y2="19.5849" gradientUnits="userSpaceOnUse">
<stop stop-color="#DE3A12"/>
<stop offset="1" stop-color="#EDCA00"/>
</linearGradient>
<linearGradient id="paint23_linear" x1="7.68439" y1="19.7929" x2="7.78896" y2="19.4461" gradientUnits="userSpaceOnUse">
<stop stop-color="#DE3A12"/>
<stop offset="1" stop-color="#EDCA00"/>
</linearGradient>
<clipPath id="clip0">
<rect width="42.5" height="42.5" fill="white"/>
</clipPath>
</defs>
</svg>
