<svg width="43" height="43" viewBox="0 0 43 43" fill="none" xmlns="http://www.w3.org/2000/svg">
<g clip-path="url(#clip0)">
<path d="M42.5 0H0V42.5H42.5V0Z" fill="#E9E9ED"/>
<path d="M17.6 26.8C17.6 26.8 17.6 27.9 16.5 28.4C15.4 28.9 14.8 29.3 14.8 29.3C14.8 29.3 13.8 29.4 13.7 30.4L13.6 30.9H24.4C24.4 30.9 24.3 29.6 23.7 29.4C23.7 29.4 21.2 28.4 20.8 27.9C20.8 27.9 20.4 27.1 20.5 26.7L17.5 26.6L17.6 26.8Z" fill="#CC9711"/>
<path d="M17.6 26.5C17.6 26.5 17.6 27.2 17.4 27.5C17.2 27.8 17.4 27.5 17.4 27.5C17.4 27.5 19 28.5 20.7 27.5C20.7 27.5 20.5 27 20.5 26.6L17.6 26.5Z" fill="#F1D6AC"/>
<path d="M21.8 25.3C22.2 24.8 22.5 24.1 22.5 23.3C22.5 21.5 21.1 20.1 19.3 20.1C17.5 20.1 16.1 21.5 16.1 23.3C16.1 24 16.3 24.6 16.6 25.1C16.7 25.2 18 27.2 18.5 27.4C19 27.7 20 27.4 20 27.4C20 27.4 21.4 26 21.6 25.4C21.7 25.4 21.8 25.4 21.8 25.3Z" fill="#F1D6AC"/>
<path d="M21.7 21.1C21.5 20.9 21.3 20.7 21.1 20.5C20.9 19.4 19.8 19 19.5 19.1C17.9 19.2 17.7 20.3 17.6 20.5C17.1 20.8 16.7 21.2 16.5 21.5C15.9 22.6 15.6 24.3 17 25.6C17 25.6 16.8 24.4 17 24V23.1C17 23.1 17.2 21.8 17.8 21.2C17.8 21.2 18.8 22.5 19.9 22.4C19.9 22.4 20.5 22.4 20.9 22.5C20.9 22.5 21.4 22.9 21.5 24C21.6 25.2 21.7 25.2 21.6 25.5C21.6 25.6 23.6 23.3 21.7 21.1Z" fill="#3A3730"/>
<path d="M17.4 27.6C17.4 27.6 18.9 28.7 20.7 27.7H20.8C20.8 27.7 20.8 28 21.2 28.2C21.6 28.4 21.7 28.5 21.7 28.5C21.7 28.5 20.9 29.7 20.3 29.6C19.7 29.5 19.3 28.7 19.1 28.2C19.1 28.2 18.4 29.7 17.8 29.6C17.2 29.5 16.5 28.6 16.5 28.5C16.5 28.4 17.3 28 17.4 27.6Z" fill="#280206"/>
<path d="M29.2 34.9C29.2 34.9 29.2 36 28.1 36.5C27 37 26.4 37.4 26.4 37.4C26.4 37.4 25.4 37.5 25.3 38.5V39H36.1C36.1 39 36 37.7 35.4 37.5C35.4 37.5 32.9 36.5 32.5 36C32.5 36 32.1 35.2 32.2 34.8L29.2 34.7V34.9Z" fill="#40474B"/>
<path d="M33.2 33.4C33.6 32.9 33.9 32.2 33.9 31.4C33.9 29.6 32.5 28.2 30.7 28.2C28.9 28.2 27.5 29.6 27.5 31.4C27.5 32.1 27.7 32.7 28 33.2C28.1 33.3 29.4 35.3 29.9 35.5C30.4 35.8 31.4 35.5 31.4 35.5C31.4 35.5 32.8 34.1 33 33.5C33.1 33.6 33.1 33.5 33.2 33.4Z" fill="#F1D6AC"/>
<path d="M33 29.3C32.8 29.1 32.6 28.9 32.4 28.7C32.2 27.6 31.1 27.2 30.8 27.3C29.2 27.4 29 28.5 28.9 28.7C28.4 29 28 29.4 27.8 29.7C27.2 30.8 26.9 32.5 28.3 33.8C28.3 33.8 28.1 32.6 28.3 32.2V31.3C28.3 31.3 28.5 30 29.1 29.4C29.1 29.4 30.1 30.7 31.2 30.6C31.2 30.6 31.8 30.6 32.2 30.7C32.2 30.7 32.7 31.1 32.8 32.2C32.9 33.4 33 33.4 32.9 33.7C33 33.7 35 31.4 33 29.3Z" fill="#510C0E"/>
<path d="M29 35.7C29 35.7 30.5 36.8 32.3 35.8H32.4C32.4 35.8 32.4 36.1 32.8 36.3C33.1 36.5 33.3 36.6 33.3 36.6C33.3 36.6 32.5 37.8 31.9 37.7C31.4 37.6 30.9 36.8 30.7 36.3C30.7 36.3 30 37.8 29.4 37.7C28.8 37.6 28.1 36.7 28.1 36.6C28 36.5 28.8 36.1 29 35.7Z" fill="#19ADC7"/>
<path d="M29.2 34.9C29.2 34.9 29.1 35.5 29 35.7C28.9 35.8 30.9 36.8 32.3 35.7C32.3 35.7 32 35.1 32.2 34.7H29.2C29.2 34.7 29.2 34.8 29.2 34.9Z" fill="#F1D6AC"/>
<path d="M27.6 15.8C27.6 15.8 27.5 16.6 27 17.1C27 17.1 27.3 18.2 29 18.4C30.2 18.4 31 17.4 31 17.1C31 17.1 30.3 16.3 30.4 15.9L27.6 15.8Z" fill="#F2CEA1"/>
<path d="M31.4 14.5C31.4 14.5 31.6 16.7 32.3 17.6C32.3 17.6 30.6 17.3 30.5 15.8H27.7C27.7 15.8 27.7 17.3 26 17.6C26 17.6 27 15.3 26.8 14.7C26.7 14.7 26.4 14 26.3 13.2C26.2 12.5 26.3 10.9 26.6 10.5C26.9 10.1 27.2 9.3 28.2 9.2C29.2 9.1 30.8 9 31.5 10.3C32.2 11.6 31.8 14.1 31.4 14.5Z" fill="black"/>
<path d="M31.3 12.3C31.2 11.3 30.6 11.2 30.5 11.3C30.3 11.5 28.7 11.8 27.8 11.3C26.9 10.8 27 11.4 26.8 11.7C26.6 12 26.7 13.8 26.7 13.8V14C26.8 15.1 28 16.4 29 16.4C30.2 16.4 31.2 15.2 31.2 14.1C31.2 14.2 31.4 13.3 31.3 12.3Z" fill="#F2CEA1"/>
<path d="M27 17.1C27 17.1 26.2 17.7 25.2 17.8C24.8 17.9 23.9 18.2 23.8 18.9V19.4H34.3V18.7C34.3 18.7 34.2 17.9 32.8 17.7C31.4 17.5 31.1 17 31.1 17C31.1 17 30.3 18.5 28.9 18.3C27.5 18.1 27.3 17.7 27 17.1Z" fill="#972489"/>
<path d="M27 17.1C27 17.1 27.5 18.3 29 18.3C30.6 18.4 31.1 17 31.1 17L31.5 17.3C31.5 17.3 30.8 19.1 29 18.8C27.2 18.5 26.9 17.7 26.7 17.3L27 17.1Z" fill="#D86FA7"/>
<path d="M8.10001 35.2C8.10001 35.2 8.00001 36 7.50001 36.5C7.50001 36.5 7.80001 37.6 9.50001 37.8C10.7 37.8 11.5 36.8 11.5 36.5C11.5 36.5 10.8 35.7 10.9 35.3L8.10001 35.2Z" fill="#F2CEA1"/>
<path d="M11.9 34C11.9 34 12.1 36.2 12.8 37.1C12.8 37.1 11.1 36.8 11 35.3H8.20001C8.20001 35.3 8.20001 36.8 6.50001 37.1C6.50001 37.1 7.50001 34.8 7.30001 34.2C7.20001 34.2 6.90001 33.5 6.80001 32.7C6.70001 32 6.80001 30.4 7.10001 30C7.40001 29.6 7.70001 28.8 8.70001 28.7C9.70001 28.6 11.3 28.5 12 29.8C12.7 31.1 12.3 33.6 11.9 34Z" fill="#7F4F21"/>
<path d="M11.8 31.7C11.7 30.7 11.1 30.6 11 30.7C10.8 30.9 9.2 31.2 8.3 30.7C7.4 30.2 7.5 30.8 7.3 31.1C7.1 31.4 7.2 33.2 7.2 33.2V33.4C7.3 34.5 8.5 35.8 9.5 35.8C10.7 35.8 11.7 34.6 11.7 33.5C11.7 33.6 11.9 32.7 11.8 31.7Z" fill="#F2CEA1"/>
<path d="M7.4 36.5C7.4 36.5 6.6 37.1 5.6 37.2C5.2 37.3 4.3 37.6 4.2 38.3V38.8H14.7V38.1C14.7 38.1 14.6 37.3 13.2 37.1C11.8 36.9 11.5 36.4 11.5 36.4C11.5 36.4 10.7 37.9 9.3 37.7C7.9 37.5 7.8 37.1 7.4 36.5Z" fill="#741F1B"/>
<path d="M7.5 36.5C7.5 36.5 8 37.7 9.5 37.7C11 37.7 11.6 36.4 11.6 36.4L12 36.7C12 36.7 11.3 38.5 9.5 38.2C7.7 38 7.4 37.1 7.2 36.7L7.5 36.5Z" fill="#EB6155"/>
<path d="M6.9 16.3L6.7 17.1C6.7 17.1 7.9 17.9 8.4 18C8.9 18 10 17.3 10.1 17.1C10.1 17.1 9.9 16.5 9.9 16.3C10 16.3 8.6 18.2 6.9 16.3Z" fill="#F3D7AD"/>
<path d="M6.7 17.1L5.7 17.5C5.7 17.5 6.4 19.2 7.6 19.4C7.6 19.4 8.1 19.4 8.5 18.1C8.5 18.1 9 19.2 9.3 19.4C9.6 19.6 11.2 18.8 11.3 17.5C11.3 17.5 10.3 17.1 10.3 17C10.3 17 9.10001 18.1 8.60001 17.9C7.90001 17.8 7 17.4 6.7 17.1Z" fill="#00A0E9"/>
<path d="M6.5 15C6.5 15 6.2 14.4 6.1 13.5C6 12.6 6.1 11.3 6.1 11.3C6.1 11.3 6.4 10.2 8.2 10.3C10 10.4 10.2 10.4 10.7 11.1C11 11.6 10.7 14.2 10.7 14.2C10.7 14.2 10.5 14.9 10.3 15.1C10.1 15.3 6.5 15.1 6.5 15Z" fill="#40220F"/>
<path d="M10.4 12.8C10.4 11.9 9.3 12.4 9.3 12.4C9.3 12.4 8.3 12.6 7.5 12.4C6.4 12 6.4 12.8 6.4 12.8C6.3 13 6.4 15 6.4 15L6.5 15.7C6.6 16.6 7.4 17.3 8.3 17.3C9.3 17.3 10.1 16.5 10.1 15.6C10.1 15.6 10.1 15.6 10.1 15.5C10.4 15 10.4 13.7 10.4 12.8Z" fill="#F3D7AD"/>
<path d="M5.6 17.6C5.6 17.6 4.6 18.1 4 18.2C3.4 18.3 3.4 19.3 3.4 19.7C3.4 19.6 13.4 19.7 13.4 19.7V19C13.4 19 13.4 18.3 12.8 18.2C12.2 18.1 11.1 17.6 11.1 17.6C11.1 17.6 10.5 19.2 9.2 19.3C9.2 19.3 9 19.3 8.8 18.8C8.5 18.3 8.4 18 8.4 18C8.4 18 8.1 19.3 7.5 19.3C6.9 19.3 6.2 18.4 6 18.2C5.8 17.9 5.7 17.6 5.6 17.6Z" fill="black"/>
<path d="M28.7 20.8C32.0689 20.8 34.8 18.1137 34.8 14.8C34.8 11.4863 32.0689 8.8 28.7 8.8C25.3311 8.8 22.6 11.4863 22.6 14.8C22.6 18.1137 25.3311 20.8 28.7 20.8Z" fill="url(#paint0_radial)"/>
<path d="M28.7 22.1C32.5108 22.1 35.6 18.9212 35.6 15C35.6 11.0788 32.5108 7.9 28.7 7.9C24.8892 7.9 21.8 11.0788 21.8 15C21.8 18.9212 24.8892 22.1 28.7 22.1Z" stroke="#7A7A7A" stroke-miterlimit="10"/>
<path d="M28.7 8.3C25.1 8.3 22.1 11.3 22.1 15C22.1 18.7 25 21.7 28.7 21.7C32.4 21.7 35.3 18.7 35.3 15C35.3 11.3 32.4 8.3 28.7 8.3ZM28.7 20.8C25.4 20.8 22.7 18.1 22.7 14.8C22.7 11.5 25.4 8.8 28.7 8.8C32 8.8 34.7 11.5 34.7 14.8C34.7 18.1 32 20.8 28.7 20.8Z" fill="#3E3A39"/>
<path d="M35.8 21.1L34.9 21.9L33.2 20L34.1 19.2L35.8 21.1Z" fill="url(#paint1_linear)"/>
<path d="M41.1 26.1L39.8 27.4L34.7 22.2L36 20.9L41.1 26.1Z" fill="url(#paint2_linear)"/>
<path d="M21.3 8C12.8 8 6 14.8 6 23.2C6 31.6 12.8 38.5 21.2 38.5C29.6 38.5 36.5 31.7 36.5 23.2C36.5 14.7 29.7 8 21.3 8ZM21.3 10.5C24.9 10.5 28.1 12 30.4 14.4L9.9 28.7C9.1 27.1 8.6 25.2 8.6 23.2C8.6 16.2 14.3 10.5 21.3 10.5ZM21.3 35.9C17.5 35.9 14.1 34.2 11.8 31.6L32.5 17.2C33.4 19 34 21 34 23.2C34 30.2 28.3 35.9 21.3 35.9Z" fill="#E60012"/>
<path d="M17.7656 4.88916L17.5996 5.104C16.8525 4.50993 16.208 4.07373 15.666 3.79541V6.28076H15.3853V3.46582C14.9132 4.02897 14.2785 4.5734 13.481 5.09912L13.3052 4.86963C14.5324 4.13721 15.3657 3.27051 15.8052 2.26953H13.4053V2.00098H17.6558V2.26953H16.1104C15.9899 2.52832 15.8418 2.80013 15.666 3.08496V3.48535C16.5986 4.02572 17.2985 4.49365 17.7656 4.88916ZM22.4604 5.89502C22.4604 6.03011 22.4116 6.12451 22.314 6.17822C22.2179 6.23193 22.0007 6.25879 21.6621 6.25879C21.5856 6.25879 21.5116 6.25716 21.4399 6.25391L21.3594 5.98047C21.4831 5.99023 21.6035 5.99512 21.7207 5.99512C21.9583 5.99512 22.0967 5.98535 22.1357 5.96582C22.1748 5.94629 22.1943 5.91455 22.1943 5.87061V4.66455H20.7808V6.12939H20.5098V4.66455H19.084C19.0042 5.34977 18.8325 5.87467 18.5688 6.23926L18.3345 6.07568C18.6714 5.57764 18.8398 4.97705 18.8398 4.27393V1.979H22.4604V5.89502ZM22.1943 3.16064V2.25H20.7808V3.16064H22.1943ZM20.5098 3.16064V2.25H19.1108V3.16064H20.5098ZM22.1943 4.40576V3.43408H20.7808V4.40576H22.1943ZM20.5098 4.40576V3.43408H19.1108V4.40576H20.5098Z" fill="#E60012"/>
<path d="M26.752 5.35547C26.7194 5.61068 26.6641 5.81641 26.5859 5.97266C26.5078 6.12891 26.4036 6.20703 26.2734 6.20703C26.0104 6.20703 25.7643 5.92448 25.5352 5.35938C25.237 5.5638 24.9023 5.74805 24.5312 5.91211L24.3848 5.73242C24.8262 5.55664 25.1888 5.36328 25.4727 5.15234C25.3802 4.76693 25.3216 4.4043 25.2969 4.06445L24.5723 4.15234L24.5566 3.93945L25.2793 3.85547C25.248 3.52865 25.2324 3.2207 25.2324 2.93164C25.2324 2.85091 25.2337 2.77214 25.2363 2.69531H25.4473C25.4447 2.77604 25.4434 2.86003 25.4434 2.94727C25.4434 3.21159 25.4557 3.50391 25.4805 3.82422L26.6992 3.67578L26.7207 3.87695L25.4961 4.02734C25.5195 4.35547 25.5716 4.6875 25.6523 5.02344C25.9401 4.77995 26.1999 4.48958 26.4316 4.15234L26.6035 4.27539C26.3184 4.67122 26.0228 4.98893 25.7168 5.22852C25.8092 5.48503 25.9082 5.67448 26.0137 5.79688C26.1191 5.91927 26.2018 5.98047 26.2617 5.98047C26.3021 5.98047 26.3366 5.96745 26.3652 5.94141C26.3952 5.91536 26.429 5.83073 26.4668 5.6875C26.5059 5.54427 26.5358 5.39648 26.5566 5.24414L26.752 5.35547ZM24.6953 4.52734C24.5339 4.60026 24.3431 4.67383 24.123 4.74805V5.91211C24.123 5.99023 24.1009 6.05729 24.0566 6.11328C24.0137 6.16927 23.8978 6.19727 23.709 6.19727C23.653 6.19727 23.5794 6.19531 23.4883 6.19141L23.4121 5.98047C23.6582 5.98568 23.804 5.98503 23.8496 5.97852C23.8965 5.9707 23.9199 5.94596 23.9199 5.9043V4.8125C23.7832 4.86458 23.5846 4.92448 23.3242 4.99219L23.252 4.78711C23.4941 4.73112 23.7168 4.66992 23.9199 4.60352V3.60352H23.2832V3.40039H23.9199V2.69531H24.123V3.40039H24.6484V3.60352H24.123V4.53125C24.3053 4.46745 24.4792 4.40104 24.6445 4.33203L24.6953 4.52734ZM26.4551 3.37109L26.2793 3.50781C26.123 3.29297 25.9525 3.11589 25.7676 2.97656L25.9316 2.84375C26.1452 3.0026 26.3197 3.17839 26.4551 3.37109ZM30.7676 6.04492L30.6113 6.20312C29.7793 5.61719 29.2448 4.81185 29.0078 3.78711C28.8385 4.72201 28.3079 5.52474 27.416 6.19531L27.2715 6.02344C27.5749 5.81641 27.8522 5.55729 28.1035 5.24609C28.3548 4.9349 28.5462 4.59245 28.6777 4.21875C28.8092 3.84375 28.8796 3.33724 28.8887 2.69922H29.1113C29.1035 3.4375 29.2507 4.0918 29.5527 4.66211C29.8548 5.23112 30.2598 5.69206 30.7676 6.04492Z" fill="black"/>
</g>
<defs>
<radialGradient id="paint0_radial" cx="0" cy="0" r="1" gradientUnits="userSpaceOnUse" gradientTransform="translate(28.7004 14.7738) scale(6.0579)">
<stop stop-color="white" stop-opacity="0.8694"/>
<stop offset="0.6918" stop-color="#538FCC" stop-opacity="0.2197"/>
<stop offset="0.8781" stop-color="#187FC4" stop-opacity="0"/>
</radialGradient>
<linearGradient id="paint1_linear" x1="35.2708" y1="19.9843" x2="33.8339" y2="21.1319" gradientUnits="userSpaceOnUse">
<stop offset="0.0945333" stop-color="#595757"/>
<stop offset="0.5197" stop-color="white"/>
<stop offset="0.9734" stop-color="#3E3A39"/>
<stop offset="0.9919" stop-color="#3E3A39"/>
<stop offset="0.9986" stop-color="#3E3A39"/>
</linearGradient>
<linearGradient id="paint2_linear" x1="38.5909" y1="23.5544" x2="37.1888" y2="24.8786" gradientUnits="userSpaceOnUse">
<stop offset="0.0737544"/>
<stop offset="0.5197" stop-color="white"/>
<stop offset="0.9164"/>
</linearGradient>
<clipPath id="clip0">
<rect width="42.5" height="42.5" fill="white"/>
</clipPath>
</defs>
</svg>
