<svg width="43" height="43" viewBox="0 0 43 43" fill="none" xmlns="http://www.w3.org/2000/svg">
<g clip-path="url(#clip0)">
<path d="M42.5 0H0V42.5H42.5V0Z" fill="#E9E9ED"/>
<path d="M30.3 27H23.3V33.3H30.3V27Z" fill="#DB9F59"/>
<path d="M27.6 27.6H24.1V27.8H27.6V27.6Z" fill="black"/>
<path d="M26.5 28H24.1V28.2H26.5V28Z" fill="black"/>
<path d="M25.5 28.4H24.1V28.6H25.5V28.4Z" fill="black"/>
<path d="M27.3 27H26.7V29.6H27.3V27Z" fill="#CCCCCF"/>
<path d="M30.2 29.3H28.9V29.8H30.2V29.3Z" fill="#B12923"/>
<path d="M24.8 31.5H24.1V32.2H24.8V31.5Z" fill="black"/>
<path d="M25.6 31.5H25V32.2H25.6V31.5Z" fill="black"/>
<path d="M24.8 32.2H24.1V32.9H24.8V32.2Z" fill="black"/>
<path d="M25.6 32.2H25V32.9H25.6V32.2Z" fill="black"/>
<path d="M27.3 32.3H25.9V32.5H27.3V32.3Z" fill="black"/>
<path d="M29.5 32.7H25.9V32.9H29.5V32.7Z" fill="black"/>
<path d="M28.9 24.2H25.2V27.5H28.9V24.2Z" fill="#F5B331"/>
<path d="M27.4 24.5H25.6V24.6H27.4V24.5Z" fill="black"/>
<path d="M26.8 24.7H25.6V24.8H26.8V24.7Z" fill="black"/>
<path d="M26.3 24.9H25.6V25H26.3V24.9Z" fill="black"/>
<path d="M27.3 24.2H27V25.6H27.3V24.2Z" fill="#CCCCCF"/>
<path d="M28.8 25.4H28.1V25.7H28.8V25.4Z" fill="#B12923"/>
<path d="M26 26.5H25.6V26.8H26V26.5Z" fill="black"/>
<path d="M26.4 26.5H26.1V26.8H26.4V26.5Z" fill="black"/>
<path d="M26 26.9H25.6V27.2H26V26.9Z" fill="black"/>
<path d="M26.4 26.9H26.1V27.2H26.4V26.9Z" fill="black"/>
<path d="M27.2 27H26.5V27.1H27.2V27Z" fill="black"/>
<path d="M28.4 27.2H26.5V27.3H28.4V27.2Z" fill="black"/>
<path d="M37 27.5H30V33.8H37V27.5Z" fill="#F5B331"/>
<path d="M34.2 28H30.7V28.2H34.2V28Z" fill="black"/>
<path d="M33.1 28.4H30.7V28.6H33.1V28.4Z" fill="black"/>
<path d="M32.1 28.8H30.7V29H32.1V28.8Z" fill="black"/>
<path d="M33.9 27.5H33.3V30.1H33.9V27.5Z" fill="#CCCCCF"/>
<path d="M36.8 29.8H35.5V30.3H36.8V29.8Z" fill="#B12923"/>
<path d="M31.4 31.9H30.7V32.6H31.4V31.9Z" fill="black"/>
<path d="M32.2 31.9H31.6V32.6H32.2V31.9Z" fill="black"/>
<path d="M31.4 32.7H30.7V33.4H31.4V32.7Z" fill="black"/>
<path d="M32.2 32.7H31.6V33.4H32.2V32.7Z" fill="black"/>
<path d="M33.9 32.8H32.5V33H33.9V32.8Z" fill="black"/>
<path d="M36.1 33.1H32.5V33.3H36.1V33.1Z" fill="black"/>
<path d="M6.6 8.4H5.4V33.3H6.6V8.4Z" fill="#945239"/>
<path d="M18 8.4H16.9V33.3H18V8.4Z" fill="#945239"/>
<path d="M17.1 10.1H6.7V10.7H17.1V10.1Z" fill="#945239"/>
<path d="M17.2 17H6.5V17.6H17.2V17Z" fill="#945239"/>
<path d="M17.2 24.1H6.5V24.7H17.2V24.1Z" fill="#945239"/>
<path d="M17.2 31.2H6.5V32.8H17.2V31.2Z" fill="#945239"/>
<path d="M35.7 30.6H28.7V36.9H35.7V30.6Z" fill="#DB9F59"/>
<path d="M33 31.2H29.5V31.4H33V31.2Z" fill="black"/>
<path d="M31.9 31.6H29.5V31.8H31.9V31.6Z" fill="black"/>
<path d="M30.9 32H29.5V32.2H30.9V32Z" fill="black"/>
<path d="M32.7 30.6H32.1V33.2H32.7V30.6Z" fill="#CCCCCF"/>
<path d="M35.6 32.9H34.3V33.4H35.6V32.9Z" fill="#B12923"/>
<path d="M30.2 35.1H29.5V35.8H30.2V35.1Z" fill="black"/>
<path d="M31 35.1H30.4V35.8H31V35.1Z" fill="black"/>
<path d="M30.2 35.8H29.5V36.5H30.2V35.8Z" fill="black"/>
<path d="M31 35.8H30.4V36.5H31V35.8Z" fill="black"/>
<path d="M32.7 35.9H31.3V36.1H32.7V35.9Z" fill="black"/>
<path d="M34.9 36.3H31.3V36.5H34.9V36.3Z" fill="black"/>
<path d="M35.4 24.4H31.6V27.8H35.4V24.4Z" fill="#DB9F59"/>
<path d="M33.9 24.8H32V24.9H33.9V24.8Z" fill="black"/>
<path d="M33.3 25H32V25.1H33.3V25Z" fill="black"/>
<path d="M32.7 25.2H32V25.3H32.7V25.2Z" fill="black"/>
<path d="M33.7 24.4H33.4V25.8H33.7V24.4Z" fill="#CCCCCF"/>
<path d="M35.3 25.7H34.6V26H35.3V25.7Z" fill="#B12923"/>
<path d="M32.4 26.8H32V27.2H32.4V26.8Z" fill="black"/>
<path d="M32.8 26.8H32.5V27.2H32.8V26.8Z" fill="black"/>
<path d="M32.4 27.2H32V27.6H32.4V27.2Z" fill="black"/>
<path d="M32.8 27.2H32.5V27.6H32.8V27.2Z" fill="black"/>
<path d="M33.6 27.3H32.9V27.4H33.6V27.3Z" fill="black"/>
<path d="M34.8 27.5H32.9V27.6H34.8V27.5Z" fill="black"/>
<path d="M34.9 35.2H31.2V38.5H34.9V35.2Z" fill="#F5B331"/>
<path d="M33.4 35.5H31.6V35.6H33.4V35.5Z" fill="black"/>
<path d="M32.8 35.7H31.6V35.8H32.8V35.7Z" fill="black"/>
<path d="M32.3 35.9H31.6V36H32.3V35.9Z" fill="black"/>
<path d="M33.2 35.2H32.9V36.6H33.2V35.2Z" fill="#CCCCCF"/>
<path d="M34.8 36.4H34.1V36.7H34.8V36.4Z" fill="#B12923"/>
<path d="M32 37.6H31.6V37.9H32V37.6Z" fill="black"/>
<path d="M32.4 37.6H32.1V37.9H32.4V37.6Z" fill="black"/>
<path d="M32 37.9H31.6V38.2H32V37.9Z" fill="black"/>
<path d="M32.4 37.9H32.1V38.2H32.4V37.9Z" fill="black"/>
<path d="M33.2 38H32.5V38.1H33.2V38Z" fill="black"/>
<path d="M34.4 38.2H32.5V38.3H34.4V38.2Z" fill="black"/>
<path d="M8.2 26.2C8.2 26.2 8.1 26.2 7.9 26.2C7.7 26.2 7.6 26.2 7.6 26.2V27.5H8.2V26.2Z" fill="#B41D23"/>
<path d="M7.7 26.3C7.7 26.3 8 26.4 8.3 26.3V26.5C8.3 26.5 8 26.6 7.7 26.5V26.3Z" fill="#50070E"/>
<path d="M7.7 27.2V27.5C7.7 27.5 7.7 27.6 7.6 27.7C7.5 27.8 7.4 27.9 7.4 27.9C7.4 27.9 7.2 28.1 7.3 28.4C7.3 28.8 7.3 29.7 7.3 29.7V31.5C7.3 31.5 7.3 31.6 7.4 31.7C7.5 31.7 8 31.9 8.6 31.7C8.6 31.7 8.7 31.7 8.7 31.6V29.5V28.5C8.7 28.5 8.8 28.2 8.5 27.9C8.3 27.7 8.3 27.7 8.3 27.5V27.2H7.7V27.2Z" fill="#490B1C"/>
<path d="M8 27.9C8 27.9 7.9 28 7.9 28.3C7.9 28.6 7.9 31.5 7.9 31.5H7.5V30.7V28.4C7.5 28.4 7.5 27.8 7.9 27.8L8 27.9Z" fill="#78535B"/>
<path d="M8.3 27.8C8.3 27.8 8.5 28 8.5 28.2C8.5 28.5 8.5 29.2 8.5 29.2V30.9V31.5L8.6 31.4V29.8V28.2C8.5 28.2 8.5 27.9 8.3 27.8Z" fill="#5E474C"/>
<path d="M8.5 29.1H7.3V29.3H8.5V29.1Z" fill="#5F0E13"/>
<path d="M7.3 29.2H8.5V30.7C8.5 30.7 7.5 30.8 7.3 30.7V29.2Z" fill="#DAC799"/>
<path d="M9.2 26.2C9.2 26.2 9.1 26.2 8.9 26.2C8.7 26.2 8.6 26.2 8.6 26.2V27.5H9.2V26.2Z" fill="#B41D23"/>
<path d="M8.6 26.3C8.6 26.3 8.9 26.4 9.2 26.3V26.5C9.2 26.5 8.9 26.6 8.6 26.5V26.3Z" fill="#50070E"/>
<path d="M8.6 27.2V27.5C8.6 27.5 8.6 27.6 8.5 27.7C8.4 27.8 8.3 27.9 8.3 27.9C8.3 27.9 8.1 28.1 8.2 28.4C8.2 28.8 8.2 29.7 8.2 29.7V31.5C8.2 31.5 8.2 31.6 8.3 31.7C8.4 31.7 8.9 31.9 9.5 31.7C9.5 31.7 9.6 31.7 9.6 31.6V29.5V28.5C9.6 28.5 9.7 28.2 9.4 27.9C9.2 27.7 9.2 27.7 9.2 27.5V27.2H8.6V27.2Z" fill="#490B1C"/>
<path d="M8.9 27.9C8.9 27.9 8.8 28 8.8 28.3C8.8 28.6 8.8 31.5 8.8 31.5H8.4V30.7V28.4C8.4 28.4 8.4 27.8 8.8 27.8L8.9 27.9Z" fill="#78535B"/>
<path d="M9.3 27.8C9.3 27.8 9.5 28 9.5 28.2C9.5 28.5 9.5 29.2 9.5 29.2V30.9V31.5L9.6 31.4V29.8V28.2C9.5 28.2 9.5 27.9 9.3 27.8Z" fill="#5E474C"/>
<path d="M9.4 29.1H8.2V29.3H9.4V29.1Z" fill="#5F0E13"/>
<path d="M8.2 29.2H9.4V30.7C9.4 30.7 8.4 30.8 8.2 30.7V29.2Z" fill="#DAC799"/>
<path d="M10.2 26.2C10.2 26.2 10.1 26.2 9.9 26.2C9.7 26.2 9.6 26.2 9.6 26.2V27.5H10.2V26.2Z" fill="#B41D23"/>
<path d="M9.6 26.3C9.6 26.3 9.9 26.4 10.2 26.3V26.5C10.2 26.5 9.9 26.6 9.6 26.5V26.3Z" fill="#50070E"/>
<path d="M9.6 27.2V27.5C9.6 27.5 9.6 27.6 9.5 27.7C9.4 27.8 9.3 27.9 9.3 27.9C9.3 27.9 9.1 28.1 9.2 28.4C9.2 28.8 9.2 29.7 9.2 29.7V31.5C9.2 31.5 9.2 31.6 9.3 31.7C9.4 31.7 9.9 31.9 10.5 31.7C10.5 31.7 10.6 31.7 10.6 31.6C10.6 31.5 10.6 29.5 10.6 29.5V28.5C10.6 28.5 10.7 28.2 10.4 27.9C10.1 27.6 10.2 27.7 10.2 27.5V27.2H9.6V27.2Z" fill="#490B1C"/>
<path d="M9.9 27.9C9.9 27.9 9.8 28 9.8 28.3C9.8 28.6 9.8 31.5 9.8 31.5H9.4V30.7V28.4C9.4 28.4 9.4 27.8 9.8 27.8L9.9 27.9Z" fill="#78535B"/>
<path d="M10.2 27.8C10.2 27.8 10.4 28 10.4 28.2C10.4 28.5 10.4 29.2 10.4 29.2V30.9V31.5L10.5 31.4V29.8V28.2C10.5 28.2 10.5 27.9 10.2 27.8Z" fill="#5E474C"/>
<path d="M10.4 29.1H9.2V29.3H10.4V29.1Z" fill="#5F0E13"/>
<path d="M9.2 29.2H10.4V30.7C10.4 30.7 9.4 30.8 9.2 30.7V29.2Z" fill="#DAC799"/>
<path d="M11.1 26.2C11.1 26.2 11 26.2 10.8 26.2C10.6 26.2 10.5 26.2 10.5 26.2V27.5H11.1V26.2Z" fill="#B41D23"/>
<path d="M10.6 26.3C10.6 26.3 10.9 26.4 11.2 26.3V26.5C11.2 26.5 10.9 26.6 10.6 26.5V26.3Z" fill="#50070E"/>
<path d="M10.6 27.2V27.5C10.6 27.5 10.6 27.6 10.5 27.7C10.4 27.8 10.3 27.9 10.3 27.9C10.3 27.9 10.1 28.1 10.2 28.4C10.2 28.8 10.2 29.7 10.2 29.7V31.5C10.2 31.5 10.2 31.6 10.3 31.7C10.4 31.7 10.9 31.9 11.5 31.7C11.5 31.7 11.6 31.7 11.6 31.6V29.5V28.5C11.6 28.5 11.7 28.2 11.4 27.9C11.1 27.6 11.2 27.7 11.2 27.5V27.2H10.6V27.2Z" fill="#490B1C"/>
<path d="M10.8 27.9C10.8 27.9 10.7 28 10.7 28.3C10.7 28.6 10.7 31.5 10.7 31.5H10.3V30.7V28.4C10.3 28.4 10.3 27.8 10.7 27.8L10.8 27.9Z" fill="#78535B"/>
<path d="M11.2 27.8C11.2 27.8 11.4 28 11.4 28.2C11.4 28.5 11.4 29.2 11.4 29.2V30.9V31.5L11.5 31.4V29.8V28.2C11.4 28.2 11.4 27.9 11.2 27.8Z" fill="#5E474C"/>
<path d="M11.4 29.1H10.2V29.3H11.4V29.1Z" fill="#5F0E13"/>
<path d="M10.2 29.2H11.4V30.7C11.4 30.7 10.4 30.8 10.2 30.7V29.2Z" fill="#DAC799"/>
<path d="M12.1 26.2C12.1 26.2 12 26.2 11.8 26.2C11.6 26.2 11.5 26.2 11.5 26.2V27.5H12.1V26.2Z" fill="#B41D23"/>
<path d="M11.5 26.3C11.5 26.3 11.8 26.4 12.1 26.3V26.5C12.1 26.5 11.8 26.6 11.5 26.5V26.3Z" fill="#50070E"/>
<path d="M11.5 27.2V27.5C11.5 27.5 11.5 27.6 11.4 27.7C11.3 27.8 11.2 27.9 11.2 27.9C11.2 27.9 11 28.1 11.1 28.4C11.1 28.8 11.1 29.7 11.1 29.7V31.5C11.1 31.5 11.1 31.6 11.2 31.7C11.3 31.7 11.8 31.9 12.4 31.7C12.4 31.7 12.5 31.7 12.5 31.6C12.5 31.5 12.5 29.5 12.5 29.5V28.5C12.5 28.5 12.6 28.2 12.3 27.9C12 27.6 12.1 27.7 12.1 27.5V27.2H11.5V27.2Z" fill="#490B1C"/>
<path d="M11.8 27.9C11.8 27.9 11.7 28 11.7 28.3C11.7 28.6 11.7 31.5 11.7 31.5H11.3V30.7V28.4C11.3 28.4 11.3 27.8 11.7 27.8L11.8 27.9Z" fill="#78535B"/>
<path d="M12.1 27.8C12.1 27.8 12.3 28 12.3 28.2C12.3 28.5 12.3 29.2 12.3 29.2V30.9V31.5L12.4 31.4V29.8V28.2C12.4 28.2 12.4 27.9 12.1 27.8Z" fill="#5E474C"/>
<path d="M12.3 29.1H11.1V29.3H12.3V29.1Z" fill="#5F0E13"/>
<path d="M11.1 29.2H12.3V30.7C12.3 30.7 11.3 30.8 11.1 30.7V29.2Z" fill="#DAC799"/>
<path d="M13.1 26.2C13.1 26.2 13 26.2 12.8 26.2C12.6 26.2 12.5 26.2 12.5 26.2V27.5H13L13.1 26.2Z" fill="#B41D23"/>
<path d="M12.5 26.3C12.5 26.3 12.8 26.4 13.1 26.3V26.5C13.1 26.5 12.8 26.6 12.5 26.5V26.3Z" fill="#50070E"/>
<path d="M12.5 27.2V27.5C12.5 27.5 12.5 27.6 12.4 27.7C12.3 27.8 12.2 27.9 12.2 27.9C12.2 27.9 12 28.1 12.1 28.4C12.1 28.8 12.1 29.7 12.1 29.7V31.5C12.1 31.5 12.1 31.6 12.2 31.7C12.3 31.7 12.8 31.9 13.4 31.7C13.4 31.7 13.5 31.7 13.5 31.6V29.5V28.5C13.5 28.5 13.6 28.2 13.3 27.9C13 27.6 13.1 27.7 13.1 27.5V27.2H12.5V27.2Z" fill="#490B1C"/>
<path d="M12.8 27.9C12.8 27.9 12.7 28 12.7 28.3C12.7 28.6 12.7 31.5 12.7 31.5H12.3V30.7V28.4C12.3 28.4 12.3 27.8 12.7 27.8L12.8 27.9Z" fill="#78535B"/>
<path d="M13.1 27.8C13.1 27.8 13.3 28 13.3 28.2C13.3 28.5 13.3 29.2 13.3 29.2V30.9V31.5L13.4 31.4V29.8V28.2C13.4 28.2 13.3 27.9 13.1 27.8Z" fill="#5E474C"/>
<path d="M13.3 29.1H12.1V29.3H13.3V29.1Z" fill="#5F0E13"/>
<path d="M12.1 29.2H13.3V30.7C13.3 30.7 12.3 30.8 12.1 30.7V29.2Z" fill="#DAC799"/>
<path d="M14 26.2C14 26.2 13.9 26.2 13.7 26.2C13.5 26.2 13.4 26.2 13.4 26.2V27.5H14V26.2Z" fill="#B41D23"/>
<path d="M13.4 26.3C13.4 26.3 13.7 26.4 14 26.3V26.5C14 26.5 13.7 26.6 13.4 26.5V26.3Z" fill="#50070E"/>
<path d="M13.4 27.2V27.5C13.4 27.5 13.4 27.6 13.3 27.7C13.2 27.8 13.1 27.9 13.1 27.9C13.1 27.9 12.9 28.1 13 28.4C13 28.8 13 29.7 13 29.7V31.5C13 31.5 13 31.6 13.1 31.7C13.2 31.7 13.7 31.9 14.3 31.7C14.3 31.7 14.4 31.7 14.4 31.6C14.4 31.5 14.4 29.5 14.4 29.5V28.5C14.4 28.5 14.5 28.2 14.2 27.9C13.9 27.6 14 27.7 14 27.5V27.2H13.4Z" fill="#490B1C"/>
<path d="M13.7 27.9C13.7 27.9 13.6 28 13.6 28.3C13.6 28.6 13.6 31.5 13.6 31.5H13.2V30.7V28.4C13.2 28.4 13.2 27.8 13.6 27.8L13.7 27.9Z" fill="#78535B"/>
<path d="M14.1 27.8C14.1 27.8 14.3 28 14.3 28.2C14.3 28.5 14.3 29.2 14.3 29.2V30.9V31.5L14.4 31.4V29.8V28.2C14.3 28.2 14.3 27.9 14.1 27.8Z" fill="#5E474C"/>
<path d="M14.3 29.1H13.1V29.3H14.3V29.1Z" fill="#5F0E13"/>
<path d="M13.1 29.2H14.3V30.7C14.3 30.7 13.3 30.8 13.1 30.7V29.2Z" fill="#DAC799"/>
<path d="M15 26.2C15 26.2 14.9 26.2 14.7 26.2C14.5 26.2 14.4 26.2 14.4 26.2V27.5H15V26.2Z" fill="#B41D23"/>
<path d="M14.4 26.3C14.4 26.3 14.7 26.4 15 26.3V26.5C15 26.5 14.7 26.6 14.4 26.5V26.3Z" fill="#50070E"/>
<path d="M14.4 27.2V27.5C14.4 27.5 14.4 27.6 14.3 27.7C14.2 27.8 14.1 27.9 14.1 27.9C14.1 27.9 14 28.1 14 28.4C14 28.8 14 29.7 14 29.7V31.5C14 31.5 14 31.6 14.1 31.7C14.2 31.7 14.7 31.9 15.3 31.7C15.3 31.7 15.4 31.7 15.4 31.6V29.5V28.5C15.4 28.5 15.5 28.2 15.2 27.9C14.9 27.6 15 27.7 15 27.5V27.2H14.4Z" fill="#490B1C"/>
<path d="M14.7 27.9C14.7 27.9 14.6 28 14.6 28.3C14.6 28.6 14.6 31.5 14.6 31.5H14.2V30.7V28.4C14.2 28.4 14.2 27.8 14.6 27.8L14.7 27.9Z" fill="#78535B"/>
<path d="M15 27.8C15 27.8 15.2 28 15.2 28.2C15.2 28.5 15.2 29.2 15.2 29.2V30.9V31.5L15.3 31.4V29.8V28.2C15.3 28.2 15.3 27.9 15 27.8Z" fill="#5E474C"/>
<path d="M15.2 29.1H14V29.3H15.2V29.1Z" fill="#5F0E13"/>
<path d="M14 29.2H15.2V30.7C15.2 30.7 14.2 30.8 14 30.7V29.2Z" fill="#DAC799"/>
<path d="M15.9 26.2C15.9 26.2 15.8 26.2 15.6 26.2C15.4 26.2 15.3 26.2 15.3 26.2V27.5H15.9V26.2Z" fill="#B41D23"/>
<path d="M15.4 26.3C15.4 26.3 15.7 26.4 16 26.3V26.5C16 26.5 15.7 26.6 15.4 26.5V26.3Z" fill="#50070E"/>
<path d="M15.4 27.2V27.5C15.4 27.5 15.4 27.6 15.3 27.7C15.2 27.8 15.1 27.9 15.1 27.9C15.1 27.9 14.9 28.1 15 28.4C15 28.8 15 29.7 15 29.7V31.5C15 31.5 15 31.6 15.1 31.7C15.2 31.7 15.7 31.9 16.3 31.7C16.3 31.7 16.4 31.7 16.4 31.6V29.5V28.5C16.4 28.5 16.5 28.2 16.2 27.9C15.9 27.6 16 27.7 16 27.5V27.2H15.4V27.2Z" fill="#490B1C"/>
<path d="M15.6 27.9C15.6 27.9 15.5 28 15.5 28.3C15.5 28.6 15.5 31.5 15.5 31.5H15.1V30.7V28.4C15.1 28.4 15.1 27.8 15.5 27.8L15.6 27.9Z" fill="#78535B"/>
<path d="M16 27.8C16 27.8 16.2 28 16.2 28.2C16.2 28.5 16.2 29.2 16.2 29.2V30.9V31.5L16.3 31.4V29.8V28.2C16.2 28.2 16.2 27.9 16 27.8Z" fill="#5E474C"/>
<path d="M16.2 29.1H15V29.3H16.2V29.1Z" fill="#5F0E13"/>
<path d="M15 29.2H16.2V30.7C16.2 30.7 15.2 30.8 15 30.7V29.2Z" fill="#DAC799"/>
<path d="M8.6 23.7C9.20751 23.7 9.7 23.5209 9.7 23.3C9.7 23.0791 9.20751 22.9 8.6 22.9C7.99249 22.9 7.5 23.0791 7.5 23.3C7.5 23.5209 7.99249 23.7 8.6 23.7Z" fill="#DEDEDD"/>
<path d="M9.7 23.3C9.7 23.1 9.2 22.9 8.6 22.9C8 22.9 7.5 23.1 7.5 23.3C7.5 23.3 7.5 23.3 7.5 23.4C7.5 23.2 8 23.1 8.6 23.1C9.2 23 9.6 23.2 9.7 23.3C9.6 23.4 9.6 23.4 9.7 23.3C9.7 23.3 9.6 23.4 9.7 23.3Z" fill="#777878"/>
<path d="M8.6 23.5C9.04183 23.5 9.4 23.4105 9.4 23.3C9.4 23.1895 9.04183 23.1 8.6 23.1C8.15817 23.1 7.8 23.1895 7.8 23.3C7.8 23.4105 8.15817 23.5 8.6 23.5Z" fill="#A9A8A8"/>
<path d="M8.6 23.5C8.9866 23.5 9.3 23.4552 9.3 23.4C9.3 23.3448 8.9866 23.3 8.6 23.3C8.2134 23.3 7.9 23.3448 7.9 23.4C7.9 23.4552 8.2134 23.5 8.6 23.5Z" fill="#C3C4C4"/>
<path d="M7.5 23.4V24.1C7.5 24.1 7.8 24.4 8.5 24.4C9.2 24.4 9.4 24.3 9.7 24.1V23.4C9.7 23.4 9.4 23.7 8.6 23.7C7.7 23.7 7.5 23.4 7.5 23.4Z" fill="#DA151F"/>
<path d="M7.9 23.7V24.1C7.9 24.1 8.3 24.3 8.6 24.2C8.9 24.2 9 24.1 9.3 24.1V23.7C9.3 23.7 8.9 23.8 8.5 23.8C8.1 23.8 7.9 23.7 7.9 23.7Z" fill="#5756A3"/>
<path d="M8.1 24.1C8.1 24.1 8.5 23.8 8.8 24.1L9 24V24.2L8.9 24.1C8.8 24.1 8.4 24.4 8.1 24.1Z" fill="#DEDEDD"/>
<path d="M7.5 24.1C7.5 24.1 7.9 24.4 8.6 24.4C9.2 24.4 9.5 24.2 9.6 24.1C9.6 24.1 9.7 24.2 9.2 24.4C8.7 24.5 7.5 24.4 7.5 24.1Z" fill="#777878"/>
<path d="M9.7 23.7C10.3075 23.7 10.8 23.5209 10.8 23.3C10.8 23.0791 10.3075 22.9 9.7 22.9C9.09249 22.9 8.6 23.0791 8.6 23.3C8.6 23.5209 9.09249 23.7 9.7 23.7Z" fill="#DEDEDD"/>
<path d="M10.8 23.3C10.8 23.1 10.3 22.9 9.7 22.9C9.1 22.9 8.6 23.1 8.6 23.3C8.6 23.3 8.6 23.3 8.6 23.4C8.6 23.2 9.1 23.1 9.7 23.1C10.3 23 10.8 23.2 10.8 23.3C10.8 23.4 10.8 23.4 10.8 23.3C10.8 23.4 10.8 23.4 10.8 23.3Z" fill="#777878"/>
<path d="M9.8 23.6C10.2418 23.6 10.6 23.5105 10.6 23.4C10.6 23.2895 10.2418 23.2 9.8 23.2C9.35817 23.2 9 23.2895 9 23.4C9 23.5105 9.35817 23.6 9.8 23.6Z" fill="#A9A8A8"/>
<path d="M9.7 23.5C10.0866 23.5 10.4 23.4552 10.4 23.4C10.4 23.3448 10.0866 23.3 9.7 23.3C9.3134 23.3 9 23.3448 9 23.4C9 23.4552 9.3134 23.5 9.7 23.5Z" fill="#C3C4C4"/>
<path d="M8.6 23.4V24.1C8.6 24.1 8.9 24.4 9.6 24.4C10.3 24.4 10.5 24.3 10.8 24.1V23.4C10.8 23.4 10.5 23.7 9.7 23.7C8.9 23.7 8.7 23.4 8.6 23.4Z" fill="#DA151F"/>
<path d="M9 23.8V24.2C9 24.2 9.4 24.4 9.7 24.3C10 24.2 10.1 24.2 10.4 24.2V23.8C10.4 23.8 10 23.9 9.6 23.9C9.2 23.9 9 23.8 9 23.8Z" fill="#5756A3"/>
<path d="M9.3 24.1C9.3 24.1 9.7 23.8 10 24.1L10.1 24V24.2L10 24.1C10 24.1 9.6 24.4 9.3 24.1Z" fill="#DEDEDD"/>
<path d="M8.6 24.1C8.6 24.1 9 24.4 9.7 24.4C10.3 24.4 10.6 24.2 10.7 24.1C10.7 24.1 10.8 24.2 10.3 24.4C9.8 24.6 8.7 24.4 8.6 24.1Z" fill="#777878"/>
<path d="M11.1 23.7C11.7075 23.7 12.2 23.5209 12.2 23.3C12.2 23.0791 11.7075 22.9 11.1 22.9C10.4925 22.9 10 23.0791 10 23.3C10 23.5209 10.4925 23.7 11.1 23.7Z" fill="#DEDEDD"/>
<path d="M12.2 23.3C12.2 23.1 11.7 22.9 11.1 22.9C10.5 22.9 10 23.1 10 23.3C10 23.3 10 23.3 10 23.4C10 23.2 10.5 23.1 11.1 23.1C11.7 23 12.2 23.2 12.2 23.3C12.2 23.4 12.2 23.4 12.2 23.3C12.2 23.4 12.2 23.4 12.2 23.3Z" fill="#777878"/>
<path d="M11.2 23.6C11.6418 23.6 12 23.5105 12 23.4C12 23.2895 11.6418 23.2 11.2 23.2C10.7582 23.2 10.4 23.2895 10.4 23.4C10.4 23.5105 10.7582 23.6 11.2 23.6Z" fill="#A9A8A8"/>
<path d="M11.2 23.5C11.5866 23.5 11.9 23.4552 11.9 23.4C11.9 23.3448 11.5866 23.3 11.2 23.3C10.8134 23.3 10.5 23.3448 10.5 23.4C10.5 23.4552 10.8134 23.5 11.2 23.5Z" fill="#C3C4C4"/>
<path d="M10.1 23.4V24.1C10.1 24.1 10.4 24.4 11.1 24.4C11.8 24.4 12 24.3 12.3 24.1V23.4C12.3 23.4 12 23.7 11.2 23.7C10.3 23.7 10.1 23.4 10.1 23.4Z" fill="#DA151F"/>
<path d="M10.4 23.8V24.2C10.4 24.2 10.8 24.4 11.1 24.3C11.4 24.2 11.5 24.2 11.8 24.2V23.8C11.8 23.8 11.4 23.9 11 23.9C10.6 23.9 10.4 23.8 10.4 23.8Z" fill="#5756A3"/>
<path d="M10.7 24.1C10.7 24.1 11.1 23.8 11.4 24.1L11.5 24V24.2L11.4 24.1C11.4 24.1 11 24.4 10.7 24.1Z" fill="#DEDEDD"/>
<path d="M10.1 24.1C10.1 24.1 10.5 24.4 11.2 24.4C11.8 24.4 12.1 24.2 12.2 24.1C12.2 24.1 12.3 24.2 11.8 24.4C11.3 24.6 10.1 24.4 10.1 24.1Z" fill="#777878"/>
<path d="M9.7 22.7C10.3075 22.7 10.8 22.5209 10.8 22.3C10.8 22.0791 10.3075 21.9 9.7 21.9C9.09249 21.9 8.6 22.0791 8.6 22.3C8.6 22.5209 9.09249 22.7 9.7 22.7Z" fill="#DEDEDD"/>
<path d="M10.8 22.3C10.8 22.1 10.3 21.9 9.7 21.9C9.1 21.9 8.6 22.1 8.6 22.3C8.6 22.3 8.6 22.3 8.6 22.4C8.6 22.2 9.1 22.1 9.7 22.1C10.3 22.1 10.8 22.1 10.8 22.3C10.8 22.4 10.8 22.3 10.8 22.3C10.8 22.3 10.8 22.4 10.8 22.3Z" fill="#777878"/>
<path d="M9.7 22.5C10.1418 22.5 10.5 22.4105 10.5 22.3C10.5 22.1895 10.1418 22.1 9.7 22.1C9.25817 22.1 8.9 22.1895 8.9 22.3C8.9 22.4105 9.25817 22.5 9.7 22.5Z" fill="#A9A8A8"/>
<path d="M9.7 22.4C10.0866 22.4 10.4 22.3552 10.4 22.3C10.4 22.2448 10.0866 22.2 9.7 22.2C9.3134 22.2 9 22.2448 9 22.3C9 22.3552 9.3134 22.4 9.7 22.4Z" fill="#C3C4C4"/>
<path d="M8.6 22.4V23.1C8.6 23.1 8.9 23.4 9.6 23.4C10.3 23.4 10.5 23.3 10.8 23.1V22.4C10.8 22.4 10.5 22.7 9.7 22.7C8.9 22.6 8.7 22.4 8.6 22.4Z" fill="#DA151F"/>
<path d="M9 22.7V23.1C9 23.1 9.4 23.3 9.7 23.2C10 23.1 10.1 23.1 10.4 23.1V22.7C10.4 22.7 10 22.8 9.6 22.8C9.2 22.8 9 22.7 9 22.7Z" fill="#5756A3"/>
<path d="M9.3 23C9.3 23 9.7 22.7 10 23L10.1 22.9V23.1H10C10 23.1 9.6 23.4 9.3 23Z" fill="#DEDEDD"/>
<path d="M8.6 23.1C8.6 23.1 9 23.4 9.7 23.4C10.3 23.4 10.6 23.2 10.7 23.1C10.7 23.1 10.8 23.2 10.3 23.4C9.9 23.4 8.7 23.4 8.6 23.1Z" fill="#777878"/>
<path d="M12.7 23.7C13.3075 23.7 13.8 23.5209 13.8 23.3C13.8 23.0791 13.3075 22.9 12.7 22.9C12.0925 22.9 11.6 23.0791 11.6 23.3C11.6 23.5209 12.0925 23.7 12.7 23.7Z" fill="#DEDEDD"/>
<path d="M13.8 23.3C13.8 23.1 13.3 22.9 12.7 22.9C12.1 22.9 11.6 23.1 11.6 23.3C11.6 23.3 11.6 23.3 11.6 23.4C11.6 23.2 12.1 23.1 12.7 23.1C13.3 23 13.7 23.2 13.8 23.3C13.7 23.4 13.7 23.4 13.8 23.3C13.8 23.4 13.7 23.4 13.8 23.3Z" fill="#777878"/>
<path d="M12.7 23.6C13.1418 23.6 13.5 23.5105 13.5 23.4C13.5 23.2895 13.1418 23.2 12.7 23.2C12.2582 23.2 11.9 23.2895 11.9 23.4C11.9 23.5105 12.2582 23.6 12.7 23.6Z" fill="#A9A8A8"/>
<path d="M12.7 23.5C13.0866 23.5 13.4 23.4552 13.4 23.4C13.4 23.3448 13.0866 23.3 12.7 23.3C12.3134 23.3 12 23.3448 12 23.4C12 23.4552 12.3134 23.5 12.7 23.5Z" fill="#C3C4C4"/>
<path d="M11.6 23.4V24.1C11.6 24.1 11.9 24.4 12.6 24.4C13.3 24.4 13.5 24.3 13.8 24.1V23.4C13.8 23.4 13.5 23.7 12.7 23.7C11.8 23.7 11.6 23.4 11.6 23.4Z" fill="#DA151F"/>
<path d="M12 23.8V24.2C12 24.2 12.4 24.4 12.7 24.3C13 24.2 13.1 24.2 13.4 24.2V23.8C13.4 23.8 13 23.9 12.6 23.9C12.2 23.9 12 23.8 12 23.8Z" fill="#5756A3"/>
<path d="M12.2 24.1C12.2 24.1 12.6 23.8 12.9 24.1L13 24V24.2L12.9 24.1C12.9 24.1 12.5 24.4 12.2 24.1Z" fill="#DEDEDD"/>
<path d="M11.6 24.1C11.6 24.1 12 24.4 12.7 24.4C13.3 24.4 13.6 24.2 13.7 24.1C13.7 24.1 13.8 24.2 13.3 24.4C12.8 24.5 11.6 24.4 11.6 24.1Z" fill="#777878"/>
<path d="M11.9 22.8C12.5075 22.8 13 22.6209 13 22.4C13 22.1791 12.5075 22 11.9 22C11.2925 22 10.8 22.1791 10.8 22.4C10.8 22.6209 11.2925 22.8 11.9 22.8Z" fill="#DEDEDD"/>
<path d="M13.1 22.4C13.1 22.2 12.6 22 12 22C11.4 22 10.9 22.2 10.9 22.4C10.9 22.4 10.9 22.4 10.9 22.5C10.9 22.3 11.4 22.2 12 22.2C12.5 22.1 13 22.3 13.1 22.4C13 22.5 13 22.5 13.1 22.4C13.1 22.4 13 22.5 13.1 22.4Z" fill="#777878"/>
<path d="M12 22.6C12.4418 22.6 12.8 22.5105 12.8 22.4C12.8 22.2895 12.4418 22.2 12 22.2C11.5582 22.2 11.2 22.2895 11.2 22.4C11.2 22.5105 11.5582 22.6 12 22.6Z" fill="#A9A8A8"/>
<path d="M12 22.6C12.3866 22.6 12.7 22.5552 12.7 22.5C12.7 22.4448 12.3866 22.4 12 22.4C11.6134 22.4 11.3 22.4448 11.3 22.5C11.3 22.5552 11.6134 22.6 12 22.6Z" fill="#C3C4C4"/>
<path d="M10.9 22.5V23.2C10.9 23.2 11.2 23.5 11.9 23.5C12.6 23.5 12.8 23.4 13.1 23.2V22.5C13.1 22.5 12.8 22.8 12 22.8C11.1 22.8 10.9 22.5 10.9 22.5Z" fill="#DA151F"/>
<path d="M11.3 22.8V23.2C11.3 23.2 11.7 23.4 12 23.3C12.3 23.2 12.4 23.2 12.7 23.2V22.8C12.7 22.8 12.3 22.9 11.9 22.9C11.5 22.9 11.3 22.8 11.3 22.8Z" fill="#5756A3"/>
<path d="M11.5 23.2C11.5 23.2 11.9 22.9 12.2 23.2L12.3 23.1V23.3L12.2 23.2C12.2 23.2 11.8 23.5 11.5 23.2Z" fill="#DEDEDD"/>
<path d="M10.9 23.2C10.9 23.2 11.3 23.5 12 23.5C12.6 23.5 12.9 23.3 13 23.2C13 23.2 13.1 23.3 12.6 23.5C12.1 23.6 10.9 23.5 10.9 23.2Z" fill="#777878"/>
<path d="M14 23.8C14.6075 23.8 15.1 23.6209 15.1 23.4C15.1 23.1791 14.6075 23 14 23C13.3925 23 12.9 23.1791 12.9 23.4C12.9 23.6209 13.3925 23.8 14 23.8Z" fill="#DEDEDD"/>
<path d="M15.1 23.4C15.1 23.2 14.6 23 14 23C13.4 23 12.9 23.2 12.9 23.4C12.9 23.4 12.9 23.4 12.9 23.5C12.9 23.3 13.4 23.2 14 23.2C14.6 23.1 15.1 23.3 15.1 23.4C15.1 23.5 15.1 23.4 15.1 23.4C15.1 23.4 15.1 23.5 15.1 23.4Z" fill="#777878"/>
<path d="M14 23.6C14.4418 23.6 14.8 23.5105 14.8 23.4C14.8 23.2895 14.4418 23.2 14 23.2C13.5582 23.2 13.2 23.2895 13.2 23.4C13.2 23.5105 13.5582 23.6 14 23.6Z" fill="#A9A8A8"/>
<path d="M14 23.5C14.3866 23.5 14.7 23.4552 14.7 23.4C14.7 23.3448 14.3866 23.3 14 23.3C13.6134 23.3 13.3 23.3448 13.3 23.4C13.3 23.4552 13.6134 23.5 14 23.5Z" fill="#C3C4C4"/>
<path d="M12.9 23.5V24.2C12.9 24.2 13.2 24.5 13.9 24.5C14.6 24.5 14.8 24.4 15.1 24.2V23.5C15.1 23.5 14.8 23.8 14 23.8C13.2 23.7 12.9 23.5 12.9 23.5Z" fill="#DA151F"/>
<path d="M13.3 23.8V24.2C13.3 24.2 13.7 24.4 14 24.3C14.3 24.3 14.4 24.2 14.7 24.2V23.8C14.7 23.8 14.3 23.9 13.9 23.9C13.5 23.9 13.3 23.8 13.3 23.8Z" fill="#5756A3"/>
<path d="M13.6 24.1C13.6 24.1 14 23.8 14.3 24.1L14.4 24V24.2L14.3 24.1C14.3 24.2 13.9 24.5 13.6 24.1Z" fill="#DEDEDD"/>
<path d="M12.9 24.2C12.9 24.2 13.3 24.5 14 24.5C14.6 24.5 14.9 24.3 15 24.2C15 24.2 15.1 24.3 14.6 24.5C14.1 24.5 13 24.5 12.9 24.2Z" fill="#777878"/>
<path d="M10.8 22C11.4075 22 11.9 21.8209 11.9 21.6C11.9 21.3791 11.4075 21.2 10.8 21.2C10.1925 21.2 9.7 21.3791 9.7 21.6C9.7 21.8209 10.1925 22 10.8 22Z" fill="#DEDEDD"/>
<path d="M11.9 21.6C11.9 21.4 11.4 21.2 10.8 21.2C10.2 21.2 9.7 21.4 9.7 21.6C9.7 21.6 9.7 21.6 9.7 21.7C9.7 21.5 10.2 21.4 10.8 21.4C11.4 21.4 11.9 21.4 11.9 21.6C11.9 21.7 11.9 21.6 11.9 21.6Z" fill="#777878"/>
<path d="M10.8 21.8C11.2418 21.8 11.6 21.7105 11.6 21.6C11.6 21.4895 11.2418 21.4 10.8 21.4C10.3582 21.4 10 21.4895 10 21.6C10 21.7105 10.3582 21.8 10.8 21.8Z" fill="#A9A8A8"/>
<path d="M10.8 21.7C11.1866 21.7 11.5 21.6552 11.5 21.6C11.5 21.5448 11.1866 21.5 10.8 21.5C10.4134 21.5 10.1 21.5448 10.1 21.6C10.1 21.6552 10.4134 21.7 10.8 21.7Z" fill="#C3C4C4"/>
<path d="M9.7 21.7V22.4C9.7 22.4 10 22.7 10.7 22.7C11.4 22.7 11.6 22.6 11.9 22.4V21.7C11.9 21.7 11.6 22 10.8 22C10 21.9 9.7 21.7 9.7 21.7Z" fill="#DA151F"/>
<path d="M10.1 22V22.4C10.1 22.4 10.5 22.6 10.8 22.5C11.1 22.4 11.2 22.4 11.5 22.4V22C11.5 22 11.1 22.1 10.7 22.1C10.3 22.1 10.1 22 10.1 22Z" fill="#5756A3"/>
<path d="M10.4 22.3C10.4 22.3 10.8 22 11.1 22.3L11.2 22.2V22.4L11.1 22.3C11.1 22.4 10.7 22.7 10.4 22.3Z" fill="#DEDEDD"/>
<path d="M9.7 22.4C9.7 22.4 10.1 22.7 10.8 22.7C11.4 22.7 11.7 22.5 11.8 22.4C11.8 22.4 11.9 22.5 11.4 22.7C11 22.7 9.8 22.7 9.7 22.4Z" fill="#777878"/>
<path d="M15.4 23.9C16.0075 23.9 16.5 23.7209 16.5 23.5C16.5 23.2791 16.0075 23.1 15.4 23.1C14.7925 23.1 14.3 23.2791 14.3 23.5C14.3 23.7209 14.7925 23.9 15.4 23.9Z" fill="#DEDEDD"/>
<path d="M16.5 23.5C16.5 23.3 16 23.1 15.4 23.1C14.8 23.1 14.3 23.3 14.3 23.5C14.3 23.5 14.3 23.5 14.3 23.6C14.3 23.4 14.8 23.3 15.4 23.3C16 23.2 16.5 23.3 16.5 23.5Z" fill="#777878"/>
<path d="M15.5 23.7C15.9418 23.7 16.3 23.6105 16.3 23.5C16.3 23.3895 15.9418 23.3 15.5 23.3C15.0582 23.3 14.7 23.3895 14.7 23.5C14.7 23.6105 15.0582 23.7 15.5 23.7Z" fill="#A9A8A8"/>
<path d="M15.5 23.6C15.8866 23.6 16.2 23.5552 16.2 23.5C16.2 23.4448 15.8866 23.4 15.5 23.4C15.1134 23.4 14.8 23.4448 14.8 23.5C14.8 23.5552 15.1134 23.6 15.5 23.6Z" fill="#C3C4C4"/>
<path d="M14.4 23.5V24.2C14.4 24.2 14.7 24.5 15.4 24.5C16.1 24.5 16.3 24.4 16.6 24.2V23.5C16.6 23.5 16.3 23.8 15.5 23.8C14.6 23.8 14.4 23.6 14.4 23.5Z" fill="#DA151F"/>
<path d="M14.8 23.9V24.3C14.8 24.3 15.2 24.5 15.5 24.4C15.8 24.3 15.9 24.3 16.2 24.3V23.9C16.2 23.9 15.8 24 15.4 24C15 24 14.8 23.9 14.8 23.9Z" fill="#5756A3"/>
<path d="M15 24.2C15 24.2 15.4 23.9 15.7 24.2L15.8 24.1V24.3L15.7 24.2C15.7 24.3 15.3 24.6 15 24.2Z" fill="#DEDEDD"/>
<path d="M14.4 24.2C14.4 24.2 14.8 24.5 15.5 24.5C16.1 24.5 16.4 24.3 16.5 24.2C16.5 24.2 16.6 24.3 16.1 24.5C15.6 24.6 14.4 24.5 14.4 24.2Z" fill="#777878"/>
<path d="M14.3 22.8C14.9075 22.8 15.4 22.6209 15.4 22.4C15.4 22.1791 14.9075 22 14.3 22C13.6925 22 13.2 22.1791 13.2 22.4C13.2 22.6209 13.6925 22.8 14.3 22.8Z" fill="#DEDEDD"/>
<path d="M15.4 22.4C15.4 22.2 14.9 22 14.3 22C13.7 22 13.2 22.2 13.2 22.4C13.2 22.4 13.2 22.4 13.2 22.5C13.2 22.3 13.7 22.2 14.3 22.2C14.9 22.1 15.4 22.2 15.4 22.4C15.4 22.5 15.4 22.4 15.4 22.4Z" fill="#777878"/>
<path d="M14.3 22.6C14.7418 22.6 15.1 22.5105 15.1 22.4C15.1 22.2895 14.7418 22.2 14.3 22.2C13.8582 22.2 13.5 22.2895 13.5 22.4C13.5 22.5105 13.8582 22.6 14.3 22.6Z" fill="#A9A8A8"/>
<path d="M14.3 22.5C14.6866 22.5 15 22.4552 15 22.4C15 22.3448 14.6866 22.3 14.3 22.3C13.9134 22.3 13.6 22.3448 13.6 22.4C13.6 22.4552 13.9134 22.5 14.3 22.5Z" fill="#C3C4C4"/>
<path d="M13.2 22.5V23.2C13.2 23.2 13.5 23.5 14.2 23.5C14.9 23.5 15.1 23.4 15.4 23.2V22.5C15.4 22.5 15.1 22.8 14.3 22.8C13.5 22.7 13.2 22.5 13.2 22.5Z" fill="#DA151F"/>
<path d="M13.6 22.8V23.2C13.6 23.2 14 23.4 14.3 23.3C14.6 23.3 14.7 23.2 15 23.2V22.8C15 22.8 14.6 22.9 14.2 22.9C13.8 22.9 13.6 22.8 13.6 22.8Z" fill="#5756A3"/>
<path d="M13.9 23.1C13.9 23.1 14.3 22.8 14.6 23.1L14.7 23V23.2L14.6 23.1C14.6 23.2 14.2 23.5 13.9 23.1Z" fill="#DEDEDD"/>
<path d="M13.2 23.2C13.2 23.2 13.6 23.5 14.3 23.5C14.9 23.5 15.2 23.3 15.3 23.2C15.3 23.2 15.4 23.3 14.9 23.5C14.4 23.5 13.3 23.5 13.2 23.2Z" fill="#777878"/>
<path d="M13.1 22C13.7075 22 14.2 21.8209 14.2 21.6C14.2 21.3791 13.7075 21.2 13.1 21.2C12.4925 21.2 12 21.3791 12 21.6C12 21.8209 12.4925 22 13.1 22Z" fill="#DEDEDD"/>
<path d="M14.2 21.6C14.2 21.4 13.7 21.2 13.1 21.2C12.5 21.2 12 21.4 12 21.6C12 21.6 12 21.6 12 21.7C12 21.5 12.5 21.4 13.1 21.4C13.7 21.3 14.2 21.4 14.2 21.6Z" fill="#777878"/>
<path d="M13.1 21.8C13.5418 21.8 13.9 21.7105 13.9 21.6C13.9 21.4895 13.5418 21.4 13.1 21.4C12.6582 21.4 12.3 21.4895 12.3 21.6C12.3 21.7105 12.6582 21.8 13.1 21.8Z" fill="#A9A8A8"/>
<path d="M13.1 21.7C13.4866 21.7 13.8 21.6552 13.8 21.6C13.8 21.5448 13.4866 21.5 13.1 21.5C12.7134 21.5 12.4 21.5448 12.4 21.6C12.4 21.6552 12.7134 21.7 13.1 21.7Z" fill="#C3C4C4"/>
<path d="M12 21.6V22.3C12 22.3 12.3 22.6 13 22.6C13.7 22.6 13.9 22.5 14.2 22.3V21.6C14.2 21.6 13.9 21.9 13.1 21.9C12.2 21.9 12 21.7 12 21.6Z" fill="#DA151F"/>
<path d="M12.4 22V22.4C12.4 22.4 12.8 22.6 13.1 22.5C13.4 22.4 13.5 22.4 13.8 22.4V22C13.8 22 13.4 22.1 13 22.1C12.6 22.1 12.4 22 12.4 22Z" fill="#5756A3"/>
<path d="M12.7 22.3C12.7 22.3 13.1 22 13.4 22.3L13.5 22.2V22.4L13.4 22.3C13.4 22.4 13 22.7 12.7 22.3Z" fill="#DEDEDD"/>
<path d="M12 22.3C12 22.3 12.4 22.6 13.1 22.6C13.7 22.6 14 22.4 14.1 22.3C14.1 22.3 14.2 22.4 13.7 22.6C13.2 22.7 12 22.6 12 22.3Z" fill="#777878"/>
<path d="M21.4 32.5H14.4V38.8H21.4V32.5Z" fill="#F5B331"/>
<path d="M18.7 33.1H15.2V33.3H18.7V33.1Z" fill="black"/>
<path d="M17.6 33.5H15.2V33.7H17.6V33.5Z" fill="black"/>
<path d="M16.6 33.9H15.2V34.1H16.6V33.9Z" fill="black"/>
<path d="M18.4 32.5H17.8V35.1H18.4V32.5Z" fill="#CCCCCF"/>
<path d="M21.3 34.8H20V35.3H21.3V34.8Z" fill="#B12923"/>
<path d="M15.9 37H15.2V37.7H15.9V37Z" fill="black"/>
<path d="M16.7 37H16.1V37.7H16.7V37Z" fill="black"/>
<path d="M15.9 37.7H15.2V38.4H15.9V37.7Z" fill="black"/>
<path d="M16.7 37.7H16.1V38.4H16.7V37.7Z" fill="black"/>
<path d="M18.3 37.8H16.9V38H18.3V37.8Z" fill="black"/>
<path d="M20.5 38.2H16.9V38.4H20.5V38.2Z" fill="black"/>
<path d="M19.8 36.3H16V39.7H19.8V36.3Z" fill="#DB9F59"/>
<path d="M18.4 36.6H16.5V36.7H18.4V36.6Z" fill="black"/>
<path d="M17.8 36.8H16.5V36.9H17.8V36.8Z" fill="black"/>
<path d="M17.2 37H16.5V37.1H17.2V37Z" fill="black"/>
<path d="M18.2 36.3H17.9V37.7H18.2V36.3Z" fill="#CCCCCF"/>
<path d="M19.8 37.5H19.1V37.8H19.8V37.5Z" fill="#B12923"/>
<path d="M16.9 38.7H16.5V39.1H16.9V38.7Z" fill="black"/>
<path d="M17.3 38.7H17V39.1H17.3V38.7Z" fill="black"/>
<path d="M16.9 39.1H16.5V39.5H16.9V39.1Z" fill="black"/>
<path d="M17.3 39.1H17V39.5H17.3V39.1Z" fill="black"/>
<path d="M18.1 39.2H17.4V39.3H18.1V39.2Z" fill="black"/>
<path d="M19.3 39.4H17.4V39.5H19.3V39.4Z" fill="black"/>
<path d="M29 30.7H22V37H29V30.7Z" fill="#F5B331"/>
<path d="M26.3 31.3H22.8V31.5H26.3V31.3Z" fill="black"/>
<path d="M25.2 31.6H22.8V31.8H25.2V31.6Z" fill="black"/>
<path d="M24.2 32H22.8V32.2H24.2V32Z" fill="black"/>
<path d="M26 30.7H25.4V33.3H26V30.7Z" fill="#CCCCCF"/>
<path d="M28.9 33H27.6V33.5H28.9V33Z" fill="#B12923"/>
<path d="M23.5 35.1H22.8V35.8H23.5V35.1Z" fill="black"/>
<path d="M24.3 35.1H23.7V35.8H24.3V35.1Z" fill="black"/>
<path d="M23.5 35.9H22.8V36.6H23.5V35.9Z" fill="black"/>
<path d="M24.3 35.9H23.7V36.6H24.3V35.9Z" fill="black"/>
<path d="M25.9 36H24.5V36.2H25.9V36Z" fill="black"/>
<path d="M28.1 36.3H24.5V36.5H28.1V36.3Z" fill="black"/>
<path d="M27.9 33H20.9V39.3H27.9V33Z" fill="#DB9F59"/>
<path d="M25.2 33.6H21.7V33.8H25.2V33.6Z" fill="black"/>
<path d="M24.1 34H21.7V34.2H24.1V34Z" fill="black"/>
<path d="M23.1 34.3H21.7V34.5H23.1V34.3Z" fill="black"/>
<path d="M24.9 33H24.3V35.6H24.9V33Z" fill="#CCCCCF"/>
<path d="M27.8 35.3H26.5V35.8H27.8V35.3Z" fill="#B12923"/>
<path d="M22.4 37.4H21.7V38.1H22.4V37.4Z" fill="black"/>
<path d="M23.2 37.4H22.6V38.1H23.2V37.4Z" fill="black"/>
<path d="M22.4 38.2H21.7V38.9H22.4V38.2Z" fill="black"/>
<path d="M23.2 38.2H22.6V38.9H23.2V38.2Z" fill="black"/>
<path d="M24.9 38.3H23.5V38.5H24.9V38.3Z" fill="black"/>
<path d="M27.1 38.7H23.5V38.9H27.1V38.7Z" fill="black"/>
<path d="M8.5 13.2L7.6 13.4L7.5 13.6L8.5 13.4V13.2Z" fill="#1060A0"/>
<path d="M7.5 13.6V13.4H7.6L7.5 13.6Z" fill="#0C497A"/>
<path d="M7.5 13.6L7 14.2L8 14.5L7.5 13.6Z" fill="#D1CAB5"/>
<path d="M7.5 13.6L8.5 13.4L9 14.3L8 14.5L7.5 13.6Z" fill="#F2EFDE"/>
<path d="M7 14.2V17.1L8 17.5V14.5L7 14.2Z" fill="#F0ECE0"/>
<path d="M8 14.5L9 14.3V17.3L8 17.5V14.5Z" fill="#E2E0CF"/>
<path d="M7 15.9L8 16.2V16L7 15.6V15.9Z" fill="#1060A0"/>
<path d="M7 16L8 16.3V17.5L7 17.1V16Z" fill="#1060A0"/>
<path d="M8 16L9 15.8V16L8 16.2V16Z" fill="#1060A0"/>
<path d="M8 16.3L9 16.1V17.3L8 17.5V16.3Z" fill="#1060A0"/>
<path d="M7 14.2L7.7 13.9L8 14.5L7 14.2Z" fill="#DAD2BC"/>
<path d="M10.1 13.2L9.1 13.4V13.6L10 13.4L10.1 13.2Z" fill="#1060A0"/>
<path d="M9.1 13.6H9V13.4H9.1V13.6Z" fill="#0C497A"/>
<path d="M9 13.6L8.5 14.2L9.6 14.5L9.1 13.6H9Z" fill="#D1CAB5"/>
<path d="M9.1 13.6L10.1 13.4L10.5 14.3L9.6 14.5L9.1 13.6Z" fill="#F2EFDE"/>
<path d="M8.5 14.2V17.1L9.5 17.5L9.6 14.5L8.5 14.2Z" fill="#F0ECE0"/>
<path d="M9.6 14.5L10.5 14.3V17.3L9.5 17.5L9.6 14.5Z" fill="#E2E0CF"/>
<path d="M8.5 15.9L9.5 16.2V16L8.5 15.6V15.9Z" fill="#1060A0"/>
<path d="M8.5 16L9.5 16.3V17.5L8.5 17.1V16Z" fill="#1060A0"/>
<path d="M9.5 16L10.5 15.8V16L9.5 16.2V16Z" fill="#1060A0"/>
<path d="M9.5 16.3L10.5 16.1V17.3L9.5 17.5V16.3Z" fill="#1060A0"/>
<path d="M8.5 14.2L9.2 13.9L9.6 14.5L8.5 14.2Z" fill="#DAD2BC"/>
<path d="M11.6 13.2L10.6 13.4V13.6L11.6 13.4V13.2Z" fill="#1060A0"/>
<path d="M10.6 13.6L10.1 14.2L11.1 14.5L10.6 13.6Z" fill="#D1CAB5"/>
<path d="M10.6 13.6L11.6 13.4L12.1 14.3L11.1 14.5L10.6 13.6Z" fill="#F2EFDE"/>
<path d="M10.1 14.2V17.1L11.1 17.5V14.5L10.1 14.2Z" fill="#F0ECE0"/>
<path d="M11.1 14.5L12.1 14.3V17.3L11.1 17.5V14.5Z" fill="#E2E0CF"/>
<path d="M10.1 15.9L11.1 16.2V16L10.1 15.6V15.9Z" fill="#1060A0"/>
<path d="M10.1 16L11.1 16.3V17.5L10.1 17.1V16Z" fill="#1060A0"/>
<path d="M11.1 16L12.1 15.8V16L11.1 16.2V16Z" fill="#1060A0"/>
<path d="M11.1 16.3L12.1 16.1V17.3L11.1 17.5V16.3Z" fill="#1060A0"/>
<path d="M10.1 14.2L10.8 13.9L11.1 14.5L10.1 14.2Z" fill="#DAD2BC"/>
<path d="M13.1 13.2L12.1 13.4V13.6L13.1 13.4V13.2Z" fill="#1060A0"/>
<path d="M12.1 13.6V13.4H12.2L12.1 13.6Z" fill="#0C497A"/>
<path d="M12.1 13.6L11.6 14.2L12.6 14.5L12.1 13.6Z" fill="#D1CAB5"/>
<path d="M12.1 13.6L13.1 13.4L13.6 14.3L12.6 14.5L12.1 13.6Z" fill="#F2EFDE"/>
<path d="M11.6 14.2V17.1L12.6 17.5V14.5L11.6 14.2Z" fill="#F0ECE0"/>
<path d="M12.6 14.5L13.6 14.3V17.3L12.6 17.5V14.5Z" fill="#E2E0CF"/>
<path d="M11.6 15.9L12.6 16.2V16L11.6 15.6V15.9Z" fill="#1060A0"/>
<path d="M11.6 16L12.6 16.3V17.5L11.6 17.1V16Z" fill="#1060A0"/>
<path d="M12.6 16L13.6 15.8V16L12.6 16.2V16Z" fill="#1060A0"/>
<path d="M12.6 16.3L13.6 16.1V17.3L12.6 17.5V16.3Z" fill="#1060A0"/>
<path d="M11.6 14.2L12.3 13.9L12.6 14.5L11.6 14.2Z" fill="#DAD2BC"/>
<path d="M14.7 13.2L13.7 13.4V13.6L14.6 13.4L14.7 13.2Z" fill="#1060A0"/>
<path d="M13.7 13.6H13.6V13.4H13.7V13.6Z" fill="#0C497A"/>
<path d="M13.6 13.6L13.1 14.2L14.2 14.5L13.7 13.6H13.6Z" fill="#D1CAB5"/>
<path d="M13.7 13.6L14.7 13.4L15.1 14.3L14.2 14.5L13.7 13.6Z" fill="#F2EFDE"/>
<path d="M13.1 14.2V17.1L14.1 17.5L14.2 14.5L13.1 14.2Z" fill="#F0ECE0"/>
<path d="M14.2 14.5L15.1 14.3V17.3L14.1 17.5L14.2 14.5Z" fill="#E2E0CF"/>
<path d="M13.1 15.9L14.1 16.2V16L13.1 15.6V15.9Z" fill="#1060A0"/>
<path d="M13.1 16L14.1 16.3V17.5L13.1 17.1V16Z" fill="#1060A0"/>
<path d="M14.1 16L15.1 15.8V16L14.1 16.2V16Z" fill="#1060A0"/>
<path d="M14.1 16.3L15.1 16.1V17.3L14.1 17.5V16.3Z" fill="#1060A0"/>
<path d="M13.1 14.2L13.8 13.9L14.2 14.5L13.1 14.2Z" fill="#DAD2BC"/>
<path d="M16.2 13.2L15.2 13.4V13.6L16.2 13.4V13.2Z" fill="#1060A0"/>
<path d="M15.2 13.6L14.7 14.2L15.7 14.5L15.2 13.6Z" fill="#D1CAB5"/>
<path d="M15.2 13.6L16.2 13.4L16.7 14.3L15.7 14.5L15.2 13.6Z" fill="#F2EFDE"/>
<path d="M14.7 14.2V17.1L15.7 17.5V14.5L14.7 14.2Z" fill="#F0ECE0"/>
<path d="M15.7 14.5L16.7 14.3V17.3L15.7 17.5V14.5Z" fill="#E2E0CF"/>
<path d="M14.7 15.9L15.7 16.2V16L14.7 15.6V15.9Z" fill="#1060A0"/>
<path d="M14.7 16L15.7 16.3V17.5L14.7 17.1V16Z" fill="#1060A0"/>
<path d="M15.7 16L16.7 15.8V16L15.7 16.2V16Z" fill="#1060A0"/>
<path d="M15.7 16.3L16.7 16.1V17.3L15.7 17.5V16.3Z" fill="#1060A0"/>
<path d="M14.7 14.2L15.4 13.9L15.7 14.5L14.7 14.2Z" fill="#DAD2BC"/>
<path d="M17.7656 4.88916L17.5996 5.104C16.8525 4.50993 16.208 4.07373 15.666 3.79541V6.28076H15.3853V3.46582C14.9132 4.02897 14.2785 4.5734 13.481 5.09912L13.3052 4.86963C14.5324 4.13721 15.3657 3.27051 15.8052 2.26953H13.4053V2.00098H17.6558V2.26953H16.1104C15.9899 2.52832 15.8418 2.80013 15.666 3.08496V3.48535C16.5986 4.02572 17.2985 4.49365 17.7656 4.88916ZM22.4604 5.89502C22.4604 6.03011 22.4116 6.12451 22.314 6.17822C22.2179 6.23193 22.0007 6.25879 21.6621 6.25879C21.5856 6.25879 21.5116 6.25716 21.4399 6.25391L21.3594 5.98047C21.4831 5.99023 21.6035 5.99512 21.7207 5.99512C21.9583 5.99512 22.0967 5.98535 22.1357 5.96582C22.1748 5.94629 22.1943 5.91455 22.1943 5.87061V4.66455H20.7808V6.12939H20.5098V4.66455H19.084C19.0042 5.34977 18.8325 5.87467 18.5688 6.23926L18.3345 6.07568C18.6714 5.57764 18.8398 4.97705 18.8398 4.27393V1.979H22.4604V5.89502ZM22.1943 3.16064V2.25H20.7808V3.16064H22.1943ZM20.5098 3.16064V2.25H19.1108V3.16064H20.5098ZM22.1943 4.40576V3.43408H20.7808V4.40576H22.1943ZM20.5098 4.40576V3.43408H19.1108V4.40576H20.5098Z" fill="#E60012"/>
<path d="M26.5801 6.20703H26.3633V5.93555H23.6602V6.20703H23.4473V2.82812H26.5801V6.20703ZM26.3633 5.72461V3.03516H23.6602V5.72461H26.3633ZM26.1484 3.73242H25.1152V4.55664H25.7207V3.97656H25.9199V4.75977H25.1152V5.17969C25.1152 5.25521 25.1543 5.29297 25.2324 5.29297H25.7129C25.765 5.29297 25.8086 5.27604 25.8438 5.24219C25.8789 5.20703 25.8978 5.10872 25.9004 4.94727L26.1113 5.02734C26.11 5.33724 26.0052 5.49219 25.7969 5.49219H25.248C25.0215 5.49219 24.9082 5.38411 24.9082 5.16797V4.75977H24.1035V3.97656H24.3008V4.55664H24.9082V3.73242H23.8848V3.52344H24.9082V3.17578H25.1152V3.52344H26.1484V3.73242ZM28.5723 2.80859C28.4486 2.94922 28.2962 3.07943 28.1152 3.19922V3.87695H27.9121V3.33203C27.7207 3.43229 27.5365 3.51758 27.3594 3.58789L27.2402 3.4082C27.7702 3.20247 28.153 2.96354 28.3887 2.69141L28.5723 2.80859ZM30.6836 3.38477C30.6836 3.52279 30.6582 3.62956 30.6074 3.70508C30.5579 3.7793 30.4818 3.81836 30.3789 3.82227C30.2773 3.82617 30.1074 3.82812 29.8691 3.82812C29.36 3.82812 29.0775 3.82357 29.0215 3.81445C28.9655 3.80404 28.9186 3.77344 28.8809 3.72266C28.8431 3.67057 28.8242 3.61263 28.8242 3.54883V2.70703H29.0273V2.96484H30.3887V3.14453H29.0273V3.50391C29.0273 3.59375 29.0885 3.63802 29.2109 3.63672H30.3242C30.3893 3.63672 30.431 3.61263 30.4492 3.56445C30.4674 3.51497 30.4766 3.42969 30.4766 3.30859L30.6836 3.38477ZM30.1914 5.54492H28.5566L28.6797 5.66406C28.3737 5.8724 27.9434 6.05664 27.3887 6.2168L27.2598 6.02734C27.7702 5.89453 28.1745 5.73372 28.4727 5.54492H27.9121V4.03125H30.1914V5.54492ZM29.9844 4.47656V4.2207H28.123V4.47656H29.9844ZM29.9844 4.91211V4.65625H28.123V4.91211H29.9844ZM29.9844 5.35156V5.0957H28.123V5.35156H29.9844ZM30.7598 6.03125L30.6523 6.2207C30.3893 6.08398 30.013 5.95052 29.5234 5.82031L29.6484 5.63281C30.0469 5.73958 30.4173 5.8724 30.7598 6.03125Z" fill="black"/>
<path d="M21.3 8C12.8 8 6 14.8 6 23.3C6 31.8 12.8 38.6 21.2 38.6C29.6 38.6 36.5 31.7 36.5 23.3C36.5 14.9 29.7 8 21.3 8ZM21.3 10.5C24.9 10.5 28.1 12 30.4 14.4L9.9 28.7C9.1 27 8.6 25.2 8.6 23.2C8.6 16.2 14.3 10.5 21.3 10.5ZM21.3 36C17.5 36 14.1 34.3 11.8 31.7L32.5 17.3C33.4 19.1 34 21.1 34 23.3C34 30.3 28.3 36 21.3 36Z" fill="#E60012"/>
</g>
<defs>
<clipPath id="clip0">
<rect width="42.5" height="42.5" fill="white"/>
</clipPath>
</defs>
</svg>
