<svg id="logo" width="552" height="141" viewBox="0 0 552 141" fill="none" xmlns="http://www.w3.org/2000/svg"
  style="animation: fill 1s ease forwards 3s;">

  <path
    d="M44.4375 5C46.3125 5 48.5156 5.60938 51.0469 6.82812C53.8594 8.14062 55.6875 9.45312 56.5312 10.7656C57.375 12.1719 57.7969 13.625 57.7969 15.125C57.7969 18.875 56.1562 20.75 52.875 20.75C51.4688 20.75 49.5938 18.6875 47.25 14.5625C44.5312 9.96875 43.1719 7.10938 43.1719 5.98438C43.1719 5.42188 43.5938 5.09375 44.4375 5ZM12.375 15.6875C13.3125 15.6875 14.2969 16.8594 15.3281 19.2031C15.9844 21.3594 16.3125 23.2812 16.3125 24.9688C16.3125 26.8438 15.6094 29.4219 14.2031 32.7031C12.7031 36.0781 11.2969 38.4688 9.98438 39.875C8.95312 40.625 8.0625 41 7.3125 41C6.28125 41 5.20312 40.3906 4.07812 39.1719C3.51562 38.1406 3.23438 36.9688 3.23438 35.6562C3.23438 34.3438 3.5625 33.2188 4.21875 32.2812C6 29.8438 8.25 24.875 10.9688 17.375C11.25 16.25 11.7188 15.6875 12.375 15.6875ZM94.0781 14.4219C95.3906 14.4219 97.875 15.9219 101.531 18.9219C105.75 22.4844 107.859 25.0625 107.859 26.6562C107.859 28.1562 106.312 29.0469 103.219 29.3281C98.625 29.8906 93.0938 31.1562 86.625 33.125C86.0625 33.125 85.7812 32.8438 85.7812 32.2812C89.25 26.6562 90.9844 23.3281 90.9844 22.2969C90.9844 21.5469 90.0938 21.1719 88.3125 21.1719C73.4062 21.4531 52.4531 23.5156 25.4531 27.3594C23.2969 27.6406 22.0312 27.7812 21.6562 27.7812C18.8438 27.7812 16.7812 27.1719 15.4688 25.9531C13.7812 24.6406 12.9375 23.6562 12.9375 23C12.9375 22.25 13.5 21.8281 14.625 21.7344C14.625 21.7344 15.9844 21.7344 18.7031 21.7344C38.2969 21.2656 61.3125 19.1094 87.75 15.2656C90.9375 14.7031 93.0469 14.4219 94.0781 14.4219ZM37.8281 34.9531C39.0469 34.9531 40.5938 35.4219 42.4688 36.3594C43.7812 36.9219 44.4375 37.625 44.4375 38.4688C44.4375 38.9375 43.875 39.3125 42.75 39.5938C41.4375 40.0625 38.5312 40.7188 34.0312 41.5625C27.1875 42.5938 22.7344 43.1094 20.6719 43.1094C17.7656 43.1094 15.75 42.7812 14.625 42.125C13.5 41.375 12.9375 40.7188 12.9375 40.1562C12.9375 39.7812 13.7812 39.5469 15.4688 39.4531C19.4062 38.9844 23.7188 38.2812 28.4062 37.3438C31.6875 36.6875 34.3594 36.0312 36.4219 35.375C37.0781 35.0938 37.5469 34.9531 37.8281 34.9531ZM35.1562 49.0156C35.9062 49.0156 37.4062 49.25 39.6562 49.7188C41.7188 50.4688 42.75 51.125 42.75 51.6875C42.75 52.4375 41.5312 53.0938 39.0938 53.6562C37.2188 53.9375 35.625 54.1719 34.3125 54.3594C33.1875 54.6406 30.2344 55.2969 25.4531 56.3281C22.8281 56.7969 20.9531 57.0312 19.8281 57.0312C18.2344 57.0312 16.9219 56.8906 15.8906 56.6094C14.2969 56.0469 13.5 55.4375 13.5 54.7812C13.5 53.8438 14.7188 53.3281 17.1562 53.2344C22.5 52.2969 27.7031 51.0781 32.7656 49.5781C34.1719 49.2031 34.9688 49.0156 35.1562 49.0156ZM24.75 40.4375C26.25 40.4375 28.0781 40.8594 30.2344 41.7031C31.7344 42.4531 32.4844 43.2969 32.4844 44.2344C32.4844 44.8906 32.3906 45.5469 32.2031 46.2031C31.9219 47.6094 31.7812 48.7812 31.7812 49.7188L31.3594 66.875H25.875L24.6094 47.3281C24.5156 46.2969 24.1406 45.1719 23.4844 43.9531C22.9219 43.2969 22.6406 42.8281 22.6406 42.5469C22.6406 41.1406 23.3438 40.4375 24.75 40.4375ZM7.3125 67.1562C7.78125 67.1562 8.53125 67.25 9.5625 67.4375C11.0625 67.625 12 67.7188 12.375 67.7188C13.3125 67.7188 15.0469 67.5312 17.5781 67.1562C28.9219 64.5312 36.8438 62.4688 41.3438 60.9688C42.5625 60.5938 43.4062 60.4062 43.875 60.4062C45.75 60.4062 46.6875 60.875 46.6875 61.8125C46.6875 62.6562 45.75 63.4062 43.875 64.0625C30.75 68.4688 24.1875 70.7188 24.1875 70.8125C21.4688 71.75 18.9844 72.7812 16.7344 73.9062C15.4219 74.75 14.4375 75.1719 13.7812 75.1719C12.6562 75.1719 11.0625 74.3281 9 72.6406C6.75 70.4844 5.625 69.0312 5.625 68.2812C5.625 67.5312 6.1875 67.1562 7.3125 67.1562ZM56.8125 25.8125C57.2812 25.8125 58.5938 26.1875 60.75 26.9375C62.7188 27.7812 63.7031 28.7656 63.7031 29.8906C63.7031 30.3594 63.5156 30.7812 63.1406 31.1562C62.2031 31.9062 61.2656 33.0781 60.3281 34.6719C58.5469 37.3906 56.6719 39.6406 54.7031 41.4219C53.3906 42.8281 52.2656 43.7656 51.3281 44.2344C50.7656 44.7031 50.3438 44.9375 50.0625 44.9375C49.4062 44.9375 49.0781 44.7031 49.0781 44.2344C50.2969 42.2656 51.4219 40.1094 52.4531 37.7656C53.7656 34.8594 54.75 32.1875 55.4062 29.75C55.5938 29.0938 55.6875 28.0156 55.6875 26.5156C55.6875 26.0469 56.0625 25.8125 56.8125 25.8125ZM76.7812 30.5938C77.9062 30.5938 79.3125 31.0156 81 31.8594C82.125 32.4219 82.6875 33.0781 82.6875 33.8281C82.6875 34.3906 82.2188 34.8125 81.2812 35.0938C80.1562 35.6562 77.6719 36.3594 73.8281 37.2031C68.1094 38.4219 64.3594 39.0312 62.5781 39.0312C59.9531 39.0312 58.1719 38.75 57.2344 38.1875C56.2031 37.4375 55.6875 36.8281 55.6875 36.3594C55.6875 35.8906 56.3906 35.6094 57.7969 35.5156C61.1719 35.0469 64.8281 34.2969 68.7656 33.2656C71.5781 32.5156 73.8281 31.7656 75.5156 31.0156C76.1719 30.7344 76.5938 30.5938 76.7812 30.5938ZM88.0312 41.8438C88.4062 41.8438 89.5781 42.2188 91.5469 42.9688C93.8906 44.4688 95.0625 45.5938 95.0625 46.3438C94.9688 47.0938 93.8438 47.5156 91.6875 47.6094C85.7812 47.7969 79.0781 48.2656 71.5781 49.0156C67.2656 49.4844 61.5938 50.375 54.5625 51.6875C53.1562 51.9688 52.3125 52.1094 52.0312 52.1094C50.5312 52.1094 49.0781 51.7344 47.6719 50.9844C45.8906 50.2344 45 49.5312 45 48.875C45 48.5938 45.6562 48.3125 46.9688 48.0312C61.2188 46.1562 72.8906 44.4219 81.9844 42.8281C85.1719 42.1719 87.1875 41.8438 88.0312 41.8438ZM65.25 37.0625C66.75 37.0625 68.5781 37.4844 70.7344 38.3281C72.2344 39.0781 72.9844 39.9219 72.9844 40.8594C72.9844 41.5156 72.8906 42.1719 72.7031 42.8281C72.4219 44.2344 72.2812 45.4062 72.2812 46.3438L71.8594 62.375H66.375L65.1094 43.9531C65.0156 42.9219 64.6406 41.7969 63.9844 40.5781C63.4219 39.9219 63.1406 39.4531 63.1406 39.1719C63.1406 37.7656 63.8438 37.0625 65.25 37.0625ZM52.3125 53.375C53.3438 53.375 54.7969 54.125 56.6719 55.625C58.1719 56.6562 58.9219 57.5469 58.9219 58.2969C58.9219 58.4844 58.7344 58.9062 58.3594 59.5625C57.9844 60.3125 57.7969 60.7812 57.7969 60.9688C57.7969 61.4375 58.125 61.6719 58.7812 61.6719C59.0625 61.6719 59.8125 61.5781 61.0312 61.3906C65.4375 60.6406 70.3125 59.9375 75.6562 59.2812C80.25 58.7188 83.3438 58.4375 84.9375 58.4375C86.4375 58.4375 87.1875 58.8594 87.1875 59.7031C87.1875 60.5469 86.4375 61.1094 84.9375 61.3906C74.3438 63.0781 66.6562 64.7656 61.875 66.4531C59.8125 67.0156 57.7031 68 55.5469 69.4062C54.7031 69.9688 54.0938 70.25 53.7188 70.25C53.1562 70.25 52.3594 69.5469 51.3281 68.1406C50.1094 66.3594 49.5 65 49.5 64.0625C49.5 63.875 49.7812 63.6406 50.3438 63.3594C51.375 62.5156 51.9375 61.5781 52.0312 60.5469C52.0312 58.8594 51.8438 57.5469 51.4688 56.6094C51.0938 55.5781 50.9062 54.9219 50.9062 54.6406C50.9062 53.7969 51.375 53.375 52.3125 53.375ZM82.5469 51.6875C83.6719 51.6875 85.1719 52.1094 87.0469 52.9531C89.1094 54.0781 90.1406 55.1094 90.1406 56.0469C90.1406 56.1406 89.9531 56.3281 89.5781 56.6094C89.1094 57.1719 88.7344 58.2969 88.4531 59.9844C87.8906 61.9531 87.375 63.5 86.9062 64.625C86.7188 65.375 86.2969 65.9375 85.6406 66.3125C84.9844 66.6875 84.375 66.875 83.8125 66.875C83.3438 66.875 82.7812 66.3125 82.125 65.1875C81.75 64.1562 81.5625 63.5 81.5625 63.2188C81.5625 63.125 81.6562 62.6094 81.8438 61.6719C82.0312 60.5469 82.125 59.0938 82.125 57.3125C82.0312 56.375 81.7969 55.4844 81.4219 54.6406C80.8594 53.8906 80.5781 53.375 80.5781 53.0938C80.5781 52.9062 80.9062 52.5312 81.5625 51.9688C82.2188 51.7812 82.5469 51.6875 82.5469 51.6875ZM29.3906 74.1875C30.9844 74.1875 32.4844 74.6094 33.8906 75.4531C35.8594 76.2969 36.8438 77.4219 36.8438 78.8281C36.6562 81.5469 36.5625 84.0312 36.5625 86.2812C36.5625 94.9062 36.3281 102.547 35.8594 109.203C35.8594 111.922 35.6719 113.891 35.2969 115.109C34.4531 117.078 33.7031 118.062 33.0469 118.062C32.2969 118.062 31.4062 117.031 30.375 114.969C29.1562 112.156 28.5469 110.047 28.5469 108.641C28.5469 108.359 28.6875 107.75 28.9688 106.812C29.625 104.375 30 101.938 30.0938 99.5C30.2812 96.5938 30.375 93.1719 30.375 89.2344C30.375 84.1719 29.9062 80.4688 28.9688 78.125C28.4062 77.0938 28.125 76.3906 28.125 76.0156C28.125 74.8906 28.5469 74.2812 29.3906 74.1875ZM71.2969 70.25C72.1406 70.25 74.3438 71.0938 77.9062 72.7812C80.1562 74 81.2812 75.0781 81.2812 76.0156C81.2812 76.6719 80.9062 77.8906 80.1562 79.6719C79.5938 80.6094 79.3125 83.75 79.3125 89.0938C79.3125 94.3438 79.3594 98.7031 79.4531 102.172C79.5469 104.234 79.5938 106.109 79.5938 107.797C79.5938 110.422 79.1719 112.719 78.3281 114.688C77.2969 116.938 76.3125 118.062 75.375 118.062C74.7188 118.062 73.875 117.359 72.8438 115.953C71.25 113.891 70.4531 112.062 70.4531 110.469C70.4531 109.719 70.5469 108.594 70.7344 107.094C70.9219 105.5 71.0156 103.953 71.0156 102.453C71.0156 86.9844 70.5 78.4062 69.4688 76.7188C68.8125 76.1562 67.7344 75.875 66.2344 75.875C62.4844 75.875 57.0938 76.4844 50.0625 77.7031C43.7812 78.9219 39.3281 79.5312 36.7031 79.5312C35.1094 79.5312 33.7969 79.1562 32.7656 78.4062C31.9219 78.0312 31.5 77.5156 31.5 76.8594C31.5 76.3906 32.2031 76.1562 33.6094 76.1562C42.7031 75.3125 53.0156 73.7656 64.5469 71.5156C68.4844 70.6719 70.7344 70.25 71.2969 70.25ZM67.2188 82.7656C68.25 82.7656 69.4219 82.9062 70.7344 83.1875C71.5781 83.375 72 83.9375 72 84.875C72 85.625 71.2031 86.5156 69.6094 87.5469C60.0469 88.7656 51.375 89.6562 43.5938 90.2188C40.0312 90.5938 37.4062 90.7812 35.7188 90.7812C33.2812 90.5 32.0625 89.8438 32.0625 88.8125C32.1562 88.5312 32.7188 88.1094 33.75 87.5469C46.4062 85.7656 55.7344 84.3125 61.7344 83.1875C63.1406 82.9062 64.9688 82.7656 67.2188 82.7656ZM67.7812 95.1406C68.8125 95.1406 69.9844 95.2812 71.2969 95.5625C72.1406 95.75 72.5625 96.3125 72.5625 97.25C72.5625 98 71.7656 98.8906 70.1719 99.9219C60.6094 100.953 51.9375 101.703 44.1562 102.172C40.5938 102.453 37.9688 102.594 36.2812 102.594C33.8438 102.312 32.625 101.656 32.625 100.625C32.7188 100.344 33.2812 99.9219 34.3125 99.3594C46.9688 97.7656 56.2969 96.5 62.2969 95.5625C63.7031 95.2812 65.5312 95.1406 67.7812 95.1406ZM65.3906 107.094C66.6094 107.094 68.4375 107.656 70.875 108.781C72.75 110.094 73.6875 111.172 73.6875 112.016C73.6875 112.672 73.1719 113 72.1406 113C68.0156 113 64.2188 113.188 60.75 113.562C49.9688 114.594 44.5781 115.109 44.5781 115.109C41.6719 115.391 39.4219 115.531 37.8281 115.531C35.5781 115.531 34.0781 115.156 33.3281 114.406C32.4844 113.562 32.0625 112.812 32.0625 112.156C32.0625 111.125 32.7188 110.609 34.0312 110.609C42.375 110.141 50.1562 109.25 57.375 107.938C61.4062 107.375 64.0781 107.094 65.3906 107.094ZM40.2188 114.125C40.9688 114.125 42.9375 114.688 46.125 115.812C49.125 117.031 50.625 118.531 50.625 120.312C50.625 120.875 50.1094 121.344 49.0781 121.719C47.0156 122.656 44.7656 124.062 42.3281 125.938C38.0156 129.031 33.4688 131.609 28.6875 133.672C25.5938 135.359 22.9219 136.438 20.6719 136.906C19.2656 137.469 18.1875 137.75 17.4375 137.75C16.4062 137.75 15.8906 137.422 15.8906 136.766C19.9219 134.328 23.7188 131.656 27.2812 128.75C31.875 125.188 35.25 121.953 37.4062 119.047C38.1562 118.203 38.5312 116.891 38.5312 115.109C38.5312 114.453 39.0938 114.125 40.2188 114.125ZM60.75 116.938C61.4062 116.938 62.625 117.125 64.4062 117.5C67.9688 118.531 71.3906 119.797 74.6719 121.297C79.0781 123.453 81.9844 125.422 83.3906 127.203C84.4219 128.797 84.9375 130.531 84.9375 132.406C84.9375 133.531 84.6562 134.797 84.0938 136.203C83.4375 137.234 82.5938 137.75 81.5625 137.75C81 137.75 80.1094 137.375 78.8906 136.625C76.9219 135.5 74.4375 133.109 71.4375 129.453C67.4062 124.953 64.4062 121.906 62.4375 120.312C60.8438 119.188 60.0469 118.344 60.0469 117.781C60.0469 117.219 60.2812 116.938 60.75 116.938Z"
    stroke="#1b3aaf"
    stroke-width="3"
    mask="url(#path-1-outside-1)"/>
  <path
    d="M194.906 5C196.219 5 198.562 5.79688 201.938 7.39062C205.031 9.26562 206.578 10.9062 206.578 12.3125C206.578 12.6875 206.016 13.1562 204.891 13.7188C203.203 14.4688 200.812 16.0625 197.719 18.5C192.938 22.4375 187.547 26.2812 181.547 30.0312C177.516 32.0938 175.125 33.125 174.375 33.125C173.906 33.125 173.672 32.8906 173.672 32.4219C180.047 26.3281 184.969 20.8906 188.438 16.1094C191.344 12.0781 192.797 9.07812 192.797 7.10938C192.797 5.70312 193.5 5 194.906 5ZM214.734 22.8594C216.141 22.8594 218.906 24.125 223.031 26.6562C225.469 28.0625 226.688 29.0938 226.688 29.75C226.688 30.5 226.312 31.25 225.562 32C225 32.8438 224.391 34.1094 223.734 35.7969C220.641 44.2344 217.781 51.1719 215.156 56.6094C213.281 58.2031 211.594 59 210.094 59C209.344 59 208.688 58.4375 208.125 57.3125C207.562 56.1875 207.281 55.0156 207.281 53.7969C207.281 53.5156 207.516 53 207.984 52.25C208.922 50.9375 209.906 47.6094 210.938 42.2656C211.875 38.2344 212.344 34.9062 212.344 32.2812C212.344 30.5938 211.266 29.75 209.109 29.75C207.516 29.75 203.344 30.2188 196.594 31.1562C188.344 32.375 182.672 33.2656 179.578 33.8281C177.609 34.3906 176.156 34.6719 175.219 34.6719C174 34.6719 172.688 34.25 171.281 33.4062C169.969 32.375 169.312 31.5781 169.312 31.0156C169.312 30.5469 170.016 30.2188 171.422 30.0312C179.766 29.375 188.25 28.2031 196.875 26.5156C204.188 25.1094 208.969 24.125 211.219 23.5625C212.719 23.0938 213.891 22.8594 214.734 22.8594ZM204.75 37.4844C205.594 37.4844 207.281 37.7656 209.812 38.3281C212.062 39.1719 213.188 39.875 213.188 40.4375C213.188 41.375 211.828 42.125 209.109 42.6875C206.203 42.9688 203.766 43.25 201.797 43.5312C200.109 43.8125 195.609 44.5156 188.297 45.6406C184.359 46.2031 181.5 46.4844 179.719 46.4844C177.938 46.4844 176.484 46.2969 175.359 45.9219C173.578 45.3594 172.688 44.7031 172.688 43.9531C172.688 42.9219 174.047 42.3594 176.766 42.2656C185.016 41.2344 193.078 39.875 200.953 38.1875C203.297 37.7188 204.562 37.4844 204.75 37.4844ZM203.344 50.9844C204.469 50.9844 206.156 51.5 208.406 52.5312C210.094 53.75 210.938 54.7344 210.938 55.4844C210.938 56.1406 210.469 56.4688 209.531 56.4688C205.594 56.4688 201.984 56.6562 198.703 57.0312C188.672 58.0625 183.656 58.5781 183.656 58.5781C180.938 58.8594 178.828 59 177.328 59C175.359 59 174 58.625 173.25 57.875C172.5 57.125 172.125 56.4688 172.125 55.9062C172.125 54.9688 172.688 54.5 173.812 54.5C181.688 54.0312 189.047 53.1406 195.891 51.8281C199.641 51.2656 202.125 50.9844 203.344 50.9844ZM210.094 62.0938C211.031 62.0938 212.859 62.4219 215.578 63.0781C218.109 63.9219 219.375 64.6719 219.375 65.3281C219.375 66.3594 217.875 67.2031 214.875 67.8594C211.5 68.2344 208.594 68.5625 206.156 68.8438C204.094 69.2188 198.75 70.1094 190.125 71.5156C185.344 72.1719 181.922 72.5 179.859 72.5C177.891 72.5 176.297 72.3125 175.078 71.9375C173.109 71.2812 172.125 70.5781 172.125 69.8281C172.125 68.6094 173.625 67.9531 176.625 67.8594C186.562 66.5469 196.219 64.8594 205.594 62.7969C208.312 62.3281 209.812 62.0938 210.094 62.0938ZM168.047 28.0625C169.547 28.0625 171.328 28.4844 173.391 29.3281C176.203 30.6406 177.797 32 178.172 33.4062C178.172 34.1562 177.844 35.4219 177.188 37.2031C176.625 41.3281 175.922 54.4531 175.078 76.5781C175.078 78.2656 175.547 79.1094 176.484 79.1094C195.516 76.3906 209.906 74.7969 219.656 74.3281C223.875 74.1406 228.375 73.7656 233.156 73.2031C236.344 72.8281 238.172 72.6406 238.641 72.6406C239.484 72.6406 242.156 73.5781 246.656 75.4531C250.781 77.2344 252.844 78.6406 252.844 79.6719C252.844 80.6094 252.375 81.8281 251.438 83.3281C249.938 85.7656 249 90.0781 248.625 96.2656C248.062 106.297 246.938 113.844 245.25 118.906C243.75 124.344 240.984 128.656 236.953 131.844C234.797 133.531 233.062 134.375 231.75 134.375L230.625 119.609C231.375 119.609 232.406 118.625 233.719 116.656C235.875 113.844 237.234 109.719 237.797 104.281C238.359 99.2188 238.734 92.6562 238.922 84.5938C238.922 81.3125 237.047 79.6719 233.297 79.6719C219.047 79.6719 205.031 80.6094 191.25 82.4844C183.656 83.5156 178.172 84.6406 174.797 85.8594C173.016 86.8906 171.75 87.4062 171 87.4062C169.969 87.4062 168.75 86.4688 167.344 84.5938C166.219 82.3438 165.656 80.6094 165.656 79.3906C165.844 78.8281 166.219 77.5156 166.781 75.4531C168 70.3906 168.656 64.2969 168.75 57.1719C168.75 57.1719 168.844 52.1094 169.031 41.9844C169.031 38.5156 168.422 35.6094 167.203 33.2656C166.172 31.9531 165.656 31.0156 165.656 30.4531C165.656 28.8594 166.453 28.0625 168.047 28.0625ZM218.672 116.375C225.609 118.531 229.594 119.609 230.625 119.609L231.75 134.375C230.625 134.375 229.078 132.969 227.109 130.156C225.609 128 222.469 123.922 217.688 117.922C217.688 116.891 218.016 116.375 218.672 116.375ZM181.125 86.5625C182.906 86.5625 185.109 87.0781 187.734 88.1094C189.609 89.0469 190.547 90.0781 190.547 91.2031C190.547 91.9531 190.406 92.75 190.125 93.5938C189.75 95.2812 189.562 96.6875 189.562 97.8125L188.719 113H182.109L180.844 95C180.75 93.6875 180.281 92.2812 179.438 90.7812C178.781 90.0312 178.453 89.4688 178.453 89.0938C178.453 87.4062 179.344 86.5625 181.125 86.5625ZM160.594 95.5625C162 95.5625 163.969 96.5469 166.5 98.5156C168.562 99.9219 169.594 101.141 169.594 102.172C169.5 102.922 168.984 104.516 168.047 106.953C166.828 109.484 166.219 111.078 166.219 111.734C166.219 112.391 166.734 112.719 167.766 112.719C168.141 112.719 169.219 112.578 171 112.297C177.562 110.984 184.734 109.766 192.516 108.641C199.266 107.797 203.812 107.375 206.156 107.375C208.219 107.375 209.25 107.938 209.25 109.062C209.25 110.281 208.125 111.125 205.875 111.594C190.781 113.938 179.766 116.328 172.828 118.766C169.734 119.609 166.641 121.016 163.547 122.984C162.328 123.828 161.484 124.25 161.016 124.25C160.266 124.25 159.188 123.312 157.781 121.438C156.094 119.094 155.25 117.266 155.25 115.953C155.25 115.484 155.766 114.688 156.797 113.562C159.047 111.031 160.219 108.219 160.312 105.125C160.312 102.875 160.078 101.141 159.609 99.9219C159.047 98.5156 158.766 97.625 158.766 97.25C158.766 96.125 159.375 95.5625 160.594 95.5625ZM206.438 91.625C207.844 91.625 209.625 92.1406 211.781 93.1719C214.406 94.6719 215.719 95.9844 215.719 97.1094C215.719 97.2969 215.531 97.6719 215.156 98.2344C214.5 99.3594 214.031 101.656 213.75 105.125C213.094 109.156 212.438 112.297 211.781 114.547C211.594 116.141 211.078 117.359 210.234 118.203C209.484 118.859 208.781 119.188 208.125 119.188C207.562 119.188 206.859 118.484 206.016 117.078C205.547 115.859 205.312 115.062 205.312 114.688C205.312 114.5 205.406 113.047 205.594 110.328C205.781 107.328 205.875 103.438 205.875 98.6562C205.781 97.5312 205.453 96.4062 204.891 95.2812C204.234 94.3438 203.906 93.7344 203.906 93.4531C203.906 93.1719 204.328 92.7031 205.172 92.0469C206.016 91.7656 206.438 91.625 206.438 91.625Z"
    stroke="#1b3aaf"
    stroke-width="3"
    mask="url(#path-1-outside-1)"/>
  <path
    d="M365.203 19.2031C366.797 19.2031 368.906 19.8594 371.531 21.1719C373.219 21.9219 374.062 22.8594 374.062 23.9844C374.062 24.8281 372.797 25.4844 370.266 25.9531C367.359 26.7969 360.844 27.875 350.719 29.1875C335.438 30.9688 325.453 31.8594 320.766 31.8594C316.922 31.8594 314.25 31.4375 312.75 30.5938C311.25 29.4688 310.5 28.5312 310.5 27.7812C310.5 27.125 312.328 26.7031 315.984 26.5156C324.703 25.8594 334.219 24.7344 344.531 23.1406C351.75 22.1094 357.609 21.0312 362.109 19.9062C363.609 19.4375 364.641 19.2031 365.203 19.2031ZM339.047 3.3125C340.266 3.3125 342.234 4.0625 344.953 5.5625C347.766 7.25 349.172 8.65625 349.172 9.78125C349.172 10.1562 348.891 10.7188 348.328 11.4688C347.766 12.5938 347.203 14.2812 346.641 16.5312C344.859 23.375 342.984 29.0469 341.016 33.5469C338.484 38.6094 334.875 43.2969 330.188 47.6094C325.594 51.6406 320.531 54.3125 315 55.625C313.031 56.1875 311.531 56.5625 310.5 56.75C309.562 56.75 309.094 56.5156 309.094 56.0469C309.094 55.6719 309.703 55.25 310.922 54.7812C317.203 51.2188 321.516 48.3125 323.859 46.0625C326.484 43.8125 328.969 40.7656 331.312 36.9219C333.094 34.0156 334.688 30.3125 336.094 25.8125C337.125 22.25 337.734 18.6406 337.922 14.9844C337.922 12.1719 337.594 9.73438 336.938 7.67188C336.562 6.54688 336.375 5.75 336.375 5.28125C336.844 3.96875 337.734 3.3125 339.047 3.3125ZM338.625 29.1875C339.375 29.1875 340.781 29.4219 342.844 29.8906C346.781 31.2969 350.625 32.8906 354.375 34.6719C359.25 37.4844 362.484 40.0156 364.078 42.2656C365.297 44.3281 365.906 46.5781 365.906 49.0156C365.906 50.0469 365.672 51.2188 365.203 52.5312C364.547 53.4688 363.75 53.9375 362.812 53.9375C362.156 53.9375 361.125 53.4688 359.719 52.5312C357.469 51.2188 354.609 48.3594 351.141 43.9531C346.547 38.6094 343.125 35 340.875 33.125C339 31.7188 338.062 30.6875 338.062 30.0312C338.062 29.4688 338.25 29.1875 338.625 29.1875ZM390.094 53.6562C390.75 53.6562 393.188 54.4531 397.406 56.0469C400.969 57.9219 402.75 59.6562 402.75 61.25C402.75 62.6562 400.266 63.3594 395.297 63.3594C387.703 63.1719 379.594 63.0781 370.969 63.0781C361.781 63.0781 349.875 63.6406 335.25 64.7656C324.656 65.3281 313.359 66.875 301.359 69.4062C297.984 70.25 295.922 70.6719 295.172 70.6719C293.578 70.6719 291.188 69.9688 288 68.5625C284.625 67.1562 282.938 65.9844 282.938 65.0469C282.938 63.9219 284.016 63.2656 286.172 63.0781C299.391 62.9844 309.094 62.375 315.281 61.25C327 59.8438 339.891 58.8125 353.953 58.1562C367.266 57.0312 377.438 55.7656 384.469 54.3594C387.469 53.8906 389.344 53.6562 390.094 53.6562ZM310.359 78.6875C312.047 78.6875 313.594 78.9219 315 79.3906C317.906 80.4219 319.359 81.6875 319.359 83.1875C319.359 84.2188 319.406 85.2969 319.5 86.4219C320.156 93.1719 320.484 97.8125 320.484 100.344C320.484 101.75 320.25 102.875 319.781 103.719C319.406 104.656 318.891 105.125 318.234 105.125C317.578 105.125 316.922 104.562 316.266 103.438C315.234 102.031 314.672 100.531 314.578 98.9375C313.828 94.5312 313.453 92.3281 313.453 92.3281C312.984 88.9531 312.469 86.5625 311.906 85.1562C311.625 83.75 310.828 82.4844 309.516 81.3594C308.953 80.9844 308.672 80.75 308.672 80.6562C308.672 79.3438 309.234 78.6875 310.359 78.6875ZM337.078 73.9062C338.672 73.9062 341.391 74.8438 345.234 76.7188C346.922 77.75 347.766 78.875 347.766 80.0938C347.766 80.9375 347.297 81.8281 346.359 82.7656C345.234 84.0781 344.25 85.9062 343.406 88.25C343.406 88.25 342.562 90.7344 340.875 95.7031C340.219 97.1094 339.094 97.8125 337.5 97.8125C335.156 97.8125 333.984 97.2969 333.984 96.2656C333.984 95.9844 334.031 95.375 334.125 94.4375C334.406 91.9062 334.641 89.7031 334.828 87.8281C335.016 85.7656 335.109 84.125 335.109 82.9062C335.109 82.0625 334.594 81.6406 333.562 81.6406C332.062 81.6406 330.094 81.9219 327.656 82.4844C322.781 83.6094 319.594 84.1719 318.094 84.1719C316.969 84.1719 315.844 83.6562 314.719 82.625C313.406 81.875 312.75 81.3125 312.75 80.9375C312.75 80.2812 313.312 79.9531 314.438 79.9531C318.75 79.5781 322.406 79.0156 325.406 78.2656C328.5 77.5156 331.5 76.3906 334.406 74.8906C335.625 74.2344 336.516 73.9062 337.078 73.9062ZM334.828 94.1562C336.047 94.1562 337.875 94.7188 340.312 95.8438C342.188 97.1562 343.125 98.2344 343.125 99.0781C343.125 99.6406 342.844 99.9219 342.281 99.9219C339.844 99.9219 337.641 100.109 335.672 100.484C329.484 101.234 326.391 101.609 326.391 101.609C324.703 101.891 323.391 102.031 322.453 102.031C320.203 102.031 318.703 101.656 317.953 100.906C317.109 100.062 316.688 99.3125 316.688 98.6562C316.688 97.625 317.344 97.1094 318.656 97.1094C322.969 96.7344 327 95.9844 330.75 94.8594C332.812 94.3906 334.172 94.1562 334.828 94.1562ZM359.859 61.25C362.016 61.25 364.828 61.9531 368.297 63.3594C370.172 63.9219 371.109 65.3281 371.109 67.5781C371.109 68.0469 370.969 69.0781 370.688 70.6719C370.031 72.6406 369.703 75.9219 369.703 80.5156C369.703 88.2031 369.844 94.3438 370.125 98.9375C370.406 104 370.547 109.016 370.547 113.984C370.547 121.859 369.609 127.297 367.734 130.297C364.547 134.141 361.969 136.062 360 136.062C358.781 136.062 357.703 135.406 356.766 134.094C354.047 130.531 350.391 126.688 345.797 122.562C344.203 121.625 343.406 120.781 343.406 120.031C343.406 119.469 343.688 119.188 344.25 119.188C344.906 119.188 345.797 119.234 346.922 119.328C351.984 120.078 355.219 120.453 356.625 120.453C358.406 120.453 359.531 119.281 360 116.938C361.031 113.656 361.547 104.234 361.547 88.6719C361.547 80.1406 360.797 73.2031 359.297 67.8594C358.453 65.8906 358.031 64.4375 358.031 63.5C358.031 62 358.641 61.25 359.859 61.25Z"
    stroke="#1b3aaf"
    stroke-width="3"
    mask="url(#path-1-outside-1)"/>
  <path
    d="M432.844 31.4375C434.812 31.4375 436.5 31.7188 437.906 32.2812C441.188 33.4062 442.828 34.7656 442.828 36.3594C442.828 37.5781 442.922 38.8438 443.109 40.1562C444.328 48.4062 444.938 54.0781 444.938 57.1719C444.938 58.7656 444.703 59.9844 444.234 60.8281C443.766 61.8594 443.203 62.375 442.547 62.375C441.797 62.375 441.047 61.7656 440.297 60.5469C439.172 58.9531 438.562 57.2656 438.469 55.4844C437.531 50.2344 437.062 47.6094 437.062 47.6094C436.406 43.4844 435.797 40.625 435.234 39.0312C434.766 37.3438 433.688 35.7969 432 34.3906C431.344 34.0156 431.016 33.7344 431.016 33.5469C431.016 32.1406 431.625 31.4375 432.844 31.4375ZM463.641 25.9531C465.422 25.9531 468.328 26.9375 472.359 28.9062C474.234 30.0312 475.172 31.25 475.172 32.5625C475.172 33.6875 474.609 34.8125 473.484 35.9375C472.266 37.7188 471.141 40.1094 470.109 43.1094C470.109 43.1094 469.125 46.3438 467.156 52.8125C466.406 54.3125 465.141 55.0625 463.359 55.0625C460.922 55.0625 459.703 54.5469 459.703 53.5156C459.703 53.1406 459.75 52.2969 459.844 50.9844C460.406 47.7031 460.828 44.7969 461.109 42.2656C461.391 39.5469 461.531 37.3438 461.531 35.6562C461.531 34.7188 460.969 34.25 459.844 34.25C457.969 34.25 455.625 34.5781 452.812 35.2344C446.906 36.4531 443.016 37.0625 441.141 37.0625C439.922 37.0625 438.703 36.5 437.484 35.375C436.078 34.5312 435.375 33.9219 435.375 33.5469C435.375 32.7969 435.984 32.4219 437.203 32.4219C442.266 32.0469 446.531 31.4375 450 30.5938C453.562 29.8438 457.078 28.6719 460.547 27.0781C461.953 26.3281 462.984 25.9531 463.641 25.9531ZM460.828 51.4062C462.047 51.4062 463.875 51.9688 466.312 53.0938C468.188 54.4062 469.125 55.4844 469.125 56.3281C469.125 56.8906 468.797 57.1719 468.141 57.1719C465.609 57.1719 463.312 57.3594 461.25 57.7344C454.688 58.4844 451.406 58.8594 451.406 58.8594C449.625 59.1406 448.266 59.2812 447.328 59.2812C445.078 59.2812 443.578 58.9062 442.828 58.1562C441.984 57.3125 441.562 56.5625 441.562 55.9062C441.562 54.875 442.219 54.3594 443.531 54.3594C448.125 53.9844 452.438 53.2344 456.469 52.1094C458.625 51.6406 460.078 51.4062 460.828 51.4062ZM450.562 56.1875C452.344 56.1875 454.547 56.7031 457.172 57.7344C459.047 58.6719 459.984 59.7031 459.984 60.8281C459.984 61.5781 459.844 62.375 459.562 63.2188C459.188 64.9062 459 66.3125 459 67.4375L457.594 104H450.984L450.281 64.625C450.188 63.3125 449.719 61.9062 448.875 60.4062C448.219 59.6562 447.891 59.0938 447.891 58.7188C447.891 57.0312 448.781 56.1875 450.562 56.1875ZM467.719 73.2031C469.031 73.2031 470.484 73.3906 472.078 73.7656C473.109 73.9531 473.625 74.6562 473.625 75.875C473.625 76.7188 472.594 77.7969 470.531 79.1094C467.625 79.4844 464.953 79.7656 462.516 79.9531C461.484 80.0469 460.688 80.0938 460.125 80.0938C457.125 79.7188 455.625 78.875 455.625 77.5625C455.719 77.2812 456.422 76.7656 457.734 76.0156C461.484 74.9844 464.25 74.1406 466.031 73.4844C466.5 73.2969 467.062 73.2031 467.719 73.2031ZM432.281 70.8125C433.875 70.8125 435.891 71.2812 438.328 72.2188C440.016 73.0625 440.859 74 440.859 75.0312C440.859 75.6875 440.719 76.4375 440.438 77.2812C440.156 78.7812 440.016 80.0469 440.016 81.0781L439.312 109.062H433.266L432 78.4062C431.906 77.1875 431.484 75.9219 430.734 74.6094C430.172 73.9531 429.891 73.4375 429.891 73.0625C429.891 71.5625 430.688 70.8125 432.281 70.8125ZM422.578 106.391C423.234 106.391 424.406 106.484 426.094 106.672C428.25 106.953 429.609 107.094 430.172 107.094C431.484 107.094 433.828 106.766 437.203 106.109C452.391 101.703 463.031 98.2344 469.125 95.7031C470.719 95.0469 471.844 94.7188 472.5 94.7188C475.125 94.7188 476.438 95.375 476.438 96.6875C476.438 98.0938 475.172 99.2656 472.641 100.203C455.109 107.422 446.344 111.078 446.344 111.172C442.688 112.766 439.406 114.453 436.5 116.234C434.719 117.641 433.359 118.344 432.422 118.344C430.641 118.344 428.25 117.031 425.25 114.406C421.875 111.312 420.188 109.203 420.188 108.078C420.188 106.953 420.984 106.391 422.578 106.391ZM521.859 22.4375C523.266 22.4375 525.047 23 527.203 24.125C528.609 24.6875 529.312 25.4375 529.312 26.375C529.312 27.125 528.375 27.6875 526.5 28.0625C524.344 28.8125 519.469 29.75 511.875 30.875C500.438 32.4688 492.984 33.2656 489.516 33.2656C486.328 33.2656 484.078 32.8906 482.766 32.1406C481.547 31.2969 480.938 30.5469 480.938 29.8906C480.938 29.3281 482.297 29 485.016 28.9062C491.484 28.25 498.609 27.2188 506.391 25.8125C511.828 24.9688 516.188 24.0312 519.469 23C520.688 22.625 521.484 22.4375 521.859 22.4375ZM514.969 36.7812C515.906 36.7812 517.734 37.1094 520.453 37.7656C522.984 38.6094 524.25 39.3594 524.25 40.0156C524.25 41.0469 522.75 41.8906 519.75 42.5469C517.125 42.8281 514.922 43.1094 513.141 43.3906C511.547 43.7656 507.469 44.5625 500.906 45.7812C497.344 46.3438 494.766 46.625 493.172 46.625C491.203 46.625 489.609 46.4375 488.391 46.0625C486.422 45.4062 485.438 44.7031 485.438 43.9531C485.438 42.7344 486.938 42.0781 489.938 41.9844C497.344 40.8594 504.562 39.3594 511.594 37.4844C513.656 37.0156 514.781 36.7812 514.969 36.7812ZM538.875 48.0312C540 48.0312 541.969 48.6875 544.781 50C547.594 51.3125 549 52.3438 549 53.0938C549 54.3125 548.062 55.0625 546.188 55.3438C545.062 55.8125 542.812 56.0469 539.438 56.0469C530.156 56.0469 520.312 56.7031 509.906 58.0156C495.562 59.8906 486 61.3906 481.219 62.5156C479.719 62.9844 478.641 63.2188 477.984 63.2188C477.141 63.2188 475.547 62.6094 473.203 61.3906C471.234 60.4531 470.25 59.7031 470.25 59.1406C470.25 58.5781 471.047 58.2031 472.641 58.0156C481.359 56.9844 491.438 55.6719 502.875 54.0781C519.562 51.3594 530.25 49.5781 534.938 48.7344C537.094 48.2656 538.406 48.0312 538.875 48.0312ZM499.641 5C501.516 5 503.906 5.5625 506.812 6.6875C508.875 7.71875 509.906 8.84375 509.906 10.0625C509.906 10.9062 509.766 11.7969 509.484 12.7344C509.016 14.6094 508.781 16.1562 508.781 17.375L506.953 56.75H499.641L499.219 14.1406C499.125 12.7344 498.609 11.2344 497.672 9.64062C497.016 8.79688 496.688 8.1875 496.688 7.8125C496.688 5.9375 497.672 5 499.641 5ZM482.766 66.3125C484.359 66.3125 485.859 66.7344 487.266 67.5781C489.234 68.4219 490.219 69.5469 490.219 70.9531C490.125 73.7656 490.078 76.3906 490.078 78.8281C490.078 88.0156 489.938 96.125 489.656 103.156C489.656 106.062 489.516 108.172 489.234 109.484C488.391 111.453 487.641 112.438 486.984 112.438C486.234 112.438 485.344 111.406 484.312 109.344C483.094 106.531 482.484 104.422 482.484 103.016C482.484 102.734 482.578 102.031 482.766 100.906C483.234 98.2812 483.516 95.6094 483.609 92.8906C483.703 89.5156 483.75 85.6719 483.75 81.3594C483.75 76.2969 483.281 72.5938 482.344 70.25C481.781 69.2188 481.5 68.5156 481.5 68.1406C481.5 67.0156 481.922 66.4062 482.766 66.3125ZM521.859 62.7969C522.703 62.7969 524.906 63.7344 528.469 65.6094C530.719 66.9219 531.844 68.0938 531.844 69.125C531.844 69.875 531.469 71.1875 530.719 73.0625C530.156 74 529.875 77.2812 529.875 82.9062C529.875 88.4375 529.922 93.0312 530.016 96.6875C530.109 98.9375 530.156 100.953 530.156 102.734C530.156 105.359 529.688 107.656 528.75 109.625C527.531 111.875 526.406 113 525.375 113C524.812 113 524.062 112.297 523.125 110.891C521.719 108.828 521.016 107 521.016 105.406C521.016 104.656 521.109 103.531 521.297 102.031C521.484 100.438 521.578 98.8906 521.578 97.3906C521.578 80.7031 521.062 71.4688 520.031 69.6875C519.375 69.125 518.297 68.8438 516.797 68.8438C513.609 68.8438 509.016 69.3125 503.016 70.25C497.672 71.2812 493.922 71.7969 491.766 71.7969C489.984 71.7969 488.531 71.4219 487.406 70.6719C486.469 70.2031 486 69.6406 486 68.9844C486 68.5156 486.656 68.2812 487.969 68.2812C496.125 67.5312 505.406 66.125 515.812 64.0625C519.281 63.2188 521.297 62.7969 521.859 62.7969ZM514.125 76.8594C514.969 76.8594 516.656 77.1406 519.188 77.7031C521.438 78.5469 522.562 79.25 522.562 79.8125C522.562 80.75 521.203 81.5 518.484 82.0625C516.234 82.25 514.312 82.4375 512.719 82.625C511.312 82.8125 507.75 83.3281 502.031 84.1719C498.938 84.5469 496.688 84.7344 495.281 84.7344C493.5 84.7344 492.047 84.5469 490.922 84.1719C489.141 83.6094 488.25 82.9531 488.25 82.2031C488.25 81.1719 489.609 80.6094 492.328 80.5156C498.797 79.6719 505.078 78.5938 511.172 77.2812C512.953 77 513.938 76.8594 514.125 76.8594ZM513.562 88.6719C514.406 88.6719 516.094 88.9531 518.625 89.5156C520.875 90.3594 522 91.0625 522 91.625C522 92.5625 520.641 93.3125 517.922 93.875C515.672 94.0625 513.797 94.25 512.297 94.4375C510.984 94.625 507.516 95.1406 501.891 95.9844C498.797 96.3594 496.594 96.5469 495.281 96.5469C493.5 96.5469 492.047 96.3594 490.922 95.9844C489.141 95.4219 488.25 94.7656 488.25 94.0156C488.25 92.9844 489.609 92.4219 492.328 92.3281C498.609 91.4844 504.703 90.4062 510.609 89.0938C512.391 88.8125 513.375 88.6719 513.562 88.6719ZM514.828 102.031C516.047 102.031 517.875 102.594 520.312 103.719C522.188 105.031 523.125 106.109 523.125 106.953C523.125 107.516 522.656 107.797 521.719 107.797C518.156 107.797 514.828 107.984 511.734 108.359C502.359 109.109 497.672 109.484 497.672 109.484C495.141 109.766 493.172 109.906 491.766 109.906C489.516 109.906 488.016 109.531 487.266 108.781C486.422 107.938 486 107.188 486 106.531C486 105.5 486.656 104.984 487.969 104.984C495.094 104.609 501.75 103.859 507.938 102.734C511.406 102.266 513.703 102.031 514.828 102.031ZM491.906 109.625C492.656 109.625 494.625 110.188 497.812 111.312C500.812 112.531 502.312 114.031 502.312 115.812C502.312 116.469 501.844 116.984 500.906 117.359C498.844 118.391 496.641 119.938 494.297 122C490.078 125.375 485.672 128.234 481.078 130.578C478.078 132.359 475.5 133.484 473.344 133.953C471.938 134.609 470.906 134.938 470.25 134.938C469.219 134.938 468.703 134.609 468.703 133.953C472.547 131.328 476.109 128.469 479.391 125.375C483.891 121.531 487.125 118.016 489.094 114.828C489.844 113.984 490.219 112.578 490.219 110.609C490.219 109.953 490.781 109.625 491.906 109.625ZM513 111.312C513.75 111.312 515.016 111.547 516.797 112.016C520.359 113.328 523.828 114.828 527.203 116.516C531.703 119.141 534.703 121.578 536.203 123.828C537.234 125.703 537.75 127.812 537.75 130.156C537.75 131.281 537.469 132.547 536.906 133.953C536.25 134.984 535.406 135.5 534.375 135.5C533.719 135.5 532.781 135.031 531.562 134.094C529.594 132.781 527.062 130.016 523.969 125.797C519.844 120.547 516.75 116.984 514.688 115.109C513.094 113.797 512.297 112.812 512.297 112.156C512.297 111.594 512.531 111.312 513 111.312Z"
    stroke="#1b3aaf"
    stroke-width="3"
    mask="url(#path-1-outside-1)"/>
    <style>
      path:nth-child(1) {
        stroke-dasharray: 250;
        stroke-dashoffset: 250;
        animation: line-ani 5s ease forwards 0.2s;
      }
      path:nth-child(2) {
        stroke-dasharray: 420;
        stroke-dashoffset: 420;
        animation: line-ani 3s ease forwards 0.6s;
      }
      path:nth-child(3) {
        stroke-dasharray: 260;
        stroke-dashoffset: 260;
        animation: line-ani 3s ease forwards 0.9s;
      }
      path:nth-child(4) {
        stroke-dasharray: 185;
        stroke-dashoffset: 185;
        animation: line-ani 3s ease forwards 1.2s;
      }
      @keyframes line-ani {
        to {
          stroke-dashoffset: 0;
        }
      }
      @keyframes fill {
        from {
          fill: transparent;
        }
        to {
          fill: #1b3aaf;
        }
      }
    </style>
</svg>
