<svg id="ewemzq9oorao1" xmlns="http://www.w3.org/2000/svg" xmlns:xlink="http://www.w3.org/1999/xlink" viewBox="0 0 565 775" shape-rendering="geometricPrecision" text-rendering="geometricPrecision"><style><![CDATA[#ewemzq9oorao1{pointer-events: all}#ewemzq9oorao1:hover #ewemzq9oorao4_to {animation: ewemzq9oorao4_to__to 3200ms linear infinite normal forwards}@keyframes ewemzq9oorao4_to__to { 0% {transform: translate(266.566071px,153.455002px);animation-timing-function: step-start} 65.625000% {transform: translate(-71.566071px,153.455002px);animation-timing-function: cubic-bezier(0,0,0.580000,1)} 90.625000% {transform: translate(266.570000px,153.455002px)} 100% {transform: translate(266.570000px,153.455002px)} }#ewemzq9oorao1:hover #ewemzq9oorao4 {animation: ewemzq9oorao4_c_o 3200ms linear infinite normal forwards}@keyframes ewemzq9oorao4_c_o { 0% {opacity: 0;animation-timing-function: step-start} 62.500000% {opacity: 0} 65.625000% {opacity: 1;animation-timing-function: cubic-bezier(0,0,0.580000,1)} 90.625000% {opacity: 0} 100% {opacity: 0} }#ewemzq9oorao1:hover #ewemzq9oorao7_to {animation: ewemzq9oorao7_to__to 3200ms linear infinite normal forwards}@keyframes ewemzq9oorao7_to__to { 0% {transform: translate(267.493378px,157.493370px)} 28.125000% {transform: translate(267.493378px,157.493370px);animation-timing-function: cubic-bezier(0.420000,0,0.580000,1)} 46.875000% {transform: translate(267.492369px,516.359154px);animation-timing-function: step-start} 65.625000% {transform: translate(145px,157.490000px)} 75% {transform: translate(145px,157.490000px);animation-timing-function: cubic-bezier(0,0,0.580000,1)} 90.625000% {transform: translate(267.490000px,157.490000px)} 100% {transform: translate(267.490000px,157.490000px)} }#ewemzq9oorao1:hover #ewemzq9oorao7 {animation: ewemzq9oorao7_c_o 3200ms linear infinite normal forwards}@keyframes ewemzq9oorao7_c_o { 0% {opacity: 1} 28.125000% {opacity: 1;animation-timing-function: cubic-bezier(0.420000,0,1,1)} 46.875000% {opacity: 0.200000;animation-timing-function: step-start} 65.625000% {opacity: 0} 75% {opacity: 0;animation-timing-function: cubic-bezier(0,0,0.580000,1)} 90.625000% {opacity: 1} 100% {opacity: 1} }#ewemzq9oorao1:hover #ewemzq9oorao14_ts {animation: ewemzq9oorao14_ts__ts 3200ms linear infinite normal forwards}@keyframes ewemzq9oorao14_ts__ts { 0% {transform: translate(288.980000px,760px) scale(1,1)} 25% {transform: translate(288.980000px,760px) scale(1,1);animation-timing-function: cubic-bezier(0,0,0.580000,1)} 31.250000% {transform: translate(288.980000px,760px) scale(1,0.922589)} 46.875000% {transform: translate(288.980000px,760px) scale(1,0.922589);animation-timing-function: cubic-bezier(0,0,0.580000,1)} 56.250000% {transform: translate(288.980000px,760px) scale(1,1)} 100% {transform: translate(288.980000px,760px) scale(1,1)} }#ewemzq9oorao1:hover #ewemzq9oorao18_to {animation: ewemzq9oorao18_to__to 3200ms linear infinite normal forwards}@keyframes ewemzq9oorao18_to__to { 0% {transform: translate(104.500046px,326.500046px);animation-timing-function: cubic-bezier(0,0,0.580000,1)} 25% {transform: translate(500.499954px,326.500046px)} 65.625000% {transform: translate(500.499954px,326.500046px)} 90.625000% {transform: translate(103.902637px,326.425839px)} 100% {transform: translate(103.902637px,326.425839px)} }#ewemzq9oorao1:hover #ewemzq9oorao22_to {animation: ewemzq9oorao22_to__to 3200ms linear infinite normal forwards}@keyframes ewemzq9oorao22_to__to { 0% {transform: translate(72.159200px,347.920000px)} 62.500000% {transform: translate(72.159200px,347.920000px)} 65.625000% {transform: translate(57.159200px,347.920000px)} 96.875000% {transform: translate(56.976508px,347.920000px)} 100% {transform: translate(72.160000px,347.920000px)} }#ewemzq9oorao1:hover #ewemzq9oorao22_tr {animation: ewemzq9oorao22_tr__tr 3200ms linear infinite normal forwards}@keyframes ewemzq9oorao22_tr__tr { 0% {transform: rotate(0deg)} 56.250000% {transform: rotate(0deg);animation-timing-function: cubic-bezier(0,0,0.580000,1)} 62.500000% {transform: rotate(-111.591297deg)} 90.625000% {transform: rotate(-111.591297deg)} 96.875000% {transform: rotate(0deg)} 100% {transform: rotate(0deg)} }]]></style><defs><filter id="ewemzq9oorao27-filter" x="-400%" width="600%" y="-400%" height="600%"><feGaussianBlur id="ewemzq9oorao27-filter-drop-shadow-0-blur" in="SourceAlpha" stdDeviation="9,9"/><feOffset id="ewemzq9oorao27-filter-drop-shadow-0-offset" dx="0" dy="0" result="tmp"/><feFlood id="ewemzq9oorao27-filter-drop-shadow-0-flood" flood-color="rgb(191,90,34)"/><feComposite id="ewemzq9oorao27-filter-drop-shadow-0-composite" operator="in" in2="tmp"/><feMerge id="ewemzq9oorao27-filter-drop-shadow-0-merge"><feMergeNode id="ewemzq9oorao27-filter-drop-shadow-0-merge-node-1"/><feMergeNode id="ewemzq9oorao27-filter-drop-shadow-0-merge-node-2" in="SourceGraphic"/></feMerge></filter></defs><g id="ewemzq9oorao2"><path id="ewemzq9oorao3" d="M21,372C21,366.477000,25.477200,362,31,362L488,362C521.137000,362,548,388.863000,548,422L548,750C548,755.523000,543.523000,760,538,760L31,760C25.477100,760,21,755.523000,21,750L21,372Z" fill="rgb(74,31,6)" stroke="none" stroke-width="1"/><g id="ewemzq9oorao4_to" transform="translate(266.566071,153.455002)"><g id="ewemzq9oorao4" transform="translate(-266.566071,-153.455002)" opacity="0"><path id="ewemzq9oorao5" d="M236.840000,195.290000C234.010000,195.290000,231.243000,196.129000,228.890000,197.702000C226.537000,199.274000,224.702000,201.509000,223.619000,204.124000C222.536000,206.739000,222.253000,209.616000,222.805000,212.392000C223.357000,215.168000,224.720000,217.717000,226.721000,219.719000C228.723000,221.720000,231.272000,223.083000,234.048000,223.635000C236.824000,224.187000,239.701000,223.904000,242.316000,222.821000C244.931000,221.738000,247.166000,219.903000,248.738000,217.550000C250.311000,215.197000,251.150000,212.430000,251.150000,209.600000C251.139000,205.808000,249.628000,202.174000,246.947000,199.493000C244.266000,196.812000,240.632000,195.301000,236.840000,195.290000L236.840000,195.290000ZM195,83L195,97.310000L209.310000,97.310000L235.070000,149.490000L224.300000,167.020000C223.124000,169.093000,222.508000,171.437000,222.510000,173.820000C222.510000,183.400000,229.060000,188.130000,237.940000,188.130000L321.610000,188.130000L321.610000,174.370000L239.690000,174.370000C239.451000,174.385000,239.212000,174.348000,238.988000,174.264000C238.764000,174.179000,238.561000,174.047000,238.392000,173.878000C238.223000,173.709000,238.091000,173.506000,238.006000,173.282000C237.922000,173.058000,237.885000,172.819000,237.900000,172.580000C238.089000,171.961000,238.343000,171.364000,238.660000,170.800000L245.810000,159.510000L299.120000,159.510000C301.696000,159.531000,304.227000,158.841000,306.436000,157.516000C308.645000,156.191000,310.446000,154.282000,311.640000,152L337.410000,107.690000C337.912000,106.565000,338.158000,105.342000,338.130000,104.110000C338.120000,103.189000,337.925000,102.280000,337.557000,101.436000C337.190000,100.591000,336.656000,99.829800,335.988000,99.195600C335.321000,98.561500,334.532000,98.067800,333.670000,97.743900C332.808000,97.420000,331.890000,97.272500,330.970000,97.310000L225.060000,97.310000L218.260000,83L195,83ZM307.290000,195.290000C304.460000,195.292000,301.694000,196.133000,299.342000,197.707000C296.991000,199.280000,295.158000,201.516000,294.076000,204.131000C292.995000,206.746000,292.713000,209.623000,293.266000,212.398000C293.819000,215.173000,295.183000,217.722000,297.185000,219.722000C299.187000,221.723000,301.736000,223.084000,304.512000,223.636000C307.287000,224.187000,310.164000,223.903000,312.779000,222.820000C315.393000,221.736000,317.627000,219.902000,319.199000,217.549000C320.771000,215.196000,321.610000,212.430000,321.610000,209.600000C321.599000,205.806000,320.087000,202.171000,317.403000,199.489000C314.720000,196.808000,311.084000,195.298000,307.290000,195.290000L307.290000,195.290000Z" fill="rgb(90,87,115)" stroke="none" stroke-width="1"/><path id="ewemzq9oorao6" d="M288.980000,122.590000L276.980000,122.590000L276.980000,110.590000L267.980000,110.590000L267.980000,122.590000L255.980000,122.590000L255.980000,131.590000L267.980000,131.590000L267.980000,143.590000L276.980000,143.590000L276.980000,131.590000L288.980000,131.590000L288.980000,122.590000Z" fill="rgb(255,255,255)" stroke="none" stroke-width="1"/></g></g><g id="ewemzq9oorao7_to" transform="translate(267.493378,157.493370)"><g id="ewemzq9oorao7" transform="translate(-267.493378,-157.493370)"><circle id="ewemzq9oorao8" r="114.272000" transform="matrix(1 0 0 1 267.49299999999999 157.49299999999999)" fill="rgb(251,203,34)" stroke="none" stroke-width="1"/><circle id="ewemzq9oorao9" r="103.360000" transform="matrix(1 0 0 1 267.49299999999999 157.49299999999999)" fill="none" stroke="rgb(253,233,160)" stroke-width="7"/><circle id="ewemzq9oorao10" r="93" transform="matrix(1 0 0 1 267.98599999999999 157.98500000000001)" fill="none" stroke="rgb(253,233,160)" stroke-width="4" stroke-dasharray="10,5"/><line id="ewemzq9oorao11" x1="267.934000" y1="89.752400" x2="267.934000" y2="227.704000" fill="none" stroke="rgb(253,233,160)" stroke-width="14" stroke-linecap="round"/><path id="ewemzq9oorao12" d="M288.876000,186.445000C288.876000,181.664000,287.182000,177.978000,283.796000,175.388000C280.459000,172.798000,274.407000,170.184000,265.642000,167.544000C256.876000,164.904000,249.903000,161.966000,244.724000,158.729000C234.813000,152.503000,229.857000,144.385000,229.857000,134.374000C229.857000,125.608000,233.418000,118.387000,240.540000,112.709000C247.712000,107.031000,257.001000,104.192000,268.406000,104.192000C275.976000,104.192000,282.725000,105.587000,288.651000,108.376000C294.578000,111.165000,299.235000,115.149000,302.622000,120.329000C306.008000,125.459000,307.702000,131.162000,307.702000,137.437000L288.876000,137.437000C288.876000,131.759000,287.083000,127.327000,283.497000,124.139000C279.961000,120.902000,274.880000,119.283000,268.256000,119.283000C262.081000,119.283000,257.275000,120.603000,253.838000,123.243000C250.451000,125.882000,248.758000,129.568000,248.758000,134.299000C248.758000,138.284000,250.601000,141.621000,254.286000,144.310000C257.972000,146.950000,264.048000,149.540000,272.515000,152.080000C280.982000,154.570000,287.780000,157.434000,292.910000,160.671000C298.040000,163.858000,301.800000,167.544000,304.191000,171.728000C306.581000,175.861000,307.776000,180.717000,307.776000,186.295000C307.776000,195.360000,304.290000,202.582000,297.317000,207.960000C290.395000,213.290000,280.982000,215.954000,269.078000,215.954000C261.209000,215.954000,253.963000,214.510000,247.338000,211.621000C240.764000,208.683000,235.634000,204.648000,231.949000,199.519000C228.313000,194.389000,226.495000,188.412000,226.495000,181.589000L245.396000,181.589000C245.396000,187.765000,247.438000,192.546000,251.522000,195.933000C255.606000,199.319000,261.458000,201.013000,269.078000,201.013000C275.652000,201.013000,280.583000,199.693000,283.870000,197.053000C287.207000,194.364000,288.876000,190.828000,288.876000,186.445000Z" fill="rgb(253,233,160)" stroke="none" stroke-width="1"/><path id="ewemzq9oorao13" d="M170.633000,218.126000C186.714000,243.814000,212.341000,262.063000,241.876000,268.857000C271.412000,275.651000,302.437000,270.434000,328.126000,254.353000C353.814000,238.272000,372.063000,212.645000,378.857000,183.109000C385.651000,153.574000,380.434000,122.549000,364.353000,96.860100L267.493000,157.493000L170.633000,218.126000Z" fill="rgb(101,82,14)" fill-opacity="0.1" stroke="none" stroke-width="1"/></g></g><g id="ewemzq9oorao14_ts" transform="translate(288.980000,760) scale(1,1)"><g id="ewemzq9oorao14" transform="translate(-288.980000,-760)"><path id="ewemzq9oorao15" d="M21,372C21,366.477000,25.477200,362,31,362L488,362C521.137000,362,548,388.863000,548,422L548,750C548,755.523000,543.523000,760,538,760L31,760C25.477100,760,21,755.523000,21,750L21,372Z" fill="rgb(135,64,24)" stroke="none" stroke-width="1"/><path id="ewemzq9oorao16" d="M537.500000,436.923000L539,436.923000L539,438.892000L537.500000,438.892000L537.500000,448.738000L539,448.738000L539,450.707000L537.500000,450.707000L537.500000,460.553000L539,460.553000L539,462.522000L537.500000,462.522000L537.500000,472.367000L539,472.367000L539,474.336000L537.500000,474.336000L537.500000,484.182000L539,484.182000L539,486.151000L537.500000,486.151000L537.500000,495.997000L539,495.997000L539,497.966000L537.500000,497.966000L537.500000,507.812000L539,507.812000L539,509.781000L537.500000,509.781000L537.500000,519.627000L539,519.627000L539,521.596000L537.500000,521.596000L537.500000,531.441000L539,531.441000L539,533.411000L537.500000,533.411000L537.500000,543.256000L539,543.256000L539,545.225000L537.500000,545.225000L537.500000,555.071000L539,555.071000L539,557.040000L537.500000,557.040000L537.500000,566.886000L539,566.886000L539,568.855000L537.500000,568.855000L537.500000,578.701000L539,578.701000L539,580.670000L537.500000,580.670000L537.500000,590.515000L539,590.515000L539,592.485000L537.500000,592.485000L537.500000,602.330000L539,602.330000L539,604.299000L537.500000,604.299000L537.500000,614.145000L539,614.145000L539,616.114000L537.500000,616.114000L537.500000,625.960000L539,625.960000L539,627.929000L537.500000,627.929000L537.500000,637.775000L539,637.775000L539,639.744000L537.500000,639.744000L537.500000,649.589000L539,649.589000L539,651.559000L537.500000,651.559000L537.500000,661.404000L539,661.404000L539,663.373000L537.500000,663.373000L537.500000,673.219000L539,673.219000L539,675.188000L537.500000,675.188000L537.500000,685.034000L539,685.034000L539,687.003000L537.500000,687.003000L537.500000,696.849000L539,696.849000L539,698.818000L537.500000,698.818000L537.500000,708.664000L539,708.664000L539,710.633000L537.500000,710.633000L537.500000,720.478000L539,720.478000L539,722.448000L537.500000,722.448000L537.500000,732.293000L539,732.293000L539,734.262000L537.500000,734.262000L537.500000,744.108000L539,744.108000L539,746.077000L537.500000,746.077000L537.500000,749.500000L533.950000,749.500000L533.950000,751L531.931000,751L531.931000,749.500000L521.831000,749.500000L521.831000,751L519.812000,751L519.812000,749.500000L509.712000,749.500000L509.712000,751L507.693000,751L507.693000,749.500000L497.593000,749.500000L497.593000,751L495.573000,751L495.573000,749.500000L485.474000,749.500000L485.474000,751L483.454000,751L483.454000,749.500000L473.355000,749.500000L473.355000,751L471.335000,751L471.335000,749.500000L461.236000,749.500000L461.236000,751L459.216000,751L459.216000,749.500000L449.117000,749.500000L449.117000,751L447.097000,751L447.097000,749.500000L436.998000,749.500000L436.998000,751L434.978000,751L434.978000,749.500000L424.879000,749.500000L424.879000,751L422.859000,751L422.859000,749.500000L412.760000,749.500000L412.760000,751L410.740000,751L410.740000,749.500000L400.641000,749.500000L400.641000,751L398.621000,751L398.621000,749.500000L388.522000,749.500000L388.522000,751L386.502000,751L386.502000,749.500000L376.403000,749.500000L376.403000,751L374.383000,751L374.383000,749.500000L364.284000,749.500000L364.284000,751L362.264000,751L362.264000,749.500000L352.165000,749.500000L352.165000,751L350.145000,751L350.145000,749.500000L340.046000,749.500000L340.046000,751L338.026000,751L338.026000,749.500000L327.927000,749.500000L327.927000,751L325.907000,751L325.907000,749.500000L315.808000,749.500000L315.808000,751L313.788000,751L313.788000,749.500000L303.689000,749.500000L303.689000,751L301.669000,751L301.669000,749.500000L291.569000,749.500000L291.569000,751L289.550000,751L289.550000,749.500000L279.450000,749.500000L279.450000,751L277.431000,751L277.431000,749.500000L267.331000,749.500000L267.331000,751L265.312000,751L265.312000,749.500000L255.212000,749.500000L255.212000,751L253.192000,751L253.192000,749.500000L243.093000,749.500000L243.093000,751L241.073000,751L241.073000,749.500000L230.974000,749.500000L230.974000,751L228.954000,751L228.954000,749.500000L218.855000,749.500000L218.855000,751L216.835000,751L216.835000,749.500000L206.736000,749.500000L206.736000,751L204.716000,751L204.716000,749.500000L194.617000,749.500000L194.617000,751L192.597000,751L192.597000,749.500000L182.498000,749.500000L182.498000,751L180.478000,751L180.478000,749.500000L170.379000,749.500000L170.379000,751L168.359000,751L168.359000,749.500000L158.260000,749.500000L158.260000,751L156.240000,751L156.240000,749.500000L146.141000,749.500000L146.141000,751L144.121000,751L144.121000,749.500000L134.022000,749.500000L134.022000,751L132.002000,751L132.002000,749.500000L121.903000,749.500000L121.903000,751L119.883000,751L119.883000,749.500000L109.784000,749.500000L109.784000,751L107.764000,751L107.764000,749.500000L97.664700,749.500000L97.664700,751L95.644800,751L95.644800,749.500000L85.545600,749.500000L85.545600,751L83.525800,751L83.525800,749.500000L73.426600,749.500000L73.426600,751L71.406700,751L71.406700,749.500000L61.307500,749.500000L61.307500,751L59.287700,751L59.287700,749.500000L49.188500,749.500000L49.188500,751L47.168600,751L47.168600,749.500000L37.069400,749.500000L37.069400,751L35.049600,751L35.049600,749.500000L31.500000,749.500000L31.500000,746.065000L30,746.065000L30,744.091000L31.500000,744.091000L31.500000,734.221000L30,734.221000L30,732.247000L31.500000,732.247000L31.500000,722.378000L30,722.378000L30,720.404000L31.500000,720.404000L31.500000,710.534000L30,710.534000L30,708.560000L31.500000,708.560000L31.500000,698.690000L30,698.690000L30,696.716000L31.500000,696.716000L31.500000,686.846000L30,686.846000L30,684.872000L31.500000,684.872000L31.500000,675.003000L30,675.003000L30,673.029000L31.500000,673.029000L31.500000,663.159000L30,663.159000L30,661.185000L31.500000,661.185000L31.500000,651.315000L30,651.315000L30,649.341000L31.500000,649.341000L31.500000,639.471000L30,639.471000L30,637.497000L31.500000,637.497000L31.500000,627.628000L30,627.628000L30,625.654000L31.500000,625.654000L31.500000,615.784000L30,615.784000L30,613.810000L31.500000,613.810000L31.500000,603.940000L30,603.940000L30,601.966000L31.500000,601.966000L31.500000,592.096000L30,592.096000L30,590.122000L31.500000,590.122000L31.500000,580.253000L30,580.253000L30,578.279000L31.500000,578.279000L31.500000,568.409000L30,568.409000L30,566.435000L31.500000,566.435000L31.500000,556.565000L30,556.565000L30,554.591000L31.500000,554.591000L31.500000,544.721000L30,544.721000L30,542.747000L31.500000,542.747000L31.500000,532.878000L30,532.878000L30,530.904000L31.500000,530.904000L31.500000,521.034000L30,521.034000L30,519.060000L31.500000,519.060000L31.500000,509.190000L30,509.190000L30,507.216000L31.500000,507.216000L31.500000,497.346000L30,497.346000L30,495.372000L31.500000,495.372000L31.500000,485.503000L30,485.503000L30,483.529000L31.500000,483.529000L31.500000,473.659000L30,473.659000L30,471.685000L31.500000,471.685000L31.500000,461.815000L30,461.815000L30,459.841000L31.500000,459.841000L31.500000,449.971000L30,449.971000L30,447.997000L31.500000,447.997000L31.500000,438.128000L30,438.128000L30,436.154000L31.500000,436.154000L31.500000,426.284000L30,426.284000L30,424.310000L31.500000,424.310000L31.500000,414.440000L30,414.440000L30,412.466000L31.500000,412.466000L31.500000,402.596000L30,402.596000L30,400.622000L31.500000,400.622000L31.500000,390.753000L30,390.753000L30,388.779000L31.500000,388.779000L31.500000,378.909000L30,378.909000L30,376.935000L31.500000,376.935000L31.500000,373.500000L35.056400,373.500000L35.056400,372L37.078900,372L37.078900,373.500000L47.191500,373.500000L47.191500,372L49.214000,372L49.214000,373.500000L59.326700,373.500000L59.326700,372L61.349200,372L61.349200,373.500000L71.461800,373.500000L71.461800,372L73.484300,372L73.484300,373.500000L83.596900,373.500000L83.596900,372L85.619500,372L85.619500,373.500000L95.732100,373.500000L95.732100,372L97.754600,372L97.754600,373.500000L107.867000,373.500000L107.867000,372L109.890000,372L109.890000,373.500000L120.002000,373.500000L120.002000,372L122.025000,372L122.025000,373.500000L132.137000,373.500000L132.137000,372L134.160000,372L134.160000,373.500000L144.273000,373.500000L144.273000,372L146.295000,372L146.295000,373.500000L156.408000,373.500000L156.408000,372L158.430000,372L158.430000,373.500000L168.543000,373.500000L168.543000,372L170.565000,372L170.565000,373.500000L180.678000,373.500000L180.678000,372L182.701000,372L182.701000,373.500000L192.813000,373.500000L192.813000,372L194.836000,372L194.836000,373.500000L204.948000,373.500000L204.948000,372L206.971000,372L206.971000,373.500000L217.083000,373.500000L217.083000,372L219.106000,372L219.106000,373.500000L229.219000,373.500000L229.219000,372L231.241000,372L231.241000,373.500000L241.354000,373.500000L241.354000,372L243.376000,372L243.376000,373.500000L253.489000,373.500000L253.489000,372L255.511000,372L255.511000,373.500000L265.624000,373.500000L265.624000,372L267.646000,372L267.646000,373.500000L277.759000,373.500000L277.759000,372L279.782000,372L279.782000,373.500000L289.894000,373.500000L289.894000,372L291.917000,372L291.917000,373.500000L302.029000,373.500000L302.029000,372L304.052000,372L304.052000,373.500000L314.164000,373.500000L314.164000,372L316.187000,372L316.187000,373.500000L326.300000,373.500000L326.300000,372L328.322000,372L328.322000,373.500000L338.435000,373.500000L338.435000,372L340.457000,372L340.457000,373.500000L350.570000,373.500000L350.570000,372L352.592000,372L352.592000,373.500000L362.705000,373.500000L362.705000,372L364.727000,372L364.727000,373.500000L374.840000,373.500000L374.840000,372L376.863000,372L376.863000,373.500000L386.975000,373.500000L386.975000,372L388.998000,372L388.998000,373.500000L399.110000,373.500000L399.110000,372L401.133000,372L401.133000,373.500000L411.245000,373.500000L411.245000,372L413.268000,372L413.268000,373.500000L423.381000,373.500000L423.381000,372L425.403000,372L425.403000,373.500000L435.516000,373.500000L435.516000,372L437.538000,372L437.538000,373.500000L447.651000,373.500000L447.651000,372L449.673000,372L449.673000,373.500000L459.786000,373.500000L459.786000,372L461.809000,372L461.809000,373.500000L471.921000,373.500000L471.921000,372L473.944000,372L473.944000,373.500000L479,373.500000C480.612000,373.500000,482.208000,373.565000,483.787000,373.693000L483.908000,372.198000C484.562000,372.251000,485.213000,372.314000,485.861000,372.388000L485.691000,373.878000C488.905000,374.244000,492.038000,374.870000,495.071000,375.735000L495.482000,374.292000C496.112000,374.472000,496.739000,374.662000,497.360000,374.861000L496.902000,376.289000C499.963000,377.272000,502.915000,378.501000,505.734000,379.952000L506.420000,378.618000C507.003000,378.918000,507.579000,379.227000,508.151000,379.545000L507.421000,380.855000C510.219000,382.413000,512.876000,384.195000,515.367000,386.175000L516.301000,385.001000C516.813000,385.408000,517.319000,385.824000,517.818000,386.247000L516.847000,387.390000C519.280000,389.457000,521.543000,391.720000,523.610000,394.153000L524.753000,393.182000C525.176000,393.681000,525.592000,394.187000,525.999000,394.699000L524.825000,395.633000C526.805000,398.124000,528.587000,400.781000,530.145000,403.579000L531.455000,402.849000C531.773000,403.421000,532.082000,403.997000,532.382000,404.580000L531.048000,405.266000C532.499000,408.085000,533.728000,411.037000,534.711000,414.098000L536.139000,413.640000C536.338000,414.261000,536.528000,414.888000,536.708000,415.518000L535.265000,415.929000C536.130000,418.962000,536.756000,422.095000,537.122000,425.309000L538.612000,425.139000C538.686000,425.787000,538.749000,426.438000,538.802000,427.092000L537.307000,427.213000C537.435000,428.792000,537.500000,430.388000,537.500000,432L537.500000,436.923000Z" fill="none" stroke="rgb(183,106,63)" stroke-width="3" stroke-dasharray="10,2"/><line id="ewemzq9oorao17" x1="41.500000" y1="359.500000" x2="491.500000" y2="359.500000" fill="none" stroke="rgb(87,61,10)" stroke-width="5" stroke-linecap="round" stroke-miterlimit="4.139360" stroke-dasharray="10,7"/><g id="ewemzq9oorao18_to" transform="translate(104.500046,326.500046)"><g id="ewemzq9oorao18" transform="translate(-104.500046,-326.500046)"><path id="ewemzq9oorao19" d="M61,356L86,356L86,360C86,361.105000,85.104600,362,84,362L61,362L61,356Z" fill="rgb(158,111,18)" stroke="none" stroke-width="1"/><path id="ewemzq9oorao20" d="M40,358C40,355.239000,42.238600,353,45,353L83,353C84.656900,353,86,354.343000,86,356L86,358L40,358L40,358Z" fill="rgb(158,111,18)" stroke="none" stroke-width="1"/><path id="ewemzq9oorao21" d="M51.383800,353L44.883700,353C42.091300,347.826000,46.559200,344.385000,49.383800,342.500000C62.885300,339.870000,61.906500,339.460000,76.883700,342.500000C81.501800,344.621000,85.188100,348.346000,81.383700,353L75.383800,353C77.616000,349.618000,77.944700,348.151000,75.383800,347C64.994600,344.020000,62.513300,343.688000,51.383800,347C49.401900,348.946000,49.656100,350.311000,51.383800,353Z" fill="rgb(158,111,18)" stroke="none" stroke-width="1"/><g id="ewemzq9oorao22_to" transform="translate(72.159200,347.920000)"><g id="ewemzq9oorao22_tr" transform="rotate(0)"><g id="ewemzq9oorao22" transform="translate(-72.159200,-347.920000)"><path id="ewemzq9oorao23" d="M103.141000,329.804000C104.646000,332.341000,103.719000,335.879000,100.763000,337.631000C97.806700,339.384000,94.258700,338.499000,92.754200,335.962000C91.249800,333.424000,92.176300,329.887000,95.132500,328.134000C98.088700,326.382000,101.637000,327.266000,103.141000,329.804000Z" fill="none" stroke="rgb(135,64,24)" stroke-width="3"/><line id="ewemzq9oorao24" x1="72.159200" y1="347.920000" x2="96.922900" y2="333.583000" fill="none" stroke="rgb(158,111,18)" stroke-width="7" stroke-linecap="round"/><path id="ewemzq9oorao25" d="M167.802000,294.712000C123.798000,326.183000,99.028300,341.828000,100.500000,339C105.757000,329.002000,107.015000,329.093000,94,327L166.005000,291.148000C166.681000,290.907000,167.290000,291,167.802000,291.148000C168.793000,291.646000,169.005000,292.122000,169,292.930000C168.995000,293.738000,168.360000,294.196000,167.802000,294.712000Z" fill="rgb(135,64,24)" stroke="none" stroke-width="1"/></g></g></g></g></g><g id="ewemzq9oorao26"><path id="ewemzq9oorao27" d="M52.023400,731L52.023400,711.094000L58.845700,711.094000C61.097000,711.094000,62.810500,711.545000,63.986300,712.447000C65.162100,713.350000,65.750000,714.694000,65.750000,716.480000C65.750000,717.392000,65.503900,718.212000,65.011700,718.941000C64.519500,719.671000,63.799500,720.236000,62.851600,720.637000C63.927100,720.928000,64.756500,721.480000,65.339800,722.291000C65.932300,723.093000,66.228500,724.059000,66.228500,725.189000C66.228500,727.058000,65.627000,728.493000,64.423800,729.496000C63.229800,730.499000,61.516300,731,59.283200,731L52.023400,731ZM55.482400,722.018000L55.482400,728.238000L59.324200,728.238000C60.408900,728.238000,61.256500,727.969000,61.867200,727.432000C62.477900,726.894000,62.783200,726.146000,62.783200,725.189000C62.783200,723.120000,61.725900,722.063000,59.611300,722.018000L55.482400,722.018000ZM55.482400,719.475000L58.873000,719.475000C59.948600,719.475000,60.787100,719.233000,61.388700,718.750000C61.999300,718.258000,62.304700,717.565000,62.304700,716.672000C62.304700,715.688000,62.022100,714.977000,61.457000,714.539000C60.901000,714.102000,60.030600,713.883000,58.845700,713.883000L55.482400,713.883000L55.482400,719.475000ZM78.205100,731C78.059200,730.717000,77.931600,730.257000,77.822300,729.619000C76.765000,730.722000,75.470700,731.273000,73.939500,731.273000C72.453800,731.273000,71.241500,730.850000,70.302700,730.002000C69.363900,729.154000,68.894500,728.106000,68.894500,726.857000C68.894500,725.281000,69.477900,724.073000,70.644500,723.234000C71.820300,722.387000,73.497400,721.963000,75.675800,721.963000L77.712900,721.963000L77.712900,720.992000C77.712900,720.227000,77.498700,719.616000,77.070300,719.160000C76.641900,718.695000,75.990200,718.463000,75.115200,718.463000C74.358700,718.463000,73.738900,718.654000,73.255900,719.037000C72.772800,719.411000,72.531200,719.889000,72.531200,720.473000L69.209000,720.473000C69.209000,719.661000,69.477900,718.905000,70.015600,718.203000C70.553400,717.492000,71.282600,716.936000,72.203100,716.535000C73.132800,716.134000,74.167300,715.934000,75.306600,715.934000C77.038400,715.934000,78.419300,716.371000,79.449200,717.246000C80.479200,718.112000,81.007800,719.333000,81.035200,720.910000L81.035200,727.582000C81.035200,728.913000,81.222000,729.975000,81.595700,730.768000L81.595700,731L78.205100,731ZM74.554700,728.607000C75.210900,728.607000,75.826200,728.448000,76.400400,728.129000C76.983700,727.810000,77.421200,727.382000,77.712900,726.844000L77.712900,724.055000L75.921900,724.055000C74.691400,724.055000,73.766300,724.269000,73.146500,724.697000C72.526700,725.126000,72.216800,725.732000,72.216800,726.516000C72.216800,727.154000,72.426400,727.664000,72.845700,728.047000C73.274100,728.421000,73.843800,728.607000,74.554700,728.607000ZM83.892600,723.467000C83.892600,722.018000,84.179700,720.714000,84.753900,719.557000C85.328100,718.390000,86.134800,717.497000,87.173800,716.877000C88.212900,716.248000,89.406900,715.934000,90.755900,715.934000C92.752000,715.934000,94.369800,716.576000,95.609400,717.861000C96.858100,719.146000,97.532600,720.851000,97.632800,722.975000L97.646500,723.754000C97.646500,725.212000,97.363900,726.516000,96.798800,727.664000C96.242800,728.812000,95.440800,729.701000,94.392600,730.330000C93.353500,730.959000,92.150400,731.273000,90.783200,731.273000C88.696000,731.273000,87.023400,730.581000,85.765600,729.195000C84.516900,727.801000,83.892600,725.946000,83.892600,723.631000L83.892600,723.467000ZM87.214800,723.754000C87.214800,725.276000,87.529300,726.470000,88.158200,727.336000C88.787100,728.193000,89.662100,728.621000,90.783200,728.621000C91.904300,728.621000,92.774700,728.184000,93.394500,727.309000C94.023400,726.434000,94.337900,725.153000,94.337900,723.467000C94.337900,721.972000,94.014300,720.787000,93.367200,719.912000C92.729200,719.037000,91.858700,718.600000,90.755900,718.600000C89.671200,718.600000,88.809900,719.033000,88.171900,719.898000C87.533900,720.755000,87.214800,722.040000,87.214800,723.754000ZM99.834000,723.494000C99.834000,721.215000,100.363000,719.388000,101.420000,718.012000C102.477000,716.626000,103.895000,715.934000,105.672000,715.934000C107.240000,715.934000,108.507000,716.480000,109.473000,717.574000L109.473000,710L112.795000,710L112.795000,731L109.787000,731L109.623000,729.469000C108.630000,730.672000,107.303000,731.273000,105.645000,731.273000C103.913000,731.273000,102.509000,730.576000,101.434000,729.182000C100.367000,727.787000,99.834000,725.891000,99.834000,723.494000ZM103.156000,723.781000C103.156000,725.285000,103.443000,726.461000,104.018000,727.309000C104.601000,728.147000,105.426000,728.566000,106.492000,728.566000C107.850000,728.566000,108.844000,727.960000,109.473000,726.748000L109.473000,720.432000C108.862000,719.247000,107.878000,718.654000,106.520000,718.654000C105.444000,718.654000,104.615000,719.083000,104.031000,719.939000C103.448000,720.787000,103.156000,722.068000,103.156000,723.781000ZM125.100000,731C124.954000,730.717000,124.826000,730.257000,124.717000,729.619000C123.660000,730.722000,122.365000,731.273000,120.834000,731.273000C119.348000,731.273000,118.136000,730.850000,117.197000,730.002000C116.258000,729.154000,115.789000,728.106000,115.789000,726.857000C115.789000,725.281000,116.372000,724.073000,117.539000,723.234000C118.715000,722.387000,120.392000,721.963000,122.570000,721.963000L124.607000,721.963000L124.607000,720.992000C124.607000,720.227000,124.393000,719.616000,123.965000,719.160000C123.536000,718.695000,122.885000,718.463000,122.010000,718.463000C121.253000,718.463000,120.633000,718.654000,120.150000,719.037000C119.667000,719.411000,119.426000,719.889000,119.426000,720.473000L116.104000,720.473000C116.104000,719.661000,116.372000,718.905000,116.910000,718.203000C117.448000,717.492000,118.177000,716.936000,119.098000,716.535000C120.027000,716.134000,121.062000,715.934000,122.201000,715.934000C123.933000,715.934000,125.314000,716.371000,126.344000,717.246000C127.374000,718.112000,127.902000,719.333000,127.930000,720.910000L127.930000,727.582000C127.930000,728.913000,128.117000,729.975000,128.490000,730.768000L128.490000,731L125.100000,731ZM121.449000,728.607000C122.105000,728.607000,122.721000,728.448000,123.295000,728.129000C123.878000,727.810000,124.316000,727.382000,124.607000,726.844000L124.607000,724.055000L122.816000,724.055000C121.586000,724.055000,120.661000,724.269000,120.041000,724.697000C119.421000,725.126000,119.111000,725.732000,119.111000,726.516000C119.111000,727.154000,119.321000,727.664000,119.740000,728.047000C120.169000,728.421000,120.738000,728.607000,121.449000,728.607000ZM130.787000,723.467000C130.787000,722.018000,131.074000,720.714000,131.648000,719.557000C132.223000,718.390000,133.029000,717.497000,134.068000,716.877000C135.107000,716.248000,136.301000,715.934000,137.650000,715.934000C139.646000,715.934000,141.264000,716.576000,142.504000,717.861000C143.753000,719.146000,144.427000,720.851000,144.527000,722.975000L144.541000,723.754000C144.541000,725.212000,144.258000,726.516000,143.693000,727.664000C143.137000,728.812000,142.335000,729.701000,141.287000,730.330000C140.248000,730.959000,139.045000,731.273000,137.678000,731.273000C135.590000,731.273000,133.918000,730.581000,132.660000,729.195000C131.411000,727.801000,130.787000,725.946000,130.787000,723.631000L130.787000,723.467000ZM134.109000,723.754000C134.109000,725.276000,134.424000,726.470000,135.053000,727.336000C135.682000,728.193000,136.557000,728.621000,137.678000,728.621000C138.799000,728.621000,139.669000,728.184000,140.289000,727.309000C140.918000,726.434000,141.232000,725.153000,141.232000,723.467000C141.232000,721.972000,140.909000,720.787000,140.262000,719.912000C139.624000,719.037000,138.753000,718.600000,137.650000,718.600000C136.566000,718.600000,135.704000,719.033000,135.066000,719.898000C134.428000,720.755000,134.109000,722.040000,134.109000,723.754000Z" filter="url(#ewemzq9oorao27-filter)" fill="rgb(78,37,14)" stroke="none" stroke-width="1"/></g></g></g></g></svg>