<svg width="43" height="43" viewBox="0 0 43 43" fill="none" xmlns="http://www.w3.org/2000/svg">
<path d="M43 0H0V43H43V0Z" fill="#E9E9ED"/>
<path d="M11.0108 17.6779C11.0108 17.6779 10.7077 16.1626 12.9301 15.9606C15.1525 15.7586 15.3545 17.6779 15.3545 17.6779L15.5565 24.244H11.1118V17.6779H11.0108Z" fill="#1D2088"/>
<path d="M18.7891 12.3243H35.7598C35.7598 12.3243 37.5781 12.3243 37.5781 13.8396C37.5781 15.3548 37.5781 18.7894 37.5781 18.7894C37.5781 18.7894 37.9822 20.1026 34.9517 20.1026C31.9212 20.1026 30.1029 20.1026 29.6989 20.1026C29.3958 20.1026 18.9911 20.1026 18.9911 20.1026C18.9911 20.1026 16.5667 20.1026 17.0718 18.2843V13.3345C17.1728 13.3345 17.1728 12.5264 18.7891 12.3243Z" fill="#00A0E9"/>
<path d="M25.6582 16.8698H29.1938C29.1938 16.8698 29.5978 16.8697 29.4968 17.0718C29.3958 17.2738 29.2948 17.2738 29.2948 17.2738H25.7592C25.6582 17.2738 25.2541 16.9708 25.6582 16.8698Z" fill="black"/>
<path d="M36.467 17.5769H18.284V18.284H36.467V17.5769Z" fill="white" stroke="#898989" stroke-width="0.25" stroke-miterlimit="10"/>
<path d="M36.467 18.284H18.284V18.9911H36.467V18.284Z" fill="white" stroke="#898989" stroke-width="0.25" stroke-miterlimit="10"/>
<path d="M36.467 18.8901H18.284V19.5972H36.467V18.8901Z" fill="white" stroke="#898989" stroke-width="0.25" stroke-miterlimit="10"/>
<path d="M17.0711 14.0413C17.0711 14.0413 16.8691 12.425 18.8894 12.223C20.9098 12.021 35.6582 12.223 35.6582 12.223C35.6582 12.223 37.7795 12.324 37.6785 14.0413H17.0711Z" fill="#1D2088"/>
<path d="M15.2535 34.1436H24.749C24.749 34.1436 26.2643 34.0426 25.7592 35.4568C25.7592 35.4568 25.6582 36.1639 24.547 35.9619H15.4555L15.1525 35.8609C15.1525 35.8609 14.5464 36.0629 14.2433 35.2548C14.1423 34.3456 15.2535 34.1436 15.2535 34.1436Z" fill="#1D2088"/>
<path d="M24.345 34.4466L27.8806 41.4168C27.8806 41.4168 28.4867 42.5279 27.0724 42.73C27.0724 42.73 26.3653 43.033 26.1633 42.1239L22.8297 35.5578V35.2548C22.8297 35.2548 22.4257 34.9517 23.0318 34.3456C23.6379 33.7395 24.345 34.4466 24.345 34.4466Z" fill="#1D2088"/>
<path d="M16.9708 36.3659L9.29352 42.629C9.29352 42.629 8.08132 43.6391 7.57624 42.3259C7.57624 42.3259 7.17217 41.7198 8.18234 41.1137L15.4555 35.1537L15.7586 35.0527C15.7586 35.0527 16.1626 34.4466 16.8698 34.9517C17.7789 35.4568 16.9708 36.3659 16.9708 36.3659Z" fill="#1D2088"/>
<path d="M25.7592 39.2954H11.92V40.0025H25.7592V39.2954Z" fill="#1D2088"/>
<path d="M19.9002 19.4962L19.5972 19.3952C19.4962 19.3952 19.3952 19.2941 19.4962 19.1931L20.1023 16.3647C20.1023 16.2636 20.2033 16.1626 20.3043 16.2636L20.6074 16.3647C20.7084 16.3647 20.8094 16.4657 20.7084 16.5667L20.1023 19.3952C20.1023 19.4962 20.0013 19.5972 19.9002 19.4962Z" fill="#006934"/>
<path d="M20.1023 15.9606L20.9104 16.1626C20.9104 16.1626 21.0114 16.1626 20.9104 16.3647C20.9104 16.3647 20.9104 16.4657 20.8094 16.4657L20.0013 16.2637C20.0013 16.2637 19.9002 16.2637 19.9002 16.1626C20.0013 15.9606 20.1023 15.9606 20.1023 15.9606Z" fill="#006934"/>
<path d="M20.2033 16.2637L20.8094 16.3647C20.8094 16.3647 20.9104 16.3647 20.8094 16.5667C20.8094 16.5667 20.8094 16.6677 20.7084 16.6677L20.2033 16.5667C20.2033 16.5667 20.2033 16.5667 20.2033 16.4657C20.1023 16.2637 20.2033 16.2637 20.2033 16.2637Z" fill="black"/>
<path d="M20.3043 15.9606L20.7084 16.0616L21.2135 13.4352H21.0114L20.3043 15.9606Z" fill="#DCDDDD"/>
<path d="M20.5063 17.1728L19.7992 18.082C19.6982 18.183 19.4962 18.284 19.2941 18.183L18.8901 17.8799C18.7891 17.7789 18.688 17.5769 18.7891 17.3748L19.4962 16.4657C19.5972 16.3647 19.7992 16.2637 20.0013 16.3647L20.4053 16.6677C20.6074 16.7687 20.6074 17.0718 20.5063 17.1728Z" fill="#E89678"/>
<path d="M12.9301 15.8596C12.021 15.8596 11.2128 15.1525 11.2128 14.1423V11.4149C11.2128 10.5057 11.92 9.69759 12.9301 9.69759C13.8393 9.69759 14.6474 10.4047 14.6474 11.4149V14.1423C14.5464 15.0515 13.8393 15.8596 12.9301 15.8596Z" fill="#E89678"/>
<path d="M11.8189 14.1423V15.4555C11.8189 15.4555 10.7078 16.0616 10.4047 14.2433V10.4047C10.4047 10.4047 10.4047 9.1925 12.021 9.39453H14.1423C14.1423 9.39453 15.3545 9.7986 15.1525 10.7077C14.9504 11.6169 14.6474 11.3138 14.6474 11.3138L11.8189 11.4149V12.425L11.2128 12.526V13.1321C11.2128 13.1321 11.1118 14.4454 11.8189 14.1423Z" fill="black"/>
<path d="M14.0413 15.3545H11.8189V16.2637H14.0413V15.3545Z" fill="#1D2088"/>
<path d="M11.5159 18.284C11.5159 18.284 11.2128 17.1728 12.122 16.8698C13.0311 16.5667 13.6372 18.284 13.6372 18.284L15.1525 20.7084L18.587 17.2738L19.9003 18.486C19.9003 18.486 17.3748 22.0216 16.5667 22.1226C16.4657 22.2236 14.9504 23.2338 12.9301 21.2135L11.5159 18.284Z" fill="#1D2088"/>
<path d="M8.58641 36.77L8.28336 38.1842L8.99047 38.3863V37.9822L10.2027 38.0832L10.4047 38.5883L10.8088 38.7903L11.7179 38.2852L12.7281 37.4771C12.7281 37.4771 12.122 36.4669 11.2128 36.871H8.58641V36.77Z" fill="black"/>
<path d="M16.7687 31.6182L15.9606 33.2344L16.4657 33.7395H17.0718V33.3354L17.6779 33.4365L18.183 33.5375V34.0426H20.8094V33.9415C20.8094 33.9415 20.4053 32.3253 19.0921 32.6283L18.385 32.5273V32.1232L16.7687 31.6182Z" fill="black"/>
<path d="M10.7077 23.3348C10.7077 23.3348 8.48538 24.648 10.3037 26.5673L8.48538 36.77H11.0108L12.9301 26.5673L14.0413 26.0623H15.1525L18.486 27.0724L16.3647 31.7192L18.7891 32.2243L20.8094 27.6785C20.8094 27.6785 21.7185 26.2643 20.8094 25.4562C19.9002 24.648 15.5565 23.5368 15.5565 23.5368L10.7077 23.3348Z" fill="black"/>
<path d="M12.7656 4.88916L12.5996 5.104C11.8525 4.50993 11.208 4.07373 10.666 3.79541V6.28076H10.3853V3.46582C9.91325 4.02897 9.27848 4.5734 8.48096 5.09912L8.30518 4.86963C9.53239 4.13721 10.3657 3.27051 10.8052 2.26953H8.40527V2.00098H12.6558V2.26953H11.1104C10.9899 2.52832 10.8418 2.80013 10.666 3.08496V3.48535C11.5986 4.02572 12.2985 4.49365 12.7656 4.88916ZM17.4604 5.89502C17.4604 6.03011 17.4116 6.12451 17.314 6.17822C17.2179 6.23193 17.0007 6.25879 16.6621 6.25879C16.5856 6.25879 16.5116 6.25716 16.4399 6.25391L16.3594 5.98047C16.4831 5.99023 16.6035 5.99512 16.7207 5.99512C16.9583 5.99512 17.0967 5.98535 17.1357 5.96582C17.1748 5.94629 17.1943 5.91455 17.1943 5.87061V4.66455H15.7808V6.12939H15.5098V4.66455H14.084C14.0042 5.34977 13.8325 5.87467 13.5688 6.23926L13.3345 6.07568C13.6714 5.57764 13.8398 4.97705 13.8398 4.27393V1.979H17.4604V5.89502ZM17.1943 3.16064V2.25H15.7808V3.16064H17.1943ZM15.5098 3.16064V2.25H14.1108V3.16064H15.5098ZM17.1943 4.40576V3.43408H15.7808V4.40576H17.1943ZM15.5098 4.40576V3.43408H14.1108V4.40576H15.5098Z" fill="#E60012"/>
<path d="M21.748 4.7832H18.8242V3.58398C18.6823 3.74935 18.5423 3.89323 18.4043 4.01562L18.2441 3.88086C18.6204 3.53841 18.9232 3.13672 19.1523 2.67578L19.3594 2.74023L19.1602 3.0918H20.1328C20.1003 3.01367 20.0384 2.90039 19.9473 2.75195L20.1445 2.69141C20.2161 2.79818 20.2826 2.93164 20.3438 3.0918H21.6992V3.29297H20.3398V3.57617H21.5234V3.76758H20.3398V4.08008H21.5273V4.26758H20.3398V4.5918H21.748V4.7832ZM20.1367 3.57617V3.29297H19.0312V3.57617H20.1367ZM20.1367 4.07227V3.76758H19.0312V4.07227H20.1367ZM20.1367 4.5918V4.26758H19.0312V4.5918H20.1367ZM21.4473 6.1875H21.2402V5.97656H18.9766V6.1875H18.7676V5.07617H21.4473V6.1875ZM21.2402 5.7793V5.2793H18.9766V5.7793H21.2402ZM25.7754 6.00781L25.6953 6.21289C25.237 6.10352 24.8398 5.95638 24.5039 5.77148C24.1198 5.97201 23.7012 6.11719 23.248 6.20703L23.1406 6.01562C23.5846 5.9375 23.9727 5.8125 24.3047 5.64062C24.0938 5.47656 23.9232 5.3151 23.793 5.15625C23.6549 5.26432 23.5176 5.35742 23.3809 5.43555L23.2324 5.2832C23.4225 5.18034 23.5638 5.08724 23.6562 5.00391C23.5938 4.92839 23.5391 4.85807 23.4922 4.79297L23.6523 4.66406C23.6836 4.71224 23.737 4.77865 23.8125 4.86328C23.9388 4.75521 24.0456 4.61133 24.1328 4.43164L23.4609 4.46094L23.4121 4.25195C23.735 4.14388 24.0788 3.96224 24.4434 3.70703L23.5566 3.75586L23.5195 3.54883C23.8698 3.39128 24.2142 3.10156 24.5527 2.67969L24.752 2.75586C24.4876 3.10352 24.2116 3.36328 23.9238 3.53516C24.1243 3.52995 24.3978 3.51172 24.7441 3.48047C24.929 3.33333 25.0996 3.1849 25.2559 3.03516L25.4609 3.12891C24.9505 3.61198 24.4408 3.98372 23.9316 4.24414C24.2598 4.23893 24.7077 4.20312 25.2754 4.13672C25.2077 4.03255 25.1237 3.92188 25.0234 3.80469L25.1992 3.69531C25.4505 3.99479 25.6413 4.27799 25.7715 4.54492L25.5957 4.64844C25.5423 4.53385 25.4785 4.42318 25.4043 4.31641C25.0905 4.35417 24.7435 4.38607 24.3633 4.41211C24.2865 4.57878 24.2174 4.70378 24.1562 4.78711H25.3965V4.98438C25.1374 5.28646 24.9062 5.50651 24.7031 5.64453C25.082 5.82682 25.4395 5.94792 25.7754 6.00781ZM25.1152 4.98438H23.9844C23.974 5 23.9629 5.01302 23.9512 5.02344C24.1243 5.22656 24.3073 5.39323 24.5 5.52344C24.7018 5.39583 24.9069 5.21615 25.1152 4.98438ZM23.2832 2.77539C22.9707 3.18164 22.6777 3.47396 22.4043 3.65234L22.2676 3.49609C22.5501 3.32292 22.8249 3.05208 23.0918 2.68359L23.2832 2.77539ZM23.4043 3.58789C23.2858 3.79883 23.1576 3.99609 23.0195 4.17969V6.19531H22.8086V4.46094C22.6523 4.63021 22.5085 4.77279 22.377 4.88867L22.2324 4.7207C22.5827 4.43424 22.9121 4.03125 23.2207 3.51172L23.4043 3.58789ZM27.6152 5.91602C27.6152 5.99284 27.5931 6.05924 27.5488 6.11523C27.5046 6.17122 27.4036 6.19922 27.2461 6.19922C27.1667 6.19922 27.0768 6.19401 26.9766 6.18359L26.9082 5.97656C27.0202 5.98828 27.1263 5.99414 27.2266 5.99414C27.3099 5.99414 27.3633 5.98633 27.3867 5.9707C27.4115 5.95378 27.4238 5.92057 27.4238 5.87109V4.83203H26.7363C26.6895 5.40625 26.5918 5.86458 26.4434 6.20703L26.2637 6.07227C26.4642 5.61914 26.5645 5.02604 26.5645 4.29297V2.80469H27.6152V5.91602ZM27.4238 3.69922V3.00391H26.7676V3.69922H27.4238ZM27.4238 4.63672V3.90039H26.7676L26.7559 4.63672H27.4238ZM29.7793 6.04883L29.6562 6.22852C29.3737 6.07357 29.1458 5.91081 28.9727 5.74023C28.8294 5.88607 28.6335 6.04167 28.3848 6.20703L28.2285 6.06055C28.4915 5.89779 28.6927 5.74284 28.832 5.5957C28.5833 5.29102 28.3965 4.8724 28.2715 4.33984H28.1602V6.20703H27.9609V2.80859H29.6758C29.6458 3.22656 29.6107 3.49805 29.5703 3.62305C29.5312 3.74805 29.4609 3.82747 29.3594 3.86133C29.2578 3.89388 29.0716 3.9056 28.8008 3.89648L28.7324 3.6875C28.8079 3.69401 28.8841 3.69727 28.9609 3.69727C29.1211 3.69727 29.2279 3.6888 29.2812 3.67188C29.3359 3.65365 29.3724 3.60938 29.3906 3.53906C29.4102 3.46745 29.4303 3.28906 29.4512 3.00391H28.1602V4.14062H29.6113C29.554 4.75391 29.3874 5.23503 29.1113 5.58398C29.2806 5.75326 29.5033 5.9082 29.7793 6.04883ZM29.3809 4.33984H28.4766C28.5872 4.80078 28.7513 5.16341 28.9688 5.42773C29.1862 5.14388 29.3236 4.78125 29.3809 4.33984ZM33.752 4.43164L33.6367 4.61133C33.3294 4.52018 33.0423 4.3776 32.7754 4.18359C32.5254 4.36849 32.2695 4.50846 32.0078 4.60352L31.8672 4.43164C32.1185 4.35612 32.3665 4.22982 32.6113 4.05273C32.4473 3.88867 32.3275 3.74023 32.252 3.60742L32.4277 3.50781C32.5189 3.66536 32.6322 3.80404 32.7676 3.92383C32.9499 3.76758 33.0911 3.55273 33.1914 3.2793H32.3359C32.1654 3.49544 32.0091 3.65951 31.8672 3.77148L31.7129 3.62891C32.0098 3.39453 32.2604 3.08073 32.4648 2.6875L32.6641 2.76367C32.6159 2.86263 32.5534 2.9681 32.4766 3.08008H33.6914V3.2793H33.4082C33.304 3.58919 33.1465 3.8457 32.9355 4.04883C33.1816 4.22201 33.4538 4.34961 33.752 4.43164ZM31.7969 4C31.7786 4.34115 31.6745 4.64779 31.4844 4.91992L31.332 4.77539C31.4466 4.60221 31.5267 4.41016 31.5723 4.19922H31.1992V5.95508C31.1992 6.00716 31.1777 6.0612 31.1348 6.11719C31.0931 6.17448 30.9857 6.20312 30.8125 6.20312C30.7461 6.20312 30.6849 6.19922 30.6289 6.19141L30.5117 5.97656C30.681 5.98958 30.8132 5.99609 30.9082 5.99609C30.9277 5.99609 30.9486 5.98633 30.9707 5.9668C30.9928 5.94727 31.0039 5.92773 31.0039 5.9082V4.46484C30.8099 4.95443 30.6074 5.33659 30.3965 5.61133L30.2598 5.45117C30.4941 5.14648 30.7064 4.72917 30.8965 4.19922H30.2754V4H31.1602C30.9935 3.80859 30.7884 3.62891 30.5449 3.46094L30.6914 3.32812C30.7865 3.39323 30.9069 3.48633 31.0527 3.60742C31.2376 3.39648 31.3841 3.19531 31.4922 3.00391H30.416V2.80469H31.7207V3.00391C31.5892 3.24609 31.418 3.49154 31.207 3.74023L31.3438 3.89258L31.2207 4H31.7969ZM33.5156 4.91602C33.5078 5.18815 33.4863 5.43359 33.4512 5.65234C33.416 5.87109 33.3802 6.00326 33.3438 6.04883C33.3086 6.0944 33.2637 6.13346 33.209 6.16602C33.1556 6.19987 32.9844 6.21224 32.6953 6.20312L32.5996 5.98828C32.6816 5.99479 32.7708 5.99805 32.8672 5.99805C33.013 5.99805 33.0996 5.99089 33.127 5.97656C33.1556 5.96224 33.1777 5.94141 33.1934 5.91406C33.209 5.88542 33.2272 5.79688 33.248 5.64844C33.2689 5.5 33.2878 5.32227 33.3047 5.11523H32.6367C32.5247 5.62956 32.194 5.99674 31.6445 6.2168L31.4922 6.05273C31.7122 5.98503 31.9115 5.86393 32.0898 5.68945C32.2682 5.51367 32.3822 5.32227 32.4316 5.11523H31.7969V4.91602H32.4805C32.5 4.81055 32.5117 4.67708 32.5156 4.51562L32.7168 4.52344C32.7168 4.62109 32.7057 4.75195 32.6836 4.91602H33.5156Z" fill="black"/>
<path d="M21.5 9C12.9902 9 6 16.0131 6 24.5508C6 33.0885 12.9902 40 21.5 40C30.0098 40 37 33.0885 37 24.4492C37 15.8098 30.0098 9 21.5 9ZM21.5 11.541C25.1471 11.541 28.3889 13.0656 30.719 15.5049L9.95098 30.141C9.14052 28.4131 8.63399 26.5836 8.63399 24.5508C8.63399 17.3344 14.4085 11.541 21.5 11.541ZM21.5 37.459C17.6503 37.459 14.2059 35.7311 11.8758 33.0885L32.8464 18.4525C33.7582 20.282 34.366 22.3148 34.366 24.5508C34.4673 31.6656 28.6928 37.459 21.5 37.459Z" fill="#E60012"/>
</svg>
