<svg width="43" height="43" viewBox="0 0 43 43" fill="none" xmlns="http://www.w3.org/2000/svg">
<path d="M43 0H0V43H43V0Z" fill="#E9E9ED"/>
<path d="M4.85648 23.7765C4.85648 23.7765 4.65412 23.8777 6.17177 28.4306L4.35059 32.2753V32.7812L6.4753 32.5788L7.99295 29.3412C7.99295 29.3412 8.49883 28.1271 7.79059 27.0141L10.2188 27.1153C10.2188 27.1153 10.2188 27.0141 11.1294 28.6329L10.9271 32.8824H13.0518L13.3553 28.4306C13.3553 28.4306 12.7482 27.3177 12.04 26.3059L12.6471 24.5859V24.2824L4.85648 23.7765Z" fill="black"/>
<path d="M7.28471 17.3012C7.28471 17.3012 5.05883 18.5153 4.95765 20.5388C4.7553 22.5624 4.95765 23.8776 4.95765 23.8776L12.5459 24.4847V20.2353L16.2894 20.0329V19.4259H13.3553C13.3553 19.4259 12.5459 19.4259 11.5341 18.0094C11.4329 17.8071 9.10588 18.7176 7.28471 17.3012Z" fill="white" stroke="white" stroke-miterlimit="10"/>
<path d="M8.90353 18.1106L9.30824 18.5153L9.10588 22.9671L9.71294 23.8776L10.6235 23.1694L10.4212 18.5153L10.7247 17.9082C10.7247 17.9082 9.10588 18.4141 8.80235 18.0094C8.6 17.6047 8.90353 18.1106 8.90353 18.1106Z" fill="#234C9F"/>
<path d="M6.98118 19.1223C6.98118 19.1223 5.66588 19.2235 6.67765 20.3365C7.68941 21.4494 8.6 22.0565 8.6 22.0565C8.6 22.0565 11.2306 22.1576 12.2424 22.0565L12.7482 21.6518L12.2424 20.64C12.2424 20.64 10.2188 21.4494 9.10588 20.64C7.99294 19.8306 6.98118 19.1223 6.98118 19.1223Z" fill="white"/>
<path d="M9.9153 18.1106C12.4857 18.1106 14.5694 16.0269 14.5694 13.4565C14.5694 10.8861 12.4857 8.80235 9.9153 8.80235C7.3449 8.80235 5.26118 10.8861 5.26118 13.4565C5.26118 16.0269 7.3449 18.1106 9.9153 18.1106Z" fill="#F5CFC7"/>
<path d="M12.9506 21.6518C13.3417 21.6518 13.6588 21.3347 13.6588 20.9435C13.6588 20.5524 13.3417 20.2353 12.9506 20.2353C12.5594 20.2353 12.2424 20.5524 12.2424 20.9435C12.2424 21.3347 12.5594 21.6518 12.9506 21.6518Z" fill="#F5CFC7"/>
<path d="M16.9976 20.5388C17.5006 20.5388 17.9082 20.1311 17.9082 19.6282C17.9082 19.1253 17.5006 18.7176 16.9976 18.7176C16.4947 18.7176 16.0871 19.1253 16.0871 19.6282C16.0871 20.1311 16.4947 20.5388 16.9976 20.5388Z" fill="#F5CFC7"/>
<path d="M5.26118 13.76L5.66588 13.3553C5.66588 13.3553 5.96941 13.3553 5.96941 12.4447H11.8376C11.8376 12.4447 13.2541 12.2424 13.6588 11.1294C13.6588 11.1294 14.6706 12.3435 14.6706 13.76C14.6706 13.76 15.0753 11.9388 14.3671 10.8259V9.61176C14.3671 9.61176 14.5694 8.29647 14.5694 7.79059H9.10588C9.10588 7.79059 3.64236 8.70118 5.26118 13.76Z" fill="black"/>
<path d="M4.35059 32.68V33.6918H7.08236V33.0847L6.37412 32.8823V32.4776H4.35059V32.68Z" fill="#7B5925"/>
<path d="M10.9271 32.8823V33.7929H13.6588V33.1859L12.9506 32.9835V32.5788H10.9271V32.8823Z" fill="#7B5925"/>
<path d="M28.1271 30.96C28.5182 30.96 28.8353 30.6429 28.8353 30.2518C28.8353 29.8606 28.5182 29.5435 28.1271 29.5435C27.7359 29.5435 27.4188 29.8606 27.4188 30.2518C27.4188 30.6429 27.7359 30.96 28.1271 30.96Z" fill="#F5CFC7"/>
<path d="M34.6884 27.3041C36.9162 27.4855 38.8656 25.8718 39.0425 23.6998C39.2194 21.5277 37.5569 19.6198 35.3291 19.4384C33.1014 19.2569 31.152 20.8706 30.9751 23.0427C30.7982 25.2147 32.4607 27.1226 34.6884 27.3041Z" fill="#E5D4BD"/>
<path d="M31.1624 22.1576L30.8588 23.7765C30.8588 23.7765 29.7459 18.2118 35.4118 18.4141C36.8282 18.4141 39.56 19.8306 39.0541 23.3718C39.0541 23.3718 36.2212 23.3718 36.5247 21.6518C36.5247 21.6518 34.5012 23.3718 32.9835 22.8659L31.1624 22.1576Z" fill="black"/>
<path d="M36.12 26.9129C36.12 26.9129 40.1671 26.9129 39.1553 32.3765C39.1553 32.3765 35.6141 32.9835 32.68 32.9835H32.5788L32.2753 30.4541L30.6565 31.3647L28.7341 31.1624L28.8353 30.1506V29.6447L31.1624 29.8471C31.1624 29.8471 32.68 27.8235 33.7929 27.4188L33.8941 27.2165L36.12 26.9129Z" fill="#35469B"/>
<path d="M34.1976 27.1153L34.5012 27.3176L33.8941 31.4659L34.5012 32.2753L35.2094 31.7694L35.4118 27.4188L35.8165 27.0141L34.1976 27.1153Z" fill="#C7251E"/>
<path d="M35.8165 29.0376L37.2329 27.9247C37.2329 27.9247 38.5482 27.9247 37.6376 29.1388C36.7271 30.3529 35.4118 30.5553 35.4118 30.5553L32.3765 29.8471L31.9718 29.5435L32.5788 28.9365L33.9953 29.1388C33.9953 29.1388 34.9059 29.8471 35.8165 29.0376Z" fill="#35469B"/>
<path d="M31.9718 29.7459C32.3629 29.7459 32.68 29.4288 32.68 29.0377C32.68 28.6465 32.3629 28.3294 31.9718 28.3294C31.5806 28.3294 31.2635 28.6465 31.2635 29.0377C31.2635 29.4288 31.5806 29.7459 31.9718 29.7459Z" fill="#F5CFC7"/>
<path d="M32.5788 33.0847C32.5788 33.0847 32.3765 33.5906 33.0847 34.5012L31.6682 35.9176C31.6682 35.9176 31.0612 38.3459 31.0612 40.0659L32.68 40.1671L33.1859 36.6259L34.7035 35.2094L36.2212 35.3106L35.8165 36.3223L35.5129 40.1671L37.3341 40.2682L37.6377 35.7153C37.6377 35.7153 38.2447 34.7035 38.8518 33.7929L39.1553 32.4776V32.1741L32.3765 32.4776L32.5788 33.0847Z" fill="#514A43"/>
<path d="M32.7812 40.2682L32.68 41.1788L30.1506 40.9765V40.4706V40.2682L30.6565 39.9647H31.1624L32.7812 40.0659V40.2682Z" fill="black"/>
<path d="M37.4353 40.4706L37.3341 41.4823L34.9059 41.1788V40.6729V40.4706L35.4118 40.1671H35.9176L37.4353 40.3694V40.4706Z" fill="black"/>
<path d="M1.41648 30.4541C1.41648 30.4541 0.910594 20.64 7.08236 21.1459C13.1529 21.6518 17.8071 18.1106 22.6635 21.7529C27.52 25.3953 21.5506 25.6988 28.8353 28.8353C36.12 31.9718 41.6847 28.3294 41.6847 28.3294" stroke="#CB6716" stroke-miterlimit="10"/>
<path d="M21.5508 9C12.9115 9 6 15.9115 6 24.4492C6 32.9869 12.9115 40 21.4492 40C29.9869 40 37 33.0885 37 24.4492C37 15.8098 30.0885 9 21.5508 9ZM21.5508 11.541C25.2098 11.541 28.4623 13.0656 30.8 15.5049L9.96393 30.0393C9.15082 28.4131 8.64262 26.482 8.64262 24.4492C8.64262 17.3344 14.4361 11.541 21.5508 11.541ZM21.5508 37.3574C17.6885 37.3574 14.2328 35.6295 11.8951 32.9869L32.9344 18.3508C33.8492 20.1803 34.459 22.2131 34.459 24.4492C34.5607 31.5639 28.7672 37.3574 21.5508 37.3574Z" fill="#E60012"/>
<path d="M17.7656 4.88916L17.5996 5.104C16.8525 4.50993 16.208 4.07373 15.666 3.79541V6.28076H15.3853V3.46582C14.9132 4.02897 14.2785 4.5734 13.481 5.09912L13.3052 4.86963C14.5324 4.13721 15.3657 3.27051 15.8052 2.26953H13.4053V2.00098H17.6558V2.26953H16.1104C15.9899 2.52832 15.8418 2.80013 15.666 3.08496V3.48535C16.5986 4.02572 17.2985 4.49365 17.7656 4.88916ZM22.4604 5.89502C22.4604 6.03011 22.4116 6.12451 22.314 6.17822C22.2179 6.23193 22.0007 6.25879 21.6621 6.25879C21.5856 6.25879 21.5116 6.25716 21.4399 6.25391L21.3594 5.98047C21.4831 5.99023 21.6035 5.99512 21.7207 5.99512C21.9583 5.99512 22.0967 5.98535 22.1357 5.96582C22.1748 5.94629 22.1943 5.91455 22.1943 5.87061V4.66455H20.7808V6.12939H20.5098V4.66455H19.084C19.0042 5.34977 18.8325 5.87467 18.5688 6.23926L18.3345 6.07568C18.6714 5.57764 18.8398 4.97705 18.8398 4.27393V1.979H22.4604V5.89502ZM22.1943 3.16064V2.25H20.7808V3.16064H22.1943ZM20.5098 3.16064V2.25H19.1108V3.16064H20.5098ZM22.1943 4.40576V3.43408H20.7808V4.40576H22.1943ZM20.5098 4.40576V3.43408H19.1108V4.40576H20.5098Z" fill="#E60012"/>
<path d="M26.7598 6.11523H24.4082V5.9082H25.2402C25.1986 5.3457 25.0729 4.63086 24.8633 3.76367L25.0156 3.65625H24.6836V3.45117H25.5879C25.528 3.23893 25.4388 3.01367 25.3203 2.77539L25.5156 2.69531C25.6458 2.96615 25.7461 3.2181 25.8164 3.45117H26.6836V3.65625H26.3438L26.5117 3.75586C26.4401 4.3418 26.2897 5.05924 26.0605 5.9082H26.7598V6.11523ZM26.3125 3.65625H25.0566C25.2676 4.58724 25.3991 5.33789 25.4512 5.9082H25.8477C26.0911 5.04492 26.2461 4.29427 26.3125 3.65625ZM24.6191 4.47266C24.515 4.51823 24.3314 4.58984 24.0684 4.6875V5.91992C24.0684 6.02539 24.0358 6.09961 23.9707 6.14258C23.9056 6.18685 23.7904 6.20898 23.625 6.20898C23.5703 6.20898 23.5169 6.20703 23.4648 6.20312L23.4004 5.98438C23.4993 5.9974 23.623 6.00391 23.7715 6.00391C23.8301 6.00391 23.8594 5.9694 23.8594 5.90039V4.75195L23.3125 4.92773L23.2559 4.71289L23.8594 4.53516V3.64844H23.3086V3.44336H23.8594V2.69922H24.0684V3.44336H24.5234V3.64844H24.0684V4.46484C24.2311 4.41406 24.4043 4.34961 24.5879 4.27148L24.6191 4.47266ZM30.7676 6.04492L30.6113 6.20312C29.7793 5.61719 29.2448 4.81185 29.0078 3.78711C28.8385 4.72201 28.3079 5.52474 27.416 6.19531L27.2715 6.02344C27.5749 5.81641 27.8522 5.55729 28.1035 5.24609C28.3548 4.9349 28.5462 4.59245 28.6777 4.21875C28.8092 3.84375 28.8796 3.33724 28.8887 2.69922H29.1113C29.1035 3.4375 29.2507 4.0918 29.5527 4.66211C29.8548 5.23112 30.2598 5.69206 30.7676 6.04492Z" fill="black"/>
</svg>
