<svg width="43" height="43" viewBox="0 0 43 43" fill="none" xmlns="http://www.w3.org/2000/svg">
<g clip-path="url(#clip0)">
<path d="M43 0H0V43H43V0Z" fill="#E9E9ED"/>
<path d="M7.08236 14.5702L6.88 15.4808C6.88 15.4808 8.09412 16.3913 8.70118 16.3913C9.30824 16.3913 10.4212 15.6831 10.5224 15.3796C10.5224 15.3796 10.32 14.7725 10.32 14.5702C10.32 14.5702 8.90353 16.5937 7.08236 14.5702Z" fill="#F3D7AD"/>
<path d="M6.88 15.3796L5.76706 15.7843C5.76706 15.7843 6.47529 17.6054 7.79059 17.7066C7.79059 17.7066 8.39765 17.7066 8.70118 16.2901C8.70118 16.2901 9.20706 17.5042 9.51059 17.7066C9.81412 17.9089 11.4329 16.9984 11.6353 15.6831C11.6353 15.6831 10.6235 15.2784 10.5224 15.1772C10.5224 15.1772 9.20706 16.2901 8.70118 16.189C8.09412 16.189 7.18353 15.7843 6.88 15.3796Z" fill="black"/>
<path d="M6.67765 13.1538C6.67765 13.1538 6.27294 12.5467 6.17177 11.535C6.07059 10.5232 6.17177 9.20798 6.17177 9.20798C6.17177 9.20798 6.4753 8.09507 8.49883 8.19625C10.4212 8.29742 10.6235 8.29742 11.1294 9.00563C11.4329 9.5115 11.1294 12.2432 11.1294 12.2432C11.1294 12.2432 10.8259 12.9514 10.7247 13.2549C10.6235 13.5585 6.67765 13.2549 6.67765 13.1538Z" fill="#604C3F"/>
<path d="M10.8259 10.8268C10.8259 9.81503 9.61176 10.4221 9.61176 10.4221C9.61176 10.4221 8.59999 10.6244 7.6894 10.4221C6.57646 9.9162 6.57646 10.8268 6.57646 10.8268C6.47528 11.0291 6.57646 13.1538 6.57646 13.1538L6.77881 13.862C6.87999 14.7725 7.6894 15.4808 8.70117 15.4808C9.71293 15.4808 10.5223 14.6714 10.6235 13.6596C10.6235 13.6596 10.6235 13.6596 10.6235 13.5585C10.7247 13.1538 10.8259 11.8385 10.8259 10.8268Z" fill="#F3D7AD"/>
<path d="M5.76706 15.9866C5.76706 15.9866 4.65411 16.5937 4.04706 16.5937C3.33882 16.5937 3.33882 17.8077 3.44 18.2124C3.44 18.1113 13.9623 18.2124 13.9623 18.2124V17.5042C13.9623 17.5042 13.9623 16.796 13.3553 16.6948C12.7482 16.5937 11.5341 16.0878 11.5341 16.0878C11.5341 16.0878 10.9271 17.8077 9.61176 17.9089C9.61176 17.9089 9.40941 17.9089 9.10588 17.3019C8.80235 16.796 8.70117 16.4925 8.70117 16.4925C8.70117 16.4925 8.39764 17.8077 7.79058 17.9089C7.18353 17.9089 6.37411 16.9984 6.17176 16.6948C5.96941 16.189 5.86823 15.9866 5.76706 15.9866Z" fill="#9FA0A0"/>
<path d="M30.2518 16.0878C30.2518 16.0878 30.6565 17.2007 29.6447 17.9089C29.4423 18.0101 29.3412 17.2007 29.3412 17.2007L30.2518 16.0878Z" fill="black"/>
<path d="M27.0141 16.5937V17.8077C27.0141 17.8077 25.3953 18.4148 24.7882 18.7183C24.1812 19.0218 23.8776 21.3488 24.1812 22.4617C24.1812 22.4617 28.6329 24.2829 32.68 22.4617C32.68 22.4617 32.68 18.7183 31.6682 18.7183C31.6682 18.7183 31.0612 18.1113 29.5435 17.7066L29.4423 16.5937H27.0141Z" fill="#F39818"/>
<path d="M27.0141 16.4925V18.2124C27.0141 18.2124 27.7223 22.4617 28.2282 23.17C28.2282 23.17 29.5435 19.6289 29.5435 18.2124L29.4423 16.4925H27.0141Z" fill="#F7E1B5"/>
<path d="M30.96 14.5702C30.96 16.2901 28.5318 18.0101 28.5318 18.0101C28.5318 18.0101 25.9012 16.3913 25.9012 14.5702C25.9012 12.8502 27.0141 11.4338 28.4306 11.4338C29.8471 11.4338 30.96 12.8502 30.96 14.5702Z" fill="#F7E1B5"/>
<path d="M25.8 14.469C25.8 14.469 28.0259 14.8737 29.7459 13.6596C29.7459 13.6596 30.2518 14.7725 31.0612 14.5702C31.0612 14.5702 31.6682 12.0408 28.5318 11.3326C27.1153 11.0291 25.8 12.8502 25.8 14.469Z" fill="black"/>
<path d="M19.9318 13.4573L19.7294 14.3678C19.7294 14.3678 20.9435 15.2784 21.5506 15.2784C22.1577 15.2784 23.2706 14.5702 23.3718 14.2667C23.3718 14.2667 23.1694 13.6596 23.1694 13.4573C23.1694 13.4573 21.7529 15.4807 19.9318 13.4573Z" fill="#F3D7AD"/>
<path d="M19.7294 14.3678L18.6165 14.7725C18.6165 14.7725 19.3247 16.5937 20.64 16.6948C20.64 16.6948 21.2471 16.6948 21.5506 15.2784C21.5506 15.2784 22.0565 16.4925 22.36 16.6948C22.6635 16.8972 24.2824 15.9866 24.4847 14.6714C24.4847 14.6714 23.4729 14.2667 23.3718 14.1655C23.3718 14.1655 22.0565 15.2784 21.5506 15.1772C20.9435 15.0761 20.0329 14.6714 19.7294 14.3678Z" fill="#AECA1B"/>
<path d="M19.4259 12.0408C19.4259 12.0408 19.0212 11.4338 18.92 10.4221C18.8188 9.41033 18.92 8.09508 18.92 8.09508C18.92 8.09508 19.3247 6.98216 21.2471 7.08334C23.1694 7.18451 23.3718 7.18451 23.8776 7.89273C24.1812 8.3986 23.8776 11.1303 23.8776 11.1303C23.8776 11.1303 23.5741 11.8385 23.4729 12.142C23.3718 12.3444 19.5271 12.142 19.4259 12.0408Z" fill="black"/>
<path d="M23.6753 9.71385C23.6753 8.70211 22.4612 9.30915 22.4612 9.30915C22.4612 9.30915 21.4494 9.5115 20.5388 9.30915C19.4259 8.80329 19.4259 9.71385 19.4259 9.71385C19.3247 9.9162 19.5271 12.0408 19.5271 12.0408L19.7294 12.7491C19.8306 13.6596 20.64 14.3678 21.6518 14.3678C22.6635 14.3678 23.4729 13.5585 23.5741 12.5467C23.5741 12.5467 23.5741 12.5467 23.5741 12.4455C23.5741 12.0408 23.6753 10.7256 23.6753 9.71385Z" fill="#F3D7AD"/>
<path d="M18.6165 14.8737C18.6165 14.8737 17.5035 15.4808 16.8965 15.4808C16.2894 15.4808 16.1882 16.6948 16.1882 16.9984C16.1882 16.8972 26.7106 16.9984 26.7106 16.9984V16.2901C26.7106 16.2901 26.7106 15.5819 26.1035 15.4808C25.4965 15.3796 24.2823 14.8737 24.2823 14.8737C24.2823 14.8737 23.6753 16.5937 22.36 16.6948C22.36 16.6948 22.1576 16.6948 21.8541 16.0878C21.5506 15.5819 21.4494 15.2784 21.4494 15.2784C21.4494 15.2784 21.1459 16.5937 20.5388 16.6948C19.9318 16.6948 19.1224 15.7843 18.92 15.4808C18.8188 15.0761 18.7176 14.8737 18.6165 14.8737Z" fill="#F5CD27"/>
<path d="M33.9953 16.2901L32.8824 16.6948C32.8824 16.6948 33.5906 18.516 34.9059 18.6171C34.9059 18.6171 35.5129 18.6171 35.8165 17.2007C35.8165 17.2007 36.3224 18.4148 36.6259 18.6171C36.9294 18.8195 38.5482 17.9089 38.7506 16.5937C38.7506 16.5937 37.7388 16.189 37.6376 16.0878C37.6376 16.0878 36.3224 17.2007 35.8165 17.0995C35.2094 17.0995 34.2988 16.5937 33.9953 16.2901Z" fill="black"/>
<path d="M34.1976 15.4808L33.9953 16.3913C33.9953 16.3913 35.2094 17.3019 35.8165 17.3019C36.4235 17.3019 37.5365 16.5937 37.6376 16.2902C37.6376 16.2902 37.4353 15.6831 37.4353 15.4808C37.4353 15.3796 36.0188 17.4031 34.1976 15.4808Z" fill="#F3D7AD"/>
<path d="M33.6918 14.0643C33.6918 14.0643 33.2871 13.4573 33.1859 12.4455C33.0847 11.4338 33.1859 10.1185 33.1859 10.1185C33.1859 10.1185 33.4894 8.90446 35.4118 9.00564C37.3341 9.10681 37.5365 9.10681 38.0424 9.81503C38.3459 10.3209 38.0424 13.0526 38.0424 13.0526C38.0424 13.0526 37.7388 13.7608 37.6376 14.0643C37.6376 14.3678 33.7929 14.1655 33.6918 14.0643Z" fill="#604C3F"/>
<path d="M37.9412 11.7373C37.9412 10.7256 36.7271 11.3326 36.7271 11.3326C36.7271 11.3326 35.7153 11.535 34.8047 11.3326C33.6918 10.8268 33.6918 11.7373 33.6918 11.7373C33.5906 11.9397 33.7929 14.0643 33.7929 14.0643L33.9953 14.7725C34.0965 15.6831 34.9059 16.3913 35.9176 16.3913C36.9294 16.3913 37.7388 15.5819 37.84 14.5702C37.84 14.5702 37.84 14.5702 37.84 14.469C37.84 14.0643 37.9412 12.7491 37.9412 11.7373Z" fill="#F3D7AD"/>
<path d="M32.8824 16.796C32.8824 16.796 31.7694 17.4031 31.1623 17.4031C30.4541 17.4031 30.4541 18.6171 30.5553 19.0218C30.5553 18.9207 41.0776 19.0218 41.0776 19.0218V18.3136C41.0776 18.3136 41.0776 17.6054 40.4706 17.5042C39.8635 17.4031 38.6494 16.8972 38.6494 16.8972C38.6494 16.8972 38.0423 18.6171 36.7271 18.7183C36.7271 18.7183 36.5247 18.7183 36.2212 18.1113C35.9176 17.6054 35.8165 17.3019 35.8165 17.3019C35.8165 17.3019 35.5129 18.6171 34.9059 18.7183C34.2988 18.7183 33.4894 17.8078 33.2871 17.5042C33.0847 17.0995 32.9835 16.796 32.8824 16.796Z" fill="#B8B718"/>
<path d="M29.8471 24.384L29.5435 25.497C29.5435 25.497 31.1624 26.711 31.8706 26.711C32.5788 26.711 34.0965 25.6993 34.2988 25.3958C34.2988 25.3958 34.0965 24.5864 34.0965 24.2829C34.0965 24.2829 32.1741 26.9134 29.8471 24.384Z" fill="#F3D7AD"/>
<path d="M29.5435 25.497L28.127 26.104C28.127 26.104 29.0376 28.431 30.7576 28.6333C30.7576 28.6333 31.4659 28.6333 31.9718 26.8122C31.9718 26.8122 32.68 28.431 32.9835 28.6333C33.3882 28.8357 35.5129 27.7228 35.7153 26.0028C35.7153 26.0028 34.4 25.497 34.2988 25.3958C34.2988 25.3958 32.5788 26.9134 31.8706 26.711C31.2635 26.5087 29.9482 25.9017 29.5435 25.497Z" fill="black"/>
<path d="M29.3412 22.5629C29.3412 22.5629 28.8353 21.7535 28.7341 20.5394C28.6329 19.2242 28.7341 17.5042 28.7341 17.5042C28.7341 17.5042 29.1388 15.8855 31.6682 16.0878C34.1976 16.2901 34.5012 16.189 35.2094 17.2007C35.6141 17.9089 35.2094 21.45 35.2094 21.45C35.2094 21.45 34.9059 22.4617 34.7035 22.7653C34.5012 23.0688 29.4423 22.7653 29.4423 22.7653L29.3412 22.5629Z" fill="#604C3F"/>
<path d="M34.7035 19.5277C34.7035 18.2124 33.1859 19.0218 33.1859 19.0218C33.1859 19.0218 31.8706 19.2242 30.6565 18.9207C29.24 18.3136 29.24 19.5277 29.24 19.5277C29.1388 19.8312 29.3412 22.5629 29.3412 22.5629L29.5435 23.4735C29.7459 24.6876 30.7576 25.5981 32.0729 25.5981C33.3882 25.5981 34.5012 24.5864 34.6024 23.2711C34.6024 23.2711 34.6024 23.2711 34.7035 23.17C34.7035 22.5629 34.8047 20.843 34.7035 19.5277Z" fill="#F3D7AD"/>
<path d="M28.127 26.2052C28.127 26.2052 26.7106 26.9134 25.9012 27.0146C24.9906 27.0146 24.9906 28.6333 25.0917 29.038C25.0917 28.9369 38.8518 29.038 38.8518 29.038V28.0263C38.8518 28.0263 38.8517 27.0146 38.0423 26.9134C37.2329 26.8122 35.7153 26.104 35.7153 26.104C35.7153 26.104 34.9059 28.3298 33.1859 28.431C33.1859 28.431 32.9835 28.431 32.5788 27.7228C32.1741 27.0146 32.0729 26.6099 32.0729 26.6099C32.0729 26.6099 31.6682 28.3298 30.8588 28.431C30.0494 28.431 29.0376 27.3181 28.8353 26.9134C28.6329 26.5087 28.4306 26.2052 28.4306 26.2052H28.127Z" fill="#004767"/>
<path d="M8.49882 24.2829C8.49882 24.2829 8.49882 25.5981 7.18352 26.104C5.86823 26.6099 5.15999 27.1157 5.15999 27.1157C5.15999 27.1157 4.14823 27.1157 4.04705 28.3298L3.94588 28.9369H16.4918C16.4918 28.9369 16.3906 27.4193 15.6823 27.2169C15.6823 27.2169 12.8494 26.104 12.3435 25.497C12.3435 25.497 11.8376 24.5864 12.04 24.0805L8.59999 23.9793L8.49882 24.2829Z" fill="#CC9711"/>
<path d="M8.49882 23.8782C8.49882 23.8782 8.49882 24.6876 8.29646 25.0923C8.09411 25.497 8.29646 25.0923 8.29646 25.0923C8.29646 25.0923 10.2188 26.3063 12.1412 25.0923C12.1412 25.0923 11.9388 24.5864 11.9388 23.9793L8.49882 23.8782Z" fill="#F1D6AC"/>
<path d="M13.3553 22.4617C13.8612 21.8547 14.1647 21.0453 14.1647 20.2359C14.1647 18.2124 12.4447 16.4925 10.4212 16.4925C8.39764 16.4925 6.67764 18.2124 6.67764 20.2359C6.67764 21.0453 6.88 21.7535 7.2847 22.3606C7.38588 22.4617 8.90352 24.7887 9.51058 25.0923C10.0165 25.3958 11.3318 25.0923 11.3318 25.0923C11.3318 25.0923 12.9506 23.4735 13.1529 22.7653C13.2541 22.6641 13.2541 22.5629 13.3553 22.4617Z" fill="#F1D6AC"/>
<path d="M13.1529 17.7066C12.9506 17.4031 12.6471 17.2007 12.4447 17.0995C12.2423 15.8855 10.9271 15.3796 10.6235 15.4808C8.80235 15.5819 8.49882 16.8972 8.49882 17.0995C7.89176 17.4031 7.38588 17.9089 7.18353 18.3136C6.47529 19.5277 6.17176 21.5512 7.79058 23.0688C7.79058 23.0688 7.58823 21.7535 7.79058 21.1465V20.1347C7.79058 20.1347 8.09411 18.6171 8.70117 17.9089C8.70117 17.9089 9.81411 19.3254 11.1294 19.3254C11.1294 19.3254 11.8376 19.3254 12.2423 19.4265C12.2423 19.4265 12.8494 19.8312 12.9506 21.1465C13.0518 22.4617 13.1529 22.5629 13.0518 22.8664C13.1529 22.8664 15.3788 20.1347 13.1529 17.7066Z" fill="#3A3730"/>
<path d="M8.19528 25.0923C8.19528 25.0923 10.0165 26.3063 12.04 25.1934L12.1412 25.0923C12.1412 25.0923 12.2423 25.4969 12.647 25.6993C13.0518 25.9016 13.2541 26.104 13.2541 26.104C13.2541 26.104 12.2423 27.5204 11.6353 27.4193C11.0282 27.3181 10.5223 26.3063 10.2188 25.8005C10.2188 25.8005 9.4094 27.5204 8.70116 27.4193C7.99293 27.3181 7.18352 26.3063 7.18352 26.104C7.18352 26.104 8.09411 25.5981 8.19528 25.0923Z" fill="#280206"/>
<path d="M16.9976 35.412C16.9976 35.412 16.3906 37.1319 16.7953 39.5601L17.0988 43H20.9435V40.3695L21.1459 40.4707L22.1576 43H25.1929L25.5976 38.7507C25.5976 38.7507 26.1035 36.019 25.2941 35.3108H16.9976V35.412Z" fill="black"/>
<path d="M24.3835 15.4808C24.3835 17.4031 22.967 21.0453 21.247 21.0453C19.4259 21.0453 18.0094 17.4031 18.0094 15.4808C18.0094 13.5585 19.1223 12.3444 20.9435 12.3444C22.6635 12.3444 24.3835 13.5585 24.3835 15.4808Z" fill="#EECAA6"/>
<path d="M19.1223 14.0643L18.6165 16.796H18.1106C18.1106 16.796 16.8965 12.8502 20.64 12.2432C22.36 12.0409 25.0918 13.5585 24.1812 16.796L23.5741 16.8972L23.3718 15.5819C23.4729 15.5819 20.0329 14.2667 19.1223 14.0643Z" fill="#303E57"/>
<path d="M19.7294 20.1347L19.4259 22.6641L21.247 24.4852L22.967 22.5629L22.8659 19.9324C22.8659 19.9324 21.4494 22.1582 19.7294 20.1347Z" fill="#EECAA6"/>
<path d="M19.1223 22.3606H16.6941C16.6941 22.3606 14.8729 22.3606 14.0635 25.497L13.1529 27.6216L10.5223 24.6876L9.61176 25.6993L12.1412 29.8474C12.1412 29.8474 13.3553 31.8709 14.367 29.4427L16.4918 26.5087L17.0988 35.5132H25.2941L25.5976 26.9134L27.7223 29.3416L28.2282 30.1509C28.2282 30.1509 29.5435 31.7697 30.2518 29.3416L32.68 25.5981L31.6682 24.4852L29.1388 27.5204L27.6212 24.5864C27.6212 24.5864 27.2165 22.1582 25.1929 22.0571L22.9671 22.2594L21.2471 24.0805L19.1223 22.3606Z" fill="black"/>
<path d="M21.0447 23.9794L20.1341 25.0923L20.7412 25.9017L20.1341 29.2404V29.4427L21.0447 30.758L22.36 29.3416L21.5506 25.9017L22.2588 25.2946L21.2471 23.9794H21.0447Z" fill="#A11E32"/>
<path d="M19.0212 22.3606H17.0988L20.0329 25.1934L21.2471 24.0805L22.36 25.5981L25.2941 22.1582H22.9671L21.2471 24.0805L19.0212 22.3606Z" fill="white"/>
<path d="M10.4212 24.1817L10.1176 23.777L9.91528 22.7653C9.91528 22.7653 9.91528 22.057 10.1176 21.5512L10.2188 21.3488C10.2188 21.3488 10.32 20.6406 9.71293 21.1465L9.10587 22.4617L8.70116 22.5629C7.58822 21.9559 6.47528 21.7535 6.07057 22.3606C5.76705 22.8664 6.3741 23.8782 7.58822 24.4852C7.99293 24.6876 8.29646 24.8899 8.70116 24.9911C8.80234 24.9911 8.80234 24.9911 8.90352 24.9911C9.00469 25.0923 9.20705 25.1934 9.4094 25.497C9.51058 25.5981 9.51057 25.6993 9.61175 25.8005L10.6235 24.9911L10.4212 24.1817Z" fill="#EECAA6"/>
<path d="M9.51059 25.6993C9.51059 25.6993 9.71294 25.9017 9.51059 25.6993V25.6993Z" fill="#EECAA6"/>
<path d="M32.0729 24.0805L32.3765 23.6758L32.68 22.7653C32.68 22.7653 32.68 22.057 32.5788 21.5512V21.2477C32.5788 21.2477 32.4776 20.5394 33.0847 21.0453L33.4894 22.4617L33.8941 22.5629C35.1082 22.057 36.2212 22.057 36.5247 22.5629C36.8282 23.0688 36.0188 23.9793 34.9059 24.5864C34.5012 24.7887 34.0965 24.8899 33.7929 24.9911C33.6918 24.9911 33.6918 24.9911 33.5906 24.9911C33.4894 24.9911 33.287 25.1934 33.0847 25.3958C32.9835 25.497 32.8823 25.5981 32.8823 25.6993L31.8706 24.8899L32.0729 24.0805Z" fill="#EECAA6"/>
<path d="M32.7812 25.6993C32.7812 25.6993 32.5788 25.8005 32.7812 25.6993V25.6993Z" fill="#EECAA6"/>
<path d="M16.7656 4.88916L16.5996 5.104C15.8525 4.50993 15.208 4.07373 14.666 3.79541V6.28076H14.3853V3.46582C13.9132 4.02897 13.2785 4.5734 12.481 5.09912L12.3052 4.86963C13.5324 4.13721 14.3657 3.27051 14.8052 2.26953H12.4053V2.00098H16.6558V2.26953H15.1104C14.9899 2.52832 14.8418 2.80013 14.666 3.08496V3.48535C15.5986 4.02572 16.2985 4.49365 16.7656 4.88916ZM21.4604 5.89502C21.4604 6.03011 21.4116 6.12451 21.314 6.17822C21.2179 6.23193 21.0007 6.25879 20.6621 6.25879C20.5856 6.25879 20.5116 6.25716 20.4399 6.25391L20.3594 5.98047C20.4831 5.99023 20.6035 5.99512 20.7207 5.99512C20.9583 5.99512 21.0967 5.98535 21.1357 5.96582C21.1748 5.94629 21.1943 5.91455 21.1943 5.87061V4.66455H19.7808V6.12939H19.5098V4.66455H18.084C18.0042 5.34977 17.8325 5.87467 17.5688 6.23926L17.3345 6.07568C17.6714 5.57764 17.8398 4.97705 17.8398 4.27393V1.979H21.4604V5.89502ZM21.1943 3.16064V2.25H19.7808V3.16064H21.1943ZM19.5098 3.16064V2.25H18.1108V3.16064H19.5098ZM21.1943 4.40576V3.43408H19.7808V4.40576H21.1943ZM19.5098 4.40576V3.43408H18.1108V4.40576H19.5098Z" fill="#E60012"/>
<path d="M25.7441 3.29297H25.0527V3.61133C25.0527 3.63867 25.0632 3.66341 25.084 3.68555C25.1061 3.70638 25.1315 3.7168 25.1602 3.7168H25.6602V3.9082H25.1484C24.9479 3.9082 24.8477 3.81641 24.8477 3.63281V3.29297H24.4355V3.93164H23.4766V3.29297H23.0723C23.0423 3.65365 22.8581 3.92513 22.5195 4.10742L22.3555 3.95508C22.6732 3.78711 22.8398 3.56641 22.8555 3.29297H22.2637V3.08789H22.8809L22.8926 2.70703H23.0879C23.0918 2.82292 23.0892 2.94987 23.0801 3.08789H23.4766V2.71289H23.6836V3.08789H24.2285V2.71289H24.4355V3.08789H24.8477V2.70703H25.0527V3.08789H25.7441V3.29297ZM24.2285 3.73242V3.29297H23.6836V3.73242H24.2285ZM25.5879 5.01562H25.3887V4.39258H24.1152V4.83594H25.1992V5.71289C25.1992 5.81315 25.1712 5.88932 25.1152 5.94141C25.0592 5.99349 24.8555 6.01953 24.5039 6.01953L24.4316 5.80469C24.7441 5.80469 24.9167 5.80013 24.9492 5.79102C24.9831 5.7819 25 5.75586 25 5.71289V5.03906H24.1152V6.19531H23.9121V5.03906H23.0234V6.01953H22.8203V4.83594H23.9121V4.39258H22.6445V5.01562H22.4316V4.19141H25.5879V5.01562ZM29.7676 6.04492L29.6113 6.20312C28.7793 5.61719 28.2448 4.81185 28.0078 3.78711C27.8385 4.72201 27.3079 5.52474 26.416 6.19531L26.2715 6.02344C26.5749 5.81641 26.8522 5.55729 27.1035 5.24609C27.3548 4.9349 27.5462 4.59245 27.6777 4.21875C27.8092 3.84375 27.8796 3.33724 27.8887 2.69922H28.1113C28.1035 3.4375 28.2507 4.0918 28.5527 4.66211C28.8548 5.23112 29.2598 5.69206 29.7676 6.04492Z" fill="black"/>
<path d="M21.4492 8C12.9115 8 6 14.8889 6 23.5C6 32.1111 12.9115 39 21.4492 39C29.9869 39 37 32.1111 37 23.5C37 14.8889 30.0885 8 21.4492 8ZM21.5508 10.5327C25.2098 10.5327 28.4623 12.0523 30.8 14.4837L9.96393 28.9706C9.15082 27.2484 8.64262 25.4248 8.64262 23.3987C8.64262 16.3072 14.4361 10.5327 21.5508 10.5327ZM21.5508 36.366C17.6885 36.366 14.2328 34.6438 11.8951 32.0098L32.9344 17.4216C33.8492 19.2451 34.459 21.2712 34.459 23.5C34.459 30.5915 28.6656 36.366 21.5508 36.366Z" fill="#E60012"/>
</g>
<defs>
<clipPath id="clip0">
<rect width="43" height="43" fill="white"/>
</clipPath>
</defs>
</svg>
