<svg width="43" height="43" viewBox="0 0 43 43" fill="none" xmlns="http://www.w3.org/2000/svg">
<path d="M43 0H0V43H43V0Z" fill="#E9E9ED"/>
<path d="M17.7656 4.88916L17.5996 5.104C16.8525 4.50993 16.208 4.07373 15.666 3.79541V6.28076H15.3853V3.46582C14.9132 4.02897 14.2785 4.5734 13.481 5.09912L13.3052 4.86963C14.5324 4.13721 15.3657 3.27051 15.8052 2.26953H13.4053V2.00098H17.6558V2.26953H16.1104C15.9899 2.52832 15.8418 2.80013 15.666 3.08496V3.48535C16.5986 4.02572 17.2985 4.49365 17.7656 4.88916ZM22.4604 5.89502C22.4604 6.03011 22.4116 6.12451 22.314 6.17822C22.2179 6.23193 22.0007 6.25879 21.6621 6.25879C21.5856 6.25879 21.5116 6.25716 21.4399 6.25391L21.3594 5.98047C21.4831 5.99023 21.6035 5.99512 21.7207 5.99512C21.9583 5.99512 22.0967 5.98535 22.1357 5.96582C22.1748 5.94629 22.1943 5.91455 22.1943 5.87061V4.66455H20.7808V6.12939H20.5098V4.66455H19.084C19.0042 5.34977 18.8325 5.87467 18.5688 6.23926L18.3345 6.07568C18.6714 5.57764 18.8398 4.97705 18.8398 4.27393V1.979H22.4604V5.89502ZM22.1943 3.16064V2.25H20.7808V3.16064H22.1943ZM20.5098 3.16064V2.25H19.1108V3.16064H20.5098ZM22.1943 4.40576V3.43408H20.7808V4.40576H22.1943ZM20.5098 4.40576V3.43408H19.1108V4.40576H20.5098Z" fill="#E60012"/>
<path d="M26.7676 5.93555H24.9961V6.19141H24.7793V3.94727C24.7168 4.04883 24.6517 4.14518 24.584 4.23633L24.416 4.07617C24.7025 3.71289 24.9368 3.24349 25.1191 2.66797L25.332 2.75195C25.2669 2.94987 25.179 3.16862 25.0684 3.4082H25.7754C25.7467 3.26497 25.6842 3.0638 25.5879 2.80469L25.7871 2.69922C25.877 2.92318 25.9505 3.15951 26.0078 3.4082H26.6719V3.62305H25.9551V4.1875H26.623V4.39648H25.9551V4.93945H26.623V5.15234H25.9551V5.72852H26.7676V5.93555ZM25.748 4.1875V3.62305H24.9961V4.1875H25.748ZM25.748 4.93945V4.39648H24.9961V4.93945H25.748ZM25.748 5.72852V5.15234H24.9961V5.72852H25.748ZM24.5234 3.61523H24.0527V4.45117C24.2324 4.37435 24.3535 4.31966 24.416 4.28711L24.4648 4.48828C24.3216 4.56641 24.1842 4.63151 24.0527 4.68359V5.88867C24.0527 5.98112 24.0299 6.05273 23.9844 6.10352C23.9388 6.1543 23.8828 6.18359 23.8164 6.19141C23.75 6.19922 23.6217 6.20312 23.4316 6.20312L23.3555 5.98828C23.4349 5.99089 23.5013 5.99219 23.5547 5.99219C23.681 5.99219 23.7604 5.98372 23.793 5.9668C23.8268 5.94857 23.8438 5.91667 23.8438 5.87109V4.77148C23.6562 4.8444 23.487 4.9056 23.3359 4.95508L23.2637 4.74805C23.4316 4.69596 23.625 4.62826 23.8438 4.54492V3.61523H23.2871V3.4082H23.8438V2.70703H24.0527V3.4082H24.5234V3.61523ZM28.6992 3.43555L28.5352 3.57227C28.4076 3.39909 28.2331 3.22005 28.0117 3.03516C27.8724 3.26693 27.7194 3.48177 27.5527 3.67969H28.5V3.86719H28.0957V4.30078H28.6113V4.48828H28.0957V5.72852C28.1426 5.7207 28.2949 5.67643 28.5527 5.5957L28.5605 5.79688C28.0618 5.95443 27.651 6.06641 27.3281 6.13281L27.2598 5.93555C27.4303 5.9043 27.6452 5.85352 27.9043 5.7832V4.48828H27.3555V4.30078H27.9043V3.86719H27.5234V3.7168C27.487 3.75586 27.4408 3.79818 27.3848 3.84375L27.248 3.69141C27.5319 3.41146 27.7747 3.07422 27.9766 2.67969L28.1484 2.7793C28.1458 2.79232 28.1309 2.82161 28.1035 2.86719C28.3327 3.05208 28.5312 3.24154 28.6992 3.43555ZM30.5645 5.93555C30.5645 6.0293 30.5345 6.09635 30.4746 6.13672C30.416 6.17839 30.2956 6.19922 30.1133 6.19922C30.043 6.19922 29.9622 6.19661 29.8711 6.19141L29.8047 5.98438C29.9206 5.99089 30.0384 5.99414 30.1582 5.99414C30.2507 5.99414 30.3073 5.98828 30.3281 5.97656C30.349 5.96484 30.3594 5.94727 30.3594 5.92383V5.05273C29.9896 5.24154 29.5697 5.4375 29.0996 5.64062L28.9922 5.49609C28.9427 5.73307 28.8438 5.96875 28.6953 6.20312L28.5234 6.07617C28.7448 5.74935 28.8555 5.30013 28.8555 4.72852V3.90039H29.5957V2.70312H29.8008V3.90039H30.5645V5.93555ZM30.3594 4.83984V4.09961H29.0645V4.43164C29.4811 4.44466 29.8424 4.49154 30.1484 4.57227L30.0801 4.77148C29.7754 4.69206 29.4368 4.64453 29.0645 4.62891C29.0645 4.89453 29.043 5.16992 29 5.45508C29.5326 5.24935 29.9857 5.04427 30.3594 4.83984ZM30.7246 2.89648C30.571 3.22331 30.4199 3.48568 30.2715 3.68359L30.0879 3.57227C30.2493 3.36263 30.4017 3.10091 30.5449 2.78711L30.7246 2.89648ZM29.2754 3.59961L29.0918 3.69141C29.0358 3.48828 28.9121 3.22591 28.7207 2.9043L28.9043 2.80078C29.0814 3.10026 29.2051 3.36654 29.2754 3.59961ZM28.6035 4.80859C28.5579 5.07682 28.502 5.30599 28.4355 5.49609L28.2441 5.43555C28.3236 5.24023 28.3809 5.01367 28.416 4.75586L28.6035 4.80859ZM27.7168 5.56445L27.5156 5.61914C27.4909 5.33789 27.4375 5.07422 27.3555 4.82812L27.5352 4.75977C27.6081 4.99284 27.6686 5.26107 27.7168 5.56445Z" fill="black"/>
<path d="M24.7882 13.5576C24.7882 15.5812 23.2706 19.5271 21.4494 19.5271C19.5271 19.5271 18.0094 15.6824 18.0094 13.5576C18.0094 11.4329 19.2235 10.2188 21.1459 10.2188C22.9671 10.2188 24.7882 11.5341 24.7882 13.5576Z" fill="#EECAA6"/>
<path d="M19.2235 12.04L18.7176 14.9741H18.2118C18.2118 14.9741 16.8965 10.8259 20.9435 10.1176C22.7647 9.91529 25.6988 11.5341 24.6871 14.9741L24.08 15.0753L23.8776 13.6588C23.7765 13.6588 20.1341 12.2424 19.2235 12.04Z" fill="#303E57"/>
<path d="M19.8306 18.4141L19.4259 21.0447L21.4494 22.9671L23.2706 20.9435L23.1694 18.2118C23.1694 18.2118 21.6518 20.7412 19.8306 18.4141Z" fill="#EECAA6"/>
<path d="M19.2235 20.9435H16.5929C16.5929 20.9435 14.5694 20.9435 13.8612 24.2824L12.8494 26.5082L10.1176 23.4729L9.10588 24.5859L11.8376 29.0376C11.8376 29.0376 13.0518 31.1624 14.1647 28.6329L16.3906 25.4965L16.9976 35.1082H25.6988L26.1035 25.9012L28.3294 28.5318L28.9365 29.3412C28.9365 29.3412 30.3529 31.0612 31.1624 28.4306L33.7929 24.4847L32.68 23.2706L30.0494 26.5082L28.3294 23.3718C28.3294 23.3718 27.9247 20.8424 25.6988 20.64L23.2706 20.7412L21.4494 22.5624L19.2235 20.9435Z" fill="#8AB1D0"/>
<path d="M21.2471 22.6635L20.2353 23.7765L20.9435 24.5859L20.2353 28.1271V28.3294L21.2471 29.8471L22.6635 28.3294L21.7529 24.5859L22.4612 23.9788L21.5506 22.6635H21.2471Z" fill="#18449A"/>
<path d="M19.1223 20.8424H17.0988L20.2353 23.8776L21.4494 22.6635L22.6635 24.2824L25.8 20.64H23.3718L21.4494 22.6635L19.1223 20.8424Z" fill="#5479BC"/>
<path d="M16.9976 35.0071C16.9976 35.0071 16.3906 36.8282 16.7953 39.3576L17.0988 43H21.1459V40.2682L21.3482 40.3694L22.36 43H25.5976L26.0023 38.6494C26.0023 38.6494 26.5082 35.8165 25.6988 35.1082H16.9976V35.0071Z" fill="#18449A"/>
<path d="M21.5508 8C12.9115 8 6 14.9115 6 23.4492C6 31.9869 12.9115 39 21.4492 39C29.9869 39 37 31.9869 37 23.4492C37 14.9115 30.0885 8 21.5508 8ZM21.5508 10.541C25.2098 10.541 28.4623 12.0656 30.8 14.5049L9.96393 29.0393C9.15082 27.3115 8.64262 25.482 8.64262 23.4492C8.64262 16.3344 14.4361 10.541 21.5508 10.541ZM21.5508 36.3574C17.6885 36.3574 14.2328 34.6295 11.8951 31.9869L33.0361 17.3508C33.9508 19.1803 34.5607 21.2131 34.5607 23.4492C34.459 30.5639 28.6656 36.3574 21.5508 36.3574Z" fill="#E60012"/>
<path d="M9.79034 22.3751L9.37103 21.8674L9.05654 20.8518C9.05654 20.8518 9.05654 20.1409 9.2662 19.6331L9.37103 19.43C9.37103 19.43 9.47586 18.7192 8.84688 19.1254L8.32274 20.5471L7.90342 20.6487C6.64547 19.9378 5.38753 19.8363 5.07304 20.344C4.75855 20.9534 5.49236 21.9689 6.64547 22.6798C7.16962 22.8829 7.58893 23.086 7.90342 23.1876C8.00825 23.1876 8.00825 23.1876 8.11308 23.1876C8.21791 23.2891 8.42757 23.3907 8.63722 23.6953C8.74205 23.8984 8.84688 23.8984 8.84688 24L10 23.1876L9.79034 22.3751Z" fill="#EECAA6"/>
<path d="M33.2056 22.2083L33.6169 21.8101L34.0281 20.8147C34.0281 20.8147 34.0281 20.118 33.9253 19.6203L33.8225 19.4212C33.8225 19.4212 33.7197 18.6249 34.3365 19.2221L34.7478 20.7152L35.159 20.8147C36.3928 20.2175 37.7293 20.2175 37.935 20.8147C38.2434 21.412 37.4209 22.3078 36.1872 22.9051C35.7759 23.1041 35.3647 23.2037 34.9534 23.3032C34.8506 23.3032 34.8506 23.3032 34.7478 23.3032C34.645 23.3032 34.4394 23.5023 34.2337 23.7014C34.1309 23.8009 34.0281 23.9005 34.0281 24L33 23.1041L33.2056 22.2083Z" fill="#EECAA6"/>
<path d="M35.4118 21.0447L34.5012 21.7529C34.5012 21.7529 34.4 21.8541 34.2988 21.8541C34.2988 21.8541 34.0965 21.7529 34.0965 21.6518C33.9953 21.5506 33.9953 21.5506 33.9953 21.4494C33.9953 21.4494 33.9953 21.2471 33.9953 21.1459C33.9953 21.0447 33.9953 20.8424 33.9953 20.8424C33.9953 20.64 34.0965 20.5388 34.1977 20.4376C34.2988 20.3365 35.0071 19.8306 35.1082 19.7294C35.2094 19.6282 35.4118 19.6282 35.7153 19.7294C35.7153 19.7294 35.9177 19.7294 35.9177 20.0329C35.9177 20.3365 35.9177 20.64 35.8165 20.7412C35.8165 20.8423 35.6141 20.9435 35.6141 20.9435L35.4118 21.0447Z" fill="url(#paint0_linear)"/>
<path d="M36.0188 19.7294C36.0188 19.7294 36.0188 19.7294 35.9176 19.7294C35.8165 19.7294 34.7035 20.64 34.7035 20.64L34.4 20.8423C34.4 20.9435 34.4 21.4494 34.4 21.4494C34.4 21.4494 34.4 21.7529 34.5012 21.7529C34.6023 21.7529 35.0071 21.4494 35.0071 21.4494L36.0188 20.64L36.12 20.5388C35.9176 20.5388 36.0188 19.7294 36.0188 19.7294Z" fill="#050000"/>
<path d="M35.8165 20.7412C35.8165 20.7412 35.9177 20.7412 36.0188 20.64C36.12 20.64 36.3224 20.7412 36.4235 20.8424C36.5247 20.9435 37.1318 21.2471 37.1318 21.2471C37.1318 21.2471 37.233 21.2471 37.233 21.3482C37.233 21.4494 37.233 21.6518 37.233 21.7529C37.233 21.8541 36.9294 22.0565 36.7271 22.2588C36.5247 22.4612 36.2212 22.7647 35.9177 22.9671C35.8165 23.0682 35.7153 22.9671 35.6141 22.8659C35.4118 22.7647 34.7035 22.2588 34.7035 22.2588C34.7035 22.2588 34.7035 22.2588 34.6024 22.1576C34.6024 22.0565 34.5012 21.9553 34.5012 21.9553C34.5012 21.9553 34.5012 21.8541 34.5012 21.7529C34.6024 21.6518 35.8165 20.7412 35.8165 20.7412Z" fill="#A6A0AF"/>
<path d="M35.9176 22.4612C35.9176 22.4612 35.8165 22.5624 35.6141 22.5624C35.5129 22.5624 34.8047 22.1576 34.8047 22.1576L34.5012 21.9553C34.5012 21.9553 34.4 21.8541 34.5012 21.8541C34.6024 21.8541 35.8165 20.8424 35.8165 20.8424C35.8165 20.8424 35.9176 20.7412 36.0188 20.8424C36.12 20.9435 36.4235 21.0447 36.4235 21.0447L36.9294 21.3482C36.9294 21.3482 36.9294 21.4494 36.8282 21.5506C36.9294 21.4494 35.9176 22.4612 35.9176 22.4612Z" fill="#050000"/>
<path d="M35.2094 20.5388C35.2094 20.5388 34.7035 20.9435 34.4 21.2471V21.1459C34.4 20.9435 34.4 20.8423 34.6023 20.7412C34.7035 20.64 35.2094 20.2353 35.2094 20.2353C35.2094 20.2353 35.3106 20.1341 35.5129 20.0329C35.5129 20.1341 35.5129 20.2353 35.5129 20.2353C35.4118 20.4376 35.3106 20.5388 35.2094 20.5388Z" fill="#5B5367"/>
<path d="M35.2094 20.5388C35.3106 20.4376 35.4118 20.4376 35.4118 20.2353C35.4118 20.1341 35.4118 20.0329 35.4118 20.0329C35.6141 19.8306 35.9176 19.7294 35.9176 19.7294C36.0188 19.7294 36.0188 19.8306 36.0188 19.9318C36.0188 20.0329 36.0188 20.5388 35.9176 20.64C35.9176 20.7412 35.1082 21.3482 34.9059 21.4494C34.7035 21.6518 34.5012 21.7529 34.5012 21.7529C34.5012 21.7529 34.5012 21.4494 34.4 21.2471C34.7035 21.0447 35.2094 20.64 35.2094 20.5388Z" fill="#736B82"/>
<path d="M36.4235 20.9435C36.4235 20.9435 36.4235 20.8424 36.4235 20.9435C36.3224 20.8424 36.12 20.64 36.0188 20.64C35.9177 20.64 35.7153 20.64 35.7153 20.7412C35.7153 20.8424 35.4118 21.0447 35.3106 21.0447C35.2094 21.0447 35.1083 21.2471 35.1083 21.2471C35.1083 21.2471 34.6024 21.6518 34.6024 21.7529V21.9553L34.8047 22.1576L34.9059 22.2588L35.0071 22.36" fill="url(#paint1_linear)"/>
<path d="M37.0306 21.3482V21.2471L36.5247 20.9435C36.5247 20.9435 36.5247 20.9435 36.4235 20.9435L36.0188 21.2471C36.0188 21.3482 35.6141 21.6518 35.5129 21.6518C35.4118 21.6518 35.3106 21.7529 35.3106 21.7529L35.0071 21.9553C35.0071 21.9553 35.0071 21.9553 35.0071 22.0565L35.1082 22.1576C35.1082 22.1576 35.3106 22.2588 35.4118 22.36C35.4118 22.36 35.6141 22.4612 35.7153 22.4612C35.8165 22.4612 35.9177 22.36 35.9177 22.36L36.7271 21.6518L37.0306 21.3482Z" fill="url(#paint2_linear)"/>
<path d="M35.4118 21.4494C35.3106 21.5506 35.2094 21.6518 35.0071 21.7529C35.0071 21.7529 35.0071 21.6518 35.1082 21.4494C35.2094 21.3482 35.6141 20.9435 35.8165 20.8423C35.8165 20.8423 35.7153 20.9435 35.7153 21.0447C35.6141 21.1459 35.5129 21.3482 35.4118 21.4494Z" fill="url(#paint3_linear)"/>
<path d="M35.3106 21.9553L35.4118 21.8541V21.7529L35.5129 21.6518L35.6141 21.5506L35.7153 21.4494V21.3482H35.8165L35.9176 21.2471V21.1459C35.9176 21.2471 35.9176 21.5506 35.9176 21.5506C35.9176 21.6518 35.8165 21.8541 35.8165 21.8541C35.8165 21.8541 35.7153 21.9553 35.3106 21.9553Z" fill="url(#paint4_linear)"/>
<path d="M35.0071 21.8541V21.6518C35.1082 21.6518 35.2094 21.4494 35.4118 21.3482C35.5129 21.2471 35.7153 21.0447 35.8165 20.9435C35.9177 20.8424 35.9177 20.8423 35.9177 20.7412H36.0188H36.12V20.8423C36.12 20.8423 36.12 20.8424 36.12 20.9435V21.0447V21.1459V21.2471L36.0188 21.3482V21.4494V21.5506H35.9177L35.8165 21.6518L35.4118 21.8541H35.3106H35.2094H35.3106H35.2094C35.2094 21.9553 35.1082 21.9553 35.0071 21.8541Z" fill="url(#paint5_linear)"/>
<path d="M35.3106 21.9553V21.8541H35.4118V21.7529H35.5129L35.6141 21.6518L35.7153 21.5506L35.6141 21.6518L35.5129 21.7529H35.4118V21.8541H35.3106V21.9553H35.2094H35.3106Z" fill="url(#paint6_linear)"/>
<path d="M36.0188 21.7529L36.12 21.5506H35.9176V21.6518V21.7529" fill="url(#paint7_linear)"/>
<path d="M35.9177 21.7529V21.8541H35.6141V21.7529L35.9177 21.6518" fill="url(#paint8_linear)"/>
<path opacity="0.3" d="M35.1082 21.6518L35.2094 21.8541V21.9553L35.1082 21.8541H35.2094L35.0071 21.6518" fill="white"/>
<path d="M36.0188 21.0447H36.12V20.9435" fill="#333A94"/>
<path d="M7.99297 20.4377C7.99297 20.4377 8.49885 20.3365 8.7012 20.2353L7.79061 20.1341L6.9812 19.7294C7.08238 19.8306 7.28473 20.1341 7.38591 20.2353C7.38591 20.2353 7.89179 20.3365 7.99297 20.4377Z" fill="url(#paint9_linear)"/>
<path d="M8.7012 20.2353C8.49884 20.3365 7.99296 20.4377 7.99296 20.4377C7.89178 20.3365 7.3859 20.2353 7.3859 20.2353C7.28472 20.1341 7.08237 19.8306 6.9812 19.7294C6.9812 19.7294 6.37414 19.9318 6.17178 20.4377C6.27296 20.5388 6.88002 20.8424 6.9812 20.9435C6.9812 20.9435 7.28472 20.8424 7.58825 20.9435C7.79061 20.9435 7.99296 21.2471 7.99296 21.2471H8.90355C9.00473 20.7412 8.7012 20.2353 8.7012 20.2353Z" fill="url(#paint10_linear)"/>
<path d="M7.68943 20.0329C7.58826 20.0329 7.48708 19.9318 7.38591 19.9318V20.0329L7.28473 20.1341C7.28473 20.1341 7.28473 20.2353 7.38591 20.2353L7.99296 20.4376H8.09414L7.99296 20.3365C7.99296 20.2353 7.99296 20.2353 7.99296 20.2353C7.99296 20.1341 7.89179 20.1341 7.68943 20.0329Z" fill="url(#paint11_linear)"/>
<path d="M8.39767 19.6282L8.09414 19.4259L7.68943 19.3247H7.48708C7.48708 19.3247 7.28473 19.4259 7.28473 19.5271C7.28473 19.5271 7.28473 19.6282 7.28473 19.7294L7.38591 19.9318C7.48708 19.9318 7.58826 20.0329 7.68943 20.0329C7.79061 20.0329 7.89179 20.1341 7.99296 20.1341C7.99296 20.1341 8.09414 20.1341 8.19532 20.0329C8.29649 19.9318 8.39767 19.8306 8.39767 19.8306V19.6282Z" fill="url(#paint12_linear)"/>
<path d="M7.99295 21.2471C7.99295 21.2471 7.7906 20.9435 7.48707 20.8424C7.18354 20.7412 6.88001 20.8424 6.88001 20.8424C6.77884 20.8424 6.27295 20.4376 6.0706 20.3365V20.4376C5.86825 21.0447 6.0706 22.0565 6.0706 22.0565C6.0706 22.0565 6.27295 22.2588 6.88001 22.4612C7.48707 22.6635 7.7906 22.6635 7.7906 22.6635C7.7906 22.6635 8.39766 22.2588 8.70119 21.5506C8.70119 21.4494 8.80237 21.3482 8.80237 21.3482L7.99295 21.2471Z" fill="url(#paint13_linear)"/>
<path d="M7.18355 20.0329C7.18355 20.0329 6.77885 20.3365 6.77885 20.4376C6.77885 20.4376 6.37414 20.3365 6.27296 20.1341C6.27296 20.1341 6.77885 19.6282 6.88002 19.6282L7.18355 20.0329Z" fill="white"/>
<path d="M8.29649 20.4376C8.29649 20.4376 8.49885 20.7412 8.39767 21.1459H8.60002H8.49885C8.49885 21.1459 8.80238 21.2471 8.90355 21.1459C8.90355 21.1459 8.90355 20.64 8.80238 20.3365C8.7012 20.3365 8.60002 20.4376 8.29649 20.4376Z" fill="url(#paint14_linear)"/>
<path d="M6.17178 22.0565V21.9553C6.17178 21.9553 6.47531 21.9553 6.67767 22.0565C6.88002 22.1576 7.58825 22.36 7.99296 22.5623L7.89178 22.6635C7.79061 22.5623 6.77884 22.4612 6.17178 22.0565Z" fill="white"/>
<path d="M6.07061 20.4376C6.07061 20.4376 5.86825 21.0447 6.17178 22.0565C6.17178 22.0565 6.27296 22.1576 6.37414 22.2588C6.37414 22.2588 6.07061 22.0565 6.17178 21.9553C6.27296 21.9553 5.96943 21.1459 6.07061 20.4376Z" fill="url(#paint15_linear)"/>
<path d="M8.80236 21.2471C8.80236 21.2471 8.70118 21.8541 7.89177 22.5624C7.89177 22.5624 7.79059 22.5624 7.58824 22.5624C7.58824 22.5624 7.99295 22.5624 7.89177 22.4612C7.89177 22.4612 8.60001 21.8541 8.80236 21.2471Z" fill="url(#paint16_linear)"/>
<path d="M7.48708 19.9318L7.58826 20.0329C7.58826 20.0329 7.48708 20.2353 7.38591 20.2353C7.38591 20.2353 7.28473 20.2353 7.28473 20.1341H7.38591C7.38591 20.0329 7.48708 19.9318 7.48708 19.9318Z" fill="url(#paint17_linear)"/>
<path opacity="0.5" d="M7.58824 19.7294L8.09412 19.8306V19.6282L7.68942 19.5271L7.58824 19.7294Z" fill="white"/>
<path opacity="0.5" d="M7.38591 19.5271L7.58826 19.4259L7.48708 19.3247L7.28473 19.4259L7.38591 19.5271Z" fill="white"/>
<path opacity="0.5" d="M8.09413 19.6282H8.29648L8.39766 19.8306H8.09413V19.6282Z" fill="url(#paint18_linear)"/>
<path d="M7.58826 19.7294L7.48708 19.6282L7.28473 19.4259V19.6282L7.38591 19.9318H7.48708L7.58826 20.0329L7.48708 19.8306L7.58826 19.7294Z" fill="url(#paint19_linear)"/>
<path d="M8.09415 19.8306L8.19533 20.0329L7.8918 20.1341H7.99298L8.29651 20.0329L8.39768 19.8306H8.09415Z" fill="url(#paint20_linear)"/>
<path opacity="0.5" d="M8.09413 19.8306H7.7906L7.58825 19.7294L7.48708 19.8306L7.58825 20.0329H7.68943L7.89178 20.1341L8.19531 20.0329L8.09413 19.8306Z" fill="url(#paint21_linear)"/>
<defs>
<linearGradient id="paint0_linear" x1="35.256" y1="20.9896" x2="34.6495" y2="19.8496" gradientUnits="userSpaceOnUse">
<stop stop-color="#292543"/>
<stop offset="1" stop-color="#A6A0AF"/>
</linearGradient>
<linearGradient id="paint1_linear" x1="35.7339" y1="21.6635" x2="35.1694" y2="21.0076" gradientUnits="userSpaceOnUse">
<stop stop-color="#292543"/>
<stop offset="1" stop-color="#A6A0AF"/>
</linearGradient>
<linearGradient id="paint2_linear" x1="35.724" y1="21.1669" x2="36.3171" y2="22.2386" gradientUnits="userSpaceOnUse">
<stop stop-color="#292543"/>
<stop offset="1" stop-color="#A6A0AF"/>
</linearGradient>
<linearGradient id="paint3_linear" x1="35.3127" y1="21.3694" x2="35.8048" y2="20.8809" gradientUnits="userSpaceOnUse">
<stop stop-color="#5C72B6"/>
<stop offset="0.1839" stop-color="#607FBF"/>
<stop offset="0.558" stop-color="#6AA1D7"/>
<stop offset="1" stop-color="#7BCDF4"/>
</linearGradient>
<linearGradient id="paint4_linear" x1="35.7176" y1="21.5404" x2="35.9956" y2="21.8205" gradientUnits="userSpaceOnUse">
<stop stop-color="#5C72B6"/>
<stop offset="0.0967167" stop-color="#5061A7"/>
<stop offset="0.2921" stop-color="#323B83"/>
<stop offset="0.4719" stop-color="#171A67"/>
<stop offset="1" stop-color="#B3E0F8"/>
</linearGradient>
<linearGradient id="paint5_linear" x1="35.5572" y1="21.3867" x2="35.7714" y2="21.7892" gradientUnits="userSpaceOnUse">
<stop stop-color="#5C72B6"/>
<stop offset="0.2049" stop-color="#5061A7"/>
<stop offset="0.619" stop-color="#323B83"/>
<stop offset="1" stop-color="#171A67"/>
</linearGradient>
<linearGradient id="paint6_linear" x1="35.4326" y1="21.7551" x2="35.4779" y2="21.8007" gradientUnits="userSpaceOnUse">
<stop stop-color="#5C72B6"/>
<stop offset="0.2049" stop-color="#5061A7"/>
<stop offset="0.619" stop-color="#323B83"/>
<stop offset="1" stop-color="#171A67"/>
</linearGradient>
<linearGradient id="paint7_linear" x1="36.1009" y1="21.5828" x2="35.9375" y2="21.7018" gradientUnits="userSpaceOnUse">
<stop stop-color="#5C72B6"/>
<stop offset="0.1168" stop-color="#586BA7"/>
<stop offset="0.3546" stop-color="#4A567F"/>
<stop offset="0.6884" stop-color="#2D3242"/>
<stop offset="1" stop-color="#050000"/>
</linearGradient>
<linearGradient id="paint8_linear" x1="35.9416" y1="21.6909" x2="35.657" y2="21.8983" gradientUnits="userSpaceOnUse">
<stop stop-color="#5C72B6"/>
<stop offset="0.1168" stop-color="#586BA7"/>
<stop offset="0.3546" stop-color="#4A567F"/>
<stop offset="0.6884" stop-color="#2D3242"/>
<stop offset="1" stop-color="#050000"/>
</linearGradient>
<linearGradient id="paint9_linear" x1="7.72773" y1="20.1489" x2="7.77532" y2="19.9911" gradientUnits="userSpaceOnUse">
<stop stop-color="#7E5011"/>
<stop offset="1" stop-color="#BF6313"/>
</linearGradient>
<linearGradient id="paint10_linear" x1="7.43655" y1="21.0518" x2="7.56681" y2="20.2459" gradientUnits="userSpaceOnUse">
<stop stop-color="#700205"/>
<stop offset="1" stop-color="#C71019"/>
</linearGradient>
<linearGradient id="paint11_linear" x1="7.84158" y1="20.201" x2="7.50342" y2="20.099" gradientUnits="userSpaceOnUse">
<stop stop-color="#DE3A12"/>
<stop offset="1" stop-color="#EDCA00"/>
</linearGradient>
<linearGradient id="paint12_linear" x1="7.75762" y1="19.979" x2="7.92776" y2="19.4148" gradientUnits="userSpaceOnUse">
<stop stop-color="#DE3A12"/>
<stop offset="1" stop-color="#EDCA00"/>
</linearGradient>
<linearGradient id="paint13_linear" x1="5.80731" y1="21.2065" x2="8.64627" y2="22.0626" gradientUnits="userSpaceOnUse">
<stop stop-color="#F7AF07"/>
<stop offset="1" stop-color="#FFE800"/>
</linearGradient>
<linearGradient id="paint14_linear" x1="9.09768" y1="20.8081" x2="8.07964" y2="20.8031" gradientUnits="userSpaceOnUse">
<stop stop-color="white"/>
<stop offset="1" stop-color="#BF6313"/>
</linearGradient>
<linearGradient id="paint15_linear" x1="6.1273" y1="22.063" x2="6.28709" y2="21.075" gradientUnits="userSpaceOnUse">
<stop stop-color="#DE3A12"/>
<stop offset="1" stop-color="#E87300"/>
</linearGradient>
<linearGradient id="paint16_linear" x1="7.9344" y1="22.6212" x2="8.33781" y2="21.7309" gradientUnits="userSpaceOnUse">
<stop stop-color="#DE3A12"/>
<stop offset="1" stop-color="#E87300"/>
</linearGradient>
<linearGradient id="paint17_linear" x1="7.40659" y1="20.1818" x2="7.42805" y2="20.0493" gradientUnits="userSpaceOnUse">
<stop stop-color="#7E5011"/>
<stop offset="1" stop-color="#BF6313"/>
</linearGradient>
<linearGradient id="paint18_linear" x1="8.21256" y1="19.8415" x2="8.27025" y2="19.6502" gradientUnits="userSpaceOnUse">
<stop stop-color="#DE3A12"/>
<stop offset="1" stop-color="#EDCA00"/>
</linearGradient>
<linearGradient id="paint19_linear" x1="7.39734" y1="19.8827" x2="7.49558" y2="19.557" gradientUnits="userSpaceOnUse">
<stop stop-color="#DE3A12"/>
<stop offset="1" stop-color="#EDCA00"/>
</linearGradient>
<linearGradient id="paint20_linear" x1="8.13161" y1="20.1388" x2="8.22917" y2="19.8153" gradientUnits="userSpaceOnUse">
<stop stop-color="#DE3A12"/>
<stop offset="1" stop-color="#EDCA00"/>
</linearGradient>
<linearGradient id="paint21_linear" x1="7.7748" y1="20.0257" x2="7.8806" y2="19.6749" gradientUnits="userSpaceOnUse">
<stop stop-color="#DE3A12"/>
<stop offset="1" stop-color="#EDCA00"/>
</linearGradient>
</defs>
</svg>
