<svg width="43" height="43" viewBox="0 0 43 43" fill="none" xmlns="http://www.w3.org/2000/svg">
<path d="M43 0H0V43H43V0Z" fill="#E9E9ED"/>
<path d="M17.8071 27.1153C17.8071 27.1153 17.8071 28.2282 16.6941 28.7341C15.5812 29.24 14.9741 29.6447 14.9741 29.6447C14.9741 29.6447 13.9624 29.7459 13.8612 30.7576L13.76 31.2635H24.6871C24.6871 31.2635 24.5859 29.9482 23.9788 29.7459C23.9788 29.7459 21.4494 28.7341 21.0447 28.2282C21.0447 28.2282 20.64 27.4188 20.7412 27.0141L17.7059 26.9129L17.8071 27.1153Z" fill="#CC9711"/>
<path d="M17.8071 26.8118C17.8071 26.8118 17.8071 27.52 17.6047 27.8235C17.4024 28.1271 17.6047 27.8235 17.6047 27.8235C17.6047 27.8235 19.2235 28.8353 20.9435 27.8235C20.9435 27.8235 20.7412 27.3176 20.7412 26.9129L17.8071 26.8118Z" fill="#F1D6AC"/>
<path d="M22.0565 25.5976C22.4612 25.0918 22.7647 24.3835 22.7647 23.5741C22.7647 21.7529 21.3482 20.3365 19.5271 20.3365C17.7059 20.3365 16.2894 21.7529 16.2894 23.5741C16.2894 24.2824 16.4918 24.8894 16.7953 25.3953C16.8965 25.4965 18.2118 27.52 18.7177 27.7224C19.2235 28.0259 20.2353 27.7224 20.2353 27.7224C20.2353 27.7224 21.6518 26.3059 21.8541 25.6988C21.9553 25.6988 22.0565 25.6988 22.0565 25.5976Z" fill="#F1D6AC"/>
<path d="M21.9553 21.3482C21.7529 21.1459 21.5506 20.9435 21.3482 20.7412C21.1459 19.6282 20.0329 19.2235 19.7294 19.3247C18.1106 19.4259 17.9082 20.5388 17.8071 20.7412C17.3012 21.0447 16.8965 21.4494 16.6941 21.7529C16.0871 22.8659 15.7835 24.5859 17.2 25.9012C17.2 25.9012 16.9976 24.6871 17.2 24.2824V23.3718C17.2 23.3718 17.4024 22.0565 18.0094 21.4494C18.0094 21.4494 19.0212 22.7647 20.1341 22.6635C20.1341 22.6635 20.7412 22.6635 21.1459 22.7647C21.1459 22.7647 21.6518 23.1694 21.7529 24.2824C21.8541 25.4965 21.9553 25.4965 21.8541 25.8C21.8541 25.9012 23.8777 23.5741 21.9553 21.3482Z" fill="#3A3730"/>
<path d="M17.6047 27.9247C17.6047 27.9247 19.1224 29.0377 20.9435 28.0259H21.0447C21.0447 28.0259 21.0447 28.3294 21.4494 28.5318C21.8541 28.7341 21.9553 28.8353 21.9553 28.8353C21.9553 28.8353 21.1459 30.0494 20.5388 29.9482C19.9318 29.8471 19.5271 29.0377 19.3247 28.5318C19.3247 28.5318 18.6165 30.0494 18.0094 29.9482C17.4024 29.8471 16.6941 28.9365 16.6941 28.8353C16.6941 28.7341 17.5035 28.3294 17.6047 27.9247Z" fill="#280206"/>
<path d="M29.5435 35.3106C29.5435 35.3106 29.5435 36.4235 28.4306 36.9294C27.3176 37.4353 26.7106 37.84 26.7106 37.84C26.7106 37.84 25.6988 37.9412 25.5976 38.9529V39.4588H36.5247C36.5247 39.4588 36.4235 38.1435 35.8165 37.9412C35.8165 37.9412 33.2871 36.9294 32.8824 36.4235C32.8824 36.4235 32.4777 35.6141 32.5788 35.2094L29.5435 35.1082V35.3106Z" fill="#40474B"/>
<path d="M33.5906 33.7929C33.9953 33.2871 34.2988 32.5788 34.2988 31.7694C34.2988 29.9482 32.8824 28.5318 31.0612 28.5318C29.24 28.5318 27.8235 29.9482 27.8235 31.7694C27.8235 32.4776 28.0259 33.0847 28.3294 33.5906C28.4306 33.6918 29.7459 35.7153 30.2518 35.9176C30.7576 36.2212 31.7694 35.9176 31.7694 35.9176C31.7694 35.9176 33.1859 34.5012 33.3882 33.8941C33.4894 33.9953 33.4894 33.8941 33.5906 33.7929Z" fill="#F1D6AC"/>
<path d="M33.3882 29.6447C33.1859 29.4424 32.9835 29.24 32.7812 29.0376C32.5788 27.9247 31.4659 27.52 31.1624 27.6212C29.5435 27.7224 29.3412 28.8353 29.24 29.0376C28.7341 29.3412 28.3294 29.7459 28.1271 30.0494C27.52 31.1624 27.2165 32.8824 28.6329 34.1976C28.6329 34.1976 28.4306 32.9835 28.6329 32.5788V31.6682C28.6329 31.6682 28.8353 30.3529 29.4424 29.7459C29.4424 29.7459 30.4541 31.0612 31.5671 30.96C31.5671 30.96 32.1741 30.96 32.5788 31.0612C32.5788 31.0612 33.0847 31.4659 33.1859 32.5788C33.2871 33.7929 33.3882 33.7929 33.2871 34.0965C33.3882 34.0965 35.4118 31.7694 33.3882 29.6447Z" fill="#510C0E"/>
<path d="M29.3412 36.12C29.3412 36.12 30.8588 37.2329 32.68 36.2212H32.7812C32.7812 36.2212 32.7812 36.5247 33.1859 36.7271C33.4894 36.9294 33.6918 37.0306 33.6918 37.0306C33.6918 37.0306 32.8824 38.2447 32.2753 38.1435C31.7694 38.0424 31.2635 37.2329 31.0612 36.7271C31.0612 36.7271 30.3529 38.2447 29.7459 38.1435C29.1388 38.0424 28.4306 37.1318 28.4306 37.0306C28.3294 36.9294 29.1388 36.5247 29.3412 36.12Z" fill="#19ADC7"/>
<path d="M29.5435 35.3106C29.5435 35.3106 29.4424 35.9176 29.3412 36.12C29.24 36.2212 31.2635 37.2329 32.68 36.12C32.68 36.12 32.3765 35.5129 32.5788 35.1082H29.5435C29.5435 35.1082 29.5435 35.2094 29.5435 35.3106Z" fill="#F1D6AC"/>
<path d="M27.9247 15.9859C27.9247 15.9859 27.8235 16.7953 27.3176 17.3012C27.3176 17.3012 27.6212 18.4141 29.3412 18.6165C30.5553 18.6165 31.3647 17.6047 31.3647 17.3012C31.3647 17.3012 30.6565 16.4918 30.7576 16.0871L27.9247 15.9859Z" fill="#F2CEA1"/>
<path d="M31.7694 14.6706C31.7694 14.6706 31.9718 16.8965 32.68 17.8071C32.68 17.8071 30.96 17.5035 30.8588 15.9859H28.0259C28.0259 15.9859 28.0259 17.5035 26.3059 17.8071C26.3059 17.8071 27.3176 15.48 27.1153 14.8729C27.0141 14.8729 26.7106 14.1647 26.6094 13.3553C26.5082 12.6471 26.6094 11.0282 26.9129 10.6235C27.2165 10.2188 27.52 9.40941 28.5318 9.30823C29.5435 9.20705 31.1624 9.10588 31.8706 10.4212C32.5788 11.7365 32.1741 14.2659 31.7694 14.6706Z" fill="black"/>
<path d="M31.6682 12.4447C31.5671 11.4329 30.96 11.3318 30.8588 11.4329C30.6565 11.6353 29.0376 11.9388 28.1271 11.4329C27.2165 10.9271 27.3176 11.5341 27.1153 11.8376C26.9129 12.1412 27.0141 13.9623 27.0141 13.9623V14.1647C27.1153 15.2776 28.3294 16.5929 29.3412 16.5929C30.5553 16.5929 31.5671 15.3788 31.5671 14.2659C31.5671 14.3671 31.7694 13.4565 31.6682 12.4447Z" fill="#F2CEA1"/>
<path d="M27.3176 17.3012C27.3176 17.3012 26.5082 17.9082 25.4965 18.0094C25.0918 18.1106 24.1812 18.4141 24.08 19.1224V19.6282H34.7035V18.92C34.7035 18.92 34.6024 18.1106 33.1859 17.9082C31.7694 17.7059 31.4659 17.2 31.4659 17.2C31.4659 17.2 30.6565 18.7176 29.24 18.5153C27.8235 18.3129 27.6212 17.9082 27.3176 17.3012Z" fill="#972489"/>
<path d="M27.3177 17.3012C27.3177 17.3012 27.8235 18.5153 29.3412 18.5153C30.96 18.6165 31.4659 17.2 31.4659 17.2L31.8706 17.5035C31.8706 17.5035 31.1624 19.3247 29.3412 19.0212C27.52 18.7176 27.2165 17.9082 27.0141 17.5035L27.3177 17.3012Z" fill="#D86FA7"/>
<path d="M8.1953 35.6141C8.1953 35.6141 8.09412 36.4235 7.58824 36.9294C7.58824 36.9294 7.89177 38.0424 9.61177 38.2447C10.8259 38.2447 11.6353 37.2329 11.6353 36.9294C11.6353 36.9294 10.9271 36.12 11.0282 35.7153L8.1953 35.6141Z" fill="#F2CEA1"/>
<path d="M12.04 34.4C12.04 34.4 12.2424 36.6259 12.9506 37.5365C12.9506 37.5365 11.2306 37.2329 11.1294 35.7153H8.29648C8.29648 35.7153 8.29648 37.2329 6.57648 37.5365C6.57648 37.5365 7.58824 35.2094 7.38589 34.6024C7.28471 34.6024 6.98118 33.8941 6.88001 33.0847C6.77883 32.3765 6.88001 30.7576 7.18354 30.3529C7.48707 29.9482 7.79059 29.1388 8.80236 29.0376C9.81412 28.9365 11.4329 28.8353 12.1412 30.1506C12.8494 31.4659 12.4447 33.9953 12.04 34.4Z" fill="#7F4F21"/>
<path d="M11.9388 32.0729C11.8377 31.0612 11.2306 30.96 11.1294 31.0612C10.9271 31.2635 9.30824 31.5671 8.39765 31.0612C7.48706 30.5553 7.58824 31.1624 7.38589 31.4659C7.18353 31.7694 7.28471 33.5906 7.28471 33.5906V33.7929C7.38589 34.9059 8.6 36.2212 9.61177 36.2212C10.8259 36.2212 11.8376 35.0071 11.8376 33.8941C11.8376 33.9953 12.04 33.0847 11.9388 32.0729Z" fill="#F2CEA1"/>
<path d="M7.48707 36.9294C7.48707 36.9294 6.67766 37.5365 5.66589 37.6376C5.26119 37.7388 4.3506 38.0424 4.24942 38.7506V39.2565H14.873V38.5482C14.873 38.5482 14.7718 37.7388 13.3553 37.5365C11.9388 37.3341 11.6353 36.8282 11.6353 36.8282C11.6353 36.8282 10.8259 38.3459 9.40942 38.1435C7.99295 37.9412 7.89177 37.5365 7.48707 36.9294Z" fill="#741F1B"/>
<path d="M7.58824 36.9294C7.58824 36.9294 8.09413 38.1435 9.61177 38.1435C11.1294 38.1435 11.7365 36.8282 11.7365 36.8282L12.1412 37.1318C12.1412 37.1318 11.4329 38.9529 9.61177 38.6494C7.7906 38.4471 7.48707 37.5365 7.28471 37.1318L7.58824 36.9294Z" fill="#EB6155"/>
<path d="M6.98118 16.4918L6.77883 17.3012C6.77883 17.3012 7.99295 18.1106 8.49883 18.2118C9.00471 18.2118 10.1177 17.5035 10.2188 17.3012C10.2188 17.3012 10.0165 16.6941 10.0165 16.4918C10.1177 16.4918 8.70118 18.4141 6.98118 16.4918Z" fill="#F3D7AD"/>
<path d="M6.77883 17.3012L5.76707 17.7059C5.76707 17.7059 6.4753 19.4259 7.68942 19.6282C7.68942 19.6282 8.1953 19.6282 8.60001 18.3129C8.60001 18.3129 9.10589 19.4259 9.40942 19.6282C9.71295 19.8306 11.3318 19.0212 11.4329 17.7059C11.4329 17.7059 10.4212 17.3012 10.4212 17.2C10.4212 17.2 9.20707 18.3129 8.70119 18.1106C7.99295 18.0094 7.08236 17.6047 6.77883 17.3012Z" fill="#00A0E9"/>
<path d="M6.57647 15.1765C6.57647 15.1765 6.27294 14.5694 6.17177 13.6588C6.07059 12.7482 6.17177 11.4329 6.17177 11.4329C6.17177 11.4329 6.4753 10.32 8.29647 10.4212C10.1176 10.5224 10.32 10.5224 10.8259 11.2306C11.1294 11.7365 10.8259 14.3671 10.8259 14.3671C10.8259 14.3671 10.6235 15.0753 10.4212 15.2776C10.2188 15.48 6.57647 15.2776 6.57647 15.1765Z" fill="#40220F"/>
<path d="M10.5224 12.9506C10.5224 12.04 9.40941 12.5459 9.40941 12.5459C9.40941 12.5459 8.39765 12.7482 7.58824 12.5459C6.4753 12.1412 6.4753 12.9506 6.4753 12.9506C6.37412 13.1529 6.4753 15.1765 6.4753 15.1765L6.57647 15.8847C6.67765 16.7953 7.48706 17.5035 8.39765 17.5035C9.40941 17.5035 10.2188 16.6941 10.2188 15.7835C10.2188 15.7835 10.2188 15.7835 10.2188 15.6824C10.5224 15.1765 10.5224 13.8612 10.5224 12.9506Z" fill="#F3D7AD"/>
<path d="M5.66588 17.8071C5.66588 17.8071 4.65412 18.3129 4.04706 18.4141C3.44 18.5153 3.44 19.5271 3.44 19.9318C3.44 19.8306 13.5577 19.9318 13.5577 19.9318V19.2235C13.5577 19.2235 13.5576 18.5153 12.9506 18.4141C12.3435 18.3129 11.2306 17.8071 11.2306 17.8071C11.2306 17.8071 10.6235 19.4259 9.30824 19.5271C9.30824 19.5271 9.10589 19.5271 8.90353 19.0212C8.6 18.5153 8.49883 18.2118 8.49883 18.2118C8.49883 18.2118 8.1953 19.5271 7.58824 19.5271C6.98118 19.5271 6.27294 18.6165 6.07059 18.4141C5.86824 18.1106 5.76706 17.8071 5.66588 17.8071Z" fill="black"/>
<path d="M29.0377 21.0447C32.4462 21.0447 35.2094 18.3268 35.2094 14.9741C35.2094 11.6214 32.4462 8.90353 29.0377 8.90353C25.6291 8.90353 22.8659 11.6214 22.8659 14.9741C22.8659 18.3268 25.6291 21.0447 29.0377 21.0447Z" fill="url(#paint0_radial)"/>
<path d="M29.0377 22.36C32.8932 22.36 36.0188 19.1438 36.0188 15.1765C36.0188 11.2091 32.8932 7.99294 29.0377 7.99294C25.1821 7.99294 22.0565 11.2091 22.0565 15.1765C22.0565 19.1438 25.1821 22.36 29.0377 22.36Z" stroke="#7A7A7A" stroke-miterlimit="10"/>
<path d="M29.0377 8.39765C25.3953 8.39765 22.36 11.4329 22.36 15.1765C22.36 18.92 25.2941 21.9553 29.0377 21.9553C32.7812 21.9553 35.7153 18.92 35.7153 15.1765C35.7153 11.4329 32.7812 8.39765 29.0377 8.39765ZM29.0377 21.0447C25.6988 21.0447 22.9671 18.3129 22.9671 14.9741C22.9671 11.6353 25.6988 8.90353 29.0377 8.90353C32.3765 8.90353 35.1082 11.6353 35.1082 14.9741C35.1082 18.3129 32.3765 21.0447 29.0377 21.0447Z" fill="#3E3A39"/>
<path d="M36.2212 21.3482L35.3106 22.1577L33.5906 20.2353L34.5012 19.4259L36.2212 21.3482Z" fill="url(#paint1_linear)"/>
<path d="M41.5835 26.4071L40.2682 27.7224L35.1082 22.4612L36.4235 21.1459L41.5835 26.4071Z" fill="url(#paint2_linear)"/>
<path d="M21.5508 8C12.9115 8 6 14.9115 6 23.4492C6 31.9869 12.9115 39 21.4492 39C29.9869 39 37 32.0885 37 23.4492C37 14.8098 30.0885 8 21.5508 8ZM21.5508 10.541C25.2098 10.541 28.4623 12.0656 30.8 14.5049L9.96393 29.0393C9.15082 27.4131 8.64262 25.482 8.64262 23.4492C8.64262 16.3344 14.4361 10.541 21.5508 10.541ZM21.5508 36.3574C17.6885 36.3574 14.2328 34.6295 11.8951 31.9869L32.9344 17.3508C33.8492 19.1803 34.459 21.2131 34.459 23.4492C34.459 30.5639 28.6656 36.3574 21.5508 36.3574Z" fill="#E60012"/>
<path d="M17.7656 4.88916L17.5996 5.104C16.8525 4.50993 16.208 4.07373 15.666 3.79541V6.28076H15.3853V3.46582C14.9132 4.02897 14.2785 4.5734 13.481 5.09912L13.3052 4.86963C14.5324 4.13721 15.3657 3.27051 15.8052 2.26953H13.4053V2.00098H17.6558V2.26953H16.1104C15.9899 2.52832 15.8418 2.80013 15.666 3.08496V3.48535C16.5986 4.02572 17.2985 4.49365 17.7656 4.88916ZM22.4604 5.89502C22.4604 6.03011 22.4116 6.12451 22.314 6.17822C22.2179 6.23193 22.0007 6.25879 21.6621 6.25879C21.5856 6.25879 21.5116 6.25716 21.4399 6.25391L21.3594 5.98047C21.4831 5.99023 21.6035 5.99512 21.7207 5.99512C21.9583 5.99512 22.0967 5.98535 22.1357 5.96582C22.1748 5.94629 22.1943 5.91455 22.1943 5.87061V4.66455H20.7808V6.12939H20.5098V4.66455H19.084C19.0042 5.34977 18.8325 5.87467 18.5688 6.23926L18.3345 6.07568C18.6714 5.57764 18.8398 4.97705 18.8398 4.27393V1.979H22.4604V5.89502ZM22.1943 3.16064V2.25H20.7808V3.16064H22.1943ZM20.5098 3.16064V2.25H19.1108V3.16064H20.5098ZM22.1943 4.40576V3.43408H20.7808V4.40576H22.1943ZM20.5098 4.40576V3.43408H19.1108V4.40576H20.5098Z" fill="#E60012"/>
<path d="M26.752 5.35547C26.7194 5.61068 26.6641 5.81641 26.5859 5.97266C26.5078 6.12891 26.4036 6.20703 26.2734 6.20703C26.0104 6.20703 25.7643 5.92448 25.5352 5.35938C25.237 5.5638 24.9023 5.74805 24.5312 5.91211L24.3848 5.73242C24.8262 5.55664 25.1888 5.36328 25.4727 5.15234C25.3802 4.76693 25.3216 4.4043 25.2969 4.06445L24.5723 4.15234L24.5566 3.93945L25.2793 3.85547C25.248 3.52865 25.2324 3.2207 25.2324 2.93164C25.2324 2.85091 25.2337 2.77214 25.2363 2.69531H25.4473C25.4447 2.77604 25.4434 2.86003 25.4434 2.94727C25.4434 3.21159 25.4557 3.50391 25.4805 3.82422L26.6992 3.67578L26.7207 3.87695L25.4961 4.02734C25.5195 4.35547 25.5716 4.6875 25.6523 5.02344C25.9401 4.77995 26.1999 4.48958 26.4316 4.15234L26.6035 4.27539C26.3184 4.67122 26.0228 4.98893 25.7168 5.22852C25.8092 5.48503 25.9082 5.67448 26.0137 5.79688C26.1191 5.91927 26.2018 5.98047 26.2617 5.98047C26.3021 5.98047 26.3366 5.96745 26.3652 5.94141C26.3952 5.91536 26.429 5.83073 26.4668 5.6875C26.5059 5.54427 26.5358 5.39648 26.5566 5.24414L26.752 5.35547ZM24.6953 4.52734C24.5339 4.60026 24.3431 4.67383 24.123 4.74805V5.91211C24.123 5.99023 24.1009 6.05729 24.0566 6.11328C24.0137 6.16927 23.8978 6.19727 23.709 6.19727C23.653 6.19727 23.5794 6.19531 23.4883 6.19141L23.4121 5.98047C23.6582 5.98568 23.804 5.98503 23.8496 5.97852C23.8965 5.9707 23.9199 5.94596 23.9199 5.9043V4.8125C23.7832 4.86458 23.5846 4.92448 23.3242 4.99219L23.252 4.78711C23.4941 4.73112 23.7168 4.66992 23.9199 4.60352V3.60352H23.2832V3.40039H23.9199V2.69531H24.123V3.40039H24.6484V3.60352H24.123V4.53125C24.3053 4.46745 24.4792 4.40104 24.6445 4.33203L24.6953 4.52734ZM26.4551 3.37109L26.2793 3.50781C26.123 3.29297 25.9525 3.11589 25.7676 2.97656L25.9316 2.84375C26.1452 3.0026 26.3197 3.17839 26.4551 3.37109ZM30.7676 6.04492L30.6113 6.20312C29.7793 5.61719 29.2448 4.81185 29.0078 3.78711C28.8385 4.72201 28.3079 5.52474 27.416 6.19531L27.2715 6.02344C27.5749 5.81641 27.8522 5.55729 28.1035 5.24609C28.3548 4.9349 28.5462 4.59245 28.6777 4.21875C28.8092 3.84375 28.8796 3.33724 28.8887 2.69922H29.1113C29.1035 3.4375 29.2507 4.0918 29.5527 4.66211C29.8548 5.23112 30.2598 5.69206 30.7676 6.04492Z" fill="black"/>
<defs>
<radialGradient id="paint0_radial" cx="0" cy="0" r="1" gradientUnits="userSpaceOnUse" gradientTransform="translate(29.0381 14.9476) scale(6.12917)">
<stop stop-color="white" stop-opacity="0.8694"/>
<stop offset="0.6918" stop-color="#538FCC" stop-opacity="0.2197"/>
<stop offset="0.8781" stop-color="#187FC4" stop-opacity="0"/>
</radialGradient>
<linearGradient id="paint1_linear" x1="35.6857" y1="20.2194" x2="34.2319" y2="21.3805" gradientUnits="userSpaceOnUse">
<stop offset="0.0945333" stop-color="#595757"/>
<stop offset="0.5197" stop-color="white"/>
<stop offset="0.9734" stop-color="#3E3A39"/>
<stop offset="0.9919" stop-color="#3E3A39"/>
<stop offset="0.9986" stop-color="#3E3A39"/>
</linearGradient>
<linearGradient id="paint2_linear" x1="39.0449" y1="23.8315" x2="37.6263" y2="25.1713" gradientUnits="userSpaceOnUse">
<stop offset="0.0737544"/>
<stop offset="0.5197" stop-color="white"/>
<stop offset="0.9164"/>
</linearGradient>
</defs>
</svg>
