<svg width="43" height="43" viewBox="0 0 43 43" fill="none" xmlns="http://www.w3.org/2000/svg">
<path d="M43 0H0V43H43V0Z" fill="#E9E9ED"/>
<path d="M30.6565 27.3176H23.5741V33.6918H30.6565V27.3176Z" fill="#DB9F59"/>
<path d="M27.9247 27.9247H24.3835V28.1271H27.9247V27.9247Z" fill="black"/>
<path d="M26.8118 28.3294H24.3835V28.5318H26.8118V28.3294Z" fill="black"/>
<path d="M25.8 28.7341H24.3835V28.9365H25.8V28.7341Z" fill="black"/>
<path d="M27.6212 27.3176H27.0141V29.9482H27.6212V27.3176Z" fill="#CCCCCF"/>
<path d="M30.5553 29.6447H29.24V30.1506H30.5553V29.6447Z" fill="#B12923"/>
<path d="M25.0918 31.8706H24.3835V32.5788H25.0918V31.8706Z" fill="black"/>
<path d="M25.9012 31.8706H25.2941V32.5788H25.9012V31.8706Z" fill="black"/>
<path d="M25.0918 32.5788H24.3835V33.2871H25.0918V32.5788Z" fill="black"/>
<path d="M25.9012 32.5788H25.2941V33.2871H25.9012V32.5788Z" fill="black"/>
<path d="M27.6212 32.68H26.2047V32.8824H27.6212V32.68Z" fill="black"/>
<path d="M29.8471 33.0847H26.2047V33.2871H29.8471V33.0847Z" fill="black"/>
<path d="M29.24 24.4847H25.4965V27.8235H29.24V24.4847Z" fill="#F5B331"/>
<path d="M27.7224 24.7882H25.9012V24.8894H27.7224V24.7882Z" fill="black"/>
<path d="M27.1153 24.9906H25.9012V25.0918H27.1153V24.9906Z" fill="black"/>
<path d="M26.6094 25.1929H25.9012V25.2941H26.6094V25.1929Z" fill="black"/>
<path d="M27.6212 24.4847H27.3176V25.9012H27.6212V24.4847Z" fill="#CCCCCF"/>
<path d="M29.1388 25.6988H28.4306V26.0024H29.1388V25.6988Z" fill="#B12923"/>
<path d="M26.3059 26.8118H25.9012V27.1153H26.3059V26.8118Z" fill="black"/>
<path d="M26.7106 26.8118H26.4071V27.1153H26.7106V26.8118Z" fill="black"/>
<path d="M26.3059 27.2165H25.9012V27.52H26.3059V27.2165Z" fill="black"/>
<path d="M26.7106 27.2165H26.4071V27.52H26.7106V27.2165Z" fill="black"/>
<path d="M27.52 27.3176H26.8118V27.4188H27.52V27.3176Z" fill="black"/>
<path d="M28.7341 27.52H26.8118V27.6212H28.7341V27.52Z" fill="black"/>
<path d="M37.4353 27.8235H30.3529V34.1976H37.4353V27.8235Z" fill="#F5B331"/>
<path d="M34.6024 28.3294H31.0612V28.5318H34.6024V28.3294Z" fill="black"/>
<path d="M33.4894 28.7341H31.0612V28.9365H33.4894V28.7341Z" fill="black"/>
<path d="M32.4776 29.1388H31.0612V29.3412H32.4776V29.1388Z" fill="black"/>
<path d="M34.2988 27.8235H33.6918V30.4541H34.2988V27.8235Z" fill="#CCCCCF"/>
<path d="M37.2329 30.1506H35.9176V30.6565H37.2329V30.1506Z" fill="#B12923"/>
<path d="M31.7694 32.2753H31.0612V32.9835H31.7694V32.2753Z" fill="black"/>
<path d="M32.5788 32.2753H31.9718V32.9835H32.5788V32.2753Z" fill="black"/>
<path d="M31.7694 33.0847H31.0612V33.7929H31.7694V33.0847Z" fill="black"/>
<path d="M32.5788 33.0847H31.9718V33.7929H32.5788V33.0847Z" fill="black"/>
<path d="M34.2988 33.1859H32.8824V33.3882H34.2988V33.1859Z" fill="black"/>
<path d="M36.5247 33.4894H32.8824V33.6918H36.5247V33.4894Z" fill="black"/>
<path d="M6.67765 8.49883H5.46353V33.6918H6.67765V8.49883Z" fill="#945239"/>
<path d="M18.2118 8.49883H17.0988V33.6918H18.2118V8.49883Z" fill="#945239"/>
<path d="M17.3012 10.2188H6.77883V10.8259H17.3012V10.2188Z" fill="#945239"/>
<path d="M17.4024 17.2H6.57647V17.8071H17.4024V17.2Z" fill="#945239"/>
<path d="M17.4024 24.3835H6.57647V24.9906H17.4024V24.3835Z" fill="#945239"/>
<path d="M17.4024 31.5671H6.57647V33.1859H17.4024V31.5671Z" fill="#945239"/>
<path d="M36.12 30.96H29.0377V37.3341H36.12V30.96Z" fill="#DB9F59"/>
<path d="M33.3882 31.5671H29.8471V31.7694H33.3882V31.5671Z" fill="black"/>
<path d="M32.2753 31.9718H29.8471V32.1741H32.2753V31.9718Z" fill="black"/>
<path d="M31.2635 32.3765H29.8471V32.5788H31.2635V32.3765Z" fill="black"/>
<path d="M33.0847 30.96H32.4776V33.5906H33.0847V30.96Z" fill="#CCCCCF"/>
<path d="M36.0188 33.2871H34.7035V33.7929H36.0188V33.2871Z" fill="#B12923"/>
<path d="M30.5553 35.5129H29.8471V36.2212H30.5553V35.5129Z" fill="black"/>
<path d="M31.3647 35.5129H30.7576V36.2212H31.3647V35.5129Z" fill="black"/>
<path d="M30.5553 36.2212H29.8471V36.9294H30.5553V36.2212Z" fill="black"/>
<path d="M31.3647 36.2212H30.7576V36.9294H31.3647V36.2212Z" fill="black"/>
<path d="M33.0847 36.3224H31.6682V36.5247H33.0847V36.3224Z" fill="black"/>
<path d="M35.3106 36.7271H31.6682V36.9294H35.3106V36.7271Z" fill="black"/>
<path d="M35.8165 24.6871H31.9718V28.1271H35.8165V24.6871Z" fill="#DB9F59"/>
<path d="M34.2988 25.0918H32.3765V25.1929H34.2988V25.0918Z" fill="black"/>
<path d="M33.6918 25.2941H32.3765V25.3953H33.6918V25.2941Z" fill="black"/>
<path d="M33.0847 25.4965H32.3765V25.5977H33.0847V25.4965Z" fill="black"/>
<path d="M34.0965 24.6871H33.7929V26.1035H34.0965V24.6871Z" fill="#CCCCCF"/>
<path d="M35.7153 26.0024H35.0071V26.3059H35.7153V26.0024Z" fill="#B12923"/>
<path d="M32.7812 27.1153H32.3765V27.52H32.7812V27.1153Z" fill="black"/>
<path d="M33.1859 27.1153H32.8824V27.52H33.1859V27.1153Z" fill="black"/>
<path d="M32.7812 27.52H32.3765V27.9247H32.7812V27.52Z" fill="black"/>
<path d="M33.1859 27.52H32.8824V27.9247H33.1859V27.52Z" fill="black"/>
<path d="M33.9953 27.6212H33.2871V27.7224H33.9953V27.6212Z" fill="black"/>
<path d="M35.2094 27.8235H33.2871V27.9247H35.2094V27.8235Z" fill="black"/>
<path d="M35.3106 35.6141H31.5671V38.9529H35.3106V35.6141Z" fill="#F5B331"/>
<path d="M33.7929 35.9177H31.9718V36.0188H33.7929V35.9177Z" fill="black"/>
<path d="M33.1859 36.12H31.9718V36.2212H33.1859V36.12Z" fill="black"/>
<path d="M32.68 36.3224H31.9718V36.4235H32.68V36.3224Z" fill="black"/>
<path d="M33.5906 35.6141H33.2871V37.0306H33.5906V35.6141Z" fill="#CCCCCF"/>
<path d="M35.2094 36.8282H34.5012V37.1318H35.2094V36.8282Z" fill="#B12923"/>
<path d="M32.3765 38.0424H31.9718V38.3459H32.3765V38.0424Z" fill="black"/>
<path d="M32.7812 38.0424H32.4776V38.3459H32.7812V38.0424Z" fill="black"/>
<path d="M32.3765 38.3459H31.9718V38.6494H32.3765V38.3459Z" fill="black"/>
<path d="M32.7812 38.3459H32.4776V38.6494H32.7812V38.3459Z" fill="black"/>
<path d="M33.5906 38.4471H32.8824V38.5482H33.5906V38.4471Z" fill="black"/>
<path d="M34.8047 38.6494H32.8824V38.7506H34.8047V38.6494Z" fill="black"/>
<path d="M8.29647 26.5082C8.29647 26.5082 8.1953 26.5082 7.99294 26.5082C7.79059 26.5082 7.68941 26.5082 7.68941 26.5082V27.8235H8.29647V26.5082Z" fill="#B41D23"/>
<path d="M7.79059 26.6094C7.79059 26.6094 8.09412 26.7106 8.39765 26.6094V26.8118C8.39765 26.8118 8.09412 26.9129 7.79059 26.8118V26.6094Z" fill="#50070E"/>
<path d="M7.79059 27.52V27.8235C7.79059 27.8235 7.79059 27.9247 7.68941 28.0259C7.58824 28.1271 7.48706 28.2282 7.48706 28.2282C7.48706 28.2282 7.28471 28.4306 7.38588 28.7341C7.38588 29.1388 7.38588 30.0494 7.38588 30.0494V31.8706C7.38588 31.8706 7.38588 31.9718 7.48706 32.0729C7.58824 32.0729 8.09412 32.2753 8.70118 32.0729C8.70118 32.0729 8.80236 32.0729 8.80236 31.9718V29.8471V28.8353C8.80236 28.8353 8.90353 28.5318 8.6 28.2282C8.39765 28.0259 8.39765 28.0259 8.39765 27.8235V27.52H7.79059V27.52Z" fill="#490B1C"/>
<path d="M8.09412 28.2282C8.09412 28.2282 7.99294 28.3294 7.99294 28.6329C7.99294 28.9365 7.99294 31.8706 7.99294 31.8706H7.58824V31.0612V28.7341C7.58824 28.7341 7.58824 28.1271 7.99294 28.1271L8.09412 28.2282Z" fill="#78535B"/>
<path d="M8.39765 28.1271C8.39765 28.1271 8.6 28.3294 8.6 28.5318C8.6 28.8353 8.6 29.5435 8.6 29.5435V31.2635V31.8706L8.70118 31.7694V30.1506V28.5318C8.6 28.5318 8.6 28.2282 8.39765 28.1271Z" fill="#5E474C"/>
<path d="M8.6 29.4424H7.38589V29.6447H8.6V29.4424Z" fill="#5F0E13"/>
<path d="M7.38589 29.5435H8.6V31.0612C8.6 31.0612 7.58824 31.1624 7.38589 31.0612V29.5435Z" fill="#DAC799"/>
<path d="M9.30824 26.5082C9.30824 26.5082 9.20706 26.5082 9.00471 26.5082C8.80236 26.5082 8.70118 26.5082 8.70118 26.5082V27.8235H9.30824V26.5082Z" fill="#B41D23"/>
<path d="M8.70118 26.6094C8.70118 26.6094 9.00471 26.7106 9.30824 26.6094V26.8118C9.30824 26.8118 9.00471 26.9129 8.70118 26.8118V26.6094Z" fill="#50070E"/>
<path d="M8.70118 27.52V27.8235C8.70118 27.8235 8.70118 27.9247 8.6 28.0259C8.49883 28.1271 8.39765 28.2282 8.39765 28.2282C8.39765 28.2282 8.1953 28.4306 8.29647 28.7341C8.29647 29.1388 8.29647 30.0494 8.29647 30.0494V31.8706C8.29647 31.8706 8.29647 31.9718 8.39765 32.0729C8.49883 32.0729 9.00471 32.2753 9.61177 32.0729C9.61177 32.0729 9.71294 32.0729 9.71294 31.9718V29.8471V28.8353C9.71294 28.8353 9.81412 28.5318 9.51059 28.2282C9.30824 28.0259 9.30824 28.0259 9.30824 27.8235V27.52H8.70118V27.52Z" fill="#490B1C"/>
<path d="M9.00471 28.2282C9.00471 28.2282 8.90353 28.3294 8.90353 28.6329C8.90353 28.9365 8.90353 31.8706 8.90353 31.8706H8.49883V31.0612V28.7341C8.49883 28.7341 8.49883 28.1271 8.90353 28.1271L9.00471 28.2282Z" fill="#78535B"/>
<path d="M9.40942 28.1271C9.40942 28.1271 9.61177 28.3294 9.61177 28.5318C9.61177 28.8353 9.61177 29.5435 9.61177 29.5435V31.2635V31.8706L9.71295 31.7694V30.1506V28.5318C9.61177 28.5318 9.61177 28.2282 9.40942 28.1271Z" fill="#5E474C"/>
<path d="M9.51059 29.4424H8.29647V29.6447H9.51059V29.4424Z" fill="#5F0E13"/>
<path d="M8.29647 29.5435H9.51059V31.0612C9.51059 31.0612 8.49882 31.1624 8.29647 31.0612V29.5435Z" fill="#DAC799"/>
<path d="M10.32 26.5082C10.32 26.5082 10.2188 26.5082 10.0165 26.5082C9.81412 26.5082 9.71294 26.5082 9.71294 26.5082V27.8235H10.32V26.5082Z" fill="#B41D23"/>
<path d="M9.71294 26.6094C9.71294 26.6094 10.0165 26.7106 10.32 26.6094V26.8118C10.32 26.8118 10.0165 26.9129 9.71294 26.8118V26.6094Z" fill="#50070E"/>
<path d="M9.71294 27.52V27.8235C9.71294 27.8235 9.71294 27.9247 9.61177 28.0259C9.51059 28.1271 9.40941 28.2282 9.40941 28.2282C9.40941 28.2282 9.20706 28.4306 9.30824 28.7341C9.30824 29.1388 9.30824 30.0494 9.30824 30.0494V31.8706C9.30824 31.8706 9.30824 31.9718 9.40941 32.0729C9.51059 32.0729 10.0165 32.2753 10.6235 32.0729C10.6235 32.0729 10.7247 32.0729 10.7247 31.9718C10.7247 31.8706 10.7247 29.8471 10.7247 29.8471V28.8353C10.7247 28.8353 10.8259 28.5318 10.5224 28.2282C10.2188 27.9247 10.32 28.0259 10.32 27.8235V27.52H9.71294V27.52Z" fill="#490B1C"/>
<path d="M10.0165 28.2282C10.0165 28.2282 9.9153 28.3294 9.9153 28.6329C9.9153 28.9365 9.9153 31.8706 9.9153 31.8706H9.51059V31.0612V28.7341C9.51059 28.7341 9.51059 28.1271 9.9153 28.1271L10.0165 28.2282Z" fill="#78535B"/>
<path d="M10.32 28.1271C10.32 28.1271 10.5224 28.3294 10.5224 28.5318C10.5224 28.8353 10.5224 29.5435 10.5224 29.5435V31.2635V31.8706L10.6235 31.7694V30.1506V28.5318C10.6235 28.5318 10.6235 28.2282 10.32 28.1271Z" fill="#5E474C"/>
<path d="M10.5224 29.4424H9.30824V29.6447H10.5224V29.4424Z" fill="#5F0E13"/>
<path d="M9.30824 29.5435H10.5224V31.0612C10.5224 31.0612 9.51059 31.1624 9.30824 31.0612V29.5435Z" fill="#DAC799"/>
<path d="M11.2306 26.5082C11.2306 26.5082 11.1294 26.5082 10.9271 26.5082C10.7247 26.5082 10.6235 26.5082 10.6235 26.5082V27.8235H11.2306V26.5082Z" fill="#B41D23"/>
<path d="M10.7247 26.6094C10.7247 26.6094 11.0282 26.7106 11.3318 26.6094V26.8118C11.3318 26.8118 11.0282 26.9129 10.7247 26.8118V26.6094Z" fill="#50070E"/>
<path d="M10.7247 27.52V27.8235C10.7247 27.8235 10.7247 27.9247 10.6235 28.0259C10.5224 28.1271 10.4212 28.2282 10.4212 28.2282C10.4212 28.2282 10.2188 28.4306 10.32 28.7341C10.32 29.1388 10.32 30.0494 10.32 30.0494V31.8706C10.32 31.8706 10.32 31.9718 10.4212 32.0729C10.5224 32.0729 11.0282 32.2753 11.6353 32.0729C11.6353 32.0729 11.7365 32.0729 11.7365 31.9718V29.8471V28.8353C11.7365 28.8353 11.8376 28.5318 11.5341 28.2282C11.2306 27.9247 11.3318 28.0259 11.3318 27.8235V27.52H10.7247V27.52Z" fill="#490B1C"/>
<path d="M10.9271 28.2282C10.9271 28.2282 10.8259 28.3294 10.8259 28.6329C10.8259 28.9365 10.8259 31.8706 10.8259 31.8706H10.4212V31.0612V28.7341C10.4212 28.7341 10.4212 28.1271 10.8259 28.1271L10.9271 28.2282Z" fill="#78535B"/>
<path d="M11.3318 28.1271C11.3318 28.1271 11.5341 28.3294 11.5341 28.5318C11.5341 28.8353 11.5341 29.5435 11.5341 29.5435V31.2635V31.8706L11.6353 31.7694V30.1506V28.5318C11.5341 28.5318 11.5341 28.2282 11.3318 28.1271Z" fill="#5E474C"/>
<path d="M11.5341 29.4424H10.32V29.6447H11.5341V29.4424Z" fill="#5F0E13"/>
<path d="M10.32 29.5435H11.5341V31.0612C11.5341 31.0612 10.5224 31.1624 10.32 31.0612V29.5435Z" fill="#DAC799"/>
<path d="M12.2424 26.5082C12.2424 26.5082 12.1412 26.5082 11.9388 26.5082C11.7365 26.5082 11.6353 26.5082 11.6353 26.5082V27.8235H12.2424V26.5082Z" fill="#B41D23"/>
<path d="M11.6353 26.6094C11.6353 26.6094 11.9388 26.7106 12.2424 26.6094V26.8118C12.2424 26.8118 11.9388 26.9129 11.6353 26.8118V26.6094Z" fill="#50070E"/>
<path d="M11.6353 27.52V27.8235C11.6353 27.8235 11.6353 27.9247 11.5341 28.0259C11.4329 28.1271 11.3318 28.2282 11.3318 28.2282C11.3318 28.2282 11.1294 28.4306 11.2306 28.7341C11.2306 29.1388 11.2306 30.0494 11.2306 30.0494V31.8706C11.2306 31.8706 11.2306 31.9718 11.3318 32.0729C11.4329 32.0729 11.9388 32.2753 12.5459 32.0729C12.5459 32.0729 12.6471 32.0729 12.6471 31.9718C12.6471 31.8706 12.6471 29.8471 12.6471 29.8471V28.8353C12.6471 28.8353 12.7482 28.5318 12.4447 28.2282C12.1412 27.9247 12.2424 28.0259 12.2424 27.8235V27.52H11.6353V27.52Z" fill="#490B1C"/>
<path d="M11.9388 28.2282C11.9388 28.2282 11.8377 28.3294 11.8377 28.6329C11.8377 28.9365 11.8377 31.8706 11.8377 31.8706H11.4329V31.0612V28.7341C11.4329 28.7341 11.4329 28.1271 11.8377 28.1271L11.9388 28.2282Z" fill="#78535B"/>
<path d="M12.2424 28.1271C12.2424 28.1271 12.4447 28.3294 12.4447 28.5318C12.4447 28.8353 12.4447 29.5435 12.4447 29.5435V31.2635V31.8706L12.5459 31.7694V30.1506V28.5318C12.5459 28.5318 12.5459 28.2282 12.2424 28.1271Z" fill="#5E474C"/>
<path d="M12.4447 29.4424H11.2306V29.6447H12.4447V29.4424Z" fill="#5F0E13"/>
<path d="M11.2306 29.5435H12.4447V31.0612C12.4447 31.0612 11.4329 31.1624 11.2306 31.0612V29.5435Z" fill="#DAC799"/>
<path d="M13.2541 26.5082C13.2541 26.5082 13.1529 26.5082 12.9506 26.5082C12.7482 26.5082 12.6471 26.5082 12.6471 26.5082V27.8235H13.1529L13.2541 26.5082Z" fill="#B41D23"/>
<path d="M12.6471 26.6094C12.6471 26.6094 12.9506 26.7106 13.2541 26.6094V26.8118C13.2541 26.8118 12.9506 26.9129 12.6471 26.8118V26.6094Z" fill="#50070E"/>
<path d="M12.6471 27.52V27.8235C12.6471 27.8235 12.6471 27.9247 12.5459 28.0259C12.4447 28.1271 12.3435 28.2282 12.3435 28.2282C12.3435 28.2282 12.1412 28.4306 12.2424 28.7341C12.2424 29.1388 12.2424 30.0494 12.2424 30.0494V31.8706C12.2424 31.8706 12.2424 31.9718 12.3435 32.0729C12.4447 32.0729 12.9506 32.2753 13.5577 32.0729C13.5577 32.0729 13.6588 32.0729 13.6588 31.9718V29.8471V28.8353C13.6588 28.8353 13.76 28.5318 13.4565 28.2282C13.1529 27.9247 13.2541 28.0259 13.2541 27.8235V27.52H12.6471V27.52Z" fill="#490B1C"/>
<path d="M12.9506 28.2282C12.9506 28.2282 12.8494 28.3294 12.8494 28.6329C12.8494 28.9365 12.8494 31.8706 12.8494 31.8706H12.4447V31.0612V28.7341C12.4447 28.7341 12.4447 28.1271 12.8494 28.1271L12.9506 28.2282Z" fill="#78535B"/>
<path d="M13.2541 28.1271C13.2541 28.1271 13.4565 28.3294 13.4565 28.5318C13.4565 28.8353 13.4565 29.5435 13.4565 29.5435V31.2635V31.8706L13.5576 31.7694V30.1506V28.5318C13.5576 28.5318 13.4565 28.2282 13.2541 28.1271Z" fill="#5E474C"/>
<path d="M13.4565 29.4424H12.2424V29.6447H13.4565V29.4424Z" fill="#5F0E13"/>
<path d="M12.2424 29.5435H13.4565V31.0612C13.4565 31.0612 12.4447 31.1624 12.2424 31.0612V29.5435Z" fill="#DAC799"/>
<path d="M14.1647 26.5082C14.1647 26.5082 14.0635 26.5082 13.8612 26.5082C13.6588 26.5082 13.5576 26.5082 13.5576 26.5082V27.8235H14.1647V26.5082Z" fill="#B41D23"/>
<path d="M13.5576 26.6094C13.5576 26.6094 13.8612 26.7106 14.1647 26.6094V26.8118C14.1647 26.8118 13.8612 26.9129 13.5576 26.8118V26.6094Z" fill="#50070E"/>
<path d="M13.5576 27.52V27.8235C13.5576 27.8235 13.5576 27.9247 13.4565 28.0259C13.3553 28.1271 13.2541 28.2282 13.2541 28.2282C13.2541 28.2282 13.0518 28.4306 13.1529 28.7341C13.1529 29.1388 13.1529 30.0494 13.1529 30.0494V31.8706C13.1529 31.8706 13.1529 31.9718 13.2541 32.0729C13.3553 32.0729 13.8612 32.2753 14.4682 32.0729C14.4682 32.0729 14.5694 32.0729 14.5694 31.9718C14.5694 31.8706 14.5694 29.8471 14.5694 29.8471V28.8353C14.5694 28.8353 14.6706 28.5318 14.3671 28.2282C14.0635 27.9247 14.1647 28.0259 14.1647 27.8235V27.52H13.5576Z" fill="#490B1C"/>
<path d="M13.8612 28.2282C13.8612 28.2282 13.76 28.3294 13.76 28.6329C13.76 28.9365 13.76 31.8706 13.76 31.8706H13.3553V31.0612V28.7341C13.3553 28.7341 13.3553 28.1271 13.76 28.1271L13.8612 28.2282Z" fill="#78535B"/>
<path d="M14.2659 28.1271C14.2659 28.1271 14.4682 28.3294 14.4682 28.5318C14.4682 28.8353 14.4682 29.5435 14.4682 29.5435V31.2635V31.8706L14.5694 31.7694V30.1506V28.5318C14.4682 28.5318 14.4682 28.2282 14.2659 28.1271Z" fill="#5E474C"/>
<path d="M14.4682 29.4424H13.2541V29.6447H14.4682V29.4424Z" fill="#5F0E13"/>
<path d="M13.2541 29.5435H14.4682V31.0612C14.4682 31.0612 13.4565 31.1624 13.2541 31.0612V29.5435Z" fill="#DAC799"/>
<path d="M15.1765 26.5082C15.1765 26.5082 15.0753 26.5082 14.8729 26.5082C14.6706 26.5082 14.5694 26.5082 14.5694 26.5082V27.8235H15.1765V26.5082Z" fill="#B41D23"/>
<path d="M14.5694 26.6094C14.5694 26.6094 14.8729 26.7106 15.1765 26.6094V26.8118C15.1765 26.8118 14.8729 26.9129 14.5694 26.8118V26.6094Z" fill="#50070E"/>
<path d="M14.5694 27.52V27.8235C14.5694 27.8235 14.5694 27.9247 14.4682 28.0259C14.3671 28.1271 14.2659 28.2282 14.2659 28.2282C14.2659 28.2282 14.1647 28.4306 14.1647 28.7341C14.1647 29.1388 14.1647 30.0494 14.1647 30.0494V31.8706C14.1647 31.8706 14.1647 31.9718 14.2659 32.0729C14.3671 32.0729 14.8729 32.2753 15.48 32.0729C15.48 32.0729 15.5812 32.0729 15.5812 31.9718V29.8471V28.8353C15.5812 28.8353 15.6824 28.5318 15.3788 28.2282C15.0753 27.9247 15.1765 28.0259 15.1765 27.8235V27.52H14.5694Z" fill="#490B1C"/>
<path d="M14.8729 28.2282C14.8729 28.2282 14.7718 28.3294 14.7718 28.6329C14.7718 28.9365 14.7718 31.8706 14.7718 31.8706H14.3671V31.0612V28.7341C14.3671 28.7341 14.3671 28.1271 14.7718 28.1271L14.8729 28.2282Z" fill="#78535B"/>
<path d="M15.1765 28.1271C15.1765 28.1271 15.3788 28.3294 15.3788 28.5318C15.3788 28.8353 15.3788 29.5435 15.3788 29.5435V31.2635V31.8706L15.48 31.7694V30.1506V28.5318C15.48 28.5318 15.48 28.2282 15.1765 28.1271Z" fill="#5E474C"/>
<path d="M15.3788 29.4424H14.1647V29.6447H15.3788V29.4424Z" fill="#5F0E13"/>
<path d="M14.1647 29.5435H15.3788V31.0612C15.3788 31.0612 14.3671 31.1624 14.1647 31.0612V29.5435Z" fill="#DAC799"/>
<path d="M16.0871 26.5082C16.0871 26.5082 15.9859 26.5082 15.7835 26.5082C15.5812 26.5082 15.48 26.5082 15.48 26.5082V27.8235H16.0871V26.5082Z" fill="#B41D23"/>
<path d="M15.5812 26.6094C15.5812 26.6094 15.8847 26.7106 16.1882 26.6094V26.8118C16.1882 26.8118 15.8847 26.9129 15.5812 26.8118V26.6094Z" fill="#50070E"/>
<path d="M15.5812 27.52V27.8235C15.5812 27.8235 15.5812 27.9247 15.48 28.0259C15.3788 28.1271 15.2776 28.2282 15.2776 28.2282C15.2776 28.2282 15.0753 28.4306 15.1765 28.7341C15.1765 29.1388 15.1765 30.0494 15.1765 30.0494V31.8706C15.1765 31.8706 15.1765 31.9718 15.2776 32.0729C15.3788 32.0729 15.8847 32.2753 16.4918 32.0729C16.4918 32.0729 16.5929 32.0729 16.5929 31.9718V29.8471V28.8353C16.5929 28.8353 16.6941 28.5318 16.3906 28.2282C16.0871 27.9247 16.1882 28.0259 16.1882 27.8235V27.52H15.5812V27.52Z" fill="#490B1C"/>
<path d="M15.7835 28.2282C15.7835 28.2282 15.6824 28.3294 15.6824 28.6329C15.6824 28.9365 15.6824 31.8706 15.6824 31.8706H15.2776V31.0612V28.7341C15.2776 28.7341 15.2776 28.1271 15.6824 28.1271L15.7835 28.2282Z" fill="#78535B"/>
<path d="M16.1882 28.1271C16.1882 28.1271 16.3906 28.3294 16.3906 28.5318C16.3906 28.8353 16.3906 29.5435 16.3906 29.5435V31.2635V31.8706L16.4918 31.7694V30.1506V28.5318C16.3906 28.5318 16.3906 28.2282 16.1882 28.1271Z" fill="#5E474C"/>
<path d="M16.3906 29.4424H15.1765V29.6447H16.3906V29.4424Z" fill="#5F0E13"/>
<path d="M15.1765 29.5435H16.3906V31.0612C16.3906 31.0612 15.3788 31.1624 15.1765 31.0612V29.5435Z" fill="#DAC799"/>
<path d="M8.70118 23.9788C9.31584 23.9788 9.81412 23.7976 9.81412 23.5741C9.81412 23.3506 9.31584 23.1694 8.70118 23.1694C8.08652 23.1694 7.58823 23.3506 7.58823 23.5741C7.58823 23.7976 8.08652 23.9788 8.70118 23.9788Z" fill="#DEDEDD"/>
<path d="M9.81412 23.5741C9.81412 23.3718 9.30823 23.1694 8.70118 23.1694C8.09412 23.1694 7.58823 23.3718 7.58823 23.5741C7.58823 23.5741 7.58823 23.5741 7.58823 23.6753C7.58823 23.4729 8.09412 23.3718 8.70118 23.3718C9.30823 23.2706 9.71294 23.4729 9.81412 23.5741C9.71294 23.6753 9.71294 23.6753 9.81412 23.5741C9.81412 23.5741 9.71294 23.6753 9.81412 23.5741Z" fill="#777878"/>
<path d="M8.70118 23.7765C9.1482 23.7765 9.51059 23.6859 9.51059 23.5741C9.51059 23.4624 9.1482 23.3718 8.70118 23.3718C8.25415 23.3718 7.89177 23.4624 7.89177 23.5741C7.89177 23.6859 8.25415 23.7765 8.70118 23.7765Z" fill="#A9A8A8"/>
<path d="M8.70118 23.7765C9.09233 23.7765 9.40941 23.7312 9.40941 23.6753C9.40941 23.6194 9.09233 23.5741 8.70118 23.5741C8.31003 23.5741 7.99294 23.6194 7.99294 23.6753C7.99294 23.7312 8.31003 23.7765 8.70118 23.7765Z" fill="#C3C4C4"/>
<path d="M7.58823 23.6753V24.3835C7.58823 24.3835 7.89176 24.6871 8.6 24.6871C9.30823 24.6871 9.51059 24.5859 9.81412 24.3835V23.6753C9.81412 23.6753 9.51059 23.9788 8.70118 23.9788C7.79059 23.9788 7.58823 23.6753 7.58823 23.6753Z" fill="#DA151F"/>
<path d="M7.99294 23.9788V24.3835C7.99294 24.3835 8.39765 24.5859 8.70118 24.4847C9.00471 24.4847 9.10588 24.3835 9.40941 24.3835V23.9788C9.40941 23.9788 9.00471 24.08 8.6 24.08C8.1953 24.08 7.99294 23.9788 7.99294 23.9788Z" fill="#5756A3"/>
<path d="M8.19529 24.3835C8.19529 24.3835 8.6 24.08 8.90353 24.3835L9.10588 24.2824V24.4847L9.0047 24.3835C8.90353 24.3835 8.49882 24.6871 8.19529 24.3835Z" fill="#DEDEDD"/>
<path d="M7.58823 24.3835C7.58823 24.3835 7.99294 24.6871 8.70118 24.6871C9.30823 24.6871 9.61176 24.4847 9.71294 24.3835C9.71294 24.3835 9.81412 24.4847 9.30823 24.6871C8.80235 24.7882 7.58823 24.6871 7.58823 24.3835Z" fill="#777878"/>
<path d="M9.81412 23.9788C10.4288 23.9788 10.9271 23.7976 10.9271 23.5741C10.9271 23.3506 10.4288 23.1694 9.81412 23.1694C9.19946 23.1694 8.70118 23.3506 8.70118 23.5741C8.70118 23.7976 9.19946 23.9788 9.81412 23.9788Z" fill="#DEDEDD"/>
<path d="M10.9271 23.5741C10.9271 23.3718 10.4212 23.1694 9.81412 23.1694C9.20706 23.1694 8.70118 23.3718 8.70118 23.5741C8.70118 23.5741 8.70118 23.5741 8.70118 23.6753C8.70118 23.4729 9.20706 23.3718 9.81412 23.3718C10.4212 23.2706 10.9271 23.4729 10.9271 23.5741C10.9271 23.6753 10.9271 23.6753 10.9271 23.5741C10.9271 23.6753 10.9271 23.6753 10.9271 23.5741Z" fill="#777878"/>
<path d="M9.91529 23.8777C10.3623 23.8777 10.7247 23.7871 10.7247 23.6753C10.7247 23.5635 10.3623 23.4729 9.91529 23.4729C9.46827 23.4729 9.10588 23.5635 9.10588 23.6753C9.10588 23.7871 9.46827 23.8777 9.91529 23.8777Z" fill="#A9A8A8"/>
<path d="M9.81412 23.7765C10.2053 23.7765 10.5224 23.7312 10.5224 23.6753C10.5224 23.6194 10.2053 23.5741 9.81412 23.5741C9.42297 23.5741 9.10588 23.6194 9.10588 23.6753C9.10588 23.7312 9.42297 23.7765 9.81412 23.7765Z" fill="#C3C4C4"/>
<path d="M8.70118 23.6753V24.3835C8.70118 24.3835 9.00471 24.6871 9.71294 24.6871C10.4212 24.6871 10.6235 24.5859 10.9271 24.3835V23.6753C10.9271 23.6753 10.6235 23.9788 9.81412 23.9788C9.00471 23.9788 8.80236 23.6753 8.70118 23.6753Z" fill="#DA151F"/>
<path d="M9.10588 24.08V24.4847C9.10588 24.4847 9.51059 24.6871 9.81412 24.5859C10.1176 24.4847 10.2188 24.4847 10.5224 24.4847V24.08C10.5224 24.08 10.1176 24.1812 9.71294 24.1812C9.30823 24.1812 9.10588 24.08 9.10588 24.08Z" fill="#5756A3"/>
<path d="M9.40942 24.3835C9.40942 24.3835 9.81412 24.08 10.1177 24.3835L10.2188 24.2824V24.4847L10.1177 24.3835C10.1177 24.3835 9.71295 24.6871 9.40942 24.3835Z" fill="#DEDEDD"/>
<path d="M8.70118 24.3835C8.70118 24.3835 9.10588 24.6871 9.81412 24.6871C10.4212 24.6871 10.7247 24.4847 10.8259 24.3835C10.8259 24.3835 10.9271 24.4847 10.4212 24.6871C9.9153 24.8894 8.80236 24.6871 8.70118 24.3835Z" fill="#777878"/>
<path d="M11.2306 23.9788C11.8453 23.9788 12.3435 23.7976 12.3435 23.5741C12.3435 23.3506 11.8453 23.1694 11.2306 23.1694C10.6159 23.1694 10.1176 23.3506 10.1176 23.5741C10.1176 23.7976 10.6159 23.9788 11.2306 23.9788Z" fill="#DEDEDD"/>
<path d="M12.3435 23.5741C12.3435 23.3718 11.8376 23.1694 11.2306 23.1694C10.6235 23.1694 10.1176 23.3718 10.1176 23.5741C10.1176 23.5741 10.1176 23.5741 10.1176 23.6753C10.1176 23.4729 10.6235 23.3718 11.2306 23.3718C11.8376 23.2706 12.3435 23.4729 12.3435 23.5741C12.3435 23.6753 12.3435 23.6753 12.3435 23.5741C12.3435 23.6753 12.3435 23.6753 12.3435 23.5741Z" fill="#777878"/>
<path d="M11.3318 23.8777C11.7788 23.8777 12.1412 23.7871 12.1412 23.6753C12.1412 23.5635 11.7788 23.4729 11.3318 23.4729C10.8847 23.4729 10.5224 23.5635 10.5224 23.6753C10.5224 23.7871 10.8847 23.8777 11.3318 23.8777Z" fill="#A9A8A8"/>
<path d="M11.3318 23.7765C11.7229 23.7765 12.04 23.7312 12.04 23.6753C12.04 23.6194 11.7229 23.5741 11.3318 23.5741C10.9406 23.5741 10.6235 23.6194 10.6235 23.6753C10.6235 23.7312 10.9406 23.7765 11.3318 23.7765Z" fill="#C3C4C4"/>
<path d="M10.2188 23.6753V24.3835C10.2188 24.3835 10.5224 24.6871 11.2306 24.6871C11.9388 24.6871 12.1412 24.5859 12.4447 24.3835V23.6753C12.4447 23.6753 12.1412 23.9788 11.3318 23.9788C10.4212 23.9788 10.2188 23.6753 10.2188 23.6753Z" fill="#DA151F"/>
<path d="M10.5224 24.08V24.4847C10.5224 24.4847 10.9271 24.6871 11.2306 24.5859C11.5341 24.4847 11.6353 24.4847 11.9388 24.4847V24.08C11.9388 24.08 11.5341 24.1812 11.1294 24.1812C10.7247 24.1812 10.5224 24.08 10.5224 24.08Z" fill="#5756A3"/>
<path d="M10.8259 24.3835C10.8259 24.3835 11.2306 24.08 11.5341 24.3835L11.6353 24.2824V24.4847L11.5341 24.3835C11.5341 24.3835 11.1294 24.6871 10.8259 24.3835Z" fill="#DEDEDD"/>
<path d="M10.2188 24.3835C10.2188 24.3835 10.6235 24.6871 11.3318 24.6871C11.9388 24.6871 12.2424 24.4847 12.3435 24.3835C12.3435 24.3835 12.4447 24.4847 11.9388 24.6871C11.4329 24.8894 10.2188 24.6871 10.2188 24.3835Z" fill="#777878"/>
<path d="M9.81412 22.9671C10.4288 22.9671 10.9271 22.7859 10.9271 22.5624C10.9271 22.3388 10.4288 22.1576 9.81412 22.1576C9.19946 22.1576 8.70118 22.3388 8.70118 22.5624C8.70118 22.7859 9.19946 22.9671 9.81412 22.9671Z" fill="#DEDEDD"/>
<path d="M10.9271 22.5624C10.9271 22.36 10.4212 22.1576 9.81412 22.1576C9.20706 22.1576 8.70118 22.36 8.70118 22.5624C8.70118 22.5624 8.70118 22.5624 8.70118 22.6635C8.70118 22.4612 9.20706 22.36 9.81412 22.36C10.4212 22.36 10.9271 22.36 10.9271 22.5624C10.9271 22.6635 10.9271 22.5624 10.9271 22.5624C10.9271 22.5624 10.9271 22.6635 10.9271 22.5624Z" fill="#777878"/>
<path d="M9.81412 22.7647C10.2611 22.7647 10.6235 22.6741 10.6235 22.5624C10.6235 22.4506 10.2611 22.36 9.81412 22.36C9.36709 22.36 9.00471 22.4506 9.00471 22.5624C9.00471 22.6741 9.36709 22.7647 9.81412 22.7647Z" fill="#A9A8A8"/>
<path d="M9.81412 22.6635C10.2053 22.6635 10.5224 22.6182 10.5224 22.5624C10.5224 22.5065 10.2053 22.4612 9.81412 22.4612C9.42297 22.4612 9.10588 22.5065 9.10588 22.5624C9.10588 22.6182 9.42297 22.6635 9.81412 22.6635Z" fill="#C3C4C4"/>
<path d="M8.70118 22.6635V23.3718C8.70118 23.3718 9.00471 23.6753 9.71294 23.6753C10.4212 23.6753 10.6235 23.5741 10.9271 23.3718V22.6635C10.9271 22.6635 10.6235 22.9671 9.81412 22.9671C9.00471 22.8659 8.80236 22.6635 8.70118 22.6635Z" fill="#DA151F"/>
<path d="M9.10588 22.9671V23.3718C9.10588 23.3718 9.51059 23.5741 9.81412 23.4729C10.1176 23.3718 10.2188 23.3718 10.5224 23.3718V22.9671C10.5224 22.9671 10.1176 23.0682 9.71294 23.0682C9.30823 23.0682 9.10588 22.9671 9.10588 22.9671Z" fill="#5756A3"/>
<path d="M9.40942 23.2706C9.40942 23.2706 9.81412 22.9671 10.1177 23.2706L10.2188 23.1694V23.3718H10.1177C10.1177 23.3718 9.71295 23.6753 9.40942 23.2706Z" fill="#DEDEDD"/>
<path d="M8.70118 23.3718C8.70118 23.3718 9.10588 23.6753 9.81412 23.6753C10.4212 23.6753 10.7247 23.4729 10.8259 23.3718C10.8259 23.3718 10.9271 23.4729 10.4212 23.6753C10.0165 23.6753 8.80236 23.6753 8.70118 23.3718Z" fill="#777878"/>
<path d="M12.8494 23.9788C13.4641 23.9788 13.9624 23.7976 13.9624 23.5741C13.9624 23.3506 13.4641 23.1694 12.8494 23.1694C12.2348 23.1694 11.7365 23.3506 11.7365 23.5741C11.7365 23.7976 12.2348 23.9788 12.8494 23.9788Z" fill="#DEDEDD"/>
<path d="M13.9624 23.5741C13.9624 23.3718 13.4565 23.1694 12.8494 23.1694C12.2424 23.1694 11.7365 23.3718 11.7365 23.5741C11.7365 23.5741 11.7365 23.5741 11.7365 23.6753C11.7365 23.4729 12.2424 23.3718 12.8494 23.3718C13.4565 23.2706 13.8612 23.4729 13.9624 23.5741C13.8612 23.6753 13.8612 23.6753 13.9624 23.5741C13.9624 23.6753 13.8612 23.6753 13.9624 23.5741Z" fill="#777878"/>
<path d="M12.8494 23.8777C13.2964 23.8777 13.6588 23.7871 13.6588 23.6753C13.6588 23.5635 13.2964 23.4729 12.8494 23.4729C12.4024 23.4729 12.04 23.5635 12.04 23.6753C12.04 23.7871 12.4024 23.8777 12.8494 23.8777Z" fill="#A9A8A8"/>
<path d="M12.8494 23.7765C13.2406 23.7765 13.5576 23.7312 13.5576 23.6753C13.5576 23.6194 13.2406 23.5741 12.8494 23.5741C12.4583 23.5741 12.1412 23.6194 12.1412 23.6753C12.1412 23.7312 12.4583 23.7765 12.8494 23.7765Z" fill="#C3C4C4"/>
<path d="M11.7365 23.6753V24.3835C11.7365 24.3835 12.04 24.6871 12.7482 24.6871C13.4565 24.6871 13.6588 24.5859 13.9624 24.3835V23.6753C13.9624 23.6753 13.6588 23.9788 12.8494 23.9788C11.9388 23.9788 11.7365 23.6753 11.7365 23.6753Z" fill="#DA151F"/>
<path d="M12.1412 24.08V24.4847C12.1412 24.4847 12.5459 24.6871 12.8494 24.5859C13.1529 24.4847 13.2541 24.4847 13.5576 24.4847V24.08C13.5576 24.08 13.1529 24.1812 12.7482 24.1812C12.3435 24.1812 12.1412 24.08 12.1412 24.08Z" fill="#5756A3"/>
<path d="M12.3435 24.3835C12.3435 24.3835 12.7482 24.08 13.0518 24.3835L13.1529 24.2824V24.4847L13.0518 24.3835C13.0518 24.3835 12.6471 24.6871 12.3435 24.3835Z" fill="#DEDEDD"/>
<path d="M11.7365 24.3835C11.7365 24.3835 12.1412 24.6871 12.8494 24.6871C13.4565 24.6871 13.76 24.4847 13.8612 24.3835C13.8612 24.3835 13.9624 24.4847 13.4565 24.6871C12.9506 24.7882 11.7365 24.6871 11.7365 24.3835Z" fill="#777878"/>
<path d="M12.04 23.0682C12.6547 23.0682 13.1529 22.887 13.1529 22.6635C13.1529 22.44 12.6547 22.2588 12.04 22.2588C11.4253 22.2588 10.9271 22.44 10.9271 22.6635C10.9271 22.887 11.4253 23.0682 12.04 23.0682Z" fill="#DEDEDD"/>
<path d="M13.2541 22.6635C13.2541 22.4612 12.7482 22.2588 12.1412 22.2588C11.5341 22.2588 11.0282 22.4612 11.0282 22.6635C11.0282 22.6635 11.0282 22.6635 11.0282 22.7647C11.0282 22.5624 11.5341 22.4612 12.1412 22.4612C12.6471 22.36 13.1529 22.5624 13.2541 22.6635C13.1529 22.7647 13.1529 22.7647 13.2541 22.6635C13.2541 22.6635 13.1529 22.7647 13.2541 22.6635Z" fill="#777878"/>
<path d="M12.1412 22.8659C12.5882 22.8659 12.9506 22.7753 12.9506 22.6635C12.9506 22.5518 12.5882 22.4612 12.1412 22.4612C11.6942 22.4612 11.3318 22.5518 11.3318 22.6635C11.3318 22.7753 11.6942 22.8659 12.1412 22.8659Z" fill="#A9A8A8"/>
<path d="M12.1412 22.8659C12.5323 22.8659 12.8494 22.8206 12.8494 22.7647C12.8494 22.7088 12.5323 22.6635 12.1412 22.6635C11.75 22.6635 11.4329 22.7088 11.4329 22.7647C11.4329 22.8206 11.75 22.8659 12.1412 22.8659Z" fill="#C3C4C4"/>
<path d="M11.0282 22.7647V23.4729C11.0282 23.4729 11.3318 23.7765 12.04 23.7765C12.7482 23.7765 12.9506 23.6753 13.2541 23.4729V22.7647C13.2541 22.7647 12.9506 23.0682 12.1412 23.0682C11.2306 23.0682 11.0282 22.7647 11.0282 22.7647Z" fill="#DA151F"/>
<path d="M11.4329 23.0682V23.4729C11.4329 23.4729 11.8377 23.6753 12.1412 23.5741C12.4447 23.4729 12.5459 23.4729 12.8494 23.4729V23.0682C12.8494 23.0682 12.4447 23.1694 12.04 23.1694C11.6353 23.1694 11.4329 23.0682 11.4329 23.0682Z" fill="#5756A3"/>
<path d="M11.6353 23.4729C11.6353 23.4729 12.04 23.1694 12.3435 23.4729L12.4447 23.3718V23.5741L12.3435 23.4729C12.3435 23.4729 11.9388 23.7765 11.6353 23.4729Z" fill="#DEDEDD"/>
<path d="M11.0282 23.4729C11.0282 23.4729 11.4329 23.7765 12.1412 23.7765C12.7482 23.7765 13.0518 23.5741 13.1529 23.4729C13.1529 23.4729 13.2541 23.5741 12.7482 23.7765C12.2424 23.8776 11.0282 23.7765 11.0282 23.4729Z" fill="#777878"/>
<path d="M14.1647 24.08C14.7794 24.08 15.2776 23.8988 15.2776 23.6753C15.2776 23.4518 14.7794 23.2706 14.1647 23.2706C13.55 23.2706 13.0518 23.4518 13.0518 23.6753C13.0518 23.8988 13.55 24.08 14.1647 24.08Z" fill="#DEDEDD"/>
<path d="M15.2776 23.6753C15.2776 23.4729 14.7718 23.2706 14.1647 23.2706C13.5576 23.2706 13.0518 23.4729 13.0518 23.6753C13.0518 23.6753 13.0518 23.6753 13.0518 23.7765C13.0518 23.5741 13.5576 23.4729 14.1647 23.4729C14.7718 23.3718 15.2776 23.5741 15.2776 23.6753C15.2776 23.7765 15.2776 23.6753 15.2776 23.6753C15.2776 23.6753 15.2776 23.7765 15.2776 23.6753Z" fill="#777878"/>
<path d="M14.1647 23.8776C14.6117 23.8776 14.9741 23.7871 14.9741 23.6753C14.9741 23.5635 14.6117 23.4729 14.1647 23.4729C13.7177 23.4729 13.3553 23.5635 13.3553 23.6753C13.3553 23.7871 13.7177 23.8776 14.1647 23.8776Z" fill="#A9A8A8"/>
<path d="M14.1647 23.7765C14.5559 23.7765 14.8729 23.7312 14.8729 23.6753C14.8729 23.6194 14.5559 23.5741 14.1647 23.5741C13.7736 23.5741 13.4565 23.6194 13.4565 23.6753C13.4565 23.7312 13.7736 23.7765 14.1647 23.7765Z" fill="#C3C4C4"/>
<path d="M13.0518 23.7765V24.4847C13.0518 24.4847 13.3553 24.7882 14.0635 24.7882C14.7718 24.7882 14.9741 24.6871 15.2776 24.4847V23.7765C15.2776 23.7765 14.9741 24.08 14.1647 24.08C13.3553 23.9788 13.0518 23.7765 13.0518 23.7765Z" fill="#DA151F"/>
<path d="M13.4565 24.08V24.4847C13.4565 24.4847 13.8612 24.6871 14.1647 24.5859C14.4682 24.5859 14.5694 24.4847 14.8729 24.4847V24.08C14.8729 24.08 14.4682 24.1812 14.0635 24.1812C13.6588 24.1812 13.4565 24.08 13.4565 24.08Z" fill="#5756A3"/>
<path d="M13.76 24.3835C13.76 24.3835 14.1647 24.08 14.4682 24.3835L14.5694 24.2824V24.4847L14.4682 24.3835C14.4682 24.4847 14.0635 24.7882 13.76 24.3835Z" fill="#DEDEDD"/>
<path d="M13.0518 24.4847C13.0518 24.4847 13.4565 24.7882 14.1647 24.7882C14.7718 24.7882 15.0753 24.5859 15.1765 24.4847C15.1765 24.4847 15.2776 24.5859 14.7718 24.7882C14.2659 24.7882 13.1529 24.7882 13.0518 24.4847Z" fill="#777878"/>
<path d="M10.9271 22.2588C11.5417 22.2588 12.04 22.0776 12.04 21.8541C12.04 21.6306 11.5417 21.4494 10.9271 21.4494C10.3124 21.4494 9.81412 21.6306 9.81412 21.8541C9.81412 22.0776 10.3124 22.2588 10.9271 22.2588Z" fill="#DEDEDD"/>
<path d="M12.04 21.8541C12.04 21.6518 11.5341 21.4494 10.9271 21.4494C10.32 21.4494 9.81412 21.6518 9.81412 21.8541C9.81412 21.8541 9.81412 21.8541 9.81412 21.9553C9.81412 21.7529 10.32 21.6518 10.9271 21.6518C11.5341 21.6518 12.04 21.6518 12.04 21.8541C12.04 21.9553 12.04 21.8541 12.04 21.8541Z" fill="#777878"/>
<path d="M10.9271 22.0565C11.3741 22.0565 11.7365 21.9659 11.7365 21.8541C11.7365 21.7424 11.3741 21.6518 10.9271 21.6518C10.48 21.6518 10.1176 21.7424 10.1176 21.8541C10.1176 21.9659 10.48 22.0565 10.9271 22.0565Z" fill="#A9A8A8"/>
<path d="M10.9271 21.9553C11.3182 21.9553 11.6353 21.91 11.6353 21.8541C11.6353 21.7982 11.3182 21.7529 10.9271 21.7529C10.5359 21.7529 10.2188 21.7982 10.2188 21.8541C10.2188 21.91 10.5359 21.9553 10.9271 21.9553Z" fill="#C3C4C4"/>
<path d="M9.81412 21.9553V22.6635C9.81412 22.6635 10.1176 22.9671 10.8259 22.9671C11.5341 22.9671 11.7365 22.8659 12.04 22.6635V21.9553C12.04 21.9553 11.7365 22.2588 10.9271 22.2588C10.1176 22.1577 9.81412 21.9553 9.81412 21.9553Z" fill="#DA151F"/>
<path d="M10.2188 22.2588V22.6635C10.2188 22.6635 10.6235 22.8659 10.9271 22.7647C11.2306 22.6635 11.3318 22.6635 11.6353 22.6635V22.2588C11.6353 22.2588 11.2306 22.36 10.8259 22.36C10.4212 22.36 10.2188 22.2588 10.2188 22.2588Z" fill="#5756A3"/>
<path d="M10.5224 22.5624C10.5224 22.5624 10.9271 22.2588 11.2306 22.5624L11.3318 22.4612V22.6635L11.2306 22.5624C11.2306 22.6635 10.8259 22.9671 10.5224 22.5624Z" fill="#DEDEDD"/>
<path d="M9.81412 22.6635C9.81412 22.6635 10.2188 22.9671 10.9271 22.9671C11.5341 22.9671 11.8376 22.7647 11.9388 22.6635C11.9388 22.6635 12.04 22.7647 11.5341 22.9671C11.1294 22.9671 9.91529 22.9671 9.81412 22.6635Z" fill="#777878"/>
<path d="M15.5812 24.1812C16.1958 24.1812 16.6941 24 16.6941 23.7765C16.6941 23.553 16.1958 23.3718 15.5812 23.3718C14.9665 23.3718 14.4682 23.553 14.4682 23.7765C14.4682 24 14.9665 24.1812 15.5812 24.1812Z" fill="#DEDEDD"/>
<path d="M16.6941 23.7765C16.6941 23.5741 16.1882 23.3718 15.5812 23.3718C14.9741 23.3718 14.4682 23.5741 14.4682 23.7765C14.4682 23.7765 14.4682 23.7765 14.4682 23.8776C14.4682 23.6753 14.9741 23.5741 15.5812 23.5741C16.1882 23.4729 16.6941 23.5741 16.6941 23.7765Z" fill="#777878"/>
<path d="M15.6824 23.9788C16.1294 23.9788 16.4918 23.8882 16.4918 23.7765C16.4918 23.6647 16.1294 23.5741 15.6824 23.5741C15.2353 23.5741 14.8729 23.6647 14.8729 23.7765C14.8729 23.8882 15.2353 23.9788 15.6824 23.9788Z" fill="#A9A8A8"/>
<path d="M15.6824 23.8777C16.0735 23.8777 16.3906 23.8324 16.3906 23.7765C16.3906 23.7206 16.0735 23.6753 15.6824 23.6753C15.2912 23.6753 14.9741 23.7206 14.9741 23.7765C14.9741 23.8324 15.2912 23.8777 15.6824 23.8777Z" fill="#C3C4C4"/>
<path d="M14.5694 23.7765V24.4847C14.5694 24.4847 14.8729 24.7882 15.5812 24.7882C16.2894 24.7882 16.4918 24.6871 16.7953 24.4847V23.7765C16.7953 23.7765 16.4918 24.08 15.6824 24.08C14.7718 24.08 14.5694 23.8776 14.5694 23.7765Z" fill="#DA151F"/>
<path d="M14.9741 24.1812V24.5859C14.9741 24.5859 15.3788 24.7882 15.6824 24.6871C15.9859 24.5859 16.0871 24.5859 16.3906 24.5859V24.1812C16.3906 24.1812 15.9859 24.2824 15.5812 24.2824C15.1765 24.2824 14.9741 24.1812 14.9741 24.1812Z" fill="#5756A3"/>
<path d="M15.1765 24.4847C15.1765 24.4847 15.5812 24.1812 15.8847 24.4847L15.9859 24.3835V24.5859L15.8847 24.4847C15.8847 24.5859 15.48 24.8894 15.1765 24.4847Z" fill="#DEDEDD"/>
<path d="M14.5694 24.4847C14.5694 24.4847 14.9741 24.7882 15.6824 24.7882C16.2894 24.7882 16.5929 24.5859 16.6941 24.4847C16.6941 24.4847 16.7953 24.5859 16.2894 24.7882C15.7835 24.8894 14.5694 24.7882 14.5694 24.4847Z" fill="#777878"/>
<path d="M14.4682 23.0682C15.0829 23.0682 15.5812 22.887 15.5812 22.6635C15.5812 22.44 15.0829 22.2588 14.4682 22.2588C13.8536 22.2588 13.3553 22.44 13.3553 22.6635C13.3553 22.887 13.8536 23.0682 14.4682 23.0682Z" fill="#DEDEDD"/>
<path d="M15.5812 22.6635C15.5812 22.4612 15.0753 22.2588 14.4682 22.2588C13.8612 22.2588 13.3553 22.4612 13.3553 22.6635C13.3553 22.6635 13.3553 22.6635 13.3553 22.7647C13.3553 22.5624 13.8612 22.4612 14.4682 22.4612C15.0753 22.36 15.5812 22.4612 15.5812 22.6635C15.5812 22.7647 15.5812 22.6635 15.5812 22.6635Z" fill="#777878"/>
<path d="M14.4682 22.8659C14.9153 22.8659 15.2777 22.7753 15.2777 22.6635C15.2777 22.5518 14.9153 22.4612 14.4682 22.4612C14.0212 22.4612 13.6588 22.5518 13.6588 22.6635C13.6588 22.7753 14.0212 22.8659 14.4682 22.8659Z" fill="#A9A8A8"/>
<path d="M14.4682 22.7647C14.8594 22.7647 15.1765 22.7194 15.1765 22.6635C15.1765 22.6076 14.8594 22.5624 14.4682 22.5624C14.0771 22.5624 13.76 22.6076 13.76 22.6635C13.76 22.7194 14.0771 22.7647 14.4682 22.7647Z" fill="#C3C4C4"/>
<path d="M13.3553 22.7647V23.4729C13.3553 23.4729 13.6588 23.7765 14.3671 23.7765C15.0753 23.7765 15.2776 23.6753 15.5812 23.4729V22.7647C15.5812 22.7647 15.2777 23.0682 14.4682 23.0682C13.6588 22.9671 13.3553 22.7647 13.3553 22.7647Z" fill="#DA151F"/>
<path d="M13.76 23.0682V23.4729C13.76 23.4729 14.1647 23.6753 14.4682 23.5741C14.7718 23.5741 14.8729 23.4729 15.1765 23.4729V23.0682C15.1765 23.0682 14.7718 23.1694 14.3671 23.1694C13.9624 23.1694 13.76 23.0682 13.76 23.0682Z" fill="#5756A3"/>
<path d="M14.0635 23.3718C14.0635 23.3718 14.4682 23.0682 14.7718 23.3718L14.8729 23.2706V23.4729L14.7718 23.3718C14.7718 23.4729 14.3671 23.7765 14.0635 23.3718Z" fill="#DEDEDD"/>
<path d="M13.3553 23.4729C13.3553 23.4729 13.76 23.7765 14.4682 23.7765C15.0753 23.7765 15.3788 23.5741 15.48 23.4729C15.48 23.4729 15.5812 23.5741 15.0753 23.7765C14.5694 23.7765 13.4565 23.7765 13.3553 23.4729Z" fill="#777878"/>
<path d="M13.2541 22.2588C13.8688 22.2588 14.3671 22.0776 14.3671 21.8541C14.3671 21.6306 13.8688 21.4494 13.2541 21.4494C12.6395 21.4494 12.1412 21.6306 12.1412 21.8541C12.1412 22.0776 12.6395 22.2588 13.2541 22.2588Z" fill="#DEDEDD"/>
<path d="M14.3671 21.8541C14.3671 21.6518 13.8612 21.4494 13.2541 21.4494C12.6471 21.4494 12.1412 21.6518 12.1412 21.8541C12.1412 21.8541 12.1412 21.8541 12.1412 21.9553C12.1412 21.7529 12.6471 21.6518 13.2541 21.6518C13.8612 21.5506 14.3671 21.6518 14.3671 21.8541Z" fill="#777878"/>
<path d="M13.2541 22.0565C13.7011 22.0565 14.0635 21.9659 14.0635 21.8541C14.0635 21.7424 13.7011 21.6518 13.2541 21.6518C12.8071 21.6518 12.4447 21.7424 12.4447 21.8541C12.4447 21.9659 12.8071 22.0565 13.2541 22.0565Z" fill="#A9A8A8"/>
<path d="M13.2541 21.9553C13.6453 21.9553 13.9624 21.91 13.9624 21.8541C13.9624 21.7982 13.6453 21.7529 13.2541 21.7529C12.863 21.7529 12.5459 21.7982 12.5459 21.8541C12.5459 21.91 12.863 21.9553 13.2541 21.9553Z" fill="#C3C4C4"/>
<path d="M12.1412 21.8541V22.5624C12.1412 22.5624 12.4447 22.8659 13.1529 22.8659C13.8612 22.8659 14.0635 22.7647 14.3671 22.5624V21.8541C14.3671 21.8541 14.0635 22.1577 13.2541 22.1577C12.3435 22.1577 12.1412 21.9553 12.1412 21.8541Z" fill="#DA151F"/>
<path d="M12.5459 22.2588V22.6635C12.5459 22.6635 12.9506 22.8659 13.2541 22.7647C13.5576 22.6635 13.6588 22.6635 13.9624 22.6635V22.2588C13.9624 22.2588 13.5576 22.36 13.1529 22.36C12.7482 22.36 12.5459 22.2588 12.5459 22.2588Z" fill="#5756A3"/>
<path d="M12.8494 22.5624C12.8494 22.5624 13.2541 22.2588 13.5576 22.5624L13.6588 22.4612V22.6635L13.5576 22.5624C13.5576 22.6635 13.1529 22.9671 12.8494 22.5624Z" fill="#DEDEDD"/>
<path d="M12.1412 22.5624C12.1412 22.5624 12.5459 22.8659 13.2541 22.8659C13.8612 22.8659 14.1647 22.6635 14.2659 22.5624C14.2659 22.5624 14.3671 22.6635 13.8612 22.8659C13.3553 22.9671 12.1412 22.8659 12.1412 22.5624Z" fill="#777878"/>
<path d="M21.6518 32.8824H14.5694V39.2565H21.6518V32.8824Z" fill="#F5B331"/>
<path d="M18.92 33.4894H15.3788V33.6918H18.92V33.4894Z" fill="black"/>
<path d="M17.8071 33.8941H15.3788V34.0965H17.8071V33.8941Z" fill="black"/>
<path d="M16.7953 34.2988H15.3788V34.5012H16.7953V34.2988Z" fill="black"/>
<path d="M18.6165 32.8824H18.0094V35.5129H18.6165V32.8824Z" fill="#CCCCCF"/>
<path d="M21.5506 35.2094H20.2353V35.7153H21.5506V35.2094Z" fill="#B12923"/>
<path d="M16.0871 37.4353H15.3788V38.1435H16.0871V37.4353Z" fill="black"/>
<path d="M16.8965 37.4353H16.2894V38.1435H16.8965V37.4353Z" fill="black"/>
<path d="M16.0871 38.1435H15.3788V38.8518H16.0871V38.1435Z" fill="black"/>
<path d="M16.8965 38.1435H16.2894V38.8518H16.8965V38.1435Z" fill="black"/>
<path d="M18.5153 38.2447H17.0988V38.4471H18.5153V38.2447Z" fill="black"/>
<path d="M20.7412 38.6494H17.0988V38.8518H20.7412V38.6494Z" fill="black"/>
<path d="M20.0329 36.7271H16.1882V40.1671H20.0329V36.7271Z" fill="#DB9F59"/>
<path d="M18.6165 37.0306H16.6941V37.1318H18.6165V37.0306Z" fill="black"/>
<path d="M18.0094 37.2329H16.6941V37.3341H18.0094V37.2329Z" fill="black"/>
<path d="M17.4024 37.4353H16.6941V37.5365H17.4024V37.4353Z" fill="black"/>
<path d="M18.4141 36.7271H18.1106V38.1435H18.4141V36.7271Z" fill="#CCCCCF"/>
<path d="M20.0329 37.9412H19.3247V38.2447H20.0329V37.9412Z" fill="#B12923"/>
<path d="M17.0988 39.1553H16.6941V39.56H17.0988V39.1553Z" fill="black"/>
<path d="M17.5035 39.1553H17.2V39.56H17.5035V39.1553Z" fill="black"/>
<path d="M17.0988 39.56H16.6941V39.9647H17.0988V39.56Z" fill="black"/>
<path d="M17.5035 39.56H17.2V39.9647H17.5035V39.56Z" fill="black"/>
<path d="M18.3129 39.6612H17.6047V39.7624H18.3129V39.6612Z" fill="black"/>
<path d="M19.5271 39.8635H17.6047V39.9647H19.5271V39.8635Z" fill="black"/>
<path d="M29.3412 31.0612H22.2588V37.4353H29.3412V31.0612Z" fill="#F5B331"/>
<path d="M26.6094 31.6682H23.0682V31.8706H26.6094V31.6682Z" fill="black"/>
<path d="M25.4965 31.9718H23.0682V32.1741H25.4965V31.9718Z" fill="black"/>
<path d="M24.4847 32.3765H23.0682V32.5788H24.4847V32.3765Z" fill="black"/>
<path d="M26.3059 31.0612H25.6988V33.6918H26.3059V31.0612Z" fill="#CCCCCF"/>
<path d="M29.24 33.3882H27.9247V33.8941H29.24V33.3882Z" fill="#B12923"/>
<path d="M23.7765 35.5129H23.0682V36.2212H23.7765V35.5129Z" fill="black"/>
<path d="M24.5859 35.5129H23.9788V36.2212H24.5859V35.5129Z" fill="black"/>
<path d="M23.7765 36.3224H23.0682V37.0306H23.7765V36.3224Z" fill="black"/>
<path d="M24.5859 36.3224H23.9788V37.0306H24.5859V36.3224Z" fill="black"/>
<path d="M26.2047 36.4235H24.7882V36.6259H26.2047V36.4235Z" fill="black"/>
<path d="M28.4306 36.7271H24.7882V36.9294H28.4306V36.7271Z" fill="black"/>
<path d="M28.2282 33.3882H21.1459V39.7624H28.2282V33.3882Z" fill="#DB9F59"/>
<path d="M25.4965 33.9953H21.9553V34.1976H25.4965V33.9953Z" fill="black"/>
<path d="M24.3835 34.4H21.9553V34.6024H24.3835V34.4Z" fill="black"/>
<path d="M23.3718 34.7035H21.9553V34.9059H23.3718V34.7035Z" fill="black"/>
<path d="M25.1929 33.3882H24.5859V36.0188H25.1929V33.3882Z" fill="#CCCCCF"/>
<path d="M28.1271 35.7153H26.8118V36.2212H28.1271V35.7153Z" fill="#B12923"/>
<path d="M22.6635 37.84H21.9553V38.5482H22.6635V37.84Z" fill="black"/>
<path d="M23.4729 37.84H22.8659V38.5482H23.4729V37.84Z" fill="black"/>
<path d="M22.6635 38.6494H21.9553V39.3577H22.6635V38.6494Z" fill="black"/>
<path d="M23.4729 38.6494H22.8659V39.3577H23.4729V38.6494Z" fill="black"/>
<path d="M25.1929 38.7506H23.7765V38.9529H25.1929V38.7506Z" fill="black"/>
<path d="M27.4188 39.1553H23.7765V39.3577H27.4188V39.1553Z" fill="black"/>
<path d="M8.6 13.3553L7.68941 13.5577L7.58823 13.76L8.6 13.5577V13.3553Z" fill="#1060A0"/>
<path d="M7.58823 13.76V13.5576H7.68941L7.58823 13.76Z" fill="#0C497A"/>
<path d="M7.58823 13.76L7.08235 14.3671L8.09412 14.6706L7.58823 13.76Z" fill="#D1CAB5"/>
<path d="M7.58823 13.76L8.6 13.5576L9.10588 14.4682L8.09412 14.6706L7.58823 13.76Z" fill="#F2EFDE"/>
<path d="M7.08235 14.3671V17.3012L8.09412 17.7059V14.6706L7.08235 14.3671Z" fill="#F0ECE0"/>
<path d="M8.09412 14.6706L9.10588 14.4682V17.5035L8.09412 17.7059V14.6706Z" fill="#E2E0CF"/>
<path d="M7.08235 16.0871L8.09412 16.3906V16.1882L7.08235 15.7835V16.0871Z" fill="#1060A0"/>
<path d="M7.08235 16.1882L8.09412 16.4918V17.7059L7.08235 17.3012V16.1882Z" fill="#1060A0"/>
<path d="M8.09412 16.1882L9.10588 15.9859V16.1882L8.09412 16.3906V16.1882Z" fill="#1060A0"/>
<path d="M8.09412 16.4918L9.10588 16.2894V17.5035L8.09412 17.7059V16.4918Z" fill="#1060A0"/>
<path d="M7.08235 14.3671L7.79059 14.0635L8.09412 14.6706L7.08235 14.3671Z" fill="#DAD2BC"/>
<path d="M10.2188 13.3553L9.20706 13.5577V13.76L10.1176 13.5577L10.2188 13.3553Z" fill="#1060A0"/>
<path d="M9.20706 13.76H9.10588V13.5576H9.20706V13.76Z" fill="#0C497A"/>
<path d="M9.10588 13.76L8.6 14.3671L9.71294 14.6706L9.20706 13.76H9.10588Z" fill="#D1CAB5"/>
<path d="M9.20706 13.76L10.2188 13.5576L10.6235 14.4682L9.71294 14.6706L9.20706 13.76Z" fill="#F2EFDE"/>
<path d="M8.6 14.3671V17.3012L9.61176 17.7059L9.71294 14.6706L8.6 14.3671Z" fill="#F0ECE0"/>
<path d="M9.71294 14.6706L10.6235 14.4682V17.5035L9.61176 17.7059L9.71294 14.6706Z" fill="#E2E0CF"/>
<path d="M8.6 16.0871L9.61176 16.3906V16.1882L8.6 15.7835V16.0871Z" fill="#1060A0"/>
<path d="M8.6 16.1882L9.61176 16.4918V17.7059L8.6 17.3012V16.1882Z" fill="#1060A0"/>
<path d="M9.61176 16.1882L10.6235 15.9859V16.1882L9.61176 16.3906V16.1882Z" fill="#1060A0"/>
<path d="M9.61176 16.4918L10.6235 16.2894V17.5035L9.61176 17.7059V16.4918Z" fill="#1060A0"/>
<path d="M8.6 14.3671L9.30823 14.0635L9.71294 14.6706L8.6 14.3671Z" fill="#DAD2BC"/>
<path d="M11.7365 13.3553L10.7247 13.5577V13.76L11.7365 13.5577V13.3553Z" fill="#1060A0"/>
<path d="M10.7247 13.76L10.2188 14.3671L11.2306 14.6706L10.7247 13.76Z" fill="#D1CAB5"/>
<path d="M10.7247 13.76L11.7365 13.5576L12.2424 14.4682L11.2306 14.6706L10.7247 13.76Z" fill="#F2EFDE"/>
<path d="M10.2188 14.3671V17.3012L11.2306 17.7059V14.6706L10.2188 14.3671Z" fill="#F0ECE0"/>
<path d="M11.2306 14.6706L12.2424 14.4682V17.5035L11.2306 17.7059V14.6706Z" fill="#E2E0CF"/>
<path d="M10.2188 16.0871L11.2306 16.3906V16.1882L10.2188 15.7835V16.0871Z" fill="#1060A0"/>
<path d="M10.2188 16.1882L11.2306 16.4918V17.7059L10.2188 17.3012V16.1882Z" fill="#1060A0"/>
<path d="M11.2306 16.1882L12.2424 15.9859V16.1882L11.2306 16.3906V16.1882Z" fill="#1060A0"/>
<path d="M11.2306 16.4918L12.2424 16.2894V17.5035L11.2306 17.7059V16.4918Z" fill="#1060A0"/>
<path d="M10.2188 14.3671L10.9271 14.0635L11.2306 14.6706L10.2188 14.3671Z" fill="#DAD2BC"/>
<path d="M13.2541 13.3553L12.2424 13.5577V13.76L13.2541 13.5577V13.3553Z" fill="#1060A0"/>
<path d="M12.2424 13.76V13.5576H12.3435L12.2424 13.76Z" fill="#0C497A"/>
<path d="M12.2424 13.76L11.7365 14.3671L12.7482 14.6706L12.2424 13.76Z" fill="#D1CAB5"/>
<path d="M12.2424 13.76L13.2541 13.5576L13.76 14.4682L12.7482 14.6706L12.2424 13.76Z" fill="#F2EFDE"/>
<path d="M11.7365 14.3671V17.3012L12.7482 17.7059V14.6706L11.7365 14.3671Z" fill="#F0ECE0"/>
<path d="M12.7482 14.6706L13.76 14.4682V17.5035L12.7482 17.7059V14.6706Z" fill="#E2E0CF"/>
<path d="M11.7365 16.0871L12.7482 16.3906V16.1882L11.7365 15.7835V16.0871Z" fill="#1060A0"/>
<path d="M11.7365 16.1882L12.7482 16.4918V17.7059L11.7365 17.3012V16.1882Z" fill="#1060A0"/>
<path d="M12.7482 16.1882L13.76 15.9859V16.1882L12.7482 16.3906V16.1882Z" fill="#1060A0"/>
<path d="M12.7482 16.4918L13.76 16.2894V17.5035L12.7482 17.7059V16.4918Z" fill="#1060A0"/>
<path d="M11.7365 14.3671L12.4447 14.0635L12.7482 14.6706L11.7365 14.3671Z" fill="#DAD2BC"/>
<path d="M14.8729 13.3553L13.8612 13.5577V13.76L14.7718 13.5577L14.8729 13.3553Z" fill="#1060A0"/>
<path d="M13.8612 13.76H13.76V13.5576H13.8612V13.76Z" fill="#0C497A"/>
<path d="M13.76 13.76L13.2541 14.3671L14.3671 14.6706L13.8612 13.76H13.76Z" fill="#D1CAB5"/>
<path d="M13.8612 13.76L14.8729 13.5576L15.2776 14.4682L14.3671 14.6706L13.8612 13.76Z" fill="#F2EFDE"/>
<path d="M13.2541 14.3671V17.3012L14.2659 17.7059L14.3671 14.6706L13.2541 14.3671Z" fill="#F0ECE0"/>
<path d="M14.3671 14.6706L15.2776 14.4682V17.5035L14.2659 17.7059L14.3671 14.6706Z" fill="#E2E0CF"/>
<path d="M13.2541 16.0871L14.2659 16.3906V16.1882L13.2541 15.7835V16.0871Z" fill="#1060A0"/>
<path d="M13.2541 16.1882L14.2659 16.4918V17.7059L13.2541 17.3012V16.1882Z" fill="#1060A0"/>
<path d="M14.2659 16.1882L15.2776 15.9859V16.1882L14.2659 16.3906V16.1882Z" fill="#1060A0"/>
<path d="M14.2659 16.4918L15.2776 16.2894V17.5035L14.2659 17.7059V16.4918Z" fill="#1060A0"/>
<path d="M13.2541 14.3671L13.9624 14.0635L14.3671 14.6706L13.2541 14.3671Z" fill="#DAD2BC"/>
<path d="M16.3906 13.3553L15.3788 13.5577V13.76L16.3906 13.5577V13.3553Z" fill="#1060A0"/>
<path d="M15.3788 13.76L14.8729 14.3671L15.8847 14.6706L15.3788 13.76Z" fill="#D1CAB5"/>
<path d="M15.3788 13.76L16.3906 13.5576L16.8965 14.4682L15.8847 14.6706L15.3788 13.76Z" fill="#F2EFDE"/>
<path d="M14.8729 14.3671V17.3012L15.8847 17.7059V14.6706L14.8729 14.3671Z" fill="#F0ECE0"/>
<path d="M15.8847 14.6706L16.8965 14.4682V17.5035L15.8847 17.7059V14.6706Z" fill="#E2E0CF"/>
<path d="M14.8729 16.0871L15.8847 16.3906V16.1882L14.8729 15.7835V16.0871Z" fill="#1060A0"/>
<path d="M14.8729 16.1882L15.8847 16.4918V17.7059L14.8729 17.3012V16.1882Z" fill="#1060A0"/>
<path d="M15.8847 16.1882L16.8965 15.9859V16.1882L15.8847 16.3906V16.1882Z" fill="#1060A0"/>
<path d="M15.8847 16.4918L16.8965 16.2894V17.5035L15.8847 17.7059V16.4918Z" fill="#1060A0"/>
<path d="M14.8729 14.3671L15.5812 14.0635L15.8847 14.6706L14.8729 14.3671Z" fill="#DAD2BC"/>
<path d="M17.7656 4.88916L17.5996 5.104C16.8525 4.50993 16.208 4.07373 15.666 3.79541V6.28076H15.3853V3.46582C14.9132 4.02897 14.2785 4.5734 13.481 5.09912L13.3052 4.86963C14.5324 4.13721 15.3657 3.27051 15.8052 2.26953H13.4053V2.00098H17.6558V2.26953H16.1104C15.9899 2.52832 15.8418 2.80013 15.666 3.08496V3.48535C16.5986 4.02572 17.2985 4.49365 17.7656 4.88916ZM22.4604 5.89502C22.4604 6.03011 22.4116 6.12451 22.314 6.17822C22.2179 6.23193 22.0007 6.25879 21.6621 6.25879C21.5856 6.25879 21.5116 6.25716 21.4399 6.25391L21.3594 5.98047C21.4831 5.99023 21.6035 5.99512 21.7207 5.99512C21.9583 5.99512 22.0967 5.98535 22.1357 5.96582C22.1748 5.94629 22.1943 5.91455 22.1943 5.87061V4.66455H20.7808V6.12939H20.5098V4.66455H19.084C19.0042 5.34977 18.8325 5.87467 18.5688 6.23926L18.3345 6.07568C18.6714 5.57764 18.8398 4.97705 18.8398 4.27393V1.979H22.4604V5.89502ZM22.1943 3.16064V2.25H20.7808V3.16064H22.1943ZM20.5098 3.16064V2.25H19.1108V3.16064H20.5098ZM22.1943 4.40576V3.43408H20.7808V4.40576H22.1943ZM20.5098 4.40576V3.43408H19.1108V4.40576H20.5098Z" fill="#E60012"/>
<path d="M26.5801 6.20703H26.3633V5.93555H23.6602V6.20703H23.4473V2.82812H26.5801V6.20703ZM26.3633 5.72461V3.03516H23.6602V5.72461H26.3633ZM26.1484 3.73242H25.1152V4.55664H25.7207V3.97656H25.9199V4.75977H25.1152V5.17969C25.1152 5.25521 25.1543 5.29297 25.2324 5.29297H25.7129C25.765 5.29297 25.8086 5.27604 25.8438 5.24219C25.8789 5.20703 25.8978 5.10872 25.9004 4.94727L26.1113 5.02734C26.11 5.33724 26.0052 5.49219 25.7969 5.49219H25.248C25.0215 5.49219 24.9082 5.38411 24.9082 5.16797V4.75977H24.1035V3.97656H24.3008V4.55664H24.9082V3.73242H23.8848V3.52344H24.9082V3.17578H25.1152V3.52344H26.1484V3.73242ZM28.5723 2.80859C28.4486 2.94922 28.2962 3.07943 28.1152 3.19922V3.87695H27.9121V3.33203C27.7207 3.43229 27.5365 3.51758 27.3594 3.58789L27.2402 3.4082C27.7702 3.20247 28.153 2.96354 28.3887 2.69141L28.5723 2.80859ZM30.6836 3.38477C30.6836 3.52279 30.6582 3.62956 30.6074 3.70508C30.5579 3.7793 30.4818 3.81836 30.3789 3.82227C30.2773 3.82617 30.1074 3.82812 29.8691 3.82812C29.36 3.82812 29.0775 3.82357 29.0215 3.81445C28.9655 3.80404 28.9186 3.77344 28.8809 3.72266C28.8431 3.67057 28.8242 3.61263 28.8242 3.54883V2.70703H29.0273V2.96484H30.3887V3.14453H29.0273V3.50391C29.0273 3.59375 29.0885 3.63802 29.2109 3.63672H30.3242C30.3893 3.63672 30.431 3.61263 30.4492 3.56445C30.4674 3.51497 30.4766 3.42969 30.4766 3.30859L30.6836 3.38477ZM30.1914 5.54492H28.5566L28.6797 5.66406C28.3737 5.8724 27.9434 6.05664 27.3887 6.2168L27.2598 6.02734C27.7702 5.89453 28.1745 5.73372 28.4727 5.54492H27.9121V4.03125H30.1914V5.54492ZM29.9844 4.47656V4.2207H28.123V4.47656H29.9844ZM29.9844 4.91211V4.65625H28.123V4.91211H29.9844ZM29.9844 5.35156V5.0957H28.123V5.35156H29.9844ZM30.7598 6.03125L30.6523 6.2207C30.3893 6.08398 30.013 5.95052 29.5234 5.82031L29.6484 5.63281C30.0469 5.73958 30.4173 5.8724 30.7598 6.03125Z" fill="black"/>
<path d="M21.5508 8C12.9115 8 6 14.8889 6 23.5C6 32.1111 12.9115 39 21.4492 39C29.9869 39 37 32.0098 37 23.5C37 14.9902 30.0885 8 21.5508 8ZM21.5508 10.5327C25.2098 10.5327 28.4623 12.0523 30.8 14.4837L9.96393 28.9706C9.15082 27.2484 8.64262 25.4248 8.64262 23.3987C8.64262 16.3072 14.4361 10.5327 21.5508 10.5327ZM21.5508 36.366C17.6885 36.366 14.2328 34.6438 11.8951 32.0098L32.9344 17.4216C33.8492 19.2451 34.459 21.2712 34.459 23.5C34.459 30.5915 28.6656 36.366 21.5508 36.366Z" fill="#E60012"/>
</svg>
